<svg xmlns="http://www.w3.org/2000/svg" xmlns:xlink="http://www.w3.org/1999/xlink" contentStyleType="text/css" data-diagram-type="STATE" height="1094px" preserveAspectRatio="none" style="width:1742px;height:1094px;background:#FFFFFF;" version="1.1" viewBox="0 0 1742 1094" width="1742px" zoomAndPan="magnify"><?plantuml 1.2026.4?><defs/><g><g class="title" data-source-line="4"><text fill="#000000" font-family="Verdana" font-size="22" font-weight="700" lengthAdjust="spacing" textLength="364.4717" x="687.8652" y="35.4209">Debug Control State Machine</text></g><!--cluster launch--><g class="cluster" data-qualified-name="launch" data-source-line="8" id="ent0001"><path d="M879.06,335.4894 L1444.06,335.4894 A12.5,12.5 0 0 1 1456.56,347.9894 L1456.56,354.4581 L866.56,354.4581 L866.56,347.9894 A12.5,12.5 0 0 1 879.06,335.4894" fill="#FFFFFF"/><path d="M866.56,354.4581 L1456.56,354.4581 L1456.56,729.7994 A12.5,12.5 0 0 1 1444.06,742.2994 L879.06,742.2994 A12.5,12.5 0 0 1 866.56,729.7994 L866.56,354.4581" fill="#FFFFFF"/><rect fill="none" height="406.81" rx="12.5" ry="12.5" style="stroke:#000000;stroke-width:1;" width="590" x="866.56" y="335.4894"/><line style="stroke:#000000;stroke-width:1;" x1="866.56" x2="1456.56" y1="354.4581" y2="354.4581"/><text fill="#000000" font-family="Verdana" font-size="12" lengthAdjust="spacing" textLength="79.0313" x="1122.0444" y="350.628">Launch State</text></g><!--cluster debug--><g class="cluster" data-qualified-name="debug" data-source-line="27" id="ent0005"><path d="M909.06,806.2994 L1351.06,806.2994 A12.5,12.5 0 0 1 1363.56,818.7994 L1363.56,825.2681 L896.56,825.2681 L896.56,818.7994 A12.5,12.5 0 0 1 909.06,806.2994" fill="#FFFFFF"/><path d="M896.56,825.2681 L1363.56,825.2681 L1363.56,1066.7994 A12.5,12.5 0 0 1 1351.06,1079.2994 L909.06,1079.2994 A12.5,12.5 0 0 1 896.56,1066.7994 L896.56,825.2681" fill="#FFFFFF"/><rect fill="none" height="273" rx="12.5" ry="12.5" style="stroke:#000000;stroke-width:1;" width="467" x="896.56" y="806.2994"/><line style="stroke:#000000;stroke-width:1;" x1="896.56" x2="1363.56" y1="825.2681" y2="825.2681"/><text fill="#000000" font-family="Verdana" font-size="12" lengthAdjust="spacing" textLength="75.9727" x="1092.0737" y="821.438">Debug Mode</text></g><!--cluster reload--><g class="cluster" data-qualified-name="reload" data-source-line="68" id="ent0013"><path d="M1623.06,806.2994 L1710.06,806.2994 A12.5,12.5 0 0 1 1722.56,818.7994 L1722.56,825.2681 L1610.56,825.2681 L1610.56,818.7994 A12.5,12.5 0 0 1 1623.06,806.2994" fill="#FFFFFF"/><path d="M1610.56,825.2681 L1722.56,825.2681 L1722.56,907.7994 A12.5,12.5 0 0 1 1710.06,920.2994 L1623.06,920.2994 A12.5,12.5 0 0 1 1610.56,907.7994 L1610.56,825.2681" fill="#FFFFFF"/><rect fill="none" height="114" rx="12.5" ry="12.5" style="stroke:#000000;stroke-width:1;" width="112" x="1610.56" y="806.2994"/><line style="stroke:#000000;stroke-width:1;" x1="1610.56" x2="1722.56" y1="825.2681" y2="825.2681"/><text fill="#000000" font-family="Verdana" font-size="12" lengthAdjust="spacing" textLength="41.3672" x="1645.8764" y="821.438">Reload</text></g><g class="entity" data-qualified-name="launch.AwaitingConfig" data-source-line="9" id="ent0002"><rect fill="#FFFFFF" height="61.9063" rx="12.5" ry="12.5" style="stroke:#000000;stroke-width:1;" width="214.5078" x="995.3" y="383.4894"/><line style="stroke:#000000;stroke-width:1;" x1="995.3" x2="1209.8078" y1="407.4581" y2="407.4581"/><text fill="#000000" font-family="Verdana" font-size="12" lengthAdjust="spacing" textLength="90.4746" x="1057.3166" y="399.628">AwaitingConfig</text><text fill="#000000" font-family="Verdana" font-size="12" lengthAdjust="spacing" textLength="194.5078" x="1000.3" y="423.5968">pending: Option&lt;PendingStart&gt;</text><text fill="#000000" font-family="Verdana" font-size="12" lengthAdjust="spacing" textLength="107.6895" x="1000.3" y="437.5655">(launch or attach)</text></g><g class="entity" data-qualified-name="launch.Configured" data-source-line="13" id="ent0003"><rect fill="#FFFFFF" height="50" rx="12.5" ry="12.5" style="stroke:#000000;stroke-width:1;" width="86.041" x="1066.54" y="676.2994"/><line style="stroke:#000000;stroke-width:1;" x1="1066.54" x2="1152.581" y1="700.2681" y2="700.2681"/><text fill="#000000" font-family="Verdana" font-size="12" lengthAdjust="spacing" textLength="66.041" x="1076.54" y="692.438">Configured</text></g><g class="entity" data-qualified-name="launch.PostLaunch" data-source-line="15" id="ent0004"><rect fill="#FFFFFF" height="61.9063" rx="12.5" ry="12.5" style="stroke:#000000;stroke-width:1;" width="174.7168" x="1266.2" y="537.3894"/><line style="stroke:#000000;stroke-width:1;" x1="1266.2" x2="1440.9168" y1="561.3581" y2="561.3581"/><text fill="#000000" font-family="Verdana" font-size="12" lengthAdjust="spacing" textLength="68.9883" x="1319.0643" y="553.528">PostLaunch</text><text fill="#000000" font-family="Verdana" font-size="12" lengthAdjust="spacing" textLength="116.9121" x="1271.2" y="577.4968">pause_after_launch</text><text fill="#000000" font-family="Verdana" font-size="12" lengthAdjust="spacing" textLength="154.7168" x="1271.2" y="591.4655">start_runner_after_launch</text></g><g class="entity" data-qualified-name="debug.Running" data-source-line="28" id="ent0006"><rect fill="#FFFFFF" height="50" rx="12.5" ry="12.5" style="stroke:#000000;stroke-width:1;" width="69.7109" x="1083.7" y="854.2994"/><line style="stroke:#000000;stroke-width:1;" x1="1083.7" x2="1153.4109" y1="878.2681" y2="878.2681"/><text fill="#000000" font-family="Verdana" font-size="12" lengthAdjust="spacing" textLength="49.7109" x="1093.7" y="870.438">Running</text></g><g class="entity" data-qualified-name="debug.Paused" data-source-line="29" id="ent0007"><rect fill="#FFFFFF" height="50" rx="12.5" ry="12.5" style="stroke:#000000;stroke-width:1;" width="63.4473" x="1163.83" y="1013.2994"/><line style="stroke:#000000;stroke-width:1;" x1="1163.83" x2="1227.2773" y1="1037.2681" y2="1037.2681"/><text fill="#000000" font-family="Verdana" font-size="12" lengthAdjust="spacing" textLength="43.4473" x="1173.83" y="1029.438">Paused</text></g><g class="entity" data-qualified-name="reload.Reloading" data-source-line="69" id="ent0014"><rect fill="#FFFFFF" height="50" rx="12.5" ry="12.5" style="stroke:#000000;stroke-width:1;" width="79.9238" x="1626.6" y="854.2994"/><line style="stroke:#000000;stroke-width:1;" x1="1626.6" x2="1706.5238" y1="878.2681" y2="878.2681"/><text fill="#000000" font-family="Verdana" font-size="12" lengthAdjust="spacing" textLength="59.9238" x="1636.6" y="870.438">Reloading</text></g><g class="entity" data-qualified-name="step" data-source-line="37" id="ent0008"><path d="M24.5,58.6094 L834.6171,58.6094 A12.5,12.5 0 0 1 847.1171,71.1094 L847.1171,82.5781 L12,82.5781 L12,71.1094 A12.5,12.5 0 0 1 24.5,58.6094" fill="#FFFFFF"/><path d="M12,82.5781 L847.1171,82.5781 L847.1171,259.9844 A12.5,12.5 0 0 1 834.6171,272.4844 L24.5,272.4844 A12.5,12.5 0 0 1 12,259.9844 L12,82.5781" fill="#FFFFFF"/><rect fill="none" height="213.875" rx="12.5" ry="12.5" style="stroke:#000000;stroke-width:1;" width="835.1171" x="12" y="58.6094"/><line style="stroke:#000000;stroke-width:1;" x1="12" x2="847.1171" y1="82.5781" y2="82.5781"/><text fill="#000000" font-family="Verdana" font-size="12" lengthAdjust="spacing" textLength="62.9004" x="398.1083" y="74.748">Step State</text><g class="entity" data-qualified-name="step.Idle" data-source-line="38" id="ent0009"><rect fill="#FFFFFF" height="50" rx="12.5" ry="12.5" style="stroke:#000000;stroke-width:1;" width="50" x="362.18" y="94.5781"/><line style="stroke:#000000;stroke-width:1;" x1="362.18" x2="412.18" y1="118.5469" y2="118.5469"/><text fill="#000000" font-family="Verdana" font-size="12" lengthAdjust="spacing" textLength="21.873" x="376.2435" y="110.7168">Idle</text></g><g class="entity" data-qualified-name="step.StepInto" data-source-line="39" id="ent0010"><rect fill="#FFFFFF" height="61.9063" rx="12.5" ry="12.5" style="stroke:#000000;stroke-width:1;" width="159.0723" x="62.64" y="197.5781"/><line style="stroke:#000000;stroke-width:1;" x1="62.64" x2="221.7123" y1="221.5469" y2="221.5469"/><text fill="#000000" font-family="Verdana" font-size="12" lengthAdjust="spacing" textLength="50.5137" x="116.9193" y="213.7168">StepInto</text><text fill="#000000" font-family="Verdana" font-size="12" lengthAdjust="spacing" textLength="139.0723" x="67.64" y="237.6855">target_depth = current</text><text fill="#000000" font-family="Verdana" font-size="12" lengthAdjust="spacing" textLength="101.7539" x="67.64" y="251.6543">(next statement)</text></g><g class="entity" data-qualified-name="step.StepOver" data-source-line="42" id="ent0011"><rect fill="#FFFFFF" height="50" rx="12.5" ry="12.5" style="stroke:#000000;stroke-width:1;" width="159.0723" x="288.64" y="203.5381"/><line style="stroke:#000000;stroke-width:1;" x1="288.64" x2="447.7123" y1="227.5069" y2="227.5069"/><text fill="#000000" font-family="Verdana" font-size="12" lengthAdjust="spacing" textLength="56.1855" x="340.0834" y="219.6768">StepOver</text><text fill="#000000" font-family="Verdana" font-size="12" lengthAdjust="spacing" textLength="139.0723" x="293.64" y="243.6455">target_depth = current</text></g><g class="entity" data-qualified-name="step.StepOut" data-source-line="45" id="ent0012"><rect fill="#FFFFFF" height="50" rx="12.5" ry="12.5" style="stroke:#000000;stroke-width:1;" width="178.666" x="572.85" y="203.5381"/><line style="stroke:#000000;stroke-width:1;" x1="572.85" x2="751.516" y1="227.5069" y2="227.5069"/><text fill="#000000" font-family="Verdana" font-size="12" lengthAdjust="spacing" textLength="49.0781" x="637.6439" y="219.6768">StepOut</text><text fill="#000000" font-family="Verdana" font-size="12" lengthAdjust="spacing" textLength="158.666" x="577.85" y="243.6455">target_depth = current - 1</text></g><!--link Idle to StepInto--><g class="link" data-entity-1="ent0009" data-entity-2="ent0010" data-link-type="dependency" data-source-line="49" id="lnk26"><path d="M361.7,121.7281 C284.9,125.4581 59.64,138.3781 38.18,162.5781 C23,179.6981 34.3479,191.8297 57.9179,202.5397" fill="none" id="Idle-to-StepInto" style="stroke:#000000;stroke-width:1;"/><polygon fill="#000000" points="62.47,204.6081,55.931,197.2433,57.9179,202.5397,52.6215,204.5266,62.47,204.6081" style="stroke:#000000;stroke-width:1;stroke-linejoin:miter;stroke-miterlimit:10;"/><text fill="#000000" font-family="Verdana" font-size="13" lengthAdjust="spacing" textLength="136.208" x="39.18" y="175.645">stepIn (from Paused)</text></g><!--link Idle to StepOver--><g class="link" data-entity-1="ent0009" data-entity-2="ent0011" data-link-type="dependency" data-source-line="50" id="lnk27"><path d="M361.78,127.6281 C344.74,133.8281 323.59,144.7081 313.18,162.5781 C304.7,177.1381 310.8637,188.3777 324.5437,199.9577" fill="none" id="Idle-to-StepOver" style="stroke:#000000;stroke-width:1;"/><polygon fill="#000000" points="328.36,203.1881,324.075,194.3203,324.5437,199.9577,318.9063,200.4263,328.36,203.1881" style="stroke:#000000;stroke-width:1;stroke-linejoin:miter;stroke-miterlimit:10;"/><text fill="#000000" font-family="Verdana" font-size="13" lengthAdjust="spacing" textLength="125.0425" x="314.18" y="175.645">next (from Paused)</text></g><!--link Idle to StepOut--><g class="link" data-entity-1="ent0009" data-entity-2="ent0012" data-link-type="dependency" data-source-line="51" id="lnk28"><path d="M412.56,125.9081 C443,132.6981 495.3,145.6081 538.18,162.5781 C566.77,173.8981 593.0211,187.4387 616.6711,200.7287" fill="none" id="Idle-to-StepOut" style="stroke:#000000;stroke-width:1;"/><polygon fill="#000000" points="621.03,203.1781,615.1435,195.282,616.6711,200.7287,611.2244,202.2562,621.03,203.1781" style="stroke:#000000;stroke-width:1;stroke-linejoin:miter;stroke-miterlimit:10;"/><text fill="#000000" font-family="Verdana" font-size="13" lengthAdjust="spacing" textLength="147.7036" x="574.29" y="175.645">stepOut (from Paused)</text></g><!--link StepInto to Idle--><g class="link" data-entity-1="ent0010" data-entity-2="ent0009" data-link-type="dependency" data-source-line="52" id="lnk29"><path d="M169.52,197.3781 C182.28,184.9481 198.36,171.4081 215.18,162.5781 C263.36,137.2981 322.1729,127.471 356.9429,123.461" fill="none" id="StepInto-to-Idle" style="stroke:#000000;stroke-width:1;"/><polygon fill="#000000" points="361.91,122.8881,352.511,119.9456,356.9429,123.461,353.4275,127.8929,361.91,122.8881" style="stroke:#000000;stroke-width:1;stroke-linejoin:miter;stroke-miterlimit:10;"/><text fill="#000000" font-family="Verdana" font-size="13" lengthAdjust="spacing" textLength="89.9971" x="216.18" y="175.645">condition met</text></g><!--link StepOver to Idle--><g class="link" data-entity-1="ent0011" data-entity-2="ent0009" data-link-type="dependency" data-source-line="53" id="lnk30"><path d="M419.12,203.0581 C427.59,196.6381 435.22,188.8481 440.18,179.5781 C449.8,161.6181 434.8327,147.3376 416.9127,136.2576" fill="none" id="StepOver-to-Idle" style="stroke:#000000;stroke-width:1;"/><polygon fill="#000000" points="412.66,133.6281,418.2113,141.7634,416.9127,136.2576,422.4185,134.959,412.66,133.6281" style="stroke:#000000;stroke-width:1;stroke-linejoin:miter;stroke-miterlimit:10;"/><text fill="#000000" font-family="Verdana" font-size="13" lengthAdjust="spacing" textLength="89.9971" x="443.74" y="175.645">condition met</text></g><!--link StepOut to Idle--><g class="link" data-entity-1="ent0012" data-entity-2="ent0009" data-link-type="dependency" data-source-line="54" id="lnk31"><path d="M709.14,203.1581 C726.13,191.2181 738.45,176.4581 726.18,162.5781 C705.42,139.0881 492.5632,126.0094 417.4632,122.0794" fill="none" id="StepOut-to-Idle" style="stroke:#000000;stroke-width:1;"/><polygon fill="#000000" points="412.47,121.8181,421.2487,126.283,417.4632,122.0794,421.6667,118.2939,412.47,121.8181" style="stroke:#000000;stroke-width:1;stroke-linejoin:miter;stroke-miterlimit:10;"/><text fill="#000000" font-family="Verdana" font-size="13" lengthAdjust="spacing" textLength="89.9971" x="732.12" y="175.645">condition met</text></g></g><g class="start_entity" data-qualified-name=".start." data-source-line="6" id="ent0015"><ellipse cx="1102.56" cy="165.5494" fill="#FFFFFF" rx="10" ry="10" style="stroke:#000000;stroke-width:1;"/></g><g class="end_entity" data-qualified-name=".end." data-source-line="66" id="ent0036"><ellipse cx="835.56" cy="1038.2994" fill="none" rx="11" ry="11" style="stroke:#000000;stroke-width:1;"/><ellipse cx="835.56" cy="1038.2994" fill="#FFFFFF" rx="6" ry="6" style="stroke:#000000;stroke-width:1;"/></g><g class="entity" data-qualified-name="GMN42" data-source-line="58" id="ent0043"><path d="M881.81,145.4194 L881.81,161.5494 L847.48,165.5494 L881.81,169.5494 L881.81,185.685 A0,0 0 0 0 881.81,185.685 L1057.3056,185.685 A0,0 0 0 0 1057.3056,185.685 L1057.3056,155.4194 L1047.3056,145.4194 L881.81,145.4194 A0,0 0 0 0 881.81,145.4194" fill="#FFFFFF" style="stroke:#000000;stroke-width:1;"/><path d="M1047.3056,145.4194 L1047.3056,155.4194 L1057.3056,155.4194 L1047.3056,145.4194" fill="#FFFFFF" style="stroke:#000000;stroke-width:1;"/><text fill="#000000" font-family="Verdana" font-size="13" lengthAdjust="spacing" textLength="154.4956" x="887.81" y="162.4863">Step state is per-thread</text><text fill="#000000" font-family="Verdana" font-size="13" lengthAdjust="spacing" textLength="150.376" x="887.81" y="177.6191">(multi-resource ready).</text></g><!--link *start* to AwaitingConfig--><g class="link" data-entity-1="ent0015" data-entity-2="ent0002" data-link-type="dependency" data-source-line="6" id="lnk16"><path d="M1102.56,175.9294 C1102.56,209.8394 1102.56,322.0494 1102.56,378.1094" fill="none" id="*start*-to-AwaitingConfig" style="stroke:#000000;stroke-width:1;"/><polygon fill="#000000" points="1102.56,383.1094,1106.56,374.1094,1102.56,378.1094,1098.56,374.1094,1102.56,383.1094" style="stroke:#000000;stroke-width:1;stroke-linejoin:miter;stroke-miterlimit:10;"/><text fill="#000000" font-family="Verdana" font-size="13" lengthAdjust="spacing" textLength="104.8125" x="1103.56" y="315.5563">adapter created</text></g><!--link AwaitingConfig to Configured--><g class="link" data-entity-1="ent0002" data-entity-2="ent0003" data-link-type="dependency" data-source-line="20" id="lnk17"><path d="M1043.73,445.8094 C985.83,480.0294 910.66,538.8094 944.56,599.2994 C970.34,645.2994 1021.8521,671.1576 1061.4821,685.5976" fill="none" id="AwaitingConfig-to-Configured" style="stroke:#000000;stroke-width:1;"/><polygon fill="#000000" points="1066.18,687.3094,1059.0933,680.4699,1061.4821,685.5976,1056.3544,687.9865,1066.18,687.3094" style="stroke:#000000;stroke-width:1;stroke-linejoin:miter;stroke-miterlimit:10;"/><text fill="#000000" font-family="Verdana" font-size="13" lengthAdjust="spacing" textLength="120.4341" x="945.56" y="565.4163">configurationDone</text><text fill="#000000" font-family="Verdana" font-size="13" lengthAdjust="spacing" textLength="83.313" x="964.1205" y="580.5491">(no pending)</text></g><!--link AwaitingConfig to Configured--><g class="link" data-entity-1="ent0002" data-entity-2="ent0003" data-link-type="dependency" data-source-line="22" id="lnk19"><path d="M1103.3,445.6594 C1104.7,502.4994 1107.5675,619.2909 1108.8375,671.1309" fill="none" id="AwaitingConfig-to-Configured-1" style="stroke:#000000;stroke-width:1;"/><polygon fill="#000000" points="1108.96,676.1294,1112.7384,667.0341,1108.8375,671.1309,1104.7408,667.23,1108.96,676.1294" style="stroke:#000000;stroke-width:1;stroke-linejoin:miter;stroke-miterlimit:10;"/><text fill="#000000" font-family="Verdana" font-size="13" lengthAdjust="spacing" textLength="120.4341" x="1107.98" y="565.4163">configurationDone</text><text fill="#000000" font-family="Verdana" font-size="13" lengthAdjust="spacing" textLength="108.6338" x="1113.8801" y="580.5491">(pending attach)</text></g><!--link AwaitingConfig to PostLaunch--><g class="link" data-entity-1="ent0002" data-entity-2="ent0004" data-link-type="dependency" data-source-line="21" id="lnk18"><path d="M1152.75,445.8194 C1196.53,472.3094 1255.4218,507.9615 1299.1818,534.4315" fill="none" id="AwaitingConfig-to-PostLaunch" style="stroke:#000000;stroke-width:1;"/><polygon fill="#000000" points="1303.46,537.0194,1297.8295,528.9387,1299.1818,534.4315,1293.689,535.7838,1303.46,537.0194" style="stroke:#000000;stroke-width:1;stroke-linejoin:miter;stroke-miterlimit:10;"/><text fill="#000000" font-family="Verdana" font-size="13" lengthAdjust="spacing" textLength="120.4341" x="1251.54" y="488.4563">configurationDone</text><text fill="#000000" font-family="Verdana" font-size="13" lengthAdjust="spacing" textLength="110.5635" x="1256.4753" y="503.5891">(pending launch)</text></g><!--link AwaitingConfig to AwaitingConfig--><g class="link" data-entity-1="ent0002" data-entity-2="ent0002" data-link-type="dependency" data-source-line="23" id="lnk20"><path d="M1210.19,400.7294 C1230.49,402.3894 1244.81,406.9594 1244.81,414.4394 C1244.81,421.9194 1235.4734,426.0819 1215.1734,427.7419" fill="none" id="AwaitingConfig-to-AwaitingConfig" style="stroke:#000000;stroke-width:1;"/><polygon fill="#000000" points="1210.19,428.1494,1219.4861,431.4026,1215.1734,427.7419,1218.8341,423.4292,1210.19,428.1494" style="stroke:#000000;stroke-width:1;stroke-linejoin:miter;stroke-miterlimit:10;"/><text fill="#000000" font-family="Verdana" font-size="13" lengthAdjust="spacing" textLength="94.9038" x="1304.2636" y="411.5063">attachRequest</text><text fill="#000000" font-family="Verdana" font-size="13" lengthAdjust="spacing" textLength="201.811" x="1250.81" y="426.6391">(defer until configurationDone)</text></g><!--link PostLaunch to Configured--><g class="link" data-entity-1="ent0004" data-entity-2="ent0003" data-link-type="dependency" data-source-line="24" id="lnk21"><path d="M1296.97,599.7194 C1253.04,623.2894 1197.4658,653.1252 1157.3058,674.6752" fill="none" id="PostLaunch-to-Configured" style="stroke:#000000;stroke-width:1;"/><polygon fill="#000000" points="1152.9,677.0394,1162.7217,676.3085,1157.3058,674.6752,1158.9391,669.2593,1152.9,677.0394" style="stroke:#000000;stroke-width:1;stroke-linejoin:miter;stroke-miterlimit:10;"/><text fill="#000000" font-family="Verdana" font-size="13" lengthAdjust="spacing" textLength="100.585" x="1239.87" y="642.3663">actions drained</text></g><!--link Running to Paused--><g class="link" data-entity-1="ent0006" data-entity-2="ent0007" data-link-type="dependency" data-source-line="31" id="lnk22"><path d="M1083.24,880.2694 C1042.25,882.3694 976.24,892.8294 944.56,936.2994 C932.26,953.1794 931.43,967.0494 944.56,983.2994 C971.8,1017.0194 1097.5442,1030.2933 1158.7942,1034.9133" fill="none" id="Running-to-Paused" style="stroke:#000000;stroke-width:1;"/><polygon fill="#000000" points="1163.78,1035.2894,1155.1064,1030.6238,1158.7942,1034.9133,1154.5046,1038.6011,1163.78,1035.2894" style="stroke:#000000;stroke-width:1;stroke-linejoin:miter;stroke-miterlimit:10;"/><text fill="#000000" font-family="Verdana" font-size="13" lengthAdjust="spacing" textLength="91.3237" x="964.7902" y="949.3663">breakpoint hit</text><text fill="#000000" font-family="Verdana" font-size="13" lengthAdjust="spacing" textLength="93.063" x="963.9206" y="964.4991">pause request</text><text fill="#000000" font-family="Verdana" font-size="13" lengthAdjust="spacing" textLength="129.7842" x="945.56" y="979.6319">stopOnEntry (entry)</text></g><!--link Paused to Running--><g class="link" data-entity-1="ent0007" data-entity-2="ent0006" data-link-type="dependency" data-source-line="32" id="lnk23"><path d="M1163.52,1024.7094 C1145.94,1015.9494 1125.7,1002.3894 1115.56,983.2994 C1102.63,958.9694 1105.225,931.5135 1110.235,909.6135" fill="none" id="Paused-to-Running" style="stroke:#000000;stroke-width:1;"/><polygon fill="#000000" points="1111.35,904.7394,1105.4437,912.6207,1110.235,909.6135,1113.2422,914.4048,1111.35,904.7394" style="stroke:#000000;stroke-width:1;stroke-linejoin:miter;stroke-miterlimit:10;"/><text fill="#000000" font-family="Verdana" font-size="13" lengthAdjust="spacing" textLength="56.5259" x="1116.56" y="964.3663">continue</text></g><!--link Paused to Running--><g class="link" data-entity-1="ent0007" data-entity-2="ent0006" data-link-type="dependency" data-source-line="34" id="lnk25"><path d="M1195.44,1013.0594 C1194.38,991.6794 1190.48,960.2894 1177.56,936.2994 C1171.13,924.3594 1164.9414,916.8498 1155.0714,907.9398" fill="none" id="Paused-to-Running-1" style="stroke:#000000;stroke-width:1;"/><polygon fill="#000000" points="1151.36,904.5894,1155.3602,913.5893,1155.0714,907.9398,1160.7209,907.651,1151.36,904.5894" style="stroke:#000000;stroke-width:1;stroke-linejoin:miter;stroke-miterlimit:10;"/><text fill="#000000" font-family="Verdana" font-size="13" lengthAdjust="spacing" textLength="129.6699" x="1192.99" y="956.8663">stepIn/next/stepOut</text><text fill="#000000" font-family="Verdana" font-size="13" lengthAdjust="spacing" textLength="99.3281" x="1208.1609" y="971.9991">(step state set)</text></g><!--link Paused to Paused--><g class="link" data-entity-1="ent0007" data-entity-2="ent0007" data-link-type="dependency" data-source-line="33" id="lnk24"><path d="M1227.48,1024.3394 C1245.55,1021.6094 1262.28,1026.2594 1262.28,1038.2994 C1262.28,1050.3394 1250.4939,1055.7363 1232.4239,1053.0063" fill="none" id="Paused-to-Paused" style="stroke:#000000;stroke-width:1;"/><polygon fill="#000000" points="1227.48,1052.2594,1235.7815,1057.5589,1232.4239,1053.0063,1236.9765,1049.6487,1227.48,1052.2594" style="stroke:#000000;stroke-width:1;stroke-linejoin:miter;stroke-miterlimit:10;"/><text fill="#000000" font-family="Verdana" font-size="13" lengthAdjust="spacing" textLength="90.5938" x="1268.28" y="1042.8663">pause (no-op)</text></g><!--link Configured to Running--><g class="link" data-entity-1="ent0003" data-entity-2="ent0006" data-link-type="dependency" data-source-line="62" id="lnk32"><path d="M1066.27,704.6894 C996.53,709.5294 864.19,723.2294 835.56,758.2994 C765.79,843.7694 988.3138,869.0876 1078.4338,875.8076" fill="none" id="Configured-to-Running" style="stroke:#000000;stroke-width:1;"/><polygon fill="#000000" points="1083.42,876.1794,1074.7424,871.5212,1078.4338,875.8076,1074.1475,879.4991,1083.42,876.1794" style="stroke:#000000;stroke-width:1;stroke-linejoin:miter;stroke-miterlimit:10;"/><text fill="#000000" font-family="Verdana" font-size="13" lengthAdjust="spacing" textLength="90.3271" x="869.9582" y="771.3663">start_runner()</text><text fill="#000000" font-family="Verdana" font-size="13" lengthAdjust="spacing" textLength="157.1235" x="836.56" y="786.4991">(no pause_after_launch)</text></g><!--link Configured to Running--><g class="link" data-entity-1="ent0003" data-entity-2="ent0006" data-link-type="dependency" data-source-line="64" id="lnk34"><path d="M1066.09,724.5094 C1053.59,733.2294 1041.48,744.4994 1034.56,758.2994 C1028.18,771.0094 1029.27,777.0994 1034.56,790.2994 C1044.77,815.7894 1062.4486,834.855 1081.1386,850.625" fill="none" id="Configured-to-Running-1" style="stroke:#000000;stroke-width:1;"/><polygon fill="#000000" points="1084.96,853.8494,1080.6609,844.9883,1081.1386,850.625,1075.5019,851.1026,1084.96,853.8494" style="stroke:#000000;stroke-width:1;stroke-linejoin:miter;stroke-miterlimit:10;"/><text fill="#000000" font-family="Verdana" font-size="13" lengthAdjust="spacing" textLength="161.2813" x="1035.56" y="778.8663">attach (runtime running)</text></g><!--link Configured to Paused--><g class="link" data-entity-1="ent0003" data-entity-2="ent0007" data-link-type="dependency" data-source-line="63" id="lnk33"><path d="M1153.01,720.2194 C1170.33,729.3194 1189.07,741.9494 1201.56,758.2994 C1249.29,820.7894 1190.16,877.9494 1250.56,928.2994 C1264.28,939.7394 1318.57,923.0494 1330.56,936.2994 C1344.58,951.7894 1342.27,965.9994 1330.56,983.2994 C1307.63,1017.1594 1264.6072,1029.0644 1232.4672,1033.7744" fill="none" id="Configured-to-Paused" style="stroke:#000000;stroke-width:1;"/><polygon fill="#000000" points="1227.52,1034.4994,1237.0049,1037.1521,1232.4672,1033.7744,1235.8449,1029.2367,1227.52,1034.4994" style="stroke:#000000;stroke-width:1;stroke-linejoin:miter;stroke-miterlimit:10;"/><text fill="#000000" font-family="Verdana" font-size="13" lengthAdjust="spacing" textLength="90.3271" x="1274.7956" y="876.3663">start_runner()</text><text fill="#000000" font-family="Verdana" font-size="13" lengthAdjust="spacing" textLength="136.7983" x="1251.56" y="891.4991">(pause_after_launch)</text></g><!--link Configured to Paused--><g class="link" data-entity-1="ent0003" data-entity-2="ent0007" data-link-type="dependency" data-source-line="65" id="lnk35"><path d="M1152.98,703.8394 C1228.12,707.5194 1377.44,719.6294 1409.56,758.2994 C1474.89,836.9594 1440.68,918.5294 1361.56,983.2994 C1322.4,1015.3594 1268.6367,1027.8415 1232.5467,1033.1515" fill="none" id="Configured-to-Paused-1" style="stroke:#000000;stroke-width:1;"/><polygon fill="#000000" points="1227.6,1033.8794,1237.0864,1036.5267,1232.5467,1033.1515,1235.9219,1028.6119,1227.6,1033.8794" style="stroke:#000000;stroke-width:1;stroke-linejoin:miter;stroke-miterlimit:10;"/><text fill="#000000" font-family="Verdana" font-size="13" lengthAdjust="spacing" textLength="158.5962" x="1444.97" y="876.3663">attach (runtime paused)</text><text fill="#000000" font-family="Verdana" font-size="13" lengthAdjust="spacing" textLength="103.8794" x="1472.3284" y="891.4991">(stopped event)</text></g><!--link Running to *end*--><g class="link" data-entity-1="ent0006" data-entity-2="ent0036" data-link-type="dependency" data-source-line="66" id="lnk37"><path d="M1083.7,882.9694 C1019.47,888.6294 886.08,904.0494 854.56,936.2994 C830.24,961.1794 831.414,1001.7882 833.604,1022.0982" fill="none" id="Running-to-*end*" style="stroke:#000000;stroke-width:1;"/><polygon fill="#000000" points="834.14,1027.0694,837.1521,1017.6924,833.604,1022.0982,829.1982,1018.5501,834.14,1027.0694" style="stroke:#000000;stroke-width:1;stroke-linejoin:miter;stroke-miterlimit:10;"/><text fill="#000000" font-family="Verdana" font-size="13" lengthAdjust="spacing" textLength="70.459" x="855.56" y="964.3663">disconnect</text></g><!--link Running to Reloading--><g class="link" data-entity-1="ent0006" data-entity-2="ent0014" data-link-type="dependency" data-source-line="72" id="lnk38"><path d="M1130.41,853.9994 C1140.76,835.0594 1157.72,810.4194 1180.56,798.2994 C1245.84,763.6594 1272.69,790.7794 1346.56,788.6294 C1459.04,785.3594 1498.96,747.8794 1599.56,798.2994 C1623.38,810.2394 1639.2382,830.6275 1650.6882,849.6175" fill="none" id="Running-to-Reloading" style="stroke:#000000;stroke-width:1;"/><polygon fill="#000000" points="1653.27,853.8994,1652.0483,844.1266,1650.6882,849.6175,1645.1973,848.2574,1653.27,853.8994" style="stroke:#000000;stroke-width:1;stroke-linejoin:miter;stroke-miterlimit:10;"/><text fill="#000000" font-family="Verdana" font-size="13" lengthAdjust="spacing" textLength="56.6846" x="1347.56" y="778.8663">stReload</text></g><!--link Reloading to Running--><g class="link" data-entity-1="ent0014" data-entity-2="ent0006" data-link-type="dependency" data-source-line="74" id="lnk40"><path d="M1653.31,853.8194 C1641.89,834.7794 1623.45,810.0894 1599.56,798.2994 C1586.57,791.8894 1354.04,782.0094 1253.56,788.6294 C1220.9,790.7894 1208.89,781.9094 1180.56,798.2994 C1158.33,811.1594 1143.8467,831.0846 1133.3367,849.7146" fill="none" id="Reloading-to-Running" style="stroke:#000000;stroke-width:1;"/><polygon fill="#000000" points="1130.88,854.0694,1138.786,848.1961,1133.3367,849.7146,1131.8183,844.2653,1130.88,854.0694" style="stroke:#000000;stroke-width:1;stroke-linejoin:miter;stroke-miterlimit:10;"/><text fill="#000000" font-family="Verdana" font-size="13" lengthAdjust="spacing" textLength="82.0371" x="1254.56" y="778.8663">was_running</text></g><!--link Paused to Reloading--><g class="link" data-entity-1="ent0007" data-entity-2="ent0014" data-link-type="dependency" data-source-line="73" id="lnk39"><path d="M1227.41,1033.7294 C1277.55,1027.4594 1377.41,1012.2694 1457.56,983.2994 C1499.26,968.2294 1503.45,950.1994 1545.56,936.2994 C1568.6,928.6994 1577.07,937.3994 1599.56,928.2994 C1613.62,922.6094 1623.5597,916.4616 1635.0297,907.6216" fill="none" id="Paused-to-Reloading" style="stroke:#000000;stroke-width:1;"/><polygon fill="#000000" points="1638.99,904.5694,1629.4197,906.8951,1635.0297,907.6216,1634.3032,913.2316,1638.99,904.5694" style="stroke:#000000;stroke-width:1;stroke-linejoin:miter;stroke-miterlimit:10;"/><text fill="#000000" font-family="Verdana" font-size="13" lengthAdjust="spacing" textLength="56.6846" x="1546.56" y="964.3663">stReload</text></g><!--link Reloading to Paused--><g class="link" data-entity-1="ent0014" data-entity-2="ent0007" data-link-type="dependency" data-source-line="75" id="lnk41"><path d="M1659.6,904.6894 C1651.35,928.8494 1635.12,964.8294 1607.56,983.2994 C1545.39,1024.9694 1318.3184,1034.4446 1232.6184,1036.5846" fill="none" id="Reloading-to-Paused" style="stroke:#000000;stroke-width:1;"/><polygon fill="#000000" points="1227.62,1036.7094,1236.717,1040.4835,1232.6184,1036.5846,1236.5173,1032.486,1227.62,1036.7094" style="stroke:#000000;stroke-width:1;stroke-linejoin:miter;stroke-miterlimit:10;"/><text fill="#000000" font-family="Verdana" font-size="13" lengthAdjust="spacing" textLength="79.3521" x="1646.85" y="964.3663">was_paused</text></g><?plantuml-src dLLDRzim3BthLt0znGEoeZi6Mu5YtO02BL8qnsq8L9k9XJgI9z7jkg7_VTH77CLErc6-sAAeHpxgaNv3DMuGsaOgBTo3qgsqSWEE9E4NescXVY6SlHU253K8btZVhU4JRrZJmC9xmOqiQwLHYAzllyDqUWuNJrAHqcjsMwarp41MiYMqK5ha0vKG0HvEhcMdoph2d81qq4J3Rm7yHAS1MDpopoXAYxhYzGpcBIcZFzp6DQDREl-c9mdSM914d7CHe5v45YnYTTRdkBFU6aVNUMR-oOmSMdOEbtB599Snp64_vtDPsavhTXovfrG6n7n5TtanI9aMqhEyD1gPcpPR-iKnZBr43c4aW7G9nN_diiN9gtm0PwoIu7-7Fpfqn3WLhbWpdIRLZED4s8pJA3LPUby7bMLfyuM-zBAB8hunLHHT5PQvvkxuWZYpN0B-WfCeqcuiQh1pj7kMzaDhb2Qe5MSV505sIyQHQUVwCxVDCqpGlnA1UDv3RM53KRam7Guz-c0Hd2zzQjg_u3Z2zagVQln9f_vxtlco-g_4oY4LMLqMVcVNZC4nByjLrM2sN0HuCbbJzAOPiDBNICiAMwhX8vITjSpRIvNJYGWRDcoRS1zs_iWtlmyRJCTW3uDqDCHWop48cC9PteMURAXdnYaM52OhQpQfvCNOEMKQUBxc6X9ATtF0kO_j3uIJGHsLyjA63PBOAy_hNXpbg1CJruPhPzMw9Z2ha5T_D1LMEHuqTaerwxqAcvDDrv2QMdIciwNNlAoUYtU2fm1uF26ojXmAT3SE9qKQOwDHMWm1-ZuOdV-7mxleSTx0nFeHm_z06tUEXniUQEDDXPuoRSi--1WadKy8_rESGQKS5rjZINsttM5ZP1KwpORF_H4KJ7u8yRNaUFr6u1zN8c__G_ixutu9dgHR9je3dvwqTub4nHy0?></g></svg>