<svg xmlns="http://www.w3.org/2000/svg" xmlns:xlink="http://www.w3.org/1999/xlink" contentStyleType="text/css" data-diagram-type="DESCRIPTION" height="828px" preserveAspectRatio="none" style="width:1871px;height:828px;background:#FEFEFE;" version="1.1" viewBox="0 0 1871 828" width="1871px" zoomAndPan="magnify"><?plantuml 1.2026.4?><defs/><g><rect fill="#FEFEFE" height="828" style="stroke:none;stroke-width:1;" width="1871" x="0" y="0"/><g class="title" data-source-line="8"><text fill="#000000" font-family="Verdana" font-size="22" font-weight="700" lengthAdjust="spacing" textLength="775.6504" x="546.8533" y="35.4209">truST PLCopen Motion Library: ST Surface And Shared Kernels</text></g><!--cluster Normative Inputs--><g class="cluster" data-qualified-name="Normative Inputs" data-source-line="10" id="ent0001"><path d="M13.5,77.1094 L151.9502,77.1094 A3.75,3.75 0 0 1 154.4502,79.6094 L161.4502,99.4063 L591.5,99.4063 A2.5,2.5 0 0 1 594,101.9063 L594,164.8994 A2.5,2.5 0 0 1 591.5,167.3994 L13.5,167.3994 A2.5,2.5 0 0 1 11,164.8994 L11,79.6094 A2.5,2.5 0 0 1 13.5,77.1094" fill="#FFFFFF" style="stroke:#000000;stroke-width:1;"/><line style="stroke:#000000;stroke-width:1;" x1="11" x2="161.4502" y1="99.4063" y2="99.4063"/><text fill="#000000" font-family="Verdana" font-size="14" font-weight="700" lengthAdjust="spacing" textLength="137.4502" x="15" y="92.1045">Normative Inputs</text></g><!--cluster Reusable Library Packages\n(libraries/plcopen_motion/*)--><g class="cluster" data-qualified-name="Reusable Library Packages.n.libraries.plcopen_motion..." data-source-line="16" id="ent0005"><path d="M239.5,194.8994 L460.8496,194.8994 A3.75,3.75 0 0 1 463.3496,197.3994 L470.3496,233.4931 L827.5,233.4931 A2.5,2.5 0 0 1 830,235.9931 L830,423.5594 A2.5,2.5 0 0 1 827.5,426.0594 L239.5,426.0594 A2.5,2.5 0 0 1 237,423.5594 L237,197.3994 A2.5,2.5 0 0 1 239.5,194.8994" fill="#FFFFFF" style="stroke:#000000;stroke-width:1;"/><line style="stroke:#000000;stroke-width:1;" x1="237" x2="470.3496" y1="233.4931" y2="233.4931"/><text fill="#000000" font-family="Verdana" font-size="14" font-weight="700" lengthAdjust="spacing" textLength="212.8232" x="244.7632" y="209.8945">Reusable Library Packages</text><text fill="#000000" font-family="Verdana" font-size="14" font-weight="700" lengthAdjust="spacing" textLength="220.3496" x="241" y="226.1914">(libraries/plcopen_motion/*)</text></g><!--cluster Shared Internal ST Kernels--><g class="cluster" data-qualified-name="Shared Internal ST Kernels" data-source-line="24" id="ent0011"><path d="M285.5,450.0594 L498.9951,450.0594 A3.75,3.75 0 0 1 501.4951,452.5594 L508.4951,472.3563 L1415.5,472.3563 A2.5,2.5 0 0 1 1418,474.8563 L1418,658.7494 A2.5,2.5 0 0 1 1415.5,661.2494 L285.5,661.2494 A2.5,2.5 0 0 1 283,658.7494 L283,452.5594 A2.5,2.5 0 0 1 285.5,450.0594" fill="#FFFFFF" style="stroke:#000000;stroke-width:1;"/><line style="stroke:#000000;stroke-width:1;" x1="283" x2="508.4951" y1="472.3563" y2="472.3563"/><text fill="#000000" font-family="Verdana" font-size="14" font-weight="700" lengthAdjust="spacing" textLength="212.4951" x="287" y="465.0545">Shared Internal ST Kernels</text></g><!--cluster Internal State Carriers\n(non-public)--><g class="cluster" data-qualified-name="Internal State Carriers.n.non-public." data-source-line="31" id="ent0016"><path d="M392.5,685.2494 L571.2002,685.2494 A3.75,3.75 0 0 1 573.7002,687.7494 L580.7002,723.8431 L1253.5,723.8431 A2.5,2.5 0 0 1 1256,726.3431 L1256,811.3394 A2.5,2.5 0 0 1 1253.5,813.8394 L392.5,813.8394 A2.5,2.5 0 0 1 390,811.3394 L390,687.7494 A2.5,2.5 0 0 1 392.5,685.2494" fill="#FFFFFF" style="stroke:#000000;stroke-width:1;"/><line style="stroke:#000000;stroke-width:1;" x1="390" x2="580.7002" y1="723.8431" y2="723.8431"/><text fill="#000000" font-family="Verdana" font-size="14" font-weight="700" lengthAdjust="spacing" textLength="177.7002" x="394" y="700.2445">Internal State Carriers</text><text fill="#000000" font-family="Verdana" font-size="14" font-weight="700" lengthAdjust="spacing" textLength="96.0654" x="434.8174" y="716.5414">(non-public)</text></g><!--cluster ST Conformance Fixtures\n(crates/.../tests/fixtures/plcopen_motion/*)--><g class="cluster" data-qualified-name="ST Conformance Fixtures.n.crates.....tests.fixtures.plcopen_motion..." data-source-line="38" id="ent0021"><path d="M620.5,57.6094 L957.6709,57.6094 A3.75,3.75 0 0 1 960.1709,60.1094 L967.1709,96.2031 L1078.5,96.2031 A2.5,2.5 0 0 1 1081,98.7031 L1081,168.3994 A2.5,2.5 0 0 1 1078.5,170.8994 L620.5,170.8994 A2.5,2.5 0 0 1 618,168.3994 L618,60.1094 A2.5,2.5 0 0 1 620.5,57.6094" fill="#FFFFFF" style="stroke:#000000;stroke-width:1;"/><line style="stroke:#000000;stroke-width:1;" x1="618" x2="967.1709" y1="96.2031" y2="96.2031"/><text fill="#000000" font-family="Verdana" font-size="14" font-weight="700" lengthAdjust="spacing" textLength="198.4336" x="690.8687" y="72.6045">ST Conformance Fixtures</text><text fill="#000000" font-family="Verdana" font-size="14" font-weight="700" lengthAdjust="spacing" textLength="336.1709" x="622" y="88.9014">(crates/.../tests/fixtures/plcopen_motion/*)</text></g><!--entity spec--><g class="entity" data-qualified-name="Normative Inputs.spec" data-source-line="11" id="ent0002"><rect fill="#FFFFFF" height="39.2969" rx="2.5" ry="2.5" style="stroke:#000000;stroke-width:1;" width="115.9961" x="27" y="112.1094"/><polygon fill="#FFFFFF" points="125.9961,117.1094,125.9961,131.1094,137.9961,131.1094,137.9961,123.1094,131.9961,117.1094,125.9961,117.1094" style="stroke:#000000;stroke-width:1;stroke-linejoin:miter;stroke-miterlimit:10;"/><line style="stroke:#000000;stroke-width:1;" x1="131.9961" x2="131.9961" y1="117.1094" y2="123.1094"/><line style="stroke:#000000;stroke-width:1;" x1="137.9961" x2="131.9961" y1="123.1094" y2="123.1094"/><text fill="#000000" font-family="Verdana" font-size="14" lengthAdjust="spacing" textLength="85.9961" x="37" y="138.1045">Motion Spec</text></g><!--entity matrix--><g class="entity" data-qualified-name="Normative Inputs.matrix" data-source-line="12" id="ent0003"><rect fill="#FFFFFF" height="39.2969" rx="2.5" ry="2.5" style="stroke:#000000;stroke-width:1;" width="160.9355" x="187.53" y="112.1094"/><polygon fill="#FFFFFF" points="331.4655,117.1094,331.4655,131.1094,343.4655,131.1094,343.4655,123.1094,337.4655,117.1094,331.4655,117.1094" style="stroke:#000000;stroke-width:1;stroke-linejoin:miter;stroke-miterlimit:10;"/><line style="stroke:#000000;stroke-width:1;" x1="337.4655" x2="337.4655" y1="117.1094" y2="123.1094"/><line style="stroke:#000000;stroke-width:1;" x1="343.4655" x2="337.4655" y1="123.1094" y2="123.1094"/><text fill="#000000" font-family="Verdana" font-size="14" lengthAdjust="spacing" textLength="130.9355" x="197.53" y="138.1045">Compliance Matrix</text></g><!--entity logs--><g class="entity" data-qualified-name="Normative Inputs.logs" data-source-line="13" id="ent0004"><rect fill="#FFFFFF" height="39.2969" rx="2.5" ry="2.5" style="stroke:#000000;stroke-width:1;" width="184.7725" x="393.61" y="112.1094"/><polygon fill="#FFFFFF" points="561.3825,117.1094,561.3825,131.1094,573.3825,131.1094,573.3825,123.1094,567.3825,117.1094,561.3825,117.1094" style="stroke:#000000;stroke-width:1;stroke-linejoin:miter;stroke-miterlimit:10;"/><line style="stroke:#000000;stroke-width:1;" x1="567.3825" x2="567.3825" y1="117.1094" y2="123.1094"/><line style="stroke:#000000;stroke-width:1;" x1="573.3825" x2="567.3825" y1="123.1094" y2="123.1094"/><text fill="#000000" font-family="Verdana" font-size="14" lengthAdjust="spacing" textLength="154.7725" x="403.61" y="138.1045">Decisions / Deviations</text></g><!--entity single--><g class="entity" data-qualified-name="Reusable Library Packages.n.libraries.plcopen_motion....single" data-source-line="17" id="ent0006"><rect fill="#FFFFFF" height="62.5938" rx="2.5" ry="2.5" style="stroke:#000000;stroke-width:1;" width="154.126" x="252.94" y="347.4594"/><rect fill="#FFFFFF" height="10" style="stroke:#000000;stroke-width:1;" width="15" x="387.066" y="352.4594"/><rect fill="#FFFFFF" height="2" style="stroke:#000000;stroke-width:1;" width="4" x="385.066" y="354.4594"/><rect fill="#FFFFFF" height="2" style="stroke:#000000;stroke-width:1;" width="4" x="385.066" y="358.4594"/><text fill="#000000" font-family="Verdana" font-size="14" lengthAdjust="spacing" textLength="77.1367" x="267.94" y="380.4545">Single-Axis</text><text fill="#000000" font-family="Verdana" font-size="14" lengthAdjust="spacing" textLength="114.126" x="267.94" y="396.7514">single_axis_core</text></g><!--entity sync--><g class="entity" data-qualified-name="Reusable Library Packages.n.libraries.plcopen_motion....sync" data-source-line="18" id="ent0007"><rect fill="#FFFFFF" height="62.5938" rx="2.5" ry="2.5" style="stroke:#000000;stroke-width:1;" width="152.4443" x="451.78" y="347.4594"/><rect fill="#FFFFFF" height="10" style="stroke:#000000;stroke-width:1;" width="15" x="584.2243" y="352.4594"/><rect fill="#FFFFFF" height="2" style="stroke:#000000;stroke-width:1;" width="4" x="582.2243" y="354.4594"/><rect fill="#FFFFFF" height="2" style="stroke:#000000;stroke-width:1;" width="4" x="582.2243" y="358.4594"/><text fill="#000000" font-family="Verdana" font-size="14" lengthAdjust="spacing" textLength="112.4443" x="466.78" y="380.4545">Synchronization</text><text fill="#000000" font-family="Verdana" font-size="14" lengthAdjust="spacing" textLength="110.8516" x="466.78" y="396.7514">synchronization</text></g><!--entity group--><g class="entity" data-qualified-name="Reusable Library Packages.n.libraries.plcopen_motion....group" data-source-line="19" id="ent0008"><rect fill="#FFFFFF" height="62.5938" rx="2.5" ry="2.5" style="stroke:#000000;stroke-width:1;" width="214.9521" x="599.52" y="245.8994"/><rect fill="#FFFFFF" height="10" style="stroke:#000000;stroke-width:1;" width="15" x="794.4721" y="250.8994"/><rect fill="#FFFFFF" height="2" style="stroke:#000000;stroke-width:1;" width="4" x="792.4721" y="252.8994"/><rect fill="#FFFFFF" height="2" style="stroke:#000000;stroke-width:1;" width="4" x="792.4721" y="256.8994"/><text fill="#000000" font-family="Verdana" font-size="14" lengthAdjust="spacing" textLength="174.9521" x="614.52" y="278.8945">Coordinated Motion Core</text><text fill="#000000" font-family="Verdana" font-size="14" lengthAdjust="spacing" textLength="139.8223" x="614.52" y="295.1914">coordinated_motion</text></g><!--entity homing--><g class="entity" data-qualified-name="Reusable Library Packages.n.libraries.plcopen_motion....homing" data-source-line="20" id="ent0009"><rect fill="#FFFFFF" height="62.5938" rx="2.5" ry="2.5" style="stroke:#000000;stroke-width:1;" width="131.54" x="423.23" y="245.8994"/><rect fill="#FFFFFF" height="10" style="stroke:#000000;stroke-width:1;" width="15" x="534.77" y="250.8994"/><rect fill="#FFFFFF" height="2" style="stroke:#000000;stroke-width:1;" width="4" x="532.77" y="252.8994"/><rect fill="#FFFFFF" height="2" style="stroke:#000000;stroke-width:1;" width="4" x="532.77" y="256.8994"/><text fill="#000000" font-family="Verdana" font-size="14" lengthAdjust="spacing" textLength="91.54" x="438.23" y="278.8945">Homing Core</text><text fill="#000000" font-family="Verdana" font-size="14" lengthAdjust="spacing" textLength="52.7256" x="438.23" y="295.1914">homing</text></g><!--entity oop--><g class="entity" data-qualified-name="Reusable Library Packages.n.libraries.plcopen_motion....oop" data-source-line="21" id="ent0010"><rect fill="#FFFFFF" height="62.5938" rx="2.5" ry="2.5" style="stroke:#000000;stroke-width:1;" width="125.3398" x="253.33" y="245.8994"/><rect fill="#FFFFFF" height="10" style="stroke:#000000;stroke-width:1;" width="15" x="358.6698" y="250.8994"/><rect fill="#FFFFFF" height="2" style="stroke:#000000;stroke-width:1;" width="4" x="356.6698" y="252.8994"/><rect fill="#FFFFFF" height="2" style="stroke:#000000;stroke-width:1;" width="4" x="356.6698" y="256.8994"/><text fill="#000000" font-family="Verdana" font-size="14" lengthAdjust="spacing" textLength="85.3398" x="268.33" y="278.8945">OOP Facade</text><text fill="#000000" font-family="Verdana" font-size="14" lengthAdjust="spacing" textLength="26.0176" x="268.33" y="295.1914">oop</text></g><!--entity axisKernel--><g class="entity" data-qualified-name="Shared Internal ST Kernels.axisKernel" data-source-line="25" id="ent0012"><rect fill="#FFFFFF" height="62.5938" rx="2.5" ry="2.5" style="stroke:#000000;stroke-width:1;" width="363.9756" x="299.01" y="582.6494"/><rect fill="#FFFFFF" height="10" style="stroke:#000000;stroke-width:1;" width="15" x="642.9856" y="587.6494"/><rect fill="#FFFFFF" height="2" style="stroke:#000000;stroke-width:1;" width="4" x="640.9856" y="589.6494"/><rect fill="#FFFFFF" height="2" style="stroke:#000000;stroke-width:1;" width="4" x="640.9856" y="593.6494"/><text fill="#000000" font-family="Verdana" font-size="14" lengthAdjust="spacing" textLength="78.4219" x="314.01" y="615.6445">Axis Kernel</text><text fill="#000000" font-family="Verdana" font-size="14" lengthAdjust="spacing" textLength="323.9756" x="314.01" y="631.9414">plcopen_motion_single_axis_internal_kernel.st</text></g><!--entity syncSupport--><g class="entity" data-qualified-name="Shared Internal ST Kernels.syncSupport" data-source-line="26" id="ent0013"><rect fill="#FFFFFF" height="62.5938" rx="2.5" ry="2.5" style="stroke:#000000;stroke-width:1;" width="347.2686" x="299.37" y="485.0594"/><rect fill="#FFFFFF" height="10" style="stroke:#000000;stroke-width:1;" width="15" x="626.6386" y="490.0594"/><rect fill="#FFFFFF" height="2" style="stroke:#000000;stroke-width:1;" width="4" x="624.6386" y="492.0594"/><rect fill="#FFFFFF" height="2" style="stroke:#000000;stroke-width:1;" width="4" x="624.6386" y="496.0594"/><text fill="#000000" font-family="Verdana" font-size="14" lengthAdjust="spacing" textLength="172.2383" x="314.37" y="518.0545">Synchronization Support</text><text fill="#000000" font-family="Verdana" font-size="14" lengthAdjust="spacing" textLength="307.2686" x="314.37" y="534.3514">plcopen_motion_synchronization_support.st</text></g><!--entity groupKernel--><g class="entity" data-qualified-name="Shared Internal ST Kernels.groupKernel" data-source-line="27" id="ent0014"><rect fill="#FFFFFF" height="62.5938" rx="2.5" ry="2.5" style="stroke:#000000;stroke-width:1;" width="376.2393" x="1025.88" y="485.0594"/><rect fill="#FFFFFF" height="10" style="stroke:#000000;stroke-width:1;" width="15" x="1382.1193" y="490.0594"/><rect fill="#FFFFFF" height="2" style="stroke:#000000;stroke-width:1;" width="4" x="1380.1193" y="492.0594"/><rect fill="#FFFFFF" height="2" style="stroke:#000000;stroke-width:1;" width="4" x="1380.1193" y="496.0594"/><text fill="#000000" font-family="Verdana" font-size="14" lengthAdjust="spacing" textLength="92.3057" x="1040.88" y="518.0545">Group Kernel</text><text fill="#000000" font-family="Verdana" font-size="14" lengthAdjust="spacing" textLength="336.2393" x="1040.88" y="534.3514">plcopen_motion_coordinated_motion_support.st</text></g><!--entity homeSupport--><g class="entity" data-qualified-name="Shared Internal ST Kernels.homeSupport" data-source-line="28" id="ent0015"><rect fill="#FFFFFF" height="62.5938" rx="2.5" ry="2.5" style="stroke:#000000;stroke-width:1;" width="289.1426" x="691.43" y="485.0594"/><rect fill="#FFFFFF" height="10" style="stroke:#000000;stroke-width:1;" width="15" x="960.5726" y="490.0594"/><rect fill="#FFFFFF" height="2" style="stroke:#000000;stroke-width:1;" width="4" x="958.5726" y="492.0594"/><rect fill="#FFFFFF" height="2" style="stroke:#000000;stroke-width:1;" width="4" x="958.5726" y="496.0594"/><text fill="#000000" font-family="Verdana" font-size="14" lengthAdjust="spacing" textLength="114.1738" x="706.43" y="518.0545">Homing Support</text><text fill="#000000" font-family="Verdana" font-size="14" lengthAdjust="spacing" textLength="249.1426" x="706.43" y="534.3514">plcopen_motion_homing_support.st</text></g><!--entity axisStore--><g class="entity" data-qualified-name="Internal State Carriers.n.non-public..axisStore" data-source-line="32" id="ent0017"><path d="M405.99,746.2494 C405.99,736.2494 489.9993,736.2494 489.9993,736.2494 C489.9993,736.2494 574.0086,736.2494 574.0086,746.2494 L574.0086,787.8431 C574.0086,797.8431 489.9993,797.8431 489.9993,797.8431 C489.9993,797.8431 405.99,797.8431 405.99,787.8431 L405.99,746.2494" fill="#FFFFFF" style="stroke:#000000;stroke-width:1;"/><path d="M405.99,746.2494 C405.99,756.2494 489.9993,756.2494 489.9993,756.2494 C489.9993,756.2494 574.0086,756.2494 574.0086,746.2494" fill="none" style="stroke:#000000;stroke-width:1;"/><text fill="#000000" font-family="Verdana" font-size="14" lengthAdjust="spacing" textLength="148.0186" x="415.99" y="773.2445">Single-axis file-scope</text><text fill="#000000" font-family="Verdana" font-size="14" lengthAdjust="spacing" textLength="143.0283" x="415.99" y="789.5414">VAR_GLOBAL carrier</text></g><!--entity syncStore--><g class="entity" data-qualified-name="Internal State Carriers.n.non-public..syncStore" data-source-line="33" id="ent0018"><path d="M618.84,746.2494 C618.84,736.2494 721.0021,736.2494 721.0021,736.2494 C721.0021,736.2494 823.1642,736.2494 823.1642,746.2494 L823.1642,787.8431 C823.1642,797.8431 721.0021,797.8431 721.0021,797.8431 C721.0021,797.8431 618.84,797.8431 618.84,787.8431 L618.84,746.2494" fill="#FFFFFF" style="stroke:#000000;stroke-width:1;"/><path d="M618.84,746.2494 C618.84,756.2494 721.0021,756.2494 721.0021,756.2494 C721.0021,756.2494 823.1642,756.2494 823.1642,746.2494" fill="none" style="stroke:#000000;stroke-width:1;"/><text fill="#000000" font-family="Verdana" font-size="14" lengthAdjust="spacing" textLength="184.3242" x="628.84" y="773.2445">Synchronization file-scope</text><text fill="#000000" font-family="Verdana" font-size="14" lengthAdjust="spacing" textLength="143.0283" x="628.84" y="789.5414">VAR_GLOBAL carrier</text></g><!--entity groupStore--><g class="entity" data-qualified-name="Internal State Carriers.n.non-public..groupStore" data-source-line="34" id="ent0019"><path d="M1076.49,746.2494 C1076.49,736.2494 1158.0042,736.2494 1158.0042,736.2494 C1158.0042,736.2494 1239.5183,736.2494 1239.5183,746.2494 L1239.5183,787.8431 C1239.5183,797.8431 1158.0042,797.8431 1158.0042,797.8431 C1158.0042,797.8431 1076.49,797.8431 1076.49,787.8431 L1076.49,746.2494" fill="#FFFFFF" style="stroke:#000000;stroke-width:1;"/><path d="M1076.49,746.2494 C1076.49,756.2494 1158.0042,756.2494 1158.0042,756.2494 C1158.0042,756.2494 1239.5183,756.2494 1239.5183,746.2494" fill="none" style="stroke:#000000;stroke-width:1;"/><text fill="#000000" font-family="Verdana" font-size="14" lengthAdjust="spacing" textLength="114.8096" x="1086.49" y="773.2445">Group file-scope</text><text fill="#000000" font-family="Verdana" font-size="14" lengthAdjust="spacing" textLength="143.0283" x="1086.49" y="789.5414">VAR_GLOBAL carrier</text></g><!--entity homeStore--><g class="entity" data-qualified-name="Internal State Carriers.n.non-public..homeStore" data-source-line="35" id="ent0020"><path d="M868.49,746.2494 C868.49,736.2494 950.0042,736.2494 950.0042,736.2494 C950.0042,736.2494 1031.5183,736.2494 1031.5183,746.2494 L1031.5183,787.8431 C1031.5183,797.8431 950.0042,797.8431 950.0042,797.8431 C950.0042,797.8431 868.49,797.8431 868.49,787.8431 L868.49,746.2494" fill="#FFFFFF" style="stroke:#000000;stroke-width:1;"/><path d="M868.49,746.2494 C868.49,756.2494 950.0042,756.2494 950.0042,756.2494 C950.0042,756.2494 1031.5183,756.2494 1031.5183,746.2494" fill="none" style="stroke:#000000;stroke-width:1;"/><text fill="#000000" font-family="Verdana" font-size="14" lengthAdjust="spacing" textLength="126.2598" x="878.49" y="773.2445">Homing file-scope</text><text fill="#000000" font-family="Verdana" font-size="14" lengthAdjust="spacing" textLength="143.0283" x="878.49" y="789.5414">VAR_GLOBAL carrier</text></g><!--entity positive--><g class="entity" data-qualified-name="ST Conformance Fixtures.n.crates.....tests.fixtures.plcopen_motion....positive" data-source-line="39" id="ent0022"><rect fill="#FFFFFF" height="46.2969" rx="2.5" ry="2.5" style="stroke:#000000;stroke-width:1;" width="152.0479" x="633.98" y="108.6094"/><rect fill="#FFFFFF" height="10" style="stroke:#000000;stroke-width:1;" width="15" x="766.0279" y="113.6094"/><rect fill="#FFFFFF" height="2" style="stroke:#000000;stroke-width:1;" width="4" x="764.0279" y="115.6094"/><rect fill="#FFFFFF" height="2" style="stroke:#000000;stroke-width:1;" width="4" x="764.0279" y="119.6094"/><text fill="#000000" font-family="Verdana" font-size="14" lengthAdjust="spacing" textLength="112.0479" x="648.98" y="141.6045">Positive fixtures</text></g><!--entity negative--><g class="entity" data-qualified-name="ST Conformance Fixtures.n.crates.....tests.fixtures.plcopen_motion....negative" data-source-line="40" id="ent0023"><rect fill="#FFFFFF" height="46.2969" rx="2.5" ry="2.5" style="stroke:#000000;stroke-width:1;" width="234.373" x="830.81" y="108.6094"/><rect fill="#FFFFFF" height="10" style="stroke:#000000;stroke-width:1;" width="15" x="1045.183" y="113.6094"/><rect fill="#FFFFFF" height="2" style="stroke:#000000;stroke-width:1;" width="4" x="1043.183" y="115.6094"/><rect fill="#FFFFFF" height="2" style="stroke:#000000;stroke-width:1;" width="4" x="1043.183" y="119.6094"/><text fill="#000000" font-family="Verdana" font-size="14" lengthAdjust="spacing" textLength="194.373" x="845.81" y="141.6045">Deferred / negative fixtures</text></g><g class="entity" data-qualified-name="GMN61" data-source-line="85" id="ent0062"><path d="M859.46,249.4994 L859.46,304.8978 L1136.5371,304.8978 L1136.5371,259.4994 L1126.5371,249.4994 L859.46,249.4994" fill="#FFFFFF" style="stroke:#000000;stroke-width:1;"/><path d="M1126.5371,249.4994 L1126.5371,259.4994 L1136.5371,259.4994 L1126.5371,249.4994" fill="#FFFFFF" style="stroke:#000000;stroke-width:1;"/><text fill="#000000" font-family="Verdana" font-size="13" lengthAdjust="spacing" textLength="206.6162" x="865.46" y="266.5663">The OOP facade exposes itfAxis</text><text fill="#000000" font-family="Verdana" font-size="13" lengthAdjust="spacing" textLength="256.0771" x="865.46" y="281.6991">and command objects while delegating</text><text fill="#000000" font-family="Verdana" font-size="13" lengthAdjust="spacing" textLength="232.8066" x="865.46" y="296.8319">axis behavior to the classic kernels.</text></g><g class="entity" data-qualified-name="GMN64" data-source-line="91" id="ent0065"><path d="M1284.16,731.7794 L1284.16,802.3106 L1559.8407,802.3106 L1559.8407,741.7794 L1549.8407,731.7794 L1284.16,731.7794" fill="#FFFFFF" style="stroke:#000000;stroke-width:1;"/><path d="M1549.8407,731.7794 L1549.8407,741.7794 L1559.8407,741.7794 L1549.8407,731.7794" fill="#FFFFFF" style="stroke:#000000;stroke-width:1;"/><text fill="#000000" font-family="Verdana" font-size="13" lengthAdjust="spacing" textLength="215.7632" x="1290.16" y="748.8463">Internal shared-state carriers are</text><text fill="#000000" font-family="Verdana" font-size="13" lengthAdjust="spacing" textLength="192.3721" x="1290.16" y="763.9791">implementation devices only.</text><text fill="#000000" font-family="Verdana" font-size="13" lengthAdjust="spacing" textLength="231.8926" x="1290.16" y="779.1119">They are intentionally omitted from</text><text fill="#000000" font-family="Verdana" font-size="13" lengthAdjust="spacing" textLength="254.6807" x="1290.16" y="794.2447">the public PLCopen compliance matrix.</text></g><g class="entity" data-qualified-name="GMN67" data-source-line="98" id="ent0068"><path d="M1545.65,241.9294 L1545.65,312.4606 L1856.357,312.4606 L1856.357,251.9294 L1846.357,241.9294 L1545.65,241.9294" fill="#FFFFFF" style="stroke:#000000;stroke-width:1;"/><path d="M1846.357,241.9294 L1846.357,251.9294 L1856.357,251.9294 L1846.357,241.9294" fill="#FFFFFF" style="stroke:#000000;stroke-width:1;"/><text fill="#000000" font-family="Verdana" font-size="13" lengthAdjust="spacing" textLength="262.9009" x="1551.65" y="258.9963">Fixture consumers lock deferred names,</text><text fill="#000000" font-family="Verdana" font-size="13" lengthAdjust="spacing" textLength="253.5571" x="1551.65" y="274.1291">legacy literals, and unsupported public</text><text fill="#000000" font-family="Verdana" font-size="13" lengthAdjust="spacing" textLength="289.707" x="1551.65" y="289.2619">surface members to the chosen absent-path</text><text fill="#000000" font-family="Verdana" font-size="13" lengthAdjust="spacing" textLength="238.564" x="1551.65" y="304.3947">or deterministic error-path behavior.</text></g><!--link spec to single--><g class="link" data-entity-1="ent0002" data-entity-2="ent0006" data-link-type="dependency" data-source-line="43" id="lnk24"><path d="M46.33,151.5594 C46.33,210.1894 46.33,378.8394 46.33,378.8394 C46.33,378.8394 163.5,378.8394 247.49,378.8394" fill="none" id="spec-to-single" style="stroke:#000000;stroke-width:1;"/><polygon fill="#000000" points="252.49,378.8394,243.49,374.8394,247.49,378.8394,243.49,382.8394,252.49,378.8394" style="stroke:#000000;stroke-width:1;stroke-linejoin:miter;stroke-miterlimit:10;"/></g><!--link spec to sync--><g class="link" data-entity-1="ent0002" data-entity-2="ent0007" data-link-type="dependency" data-source-line="44" id="lnk25"><path d="M65.67,151.8994 C65.67,204.4794 65.67,341.8394 65.67,341.8394 C65.67,341.8394 486.11,341.8394 486.11,341.8394 C486.11,341.8394 486.11,338.8694 486.11,341.9694" fill="none" id="spec-to-sync" style="stroke:#000000;stroke-width:1;"/><polygon fill="#000000" points="486.11,346.9694,490.11,337.9694,486.11,341.9694,482.11,337.9694,486.11,346.9694" style="stroke:#000000;stroke-width:1;stroke-linejoin:miter;stroke-miterlimit:10;"/></g><!--link spec to group--><g class="link" data-entity-1="ent0002" data-entity-2="ent0008" data-link-type="dependency" data-source-line="45" id="lnk26"><path d="M123.67,151.8094 C123.67,162.6494 123.67,173.8394 123.67,173.8394 C123.67,173.8394 608.14,173.8394 608.14,173.8394 C608.14,173.8394 608.14,210.2294 608.14,240.6294" fill="none" id="spec-to-group" style="stroke:#000000;stroke-width:1;"/><polygon fill="#000000" points="608.14,245.6294,612.14,236.6294,608.14,240.6294,604.14,236.6294,608.14,245.6294" style="stroke:#000000;stroke-width:1;stroke-linejoin:miter;stroke-miterlimit:10;"/></g><!--link spec to homing--><g class="link" data-entity-1="ent0002" data-entity-2="ent0009" data-link-type="dependency" data-source-line="46" id="lnk27"><path d="M104.33,151.5294 C104.33,180.6994 104.33,231.8394 104.33,231.8394 C104.33,231.8394 456.11,231.8394 456.11,231.8394 C456.11,231.8394 456.11,232.9594 456.11,240.6994" fill="none" id="spec-to-homing" style="stroke:#000000;stroke-width:1;"/><polygon fill="#000000" points="456.11,245.6994,460.11,236.6994,456.11,240.6994,452.11,236.6994,456.11,245.6994" style="stroke:#000000;stroke-width:1;stroke-linejoin:miter;stroke-miterlimit:10;"/></g><!--link spec to oop--><g class="link" data-entity-1="ent0002" data-entity-2="ent0010" data-link-type="dependency" data-source-line="47" id="lnk28"><path d="M85,151.6194 C85,191.3594 85,276.8394 85,276.8394 C85,276.8394 179.48,276.8394 247.88,276.8394" fill="none" id="spec-to-oop" style="stroke:#000000;stroke-width:1;"/><polygon fill="#000000" points="252.88,276.8394,243.88,272.8394,247.88,276.8394,243.88,280.8394,252.88,276.8394" style="stroke:#000000;stroke-width:1;stroke-linejoin:miter;stroke-miterlimit:10;"/></g><!--link matrix to single--><g class="link" data-entity-1="ent0003" data-entity-2="ent0006" data-link-type="dependency" data-source-line="48" id="lnk29"><path d="M348.95,131.8394 C368.39,131.8394 383.65,131.8394 383.65,131.8394 C383.65,131.8394 383.65,275.2994 383.65,341.9894" fill="none" id="matrix-to-single" style="stroke:#000000;stroke-width:1;"/><polygon fill="#000000" points="383.65,346.9894,387.65,337.9894,383.65,341.9894,379.65,337.9894,383.65,346.9894" style="stroke:#000000;stroke-width:1;stroke-linejoin:miter;stroke-miterlimit:10;"/></g><!--link matrix to sync--><g class="link" data-entity-1="ent0003" data-entity-2="ent0007" data-link-type="dependency" data-source-line="49" id="lnk30"><path d="M300.9,151.5194 C300.9,178.3094 300.9,222.8394 300.9,222.8394 C300.9,222.8394 562.64,222.8394 562.64,222.8394 C562.64,222.8394 562.64,296.6494 562.64,342.2094" fill="none" id="matrix-to-sync" style="stroke:#000000;stroke-width:1;"/><polygon fill="#000000" points="562.64,347.2094,566.64,338.2094,562.64,342.2094,558.64,338.2094,562.64,347.2094" style="stroke:#000000;stroke-width:1;stroke-linejoin:miter;stroke-miterlimit:10;"/></g><!--link matrix to group--><g class="link" data-entity-1="ent0003" data-entity-2="ent0008" data-link-type="dependency" data-source-line="50" id="lnk31"><path d="M324.68,151.7594 C324.68,158.7294 324.68,164.8394 324.68,164.8394 C324.68,164.8394 616.75,164.8394 616.75,164.8394 C616.75,164.8394 616.75,207.3694 616.75,240.5994" fill="none" id="matrix-to-group" style="stroke:#000000;stroke-width:1;"/><polygon fill="#000000" points="616.75,245.5994,620.75,236.5994,616.75,240.5994,612.75,236.5994,616.75,245.5994" style="stroke:#000000;stroke-width:1;stroke-linejoin:miter;stroke-miterlimit:10;"/></g><!--link matrix to homing--><g class="link" data-entity-1="ent0003" data-entity-2="ent0009" data-link-type="dependency" data-source-line="51" id="lnk32"><path d="M348.8,121.8394 C370.77,121.8394 388.63,121.8394 388.63,121.8394 C388.63,121.8394 388.63,266.8394 388.63,266.8394 C388.63,266.8394 399.1,266.8394 417.89,266.8394" fill="none" id="matrix-to-homing" style="stroke:#000000;stroke-width:1;"/><polygon fill="#000000" points="422.89,266.8394,413.89,262.8394,417.89,266.8394,413.89,270.8394,422.89,266.8394" style="stroke:#000000;stroke-width:1;stroke-linejoin:miter;stroke-miterlimit:10;"/></g><!--link matrix to oop--><g class="link" data-entity-1="ent0003" data-entity-2="ent0010" data-link-type="dependency" data-source-line="52" id="lnk33"><path d="M277.11,151.6694 C277.11,175.8694 277.11,211.9794 277.11,240.5394" fill="none" id="matrix-to-oop" style="stroke:#000000;stroke-width:1;"/><polygon fill="#000000" points="277.11,245.5394,281.11,236.5394,277.11,240.5394,273.11,236.5394,277.11,245.5394" style="stroke:#000000;stroke-width:1;stroke-linejoin:miter;stroke-miterlimit:10;"/></g><!--link logs to single--><g class="link" data-entity-1="ent0004" data-entity-2="ent0006" data-link-type="dependency" data-source-line="53" id="lnk34"><path d="M396.98,151.5494 C396.98,194.2494 396.98,290.3194 396.98,342.0594" fill="none" id="logs-to-single" style="stroke:#000000;stroke-width:1;"/><polygon fill="#000000" points="396.98,347.0594,400.98,338.0594,396.98,342.0594,392.98,338.0594,396.98,347.0594" style="stroke:#000000;stroke-width:1;stroke-linejoin:miter;stroke-miterlimit:10;"/></g><!--link logs to sync--><g class="link" data-entity-1="ent0004" data-entity-2="ent0007" data-link-type="dependency" data-source-line="54" id="lnk35"><path d="M570.51,151.5494 C570.51,194.2494 570.51,290.3194 570.51,342.0594" fill="none" id="logs-to-sync" style="stroke:#000000;stroke-width:1;"/><polygon fill="#000000" points="570.51,347.0594,574.51,338.0594,570.51,342.0594,566.51,338.0594,570.51,347.0594" style="stroke:#000000;stroke-width:1;stroke-linejoin:miter;stroke-miterlimit:10;"/></g><!--link logs to group--><g class="link" data-entity-1="ent0004" data-entity-2="ent0008" data-link-type="dependency" data-source-line="55" id="lnk36"><path d="M578.57,141.8394 C604.31,141.8394 625.36,141.8394 625.36,141.8394 C625.36,141.8394 625.36,200.4594 625.36,240.4594" fill="none" id="logs-to-group" style="stroke:#000000;stroke-width:1;"/><polygon fill="#000000" points="625.36,245.4594,629.36,236.4594,625.36,240.4594,621.36,236.4594,625.36,245.4594" style="stroke:#000000;stroke-width:1;stroke-linejoin:miter;stroke-miterlimit:10;"/></g><!--link logs to homing--><g class="link" data-entity-1="ent0004" data-entity-2="ent0009" data-link-type="dependency" data-source-line="56" id="lnk37"><path d="M489,151.6694 C489,175.8694 489,211.9794 489,240.5394" fill="none" id="logs-to-homing" style="stroke:#000000;stroke-width:1;"/><polygon fill="#000000" points="489,245.5394,493,236.5394,489,240.5394,485,236.5394,489,245.5394" style="stroke:#000000;stroke-width:1;stroke-linejoin:miter;stroke-miterlimit:10;"/></g><!--link logs to oop--><g class="link" data-entity-1="ent0004" data-entity-2="ent0010" data-link-type="dependency" data-source-line="57" id="lnk38"><path d="M393.27,141.8394 C372.26,141.8394 356.02,141.8394 356.02,141.8394 C356.02,141.8394 356.02,200.4594 356.02,240.4594" fill="none" id="logs-to-oop" style="stroke:#000000;stroke-width:1;"/><polygon fill="#000000" points="356.02,245.4594,360.02,236.4594,356.02,240.4594,352.02,236.4594,356.02,245.4594" style="stroke:#000000;stroke-width:1;stroke-linejoin:miter;stroke-miterlimit:10;"/></g><!--link single to axisKernel--><g class="link" data-entity-1="ent0006" data-entity-2="ent0012" data-link-type="dependency" data-source-line="59" id="lnk39"><path d="M275.97,410.4694 C275.97,474.6294 275.97,613.8394 275.97,613.8394 C275.97,613.8394 279.76,613.8394 293.7,613.8394" fill="none" id="single-to-axisKernel" style="stroke:#000000;stroke-width:1;"/><polygon fill="#000000" points="298.7,613.8394,289.7,609.8394,293.7,613.8394,289.7,617.8394,298.7,613.8394" style="stroke:#000000;stroke-width:1;stroke-linejoin:miter;stroke-miterlimit:10;"/></g><!--link sync to syncSupport--><g class="link" data-entity-1="ent0007" data-entity-2="ent0013" data-link-type="dependency" data-source-line="60" id="lnk40"><path d="M528,410.3294 C528,432.6994 528,457.5894 528,479.9394" fill="none" id="sync-to-syncSupport" style="stroke:#000000;stroke-width:1;"/><polygon fill="#000000" points="528,484.9394,532,475.9394,528,479.9394,524,475.9394,528,484.9394" style="stroke:#000000;stroke-width:1;stroke-linejoin:miter;stroke-miterlimit:10;"/></g><!--link oop to single--><g class="link" data-entity-1="ent0010" data-entity-2="ent0006" data-link-type="dependency" data-source-line="61" id="lnk41"><path d="M295.11,308.7794 C295.11,321.0094 295.11,329.9794 295.11,342.1994" fill="none" id="oop-to-single" style="stroke:#000000;stroke-width:1;"/><polygon fill="#000000" points="295.11,347.1994,299.11,338.1994,295.11,342.1994,291.11,338.1994,295.11,347.1994" style="stroke:#000000;stroke-width:1;stroke-linejoin:miter;stroke-miterlimit:10;"/></g><!--link oop to sync--><g class="link" data-entity-1="ent0010" data-entity-2="ent0007" data-link-type="dependency" data-source-line="62" id="lnk42"><path d="M379.07,287.8394 C398.63,287.8394 415.15,287.8394 415.15,287.8394 C415.15,287.8394 415.15,378.8394 415.15,378.8394 C415.15,378.8394 426.35,378.8394 446.48,378.8394" fill="none" id="oop-to-sync" style="stroke:#000000;stroke-width:1;"/><polygon fill="#000000" points="451.48,378.8394,442.48,374.8394,446.48,378.8394,442.48,382.8394,451.48,378.8394" style="stroke:#000000;stroke-width:1;stroke-linejoin:miter;stroke-miterlimit:10;"/></g><!--link syncSupport to axisKernel--><g class="link" data-entity-1="ent0013" data-entity-2="ent0012" data-link-type="dependency" data-source-line="63" id="lnk43"><path d="M473,548.0394 C473,559.0594 473,566.4194 473,577.4194" fill="none" id="syncSupport-to-axisKernel" style="stroke:#000000;stroke-width:1;"/><polygon fill="#000000" points="473,582.4194,477,573.4194,473,577.4194,469,573.4194,473,582.4194" style="stroke:#000000;stroke-width:1;stroke-linejoin:miter;stroke-miterlimit:10;"/></g><!--link group to groupKernel--><g class="link" data-entity-1="ent0008" data-entity-2="ent0014" data-link-type="dependency" data-source-line="64" id="lnk44"><path d="M773.46,308.7294 C773.46,319.9394 773.46,329.8394 773.46,329.8394 C773.46,329.8394 1081.21,329.8394 1081.21,329.8394 C1081.21,329.8394 1081.21,426.4994 1081.21,479.7194" fill="none" id="group-to-groupKernel" style="stroke:#000000;stroke-width:1;"/><polygon fill="#000000" points="1081.21,484.7194,1085.21,475.7194,1081.21,479.7194,1077.21,475.7194,1081.21,484.7194" style="stroke:#000000;stroke-width:1;stroke-linejoin:miter;stroke-miterlimit:10;"/></g><!--link homing to homeSupport--><g class="link" data-entity-1="ent0009" data-entity-2="ent0015" data-link-type="dependency" data-source-line="65" id="lnk45"><path d="M520.44,308.9194 C520.44,322.7394 520.44,335.8394 520.44,335.8394 C520.44,335.8394 732.44,335.8394 732.44,335.8394 C732.44,335.8394 732.44,428.1894 732.44,479.9094" fill="none" id="homing-to-homeSupport" style="stroke:#000000;stroke-width:1;"/><polygon fill="#000000" points="732.44,484.9094,736.44,475.9094,732.44,479.9094,728.44,475.9094,732.44,484.9094" style="stroke:#000000;stroke-width:1;stroke-linejoin:miter;stroke-miterlimit:10;"/></g><!--link homeSupport to axisKernel--><g class="link" data-entity-1="ent0015" data-entity-2="ent0012" data-link-type="dependency" data-source-line="66" id="lnk46"><path d="M691.04,505.8394 C669.75,505.8394 654.81,505.8394 654.81,505.8394 C654.81,505.8394 654.81,545.4794 654.81,577.3894" fill="none" id="homeSupport-to-axisKernel" style="stroke:#000000;stroke-width:1;"/><polygon fill="#000000" points="654.81,582.3894,658.81,573.3894,654.81,577.3894,650.81,573.3894,654.81,582.3894" style="stroke:#000000;stroke-width:1;stroke-linejoin:miter;stroke-miterlimit:10;"/></g><!--link axisKernel to axisStore--><g class="link" data-entity-1="ent0012" data-entity-2="ent0017" data-link-type="dependency" data-source-line="68" id="lnk47"><path d="M462,645.6694 C462,672.1194 462,704.5994 462,730.8894" fill="none" id="axisKernel-to-axisStore" style="stroke:#000000;stroke-width:1;"/><polygon fill="#000000" points="462,735.8894,466,726.8894,462,730.8894,458,726.8894,462,735.8894" style="stroke:#000000;stroke-width:1;stroke-linejoin:miter;stroke-miterlimit:10;"/></g><!--link syncSupport to syncStore--><g class="link" data-entity-1="ent0013" data-entity-2="ent0018" data-link-type="dependency" data-source-line="69" id="lnk48"><path d="M647.08,526.8394 C665.23,526.8394 677.21,526.8394 677.21,526.8394 C677.21,526.8394 677.21,666.2594 677.21,731.1294" fill="none" id="syncSupport-to-syncStore" style="stroke:#000000;stroke-width:1;"/><polygon fill="#000000" points="677.21,736.1294,681.21,727.1294,677.21,731.1294,673.21,727.1294,677.21,736.1294" style="stroke:#000000;stroke-width:1;stroke-linejoin:miter;stroke-miterlimit:10;"/></g><!--link groupKernel to groupStore--><g class="link" data-entity-1="ent0014" data-entity-2="ent0019" data-link-type="dependency" data-source-line="70" id="lnk49"><path d="M1158,548.1094 C1158,596.4594 1158,682.9794 1158,730.9394" fill="none" id="groupKernel-to-groupStore" style="stroke:#000000;stroke-width:1;"/><polygon fill="#000000" points="1158,735.9394,1162,726.9394,1158,730.9394,1154,726.9394,1158,735.9394" style="stroke:#000000;stroke-width:1;stroke-linejoin:miter;stroke-miterlimit:10;"/></g><!--link homeSupport to homeStore--><g class="link" data-entity-1="ent0015" data-entity-2="ent0020" data-link-type="dependency" data-source-line="71" id="lnk50"><path d="M924.53,548.1094 C924.53,596.4594 924.53,682.9794 924.53,730.9394" fill="none" id="homeSupport-to-homeStore" style="stroke:#000000;stroke-width:1;"/><polygon fill="#000000" points="924.53,735.9394,928.53,726.9394,924.53,730.9394,920.53,726.9394,924.53,735.9394" style="stroke:#000000;stroke-width:1;stroke-linejoin:miter;stroke-miterlimit:10;"/></g><!--link positive to single--><g class="link" data-entity-1="ent0022" data-entity-2="ent0006" data-link-type="dependency" data-source-line="73" id="lnk51"><path d="M710,155.0294 C710,175.7594 710,202.8394 710,202.8394 C710,202.8394 400.34,202.8394 400.34,202.8394 C400.34,202.8394 400.34,291.7094 400.34,342.3094" fill="none" id="positive-to-single" style="stroke:#000000;stroke-width:1;"/><polygon fill="#000000" points="400.34,347.3094,404.34,338.3094,400.34,342.3094,396.34,338.3094,400.34,347.3094" style="stroke:#000000;stroke-width:1;stroke-linejoin:miter;stroke-miterlimit:10;"/></g><!--link positive to sync--><g class="link" data-entity-1="ent0022" data-entity-2="ent0007" data-link-type="dependency" data-source-line="74" id="lnk52"><path d="M633.58,131.8394 C611.13,131.8394 592.48,131.8394 592.48,131.8394 C592.48,131.8394 592.48,275.2994 592.48,341.9894" fill="none" id="positive-to-sync" style="stroke:#000000;stroke-width:1;"/><polygon fill="#000000" points="592.48,346.9894,596.48,337.9894,592.48,341.9894,588.48,337.9894,592.48,346.9894" style="stroke:#000000;stroke-width:1;stroke-linejoin:miter;stroke-miterlimit:10;"/></g><!--link positive to group--><g class="link" data-entity-1="ent0022" data-entity-2="ent0008" data-link-type="dependency" data-source-line="75" id="lnk53"><path d="M748.01,155.1194 C748.01,179.6094 748.01,213.2494 748.01,240.4794" fill="none" id="positive-to-group" style="stroke:#000000;stroke-width:1;"/><polygon fill="#000000" points="748.01,245.4794,752.01,236.4794,748.01,240.4794,744.01,236.4794,748.01,245.4794" style="stroke:#000000;stroke-width:1;stroke-linejoin:miter;stroke-miterlimit:10;"/></g><!--link positive to homing--><g class="link" data-entity-1="ent0022" data-entity-2="ent0009" data-link-type="dependency" data-source-line="76" id="lnk54"><path d="M633.59,121.8394 C607.81,121.8394 585.43,121.8394 585.43,121.8394 C585.43,121.8394 585.43,276.8394 585.43,276.8394 C585.43,276.8394 577.01,276.8394 560.18,276.8394" fill="none" id="positive-to-homing" style="stroke:#000000;stroke-width:1;"/><polygon fill="#000000" points="555.18,276.8394,564.18,280.8394,560.18,276.8394,564.18,272.8394,555.18,276.8394" style="stroke:#000000;stroke-width:1;stroke-linejoin:miter;stroke-miterlimit:10;"/></g><!--link positive to oop--><g class="link" data-entity-1="ent0022" data-entity-2="ent0010" data-link-type="dependency" data-source-line="77" id="lnk55"><path d="M671.99,155.3594 C671.99,169.1394 671.99,183.8394 671.99,183.8394 C671.99,183.8394 363.57,183.8394 363.57,183.8394 C363.57,183.8394 363.57,213.5094 363.57,240.5894" fill="none" id="positive-to-oop" style="stroke:#000000;stroke-width:1;"/><polygon fill="#000000" points="363.57,245.5894,367.57,236.5894,363.57,240.5894,359.57,236.5894,363.57,245.5894" style="stroke:#000000;stroke-width:1;stroke-linejoin:miter;stroke-miterlimit:10;"/></g><!--link negative to single--><g class="link" data-entity-1="ent0023" data-entity-2="ent0006" data-link-type="dependency" data-source-line="78" id="lnk56"><path d="M848,155.3094 C848,206.5994 848,323.8394 848,323.8394 C848,323.8394 403.7,323.8394 403.7,323.8394 C403.7,323.8394 403.7,329.9194 403.7,342.1294" fill="none" id="negative-to-single" style="stroke:#000000;stroke-width:1;"/><polygon fill="#000000" points="403.7,347.1294,407.7,338.1294,403.7,342.1294,399.7,338.1294,403.7,347.1294" style="stroke:#000000;stroke-width:1;stroke-linejoin:miter;stroke-miterlimit:10;"/></g><!--link negative to sync--><g class="link" data-entity-1="ent0023" data-entity-2="ent0007" data-link-type="dependency" data-source-line="79" id="lnk57"><path d="M853.73,154.9994 C853.73,216.5094 853.73,378.8394 853.73,378.8394 C853.73,378.8394 705.65,378.8394 609.37,378.8394" fill="none" id="negative-to-sync" style="stroke:#000000;stroke-width:1;"/><polygon fill="#000000" points="604.37,378.8394,613.37,382.8394,609.37,378.8394,613.37,374.8394,604.37,378.8394" style="stroke:#000000;stroke-width:1;stroke-linejoin:miter;stroke-miterlimit:10;"/></g><!--link negative to group--><g class="link" data-entity-1="ent0023" data-entity-2="ent0008" data-link-type="dependency" data-source-line="80" id="lnk58"><path d="M830.51,131.8394 C812.76,131.8394 800.25,131.8394 800.25,131.8394 C800.25,131.8394 800.25,197.9094 800.25,240.6594" fill="none" id="negative-to-group" style="stroke:#000000;stroke-width:1;"/><polygon fill="#000000" points="800.25,245.6594,804.25,236.6594,800.25,240.6594,796.25,236.6594,800.25,245.6594" style="stroke:#000000;stroke-width:1;stroke-linejoin:miter;stroke-miterlimit:10;"/></g><!--link negative to homing--><g class="link" data-entity-1="ent0023" data-entity-2="ent0009" data-link-type="dependency" data-source-line="81" id="lnk59"><path d="M842.27,155.2094 C842.27,179.1594 842.27,212.8394 842.27,212.8394 C842.27,212.8394 521.89,212.8394 521.89,212.8394 C521.89,212.8394 521.89,224.4394 521.89,240.7694" fill="none" id="negative-to-homing" style="stroke:#000000;stroke-width:1;"/><polygon fill="#000000" points="521.89,245.7694,525.89,236.7694,521.89,240.7694,517.89,236.7694,521.89,245.7694" style="stroke:#000000;stroke-width:1;stroke-linejoin:miter;stroke-miterlimit:10;"/></g><!--link negative to oop--><g class="link" data-entity-1="ent0023" data-entity-2="ent0010" data-link-type="dependency" data-source-line="82" id="lnk60"><path d="M836.54,155.2294 C836.54,172.8094 836.54,193.8394 836.54,193.8394 C836.54,193.8394 371.12,193.8394 371.12,193.8394 C371.12,193.8394 371.12,217.0794 371.12,240.6794" fill="none" id="negative-to-oop" style="stroke:#000000;stroke-width:1;"/><polygon fill="#000000" points="371.12,245.6794,375.12,236.6794,371.12,240.6794,367.12,236.6794,371.12,245.6794" style="stroke:#000000;stroke-width:1;stroke-linejoin:miter;stroke-miterlimit:10;"/></g><!--link oop to GMN61--><g class="link" data-entity-1="ent0010" data-entity-2="ent0062" data-link-type="association" data-source-line="85" id="lnk63"><path d="M336.89,308.8194 C336.89,314.0694 336.89,317.8394 336.89,317.8394 C336.89,317.8394 920.02,317.8394 920.02,317.8394 C920.02,317.8394 920.02,312.1194 920.02,304.9794" fill="none" id="oop-GMN61" style="stroke:#000000;stroke-width:1;stroke-dasharray:7,7;"/></g><!--link axisStore to GMN64--><g class="link" data-entity-1="ent0017" data-entity-2="ent0065" data-link-type="association" data-source-line="91" id="lnk66"><path d="M518,736.1394 C518,714.2794 518,688.8394 518,688.8394 C518,688.8394 1343.14,688.8394 1343.14,688.8394 C1343.14,688.8394 1343.14,710.9094 1343.14,731.5994" fill="none" id="axisStore-GMN64" style="stroke:#000000;stroke-width:1;stroke-dasharray:7,7;"/></g><!--link negative to GMN67--><g class="link" data-entity-1="ent0023" data-entity-2="ent0068" data-link-type="association" data-source-line="98" id="lnk69"><path d="M1065.66,131.8394 C1277.44,131.8394 1701,131.8394 1701,131.8394 C1701,131.8394 1701,198.6094 1701,241.6394" fill="none" id="negative-GMN67" style="stroke:#000000;stroke-width:1;stroke-dasharray:7,7;"/></g><?plantuml-src ZLPHRzis47xNhxXvBzrGsy2slkoXGEeqNT5q2UgWJm4CYg8jpXGfa5GMRzX_tnr9IQIz3a60M7Uy-_Znu_78xtmhEW6zOb9NxYXrpophe6RyUB1cqCt6A6FX-vltz9T5SDFrHWljj_wa10oT-YaRLL8BV-e56EjRamreqmWdUlZbJUQqJ1_9-VERglBI8votm_O1xcytfXSQFXilZOPRMLjcJxy23cq7ksTSm9LkODioAnhu9AmMobLLZ-JPGS3YTsCxvkMJW8-w7xnRmDyL0BDUOgw7HSBTze8lW3bm-544R72HIZAD4trctihd4DQ5poBmMd3f4Cl16gx5asG4x4AqCWTN_PEn-Y86nsfSP5eFtCSHzwXVgU2ImgrxnMdjkovmNF_uGoG_oGwBhTG79PPNpn8pNJ1s38qTDrR4zGJdMTP9yzOQBVyA736pTCH4z9Lf6sDi8pNpA7IIROFJF6e-3oIk0O6AfoyXVZCTyabfRJ12QFmiO-_kxk66STPWg35zYCFVGiUqxH-rnurdYgeYbS25LAHH6dpKfRAxN3cPi7R74BjoFinCOp7xVxN4eknxBFZBASgudOjn8pmDfzGI_mE9-2tUbyAVuuOz-2_UQIU-HJTko3aQUiN8Cj-6MN-FN633BDQlfMBMHY_xeLQIf-9jc6SrSsAgNH8MzXA_735ur5-llkm-tDwzkxe57e6c3TXwB9mIv4p-5m05gI-0eiulI0-ANkOdFLy044GC-KKbF-2fq7lgLjHgRkIp7spe1zoYfcwzMgtM-ElTUf_6Nj0VxesJeVcDEO51dxnbxBNO2qkdQGrQ7DXbskWbtjGcORbyE_QNsQQsCLcn1KncEkQJJSSvTj8SA_SGMcP7lCoH43CFOLA_pH5dc_0cAw9DPiAQR4Ag8aAminP0E1FWU28mFfzqCeCYSzmvLc0nyqdUI6RaDPswxFiSfvg_fw5OP-UJpoSWct5c48VEPvhBjXhh9rzjwQCb5vueTU5ASXS-admglWozz15wuOdeXIkX5xwmeTfWXxBoq7em--1wQ0NGPRCFbms8PwGa74Y_fpkZOlYym6FIqQ-f_n3SE_YpnNCEZL017kS9NQmMBNkI-5Jo1l1D1LmnvoI7U9EuLIKGWkO_Pp5lrTH9NRZPbYuqrDG-i0bYYCJt2BxNj8yThy6d1aUwHglJYjPoeYYWQqnJ05Fg12Y6fsjxRqrN4RNOawVN5PyVEV4eNN2jZVUc8x9J6qWz2fEr6pgYfmm_8g7KHpJhX7jTaKRyXCz1N1bJxZMGa8DELml6HIwLIy-vJdGrWOqYjhWR6bYD__soPxwjKE5681hki7GUbu7p6Hl6fZt85l0l?></g></svg>