<svg xmlns="http://www.w3.org/2000/svg" xmlns:xlink="http://www.w3.org/1999/xlink" contentStyleType="text/css" data-diagram-type="DESCRIPTION" height="916px" preserveAspectRatio="none" style="width:2350px;height:916px;background:#FEFEFE;" version="1.1" viewBox="0 0 2350 916" width="2350px" zoomAndPan="magnify"><?plantuml 1.2026.4?><defs/><g><rect fill="#FEFEFE" height="916" style="stroke:none;stroke-width:1;" width="2350" x="0" y="0"/><g class="title" data-source-line="8"><text fill="#000000" font-family="Verdana" font-size="22" font-weight="700" lengthAdjust="spacing" textLength="783.041" x="782.6617" y="35.4209">truST Runtime Cloud Planes (Zenoh + SHM + Gateway Plugins)</text></g><!--cluster runtimeA--><g class="cluster" data-qualified-name="runtimeA" data-source-line="10" id="ent0001"><path d="M707.5,57.6094 L919.8193,57.6094 A3.75,3.75 0 0 1 922.3193,60.1094 L929.3193,79.9063 L1372.5,79.9063 A2.5,2.5 0 0 1 1375,82.4063 L1375,290.4394 A2.5,2.5 0 0 1 1372.5,292.9394 L707.5,292.9394 A2.5,2.5 0 0 1 705,290.4394 L705,60.1094 A2.5,2.5 0 0 1 707.5,57.6094" fill="#ADD8E6" style="stroke:#000000;stroke-width:1;"/><line style="stroke:#000000;stroke-width:1;" x1="705" x2="929.3193" y1="79.9063" y2="79.9063"/><text fill="#000000" font-family="Verdana" font-size="14" font-weight="700" lengthAdjust="spacing" textLength="211.3193" x="709" y="72.6045">Runtime (site-a/runtime-a)</text></g><!--cluster runtimeB--><g class="cluster" data-qualified-name="runtimeB" data-source-line="17" id="ent0006"><path d="M13.5,171.1994 L226.3936,171.1994 A3.75,3.75 0 0 1 228.8936,173.6994 L235.8936,193.4963 L678.5,193.4963 A2.5,2.5 0 0 1 681,195.9963 L681,452.1794 A2.5,2.5 0 0 1 678.5,454.6794 L13.5,454.6794 A2.5,2.5 0 0 1 11,452.1794 L11,173.6994 A2.5,2.5 0 0 1 13.5,171.1994" fill="#ADD8E6" style="stroke:#000000;stroke-width:1;"/><line style="stroke:#000000;stroke-width:1;" x1="11" x2="235.8936" y1="193.4963" y2="193.4963"/><text fill="#000000" font-family="Verdana" font-size="14" font-weight="700" lengthAdjust="spacing" textLength="211.8936" x="15" y="186.1945">Runtime (site-a/runtime-b)</text></g><!--cluster gateway--><g class="cluster" data-qualified-name="gateway" data-source-line="24" id="ent0011"><path d="M1046.5,324.9394 L1351.2891,324.9394 A3.75,3.75 0 0 1 1353.7891,327.4394 L1360.7891,347.2363 L2084.5,347.2363 A2.5,2.5 0 0 1 2087,349.7363 L2087,655.3694 A2.5,2.5 0 0 1 2084.5,657.8694 L1046.5,657.8694 A2.5,2.5 0 0 1 1044,655.3694 L1044,327.4394 A2.5,2.5 0 0 1 1046.5,324.9394" fill="#F5DEB3" style="stroke:#000000;stroke-width:1;"/><line style="stroke:#000000;stroke-width:1;" x1="1044" x2="1360.7891" y1="347.2363" y2="347.2363"/><text fill="#000000" font-family="Verdana" font-size="14" font-weight="700" lengthAdjust="spacing" textLength="303.7891" x="1048" y="339.9345">Gateway Plugin Host (optional profile)</text></g><!--cluster fleetUi--><g class="cluster" data-qualified-name="fleetUi" data-source-line="34" id="ent0019"><path d="M1107.5,689.8694 L1291.71,689.8694 A3.75,3.75 0 0 1 1294.21,692.3694 L1301.21,712.1663 L1448.5,712.1663 A2.5,2.5 0 0 1 1451,714.6663 L1451,898.5594 A2.5,2.5 0 0 1 1448.5,901.0594 L1107.5,901.0594 A2.5,2.5 0 0 1 1105,898.5594 L1105,692.3694 A2.5,2.5 0 0 1 1107.5,689.8694" fill="#F0F8FF" style="stroke:#000000;stroke-width:1;"/><line style="stroke:#000000;stroke-width:1;" x1="1105" x2="1301.21" y1="712.1663" y2="712.1663"/><text fill="#000000" font-family="Verdana" font-size="14" font-weight="700" lengthAdjust="spacing" textLength="183.21" x="1109" y="704.8645">Fleet Web UI (browser)</text></g><!--entity t0A--><g class="entity" data-qualified-name="runtimeA.t0A" data-source-line="11" id="ent0002"><rect fill="#FFFFFF" height="78.8906" rx="2.5" ry="2.5" style="stroke:#000000;stroke-width:1;" width="183.5273" x="721.24" y="198.0494"/><rect fill="#FFFFFF" height="10" style="stroke:#000000;stroke-width:1;" width="15" x="884.7673" y="203.0494"/><rect fill="#FFFFFF" height="2" style="stroke:#000000;stroke-width:1;" width="4" x="882.7673" y="205.0494"/><rect fill="#FFFFFF" height="2" style="stroke:#000000;stroke-width:1;" width="4" x="882.7673" y="209.0494"/><text fill="#000000" font-family="Verdana" font-size="14" lengthAdjust="spacing" textLength="116.7852" x="736.24" y="231.0445">T0 HardRT Plane</text><text fill="#000000" font-family="Verdana" font-size="14" lengthAdjust="spacing" textLength="143.5273" x="736.24" y="247.3414">OS-backed SHM ring</text><text fill="#000000" font-family="Verdana" font-size="14" lengthAdjust="spacing" textLength="117.7832" x="736.24" y="263.6382">(same host only)</text></g><!--entity cloudA--><g class="entity" data-qualified-name="runtimeA.cloudA" data-source-line="12" id="ent0003"><rect fill="#FFFFFF" height="62.5938" rx="2.5" ry="2.5" style="stroke:#000000;stroke-width:1;" width="260.8281" x="909.59" y="92.6094"/><rect fill="#FFFFFF" height="10" style="stroke:#000000;stroke-width:1;" width="15" x="1150.4181" y="97.6094"/><rect fill="#FFFFFF" height="2" style="stroke:#000000;stroke-width:1;" width="4" x="1148.4181" y="99.6094"/><rect fill="#FFFFFF" height="2" style="stroke:#000000;stroke-width:1;" width="4" x="1148.4181" y="103.6094"/><text fill="#000000" font-family="Verdana" font-size="14" lengthAdjust="spacing" textLength="159.7354" x="924.59" y="125.6045">Runtime Cloud Service</text><text fill="#000000" font-family="Verdana" font-size="14" lengthAdjust="spacing" textLength="220.8281" x="924.59" y="141.9014">preflight/dispatch/config/rollout</text></g><!--entity stateA--><g class="entity" data-qualified-name="runtimeA.stateA" data-source-line="13" id="ent0004"><path d="M949.49,216.6994 C949.49,206.6994 1040.0003,206.6994 1040.0003,206.6994 C1040.0003,206.6994 1130.5105,206.6994 1130.5105,216.6994 L1130.5105,258.2931 C1130.5105,268.2931 1040.0003,268.2931 1040.0003,268.2931 C1040.0003,268.2931 949.49,268.2931 949.49,258.2931 L949.49,216.6994" fill="#FFFFFF" style="stroke:#000000;stroke-width:1;"/><path d="M949.49,216.6994 C949.49,226.6994 1040.0003,226.6994 1040.0003,226.6994 C1040.0003,226.6994 1130.5105,226.6994 1130.5105,216.6994" fill="none" style="stroke:#000000;stroke-width:1;"/><text fill="#000000" font-family="Verdana" font-size="14" lengthAdjust="spacing" textLength="150.2266" x="959.49" y="243.6945">Persisted Cloud State</text><text fill="#000000" font-family="Verdana" font-size="14" lengthAdjust="spacing" textLength="161.0205" x="959.49" y="259.9914">config/link/rollout JSON</text></g><!--entity meshA--><g class="entity" data-qualified-name="runtimeA.meshA" data-source-line="14" id="ent0005"><rect fill="#FFFFFF" height="62.5938" rx="2.5" ry="2.5" style="stroke:#000000;stroke-width:1;" width="183.6914" x="1175.15" y="206.1994"/><rect fill="#FFFFFF" height="10" style="stroke:#000000;stroke-width:1;" width="15" x="1338.8414" y="211.1994"/><rect fill="#FFFFFF" height="2" style="stroke:#000000;stroke-width:1;" width="4" x="1336.8414" y="213.1994"/><rect fill="#FFFFFF" height="2" style="stroke:#000000;stroke-width:1;" width="4" x="1336.8414" y="217.1994"/><text fill="#000000" font-family="Verdana" font-size="14" lengthAdjust="spacing" textLength="143.6914" x="1190.15" y="239.1945">Zenoh Mesh Session</text><text fill="#000000" font-family="Verdana" font-size="14" lengthAdjust="spacing" textLength="72.7344" x="1190.15" y="255.4914">(T1/T2/T3)</text></g><!--entity t0B--><g class="entity" data-qualified-name="runtimeB.t0B" data-source-line="18" id="ent0007"><rect fill="#FFFFFF" height="78.8906" rx="2.5" ry="2.5" style="stroke:#000000;stroke-width:1;" width="183.5273" x="27.24" y="359.7894"/><rect fill="#FFFFFF" height="10" style="stroke:#000000;stroke-width:1;" width="15" x="190.7673" y="364.7894"/><rect fill="#FFFFFF" height="2" style="stroke:#000000;stroke-width:1;" width="4" x="188.7673" y="366.7894"/><rect fill="#FFFFFF" height="2" style="stroke:#000000;stroke-width:1;" width="4" x="188.7673" y="370.7894"/><text fill="#000000" font-family="Verdana" font-size="14" lengthAdjust="spacing" textLength="116.7852" x="42.24" y="392.7845">T0 HardRT Plane</text><text fill="#000000" font-family="Verdana" font-size="14" lengthAdjust="spacing" textLength="143.5273" x="42.24" y="409.0814">OS-backed SHM ring</text><text fill="#000000" font-family="Verdana" font-size="14" lengthAdjust="spacing" textLength="117.7832" x="42.24" y="425.3782">(same host only)</text></g><!--entity cloudB--><g class="entity" data-qualified-name="runtimeB.cloudB" data-source-line="19" id="ent0008"><rect fill="#FFFFFF" height="62.5938" rx="2.5" ry="2.5" style="stroke:#000000;stroke-width:1;" width="260.8281" x="215.59" y="206.1994"/><rect fill="#FFFFFF" height="10" style="stroke:#000000;stroke-width:1;" width="15" x="456.4181" y="211.1994"/><rect fill="#FFFFFF" height="2" style="stroke:#000000;stroke-width:1;" width="4" x="454.4181" y="213.1994"/><rect fill="#FFFFFF" height="2" style="stroke:#000000;stroke-width:1;" width="4" x="454.4181" y="217.1994"/><text fill="#000000" font-family="Verdana" font-size="14" lengthAdjust="spacing" textLength="159.7354" x="230.59" y="239.1945">Runtime Cloud Service</text><text fill="#000000" font-family="Verdana" font-size="14" lengthAdjust="spacing" textLength="220.8281" x="230.59" y="255.4914">preflight/dispatch/config/rollout</text></g><!--entity stateB--><g class="entity" data-qualified-name="runtimeB.stateB" data-source-line="20" id="ent0009"><path d="M255.49,378.4394 C255.49,368.4394 346.0003,368.4394 346.0003,368.4394 C346.0003,368.4394 436.5105,368.4394 436.5105,378.4394 L436.5105,420.0331 C436.5105,430.0331 346.0003,430.0331 346.0003,430.0331 C346.0003,430.0331 255.49,430.0331 255.49,420.0331 L255.49,378.4394" fill="#FFFFFF" style="stroke:#000000;stroke-width:1;"/><path d="M255.49,378.4394 C255.49,388.4394 346.0003,388.4394 346.0003,388.4394 C346.0003,388.4394 436.5105,388.4394 436.5105,378.4394" fill="none" style="stroke:#000000;stroke-width:1;"/><text fill="#000000" font-family="Verdana" font-size="14" lengthAdjust="spacing" textLength="150.2266" x="265.49" y="405.4345">Persisted Cloud State</text><text fill="#000000" font-family="Verdana" font-size="14" lengthAdjust="spacing" textLength="161.0205" x="265.49" y="421.7314">config/link/rollout JSON</text></g><!--entity meshB--><g class="entity" data-qualified-name="runtimeB.meshB" data-source-line="21" id="ent0010"><rect fill="#FFFFFF" height="62.5938" rx="2.5" ry="2.5" style="stroke:#000000;stroke-width:1;" width="183.6914" x="481.15" y="367.9394"/><rect fill="#FFFFFF" height="10" style="stroke:#000000;stroke-width:1;" width="15" x="644.8414" y="372.9394"/><rect fill="#FFFFFF" height="2" style="stroke:#000000;stroke-width:1;" width="4" x="642.8414" y="374.9394"/><rect fill="#FFFFFF" height="2" style="stroke:#000000;stroke-width:1;" width="4" x="642.8414" y="378.9394"/><text fill="#000000" font-family="Verdana" font-size="14" lengthAdjust="spacing" textLength="143.6914" x="496.15" y="400.9345">Zenoh Mesh Session</text><text fill="#000000" font-family="Verdana" font-size="14" lengthAdjust="spacing" textLength="72.7344" x="496.15" y="417.2314">(T1/T2/T3)</text></g><!--entity aclPlugin--><g class="entity" data-qualified-name="gateway.aclPlugin" data-source-line="25" id="ent0012"><rect fill="#FFFFFF" height="62.5938" rx="2.5" ry="2.5" style="stroke:#000000;stroke-width:1;" width="217.4609" x="1068.27" y="367.9394"/><rect fill="#FFFFFF" height="10" style="stroke:#000000;stroke-width:1;" width="15" x="1265.7309" y="372.9394"/><rect fill="#FFFFFF" height="2" style="stroke:#000000;stroke-width:1;" width="4" x="1263.7309" y="374.9394"/><rect fill="#FFFFFF" height="2" style="stroke:#000000;stroke-width:1;" width="4" x="1263.7309" y="378.9394"/><text fill="#000000" font-family="Verdana" font-size="14" lengthAdjust="spacing" textLength="67.915" x="1083.27" y="400.9345">acl plugin</text><text fill="#000000" font-family="Verdana" font-size="14" lengthAdjust="spacing" textLength="177.4609" x="1083.27" y="417.2314">(default-deny + allowlist)</text></g><!--entity storagePlugin--><g class="entity" data-qualified-name="gateway.storagePlugin" data-source-line="26" id="ent0013"><rect fill="#FFFFFF" height="62.5938" rx="2.5" ry="2.5" style="stroke:#000000;stroke-width:1;" width="222.5195" x="1330.74" y="367.9394"/><rect fill="#FFFFFF" height="10" style="stroke:#000000;stroke-width:1;" width="15" x="1533.2595" y="372.9394"/><rect fill="#FFFFFF" height="2" style="stroke:#000000;stroke-width:1;" width="4" x="1531.2595" y="374.9394"/><rect fill="#FFFFFF" height="2" style="stroke:#000000;stroke-width:1;" width="4" x="1531.2595" y="378.9394"/><text fill="#000000" font-family="Verdana" font-size="14" lengthAdjust="spacing" textLength="100.9326" x="1345.74" y="400.9345">storage plugin</text><text fill="#000000" font-family="Verdana" font-size="14" lengthAdjust="spacing" textLength="182.5195" x="1345.74" y="417.2314">(retention cfg/meta/audit)</text></g><!--entity bridgePlugin--><g class="entity" data-qualified-name="gateway.bridgePlugin" data-source-line="27" id="ent0014"><rect fill="#FFFFFF" height="62.5938" rx="2.5" ry="2.5" style="stroke:#000000;stroke-width:1;" width="284.501" x="1174.75" y="473.6794"/><rect fill="#FFFFFF" height="10" style="stroke:#000000;stroke-width:1;" width="15" x="1439.251" y="478.6794"/><rect fill="#FFFFFF" height="2" style="stroke:#000000;stroke-width:1;" width="4" x="1437.251" y="480.6794"/><rect fill="#FFFFFF" height="2" style="stroke:#000000;stroke-width:1;" width="4" x="1437.251" y="484.6794"/><text fill="#000000" font-family="Verdana" font-size="14" lengthAdjust="spacing" textLength="92.668" x="1189.75" y="506.6745">bridge plugin</text><text fill="#000000" font-family="Verdana" font-size="14" lengthAdjust="spacing" textLength="244.501" x="1189.75" y="522.9714">cross-site policy + degraded mode</text></g><!--entity restPlugin--><g class="entity" data-qualified-name="gateway.restPlugin" data-source-line="28" id="ent0015"><rect fill="#FFFFFF" height="62.5938" rx="2.5" ry="2.5" style="stroke:#000000;stroke-width:1;" width="231.0508" x="1134.47" y="571.2794"/><rect fill="#FFFFFF" height="10" style="stroke:#000000;stroke-width:1;" width="15" x="1345.5208" y="576.2794"/><rect fill="#FFFFFF" height="2" style="stroke:#000000;stroke-width:1;" width="4" x="1343.5208" y="578.2794"/><rect fill="#FFFFFF" height="2" style="stroke:#000000;stroke-width:1;" width="4" x="1343.5208" y="582.2794"/><text fill="#000000" font-family="Verdana" font-size="14" lengthAdjust="spacing" textLength="101.3086" x="1149.47" y="604.2745">api-rest plugin</text><text fill="#000000" font-family="Verdana" font-size="14" lengthAdjust="spacing" textLength="191.0508" x="1149.47" y="620.5714">commissioning + fleet APIs</text></g><!--entity wsPlugin--><g class="entity" data-qualified-name="gateway.wsPlugin" data-source-line="29" id="ent0016"><rect fill="#FFFFFF" height="62.5938" rx="2.5" ry="2.5" style="stroke:#000000;stroke-width:1;" width="161.6113" x="1410.19" y="571.2794"/><rect fill="#FFFFFF" height="10" style="stroke:#000000;stroke-width:1;" width="15" x="1551.8013" y="576.2794"/><rect fill="#FFFFFF" height="2" style="stroke:#000000;stroke-width:1;" width="4" x="1549.8013" y="578.2794"/><rect fill="#FFFFFF" height="2" style="stroke:#000000;stroke-width:1;" width="4" x="1549.8013" y="582.2794"/><text fill="#000000" font-family="Verdana" font-size="14" lengthAdjust="spacing" textLength="92.9004" x="1425.19" y="604.2745">api-ws plugin</text><text fill="#000000" font-family="Verdana" font-size="14" lengthAdjust="spacing" textLength="121.6113" x="1425.19" y="620.5714">web client fanout</text></g><!--entity auditPlugin--><g class="entity" data-qualified-name="gateway.auditPlugin" data-source-line="30" id="ent0017"><rect fill="#FFFFFF" height="62.5938" rx="2.5" ry="2.5" style="stroke:#000000;stroke-width:1;" width="184.4365" x="1597.78" y="367.9394"/><rect fill="#FFFFFF" height="10" style="stroke:#000000;stroke-width:1;" width="15" x="1762.2165" y="372.9394"/><rect fill="#FFFFFF" height="2" style="stroke:#000000;stroke-width:1;" width="4" x="1760.2165" y="374.9394"/><rect fill="#FFFFFF" height="2" style="stroke:#000000;stroke-width:1;" width="4" x="1760.2165" y="378.9394"/><text fill="#000000" font-family="Verdana" font-size="14" lengthAdjust="spacing" textLength="83.4668" x="1612.78" y="400.9345">audit plugin</text><text fill="#000000" font-family="Verdana" font-size="14" lengthAdjust="spacing" textLength="144.4365" x="1612.78" y="417.2314">publish diag/audit/**</text></g><!--entity witnessPlugin--><g class="entity" data-qualified-name="gateway.witnessPlugin" data-source-line="31" id="ent0018"><rect fill="#FFFFFF" height="62.5938" rx="2.5" ry="2.5" style="stroke:#000000;stroke-width:1;" width="206.4551" x="1826.77" y="367.9394"/><rect fill="#FFFFFF" height="10" style="stroke:#000000;stroke-width:1;" width="15" x="2013.2251" y="372.9394"/><rect fill="#FFFFFF" height="2" style="stroke:#000000;stroke-width:1;" width="4" x="2011.2251" y="374.9394"/><rect fill="#FFFFFF" height="2" style="stroke:#000000;stroke-width:1;" width="4" x="2011.2251" y="378.9394"/><text fill="#000000" font-family="Verdana" font-size="14" lengthAdjust="spacing" textLength="123.1563" x="1841.77" y="400.9345">ha-witness plugin</text><text fill="#000000" font-family="Verdana" font-size="14" lengthAdjust="spacing" textLength="166.4551" x="1841.77" y="417.2314">(optional lease witness)</text></g><!--entity topoComposer--><g class="entity" data-qualified-name="fleetUi.topoComposer" data-source-line="35" id="ent0020"><rect fill="#FFFFFF" height="62.5938" rx="2.5" ry="2.5" style="stroke:#000000;stroke-width:1;" width="313.417" x="1121.29" y="822.4694"/><rect fill="#FFFFFF" height="10" style="stroke:#000000;stroke-width:1;" width="15" x="1414.707" y="827.4694"/><rect fill="#FFFFFF" height="2" style="stroke:#000000;stroke-width:1;" width="4" x="1412.707" y="829.4694"/><rect fill="#FFFFFF" height="2" style="stroke:#000000;stroke-width:1;" width="4" x="1412.707" y="833.4694"/><text fill="#000000" font-family="Verdana" font-size="14" lengthAdjust="spacing" textLength="139.7402" x="1136.29" y="855.4645">Topology Composer</text><text fill="#000000" font-family="Verdana" font-size="14" lengthAdjust="spacing" textLength="273.417" x="1136.29" y="871.7614">Host -&gt; Runtime -&gt; Driver -&gt; Endpoint</text></g><!--entity commsEditor--><g class="entity" data-qualified-name="fleetUi.commsEditor" data-source-line="36" id="ent0021"><rect fill="#FFFFFF" height="62.5938" rx="2.5" ry="2.5" style="stroke:#000000;stroke-width:1;" width="252.4404" x="1135.78" y="724.8694"/><rect fill="#FFFFFF" height="10" style="stroke:#000000;stroke-width:1;" width="15" x="1368.2204" y="729.8694"/><rect fill="#FFFFFF" height="2" style="stroke:#000000;stroke-width:1;" width="4" x="1366.2204" y="731.8694"/><rect fill="#FFFFFF" height="2" style="stroke:#000000;stroke-width:1;" width="4" x="1366.2204" y="735.8694"/><text fill="#000000" font-family="Verdana" font-size="14" lengthAdjust="spacing" textLength="98.793" x="1150.78" y="757.8645">Comms Editor</text><text fill="#000000" font-family="Verdana" font-size="14" lengthAdjust="spacing" textLength="212.4404" x="1150.78" y="774.1614">runtime-owned io.toml drivers</text></g><g class="entity" data-qualified-name="GMN40" data-source-line="61" id="ent0041"><path d="M1403.64,217.3594 L1403.64,257.625 L1666.3588,257.625 L1666.3588,227.3594 L1656.3588,217.3594 L1403.64,217.3594" fill="#FFFFFF" style="stroke:#000000;stroke-width:1;"/><path d="M1656.3588,217.3594 L1656.3588,227.3594 L1666.3588,227.3594 L1656.3588,217.3594" fill="#FFFFFF" style="stroke:#000000;stroke-width:1;"/><text fill="#000000" font-family="Verdana" font-size="13" lengthAdjust="spacing" textLength="204.6611" x="1409.64" y="234.4263">No fallback from T0 to mesh/IP.</text><text fill="#000000" font-family="Verdana" font-size="13" lengthAdjust="spacing" textLength="241.7188" x="1409.64" y="249.5591">Contract violations are deterministic.</text></g><g class="entity" data-qualified-name="GMN43" data-source-line="66" id="ent0044"><path d="M2110.63,477.2794 L2110.63,532.6778 L2335.3644,532.6778 L2335.3644,487.2794 L2325.3644,477.2794 L2110.63,477.2794" fill="#FFFFFF" style="stroke:#000000;stroke-width:1;"/><path d="M2325.3644,477.2794 L2325.3644,487.2794 L2335.3644,487.2794 L2325.3644,477.2794" fill="#FFFFFF" style="stroke:#000000;stroke-width:1;"/><text fill="#000000" font-family="Verdana" font-size="13" lengthAdjust="spacing" textLength="192.8291" x="2116.63" y="494.3463">Gateway profile is pluginized;</text><text fill="#000000" font-family="Verdana" font-size="13" lengthAdjust="spacing" textLength="203.7344" x="2116.63" y="509.4791">plugin failures remain bounded</text><text fill="#000000" font-family="Verdana" font-size="13" lengthAdjust="spacing" textLength="190.2329" x="2116.63" y="524.6119">and surfaced via diagnostics.</text></g><!--link cloudA to t0A--><g class="link" data-entity-1="ent0003" data-entity-2="ent0002" data-link-type="dependency" data-source-line="39" id="lnk22"><path d="M929.54,155.6894 C929.54,177.3294 929.54,202.0594 929.54,202.0594 C929.54,202.0594 924.4,202.0594 910.11,202.0594" fill="none" id="cloudA-to-t0A" style="stroke:#000000;stroke-width:1;"/><polygon fill="#000000" points="905.11,202.0594,914.11,206.0594,910.11,202.0594,914.11,198.0594,905.11,202.0594" style="stroke:#000000;stroke-width:1;stroke-linejoin:miter;stroke-miterlimit:10;"/><text fill="#000000" font-family="Verdana" font-size="13" lengthAdjust="spacing" textLength="128.3115" x="800.54" y="187.1563">handle-only T0 APIs</text></g><!--link cloudB to t0B--><g class="link" data-entity-1="ent0008" data-entity-2="ent0007" data-link-type="dependency" data-source-line="40" id="lnk23"><path d="M235.54,269.0294 C235.54,306.7994 235.54,365.0594 235.54,365.0594 C235.54,365.0594 230.4,365.0594 216.11,365.0594" fill="none" id="cloudB-to-t0B" style="stroke:#000000;stroke-width:1;"/><polygon fill="#000000" points="211.11,365.0594,220.11,369.0594,216.11,365.0594,220.11,361.0594,211.11,365.0594" style="stroke:#000000;stroke-width:1;stroke-linejoin:miter;stroke-miterlimit:10;"/><text fill="#000000" font-family="Verdana" font-size="13" lengthAdjust="spacing" textLength="128.3115" x="106.54" y="325.3263">handle-only T0 APIs</text></g><!--link cloudA to stateA--><g class="link" data-entity-1="ent0003" data-entity-2="ent0004" data-link-type="dependency" data-source-line="41" id="lnk24"><path d="M1040,155.5494 C1040,171.4294 1040,185.6094 1040,201.4194" fill="none" id="cloudA-to-stateA" style="stroke:#000000;stroke-width:1;"/><polygon fill="#000000" points="1040,206.4194,1044,197.4194,1040,201.4194,1036,197.4194,1040,206.4194" style="stroke:#000000;stroke-width:1;stroke-linejoin:miter;stroke-miterlimit:10;"/><text fill="#000000" font-family="Verdana" font-size="13" lengthAdjust="spacing" textLength="65.3301" x="1125.1509" y="147.0463">load/store</text><text fill="#000000" font-family="Verdana" font-size="13" lengthAdjust="spacing" textLength="153.5435" x="1081.0442" y="162.1791">corrupt config =&gt; Error</text><text fill="#000000" font-family="Verdana" font-size="13" lengthAdjust="spacing" textLength="233.6318" x="1041" y="177.3119">corrupt link/rollout =&gt; startup error</text></g><!--link cloudB to stateB--><g class="link" data-entity-1="ent0008" data-entity-2="ent0009" data-link-type="dependency" data-source-line="42" id="lnk25"><path d="M346,269.0694 C346,297.6594 346,334.5394 346,363.0194" fill="none" id="cloudB-to-stateB" style="stroke:#000000;stroke-width:1;"/><polygon fill="#000000" points="346,368.0194,350,359.0194,346,363.0194,342,359.0194,346,368.0194" style="stroke:#000000;stroke-width:1;stroke-linejoin:miter;stroke-miterlimit:10;"/><text fill="#000000" font-family="Verdana" font-size="13" lengthAdjust="spacing" textLength="65.3301" x="431.1509" y="284.6163">load/store</text><text fill="#000000" font-family="Verdana" font-size="13" lengthAdjust="spacing" textLength="153.5435" x="387.0442" y="299.7491">corrupt config =&gt; Error</text><text fill="#000000" font-family="Verdana" font-size="13" lengthAdjust="spacing" textLength="233.6318" x="347" y="314.8819">corrupt link/rollout =&gt; startup error</text></g><!--link cloudA to meshA--><g class="link" data-entity-1="ent0003" data-entity-2="ent0005" data-link-type="dependency" data-source-line="44" id="lnk26"><path d="M1150.46,155.4194 C1150.46,188.9094 1150.46,237.0594 1150.46,237.0594 C1150.46,237.0594 1155.6,237.0594 1169.89,237.0594" fill="none" id="cloudA-to-meshA" style="stroke:#000000;stroke-width:1;"/><polygon fill="#000000" points="1174.89,237.0594,1165.89,233.0594,1169.89,237.0594,1165.89,241.0594,1174.89,237.0594" style="stroke:#000000;stroke-width:1;stroke-linejoin:miter;stroke-miterlimit:10;"/><text fill="#000000" font-family="Verdana" font-size="13" lengthAdjust="spacing" textLength="88.8862" x="1017.0779" y="189.5263">publish/query</text><text fill="#000000" font-family="Verdana" font-size="13" lengthAdjust="spacing" textLength="176.1221" x="973.46" y="204.6591">snapshot timeout =&gt; error</text></g><!--link cloudB to meshB--><g class="link" data-entity-1="ent0008" data-entity-2="ent0010" data-link-type="dependency" data-source-line="45" id="lnk27"><path d="M456.46,269.0294 C456.46,316.0494 456.46,399.0594 456.46,399.0594 C456.46,399.0594 461.6,399.0594 475.89,399.0594" fill="none" id="cloudB-to-meshB" style="stroke:#000000;stroke-width:1;"/><polygon fill="#000000" points="480.89,399.0594,471.89,395.0594,475.89,399.0594,471.89,403.0594,480.89,399.0594" style="stroke:#000000;stroke-width:1;stroke-linejoin:miter;stroke-miterlimit:10;"/><text fill="#000000" font-family="Verdana" font-size="13" lengthAdjust="spacing" textLength="88.8862" x="323.0779" y="327.3263">publish/query</text><text fill="#000000" font-family="Verdana" font-size="13" lengthAdjust="spacing" textLength="176.1221" x="279.46" y="342.4591">snapshot timeout =&gt; error</text></g><!--link meshA to meshB--><g class="link" data-entity-1="ent0005" data-entity-2="ent0010" data-link-type="dependency" data-source-line="46" id="lnk28"><path d="M1230.44,274.2494 C1230.44,311.1594 1230.44,362.0594 1230.44,362.0594 C1230.44,362.0594 573,362.0594 573,362.0594 C573,362.0594 573,359.2394 573,362.5494" fill="none" id="meshA-meshB" style="stroke:#000000;stroke-width:1;"/><polygon fill="#000000" points="1230.44,269.2494,1226.44,278.2494,1230.44,274.2494,1234.44,278.2494,1230.44,269.2494" style="stroke:#000000;stroke-width:1;stroke-linejoin:miter;stroke-miterlimit:10;"/><polygon fill="#000000" points="573,367.5494,577,358.5494,573,362.5494,569,358.5494,573,367.5494" style="stroke:#000000;stroke-width:1;stroke-linejoin:miter;stroke-miterlimit:10;"/><text fill="#000000" font-family="Verdana" font-size="13" lengthAdjust="spacing" textLength="185.9038" x="759.38" y="358.1263">Zenoh keyspace + liveliness</text></g><!--link meshA to bridgePlugin--><g class="link" data-entity-1="ent0005" data-entity-2="ent0014" data-link-type="dependency" data-source-line="48" id="lnk29"><path d="M1308.24,269.2294 C1308.24,320.7094 1308.24,416.8394 1308.24,468.2894" fill="none" id="meshA-to-bridgePlugin" style="stroke:#000000;stroke-width:1;"/><polygon fill="#000000" points="1308.24,473.2894,1312.24,464.2894,1308.24,468.2894,1304.24,464.2894,1308.24,473.2894" style="stroke:#000000;stroke-width:1;stroke-linejoin:miter;stroke-miterlimit:10;"/><text fill="#000000" font-family="Verdana" font-size="13" lengthAdjust="spacing" textLength="184.7104" x="1309.24" y="367.3263">gateway-assisted federation</text></g><!--link meshB to bridgePlugin--><g class="link" data-entity-1="ent0010" data-entity-2="ent0014" data-link-type="dependency" data-source-line="49" id="lnk30"><path d="M573,430.9894 C573,462.1594 573,505.0594 573,505.0594 C573,505.0594 953.4,505.0594 1169.43,505.0594" fill="none" id="meshB-to-bridgePlugin" style="stroke:#000000;stroke-width:1;"/><polygon fill="#000000" points="1174.43,505.0594,1165.43,501.0594,1169.43,505.0594,1165.43,509.0594,1174.43,505.0594" style="stroke:#000000;stroke-width:1;stroke-linejoin:miter;stroke-miterlimit:10;"/><text fill="#000000" font-family="Verdana" font-size="13" lengthAdjust="spacing" textLength="184.7104" x="651.68" y="501.1263">gateway-assisted federation</text></g><!--link aclPlugin to bridgePlugin--><g class="link" data-entity-1="ent0012" data-entity-2="ent0014" data-link-type="dependency" data-source-line="50" id="lnk31"><path d="M1230.24,430.9694 C1230.24,444.3494 1230.24,454.8994 1230.24,468.2794" fill="none" id="aclPlugin-to-bridgePlugin" style="stroke:#000000;stroke-width:1;"/><polygon fill="#000000" points="1230.24,473.2794,1234.24,464.2794,1230.24,468.2794,1226.24,464.2794,1230.24,473.2794" style="stroke:#000000;stroke-width:1;stroke-linejoin:miter;stroke-miterlimit:10;"/><text fill="#000000" font-family="Verdana" font-size="13" lengthAdjust="spacing" textLength="102.7622" x="1127.24" y="448.1863">policy decisions</text></g><!--link storagePlugin to bridgePlugin--><g class="link" data-entity-1="ent0013" data-entity-2="ent0014" data-link-type="dependency" data-source-line="51" id="lnk32"><path d="M1395,430.9694 C1395,444.3494 1395,454.8994 1395,468.2794" fill="none" id="storagePlugin-to-bridgePlugin" style="stroke:#000000;stroke-width:1;"/><polygon fill="#000000" points="1395,473.2794,1399,464.2794,1395,468.2794,1391,464.2794,1395,473.2794" style="stroke:#000000;stroke-width:1;stroke-linejoin:miter;stroke-miterlimit:10;"/><text fill="#000000" font-family="Verdana" font-size="13" lengthAdjust="spacing" textLength="230.1978" x="1164" y="465.1863">retained desired/meta + snapshots</text></g><!--link auditPlugin to bridgePlugin--><g class="link" data-entity-1="ent0017" data-entity-2="ent0014" data-link-type="dependency" data-source-line="52" id="lnk33"><path d="M1690,430.8394 C1690,457.3994 1690,491.0594 1690,491.0594 C1690,491.0594 1569.91,491.0594 1464.61,491.0594" fill="none" id="auditPlugin-to-bridgePlugin" style="stroke:#000000;stroke-width:1;"/><polygon fill="#000000" points="1459.61,491.0594,1468.61,495.0594,1464.61,491.0594,1468.61,487.0594,1459.61,491.0594" style="stroke:#000000;stroke-width:1;stroke-linejoin:miter;stroke-miterlimit:10;"/><text fill="#000000" font-family="Verdana" font-size="13" lengthAdjust="spacing" textLength="206.9019" x="1605.92" y="487.1263">protected-action audit emission</text></g><!--link witnessPlugin to bridgePlugin--><g class="link" data-entity-1="ent0018" data-entity-2="ent0014" data-link-type="dependency" data-source-line="53" id="lnk34"><path d="M1930,430.9894 C1930,462.1594 1930,505.0594 1930,505.0594 C1930,505.0594 1645.67,505.0594 1464.56,505.0594" fill="none" id="witnessPlugin-to-bridgePlugin" style="stroke:#000000;stroke-width:1;"/><polygon fill="#000000" points="1459.56,505.0594,1468.56,509.0594,1464.56,505.0594,1468.56,501.0594,1459.56,505.0594" style="stroke:#000000;stroke-width:1;stroke-linejoin:miter;stroke-miterlimit:10;"/><text fill="#000000" font-family="Verdana" font-size="13" lengthAdjust="spacing" textLength="71.4111" x="1659.82" y="518.1263">lease state</text></g><!--link bridgePlugin to restPlugin--><g class="link" data-entity-1="ent0014" data-entity-2="ent0015" data-link-type="dependency" data-source-line="54" id="lnk35"><path d="M1270.14,536.6694 C1270.14,547.6894 1270.14,555.0394 1270.14,566.0494" fill="none" id="bridgePlugin-to-restPlugin" style="stroke:#000000;stroke-width:1;"/><polygon fill="#000000" points="1270.14,571.0494,1274.14,562.0494,1270.14,566.0494,1266.14,562.0494,1270.14,571.0494" style="stroke:#000000;stroke-width:1;stroke-linejoin:miter;stroke-miterlimit:10;"/><text fill="#000000" font-family="Verdana" font-size="13" lengthAdjust="spacing" textLength="152.2739" x="1117.14" y="549.9263">REST dispatch/preflight</text></g><!--link bridgePlugin to wsPlugin--><g class="link" data-entity-1="ent0014" data-entity-2="ent0016" data-link-type="dependency" data-source-line="55" id="lnk36"><path d="M1434.72,536.6694 C1434.72,547.6894 1434.72,555.0394 1434.72,566.0494" fill="none" id="bridgePlugin-to-wsPlugin" style="stroke:#000000;stroke-width:1;"/><polygon fill="#000000" points="1434.72,571.0494,1438.72,562.0494,1434.72,566.0494,1430.72,562.0494,1434.72,571.0494" style="stroke:#000000;stroke-width:1;stroke-linejoin:miter;stroke-miterlimit:10;"/><text fill="#000000" font-family="Verdana" font-size="13" lengthAdjust="spacing" textLength="117.0063" x="1316.72" y="549.9263">fleet web updates</text></g><!--link wsPlugin to topoComposer--><g class="link" data-entity-1="ent0016" data-entity-2="ent0020" data-link-type="dependency" data-source-line="56" id="lnk37"><path d="M1422.45,634.1294 C1422.45,682.3594 1422.45,768.8694 1422.45,817.1394" fill="none" id="wsPlugin-to-topoComposer" style="stroke:#000000;stroke-width:1;"/><polygon fill="#000000" points="1422.45,822.1394,1426.45,813.1394,1422.45,817.1394,1418.45,813.1394,1422.45,822.1394" style="stroke:#000000;stroke-width:1;stroke-linejoin:miter;stroke-miterlimit:10;"/><text fill="#000000" font-family="Verdana" font-size="13" lengthAdjust="spacing" textLength="178.1279" x="1423.45" y="724.2063">runtime-cloud state stream</text></g><!--link restPlugin to commsEditor--><g class="link" data-entity-1="ent0015" data-entity-2="ent0021" data-link-type="dependency" data-source-line="57" id="lnk38"><path d="M1250.65,634.0294 C1250.65,660.4494 1250.65,693.0194 1250.65,719.4994" fill="none" id="restPlugin-to-commsEditor" style="stroke:#000000;stroke-width:1;"/><polygon fill="#000000" points="1250.65,724.4994,1254.65,715.4994,1250.65,719.4994,1246.65,715.4994,1250.65,724.4994" style="stroke:#000000;stroke-width:1;stroke-linejoin:miter;stroke-miterlimit:10;"/><text fill="#000000" font-family="Verdana" font-size="13" lengthAdjust="spacing" textLength="157.7075" x="1092.65" y="675.3263">read/write io config APIs</text></g><!--link commsEditor to topoComposer--><g class="link" data-entity-1="ent0021" data-entity-2="ent0020" data-link-type="dependency" data-source-line="58" id="lnk39"><path d="M1262,787.8594 C1262,798.8794 1262,806.2294 1262,817.2394" fill="none" id="commsEditor-to-topoComposer" style="stroke:#000000;stroke-width:1;"/><polygon fill="#000000" points="1262,822.2394,1266,813.2394,1262,817.2394,1258,813.2394,1262,822.2394" style="stroke:#000000;stroke-width:1;stroke-linejoin:miter;stroke-miterlimit:10;"/><text fill="#000000" font-family="Verdana" font-size="13" lengthAdjust="spacing" textLength="176.1221" x="1085" y="801.1163">driver+endpoint projection</text></g><!--link t0A to GMN40--><g class="link" data-entity-1="ent0002" data-entity-2="ent0041" data-link-type="association" data-source-line="61" id="lnk42"><path d="M905.18,273.0594 C1087.88,273.0594 1478.45,273.0594 1478.45,273.0594 C1478.45,273.0594 1478.45,265.7594 1478.45,257.7694" fill="none" id="t0A-GMN40" style="stroke:#000000;stroke-width:1;stroke-dasharray:7,7;"/></g><!--link gateway to GMN43--><g class="link" data-entity-1="ent0011" data-entity-2="ent0044" data-link-type="association" data-source-line="66" id="lnk45"><path d="M2087.0293,519.0594 C2087.1124,519.0594 2087.1961,519.0594 2087.2803,519.0594 C2087.4488,519.0594 2087.6195,519.0594 2087.7925,519.0594 C2093.3275,519.0594 2101.14,519.0594 2110.25,519.0594" fill="none" id="gateway-GMN43" style="stroke:#000000;stroke-width:1;stroke-dasharray:7,7;"/></g><?plantuml-src jLPDRnit4BtlhvZQ5oU1l6dINDgcWEKwZOCcCIm50GfVgEL8ovfBRack1RNeV-_ZX-HLeXPDuKB0GhkSUJFpEFF8hqBB7LElXJALlrMc5qvqj13DxShPmSXpgwsZurSNyJUoQ6pNMyCcpC96CmsTVZPQrSfmsFHCreNMZXQCbUovfszUZ3uwOMxZn-SlgYge0BZWXjcShWSJ5B8xrtQGTAM5OKydlx2nBJsXsUktUFua0g_51gl3IXd_gAfwv2vMJ4TRznEl0az4xVBxH3mw8k6fl9xHySzgrOQf7fZ-gEY-CZgQFwNNmidhUGv-OzxF9f4QbYcwKsPrOqwyG93M-a3Mw4q63q_Fzg7sQvcnkrCD07l7Int3rrBvNeIchHjhbcfLEwjX6X9Q4vqYe1H1B8H7SLVilF81cHJ4029kJ746_xTR17epU_ykmVXeyqbUcSstx5iavRso1XNDlwxdp-hvyrnBXyMpwiz_mUnYZzdf_yJizA6PdJuCizF_nEnqZzdzTgRNiVOJsmTu2qsziqkbEJklYkdnnvP5-9HWqS0yWI2gvAKOT9X8DXlCZ43sQuqQCn1CSxXz11-iYpdjK1m7B20JQfQhkkCWQZ58LL2A-I6aXLDo1DGuw_qajWxrLgicfYHvvOG4vnq48k5bfqDmebSJno1c1sYxJYM6qJO0MshcG6TNbpwt8sp_3cVjToXhNg0TL5nQ2hDjaBK_w1hhtddsmm9ijYILM6LAwiUFCxNnvH10AoPh5Q1dz_7ljrbpRCIodjajBmLgt36lKh4VaVo7IpfPEBlsxB9Juk63ekCpiCm7nz1Y1-ngG-Vn6nnlJ6gvoGyxySNV7vswOnV_NHZPMsKoDG7EMxzzM7pjF5sWTWl4hJhOjS46AtiQRAT99j2yGt43VJQFjMMvema2GaVfMsg5aHe04062SiITpKRJOZJz9wECbCKFTjeAMSTkJKFjtD07oiDDBr6XSp7dxSBUkBzCA2uCFN4q6-UG5U1XuSVf9n46VEcr-hU1tUR6U2Dwtzf0aU42ybbkIMQ-n3S7-txiczNibZVGqeOnP1hR5uzvxwjY7yt7Kmkleb4JuOkaBbco4x7FgupyXKuxhJhaMDH4SgEY6FXgJvCEUK3ISF512DnAb6EPL0t5RQdnrMY23uPqDd2392UYITAObO6B7bLxSti88CzwwfvgRodQtYiNBAylS2NQdMMxu-rphwramIShOLIseSS9nxvQZtCPJt1aemngQfsS4vwEHLUDCecEeu5DBABbrouAkhBRPi_pDx8x431hm1CkgXBP_9KJZrLbG2pk0QYGxBBSfzvPIBFMyQ90IsUxEEV1fXwjBwzEON5kJN3O2hfJLgUMWGWxnlu6TfqoQ2ZLd5Q8I3502REm0PeKuvJU0zBs92vdBgcjKglVMNu7W_o6X9GUG0zOwD1BmCAjcIKCe4Va1xV4l4Za8zBvO6pCm8zI-0i0?></g></svg>