<?plantuml 1.2026.2?><svg xmlns="http://www.w3.org/2000/svg" xmlns:xlink="http://www.w3.org/1999/xlink" contentStyleType="text/css" data-diagram-type="CLASS" height="838px" preserveAspectRatio="none" style="width:2988px;height:838px;background:#FEFEFE;" version="1.1" viewBox="0 0 2988 838" width="2988px" zoomAndPan="magnify"><title>truST Runtime: Legacy Interpreter Removal Map</title><defs/><g><rect fill="#FEFEFE" height="838" style="stroke:none;stroke-width:1;" width="2988" x="0" y="0"/><g class="title" data-source-line="9"><text fill="#000000" font-family="Verdana" font-size="22" font-weight="bold" lengthAdjust="spacing" textLength="603.1094" x="1187.9528" y="35.4209">truST Runtime: Legacy Interpreter Removal Map</text></g><!--cluster keepPkg--><g class="cluster" data-qualified-name="keepPkg" data-source-line="11" id="ent0002"><path d="M787.5,73.9094 L1017.6064,73.9094 A3.75,3.75 0 0 1 1020.1064,76.4094 L1027.1064,96.2062 L1415.5,96.2062 A2.5,2.5 0 0 1 1418,98.7062 L1418,436.6394 A2.5,2.5 0 0 1 1415.5,439.1394 L787.5,439.1394 A2.5,2.5 0 0 1 785,436.6394 L785,76.4094 A2.5,2.5 0 0 1 787.5,73.9094" fill="#E0FFFF" style="stroke:#000000;stroke-width:1;"/><line style="stroke:#000000;stroke-width:1;" x1="785" x2="1027.1064" y1="96.2062" y2="96.2062"/><text fill="#000000" font-family="Verdana" font-size="14" font-weight="bold" lengthAdjust="spacing" textLength="229.1064" x="789" y="88.9045">Keep: VM-Only Runtime Path</text></g><!--cluster extractPkg--><g class="cluster" data-qualified-name="extractPkg" data-source-line="23" id="ent0012"><path d="M1511.5,309.3894 L1682.749,309.3894 A3.75,3.75 0 0 1 1685.249,311.8894 L1692.249,331.6863 L2240.5,331.6863 A2.5,2.5 0 0 1 2243,334.1863 L2243,577.6294 A2.5,2.5 0 0 1 2240.5,580.1294 L1511.5,580.1294 A2.5,2.5 0 0 1 1509,577.6294 L1509,311.8894 A2.5,2.5 0 0 1 1511.5,309.3894" fill="#FFFFE0" style="stroke:#000000;stroke-width:1;"/><line style="stroke:#000000;stroke-width:1;" x1="1509" x2="1692.249" y1="331.6863" y2="331.6863"/><text fill="#000000" font-family="Verdana" font-size="14" font-weight="bold" lengthAdjust="spacing" textLength="170.249" x="1513" y="324.3845">Extract Before Delete</text></g><!--cluster rewritePkg--><g class="cluster" data-qualified-name="rewritePkg" data-source-line="34" id="ent0019"><path d="M1444.5,57.6094 L1598.9531,57.6094 A3.75,3.75 0 0 1 1601.4531,60.1094 L1608.4531,79.9063 L2905.5,79.9063 A2.5,2.5 0 0 1 2908,82.4063 L2908,201.2994 A2.5,2.5 0 0 1 2905.5,203.7994 L1444.5,203.7994 A2.5,2.5 0 0 1 1442,201.2994 L1442,60.1094 A2.5,2.5 0 0 1 1444.5,57.6094" fill="#E6E6FA" style="stroke:#000000;stroke-width:1;"/><line style="stroke:#000000;stroke-width:1;" x1="1442" x2="1608.4531" y1="79.9063" y2="79.9063"/><text fill="#000000" font-family="Verdana" font-size="14" font-weight="bold" lengthAdjust="spacing" textLength="153.4531" x="1446" y="72.6045">Rewrite Consumers</text></g><!--cluster deletePkg--><g class="cluster" data-qualified-name="deletePkg" data-source-line="53" id="ent0035"><path d="M13.5,317.5394 L66.0977,317.5394 A3.75,3.75 0 0 1 68.5977,320.0394 L75.5977,339.8362 L750.5,339.8362 A2.5,2.5 0 0 1 753,342.3362 L753,704.5194 A2.5,2.5 0 0 1 750.5,707.0194 L13.5,707.0194 A2.5,2.5 0 0 1 11,704.5194 L11,320.0394 A2.5,2.5 0 0 1 13.5,317.5394" fill="#FFE4E1" style="stroke:#000000;stroke-width:1;"/><line style="stroke:#000000;stroke-width:1;" x1="11" x2="75.5977" y1="339.8362" y2="339.8362"/><text fill="#000000" font-family="Verdana" font-size="14" font-weight="bold" lengthAdjust="spacing" textLength="51.5977" x="15" y="332.5345">Delete</text></g><!--entity keepCycle--><g class="entity" data-qualified-name="keepPkg.keepCycle" data-source-line="12" id="ent0003"><rect fill="#FFFFFF" height="62.5938" rx="2.5" ry="2.5" style="stroke:#000000;stroke-width:1;" width="218.8281" x="993.59" y="108.9094"/><rect fill="#FFFFFF" height="10" style="stroke:#000000;stroke-width:1;" width="15" x="1192.4181" y="113.9094"/><rect fill="#FFFFFF" height="2" style="stroke:#000000;stroke-width:1;" width="4" x="1190.4181" y="115.9094"/><rect fill="#FFFFFF" height="2" style="stroke:#000000;stroke-width:1;" width="4" x="1190.4181" y="119.9094"/><text fill="#000000" font-family="Verdana" font-size="14" lengthAdjust="spacing" textLength="178.8281" x="1008.59" y="141.9045">Runtime::execute_cycle()</text><text fill="#000000" font-family="Verdana" font-size="14" lengthAdjust="spacing" textLength="129.0693" x="1008.59" y="158.2014">VM execution only</text></g><!--entity keepVm--><g class="entity" data-qualified-name="keepPkg.keepVm" data-source-line="13" id="ent0004"><rect fill="#FFFFFF" height="62.5938" rx="2.5" ry="2.5" style="stroke:#000000;stroke-width:1;" width="283.0791" x="801.46" y="222.7994"/><rect fill="#FFFFFF" height="10" style="stroke:#000000;stroke-width:1;" width="15" x="1064.5391" y="227.7994"/><rect fill="#FFFFFF" height="2" style="stroke:#000000;stroke-width:1;" width="4" x="1062.5391" y="229.7994"/><rect fill="#FFFFFF" height="2" style="stroke:#000000;stroke-width:1;" width="4" x="1062.5391" y="233.7994"/><text fill="#000000" font-family="Verdana" font-size="14" lengthAdjust="spacing" textLength="93.4883" x="816.46" y="255.7945">runtime/vm/*</text><text fill="#000000" font-family="Verdana" font-size="14" lengthAdjust="spacing" textLength="243.0791" x="816.46" y="272.0914">dispatch + register_ir + refs + call</text></g><!--entity keepBuiltin--><g class="entity" data-qualified-name="keepPkg.keepBuiltin" data-source-line="14" id="ent0005"><rect fill="#FFFFFF" height="46.2969" rx="2.5" ry="2.5" style="stroke:#000000;stroke-width:1;" width="311.4414" x="867.28" y="376.8394"/><rect fill="#FFFFFF" height="10" style="stroke:#000000;stroke-width:1;" width="15" x="1158.7214" y="381.8394"/><rect fill="#FFFFFF" height="2" style="stroke:#000000;stroke-width:1;" width="4" x="1156.7214" y="383.8394"/><rect fill="#FFFFFF" height="2" style="stroke:#000000;stroke-width:1;" width="4" x="1156.7214" y="387.8394"/><text fill="#000000" font-family="Verdana" font-size="14" lengthAdjust="spacing" textLength="271.4414" x="882.28" y="409.8345">stdlib/fbs::execute_builtin_in_storage()</text></g><!--entity keepStorage--><g class="entity" data-qualified-name="keepPkg.keepStorage" data-source-line="15" id="ent0006"><rect fill="#FFFFFF" height="46.2969" rx="2.5" ry="2.5" style="stroke:#000000;stroke-width:1;" width="152.5469" x="1218.73" y="376.8394"/><rect fill="#FFFFFF" height="10" style="stroke:#000000;stroke-width:1;" width="15" x="1351.2769" y="381.8394"/><rect fill="#FFFFFF" height="2" style="stroke:#000000;stroke-width:1;" width="4" x="1349.2769" y="383.8394"/><rect fill="#FFFFFF" height="2" style="stroke:#000000;stroke-width:1;" width="4" x="1349.2769" y="387.8394"/><text fill="#000000" font-family="Verdana" font-size="14" lengthAdjust="spacing" textLength="112.5469" x="1233.73" y="409.8345">VariableStorage</text></g><!--class extractHelper--><g class="entity" data-qualified-name="keepPkg.extractHelper" data-source-line="18" id="ent0008"><rect fill="#FFFFFF" height="58.5938" rx="2.5" ry="2.5" style="stroke:#000000;stroke-width:1;" width="277.2861" x="1124.36" y="224.7994"/><ellipse cx="1137.36" cy="246.0962" fill="#FFFFFF" rx="9" ry="9" style="stroke:#000000;stroke-width:1;"/><path d="M1140.3288,251.7369 Q1139.7506,252.0337 1139.11,252.1744 Q1138.4694,252.3306 1137.7663,252.3306 Q1135.2663,252.3306 1133.9381,250.69 Q1132.6256,249.0337 1132.6256,245.9087 Q1132.6256,242.7837 1133.9381,241.1275 Q1135.2663,239.4712 1137.7663,239.4712 Q1138.4694,239.4712 1139.11,239.6275 Q1139.7663,239.7837 1140.3288,240.0806 L1140.3288,242.7994 Q1139.7038,242.2212 1139.11,241.9556 Q1138.5163,241.6744 1137.8913,241.6744 Q1136.5475,241.6744 1135.86,242.7525 Q1135.1725,243.815 1135.1725,245.9087 Q1135.1725,248.0025 1135.86,249.0806 Q1136.5475,250.1431 1137.8913,250.1431 Q1138.5163,250.1431 1139.11,249.8775 Q1139.7038,249.5962 1140.3288,249.0181 L1140.3288,251.7369 Z " fill="#000000"/><text fill="#000000" font-family="Verdana" font-size="14" lengthAdjust="spacing" textLength="249.2861" x="1149.36" y="242.7945">Initializer + debug helper evaluator</text><text fill="#000000" font-family="Verdana" font-size="14" lengthAdjust="spacing" textLength="196.6699" x="1175.6681" y="259.0914">small VM-era helper surface</text><line style="stroke:#000000;stroke-width:1;" x1="1125.36" x2="1400.6461" y1="267.3931" y2="267.3931"/><line style="stroke:#000000;stroke-width:1;" x1="1125.36" x2="1400.6461" y1="275.3931" y2="275.3931"/></g><!--entity extractModel--><g class="entity" data-qualified-name="extractPkg.extractModel" data-source-line="24" id="ent0013"><rect fill="#FFFFFF" height="95.1875" rx="2.5" ry="2.5" style="stroke:#000000;stroke-width:1;" width="265.7432" x="1929.13" y="352.3894"/><rect fill="#FFFFFF" height="10" style="stroke:#000000;stroke-width:1;" width="15" x="2174.8732" y="357.3894"/><rect fill="#FFFFFF" height="2" style="stroke:#000000;stroke-width:1;" width="4" x="2172.8732" y="359.3894"/><rect fill="#FFFFFF" height="2" style="stroke:#000000;stroke-width:1;" width="4" x="2172.8732" y="363.3894"/><text fill="#000000" font-family="Verdana" font-size="14" lengthAdjust="spacing" textLength="157.2197" x="1944.13" y="385.3845">Shared runtime model</text><text fill="#000000" font-family="Verdana" font-size="14" lengthAdjust="spacing" textLength="214.2656" x="1944.13" y="401.6814">Param / VarDef / FunctionDef /</text><text fill="#000000" font-family="Verdana" font-size="14" lengthAdjust="spacing" textLength="222.1133" x="1944.13" y="417.9782">FunctionBlockDef / MethodDef /</text><text fill="#000000" font-family="Verdana" font-size="14" lengthAdjust="spacing" textLength="225.7432" x="1944.13" y="434.2751">ClassDef / InterfaceDef / CallArg</text></g><!--entity extractAst--><g class="entity" data-qualified-name="extractPkg.extractAst" data-source-line="25" id="ent0014"><rect fill="#FFFFFF" height="62.5938" rx="2.5" ry="2.5" style="stroke:#000000;stroke-width:1;" width="284.0225" x="1910.99" y="493.5394"/><rect fill="#FFFFFF" height="10" style="stroke:#000000;stroke-width:1;" width="15" x="2175.0125" y="498.5394"/><rect fill="#FFFFFF" height="2" style="stroke:#000000;stroke-width:1;" width="4" x="2173.0125" y="500.5394"/><rect fill="#FFFFFF" height="2" style="stroke:#000000;stroke-width:1;" width="4" x="2173.0125" y="504.5394"/><text fill="#000000" font-family="Verdana" font-size="14" lengthAdjust="spacing" textLength="75.0586" x="1925.99" y="526.5345">AST model</text><text fill="#000000" font-family="Verdana" font-size="14" lengthAdjust="spacing" textLength="244.0225" x="1925.99" y="542.8314">Expr / LValue / SizeOfTarget / Stmt</text></g><!--entity extractOps--><g class="entity" data-qualified-name="extractPkg.extractOps" data-source-line="26" id="ent0015"><rect fill="#FFFFFF" height="62.5938" rx="2.5" ry="2.5" style="stroke:#000000;stroke-width:1;" width="356.9346" x="1532.53" y="368.6894"/><rect fill="#FFFFFF" height="10" style="stroke:#000000;stroke-width:1;" width="15" x="1869.4646" y="373.6894"/><rect fill="#FFFFFF" height="2" style="stroke:#000000;stroke-width:1;" width="4" x="1867.4646" y="375.6894"/><rect fill="#FFFFFF" height="2" style="stroke:#000000;stroke-width:1;" width="4" x="1867.4646" y="379.6894"/><text fill="#000000" font-family="Verdana" font-size="14" lengthAdjust="spacing" textLength="181.7881" x="1547.53" y="401.6845">Shared semantics helpers</text><text fill="#000000" font-family="Verdana" font-size="14" lengthAdjust="spacing" textLength="316.9346" x="1547.53" y="417.9814">BinaryOp / UnaryOp / apply_* / sizeof helpers</text></g><!--entity rewriteCore--><g class="entity" data-qualified-name="rewritePkg.rewriteCore" data-source-line="35" id="ent0020"><rect fill="#FFFFFF" height="78.8906" rx="2.5" ry="2.5" style="stroke:#000000;stroke-width:1;" width="185.2021" x="2487.4" y="100.7594"/><rect fill="#FFFFFF" height="10" style="stroke:#000000;stroke-width:1;" width="15" x="2652.6021" y="105.7594"/><rect fill="#FFFFFF" height="2" style="stroke:#000000;stroke-width:1;" width="4" x="2650.6021" y="107.7594"/><rect fill="#FFFFFF" height="2" style="stroke:#000000;stroke-width:1;" width="4" x="2650.6021" y="111.7594"/><text fill="#000000" font-family="Verdana" font-size="14" lengthAdjust="spacing" textLength="46.9697" x="2502.4" y="133.7545">task.rs</text><text fill="#000000" font-family="Verdana" font-size="14" lengthAdjust="spacing" textLength="107.9805" x="2502.4" y="150.0514">runtime/core.rs</text><text fill="#000000" font-family="Verdana" font-size="14" lengthAdjust="spacing" textLength="145.2021" x="2502.4" y="166.3482">runtime/metadata.rs</text></g><!--entity rewriteEncoder--><g class="entity" data-qualified-name="rewritePkg.rewriteEncoder" data-source-line="36" id="ent0021"><rect fill="#FFFFFF" height="46.2969" rx="2.5" ry="2.5" style="stroke:#000000;stroke-width:1;" width="185.4756" x="2262.26" y="117.0594"/><rect fill="#FFFFFF" height="10" style="stroke:#000000;stroke-width:1;" width="15" x="2427.7356" y="122.0594"/><rect fill="#FFFFFF" height="2" style="stroke:#000000;stroke-width:1;" width="4" x="2425.7356" y="124.0594"/><rect fill="#FFFFFF" height="2" style="stroke:#000000;stroke-width:1;" width="4" x="2425.7356" y="128.0594"/><text fill="#000000" font-family="Verdana" font-size="14" lengthAdjust="spacing" textLength="145.4756" x="2277.26" y="150.0545">bytecode/encoder/**</text></g><!--entity rewriteHarnessModel--><g class="entity" data-qualified-name="rewritePkg.rewriteHarnessModel" data-source-line="37" id="ent0022"><rect fill="#FFFFFF" height="95.1875" rx="2.5" ry="2.5" style="stroke:#000000;stroke-width:1;" width="179.6514" x="2712.17" y="92.6094"/><rect fill="#FFFFFF" height="10" style="stroke:#000000;stroke-width:1;" width="15" x="2871.8214" y="97.6094"/><rect fill="#FFFFFF" height="2" style="stroke:#000000;stroke-width:1;" width="4" x="2869.8214" y="99.6094"/><rect fill="#FFFFFF" height="2" style="stroke:#000000;stroke-width:1;" width="4" x="2869.8214" y="103.6094"/><text fill="#000000" font-family="Verdana" font-size="14" lengthAdjust="spacing" textLength="139.6514" x="2727.17" y="125.6045">harness/compiler/**</text><text fill="#000000" font-family="Verdana" font-size="14" lengthAdjust="spacing" textLength="116.9902" x="2727.17" y="141.9014">harness/lower/**</text><text fill="#000000" font-family="Verdana" font-size="14" lengthAdjust="spacing" textLength="116.6279" x="2727.17" y="158.1982">harness/parse.rs</text><text fill="#000000" font-family="Verdana" font-size="14" lengthAdjust="spacing" textLength="89.9541" x="2727.17" y="174.4951">harness/io.rs</text></g><!--entity rewriteInit--><g class="entity" data-qualified-name="rewritePkg.rewriteInit" data-source-line="38" id="ent0023"><rect fill="#FFFFFF" height="78.8906" rx="2.5" ry="2.5" style="stroke:#000000;stroke-width:1;" width="167.3398" x="1780.33" y="100.7594"/><rect fill="#FFFFFF" height="10" style="stroke:#000000;stroke-width:1;" width="15" x="1927.6698" y="105.7594"/><rect fill="#FFFFFF" height="2" style="stroke:#000000;stroke-width:1;" width="4" x="1925.6698" y="107.7594"/><rect fill="#FFFFFF" height="2" style="stroke:#000000;stroke-width:1;" width="4" x="1925.6698" y="111.7594"/><text fill="#000000" font-family="Verdana" font-size="14" lengthAdjust="spacing" textLength="76.8086" x="1795.33" y="133.7545">instance.rs</text><text fill="#000000" font-family="Verdana" font-size="14" lengthAdjust="spacing" textLength="111.9248" x="1795.33" y="150.0514">harness/build.rs</text><text fill="#000000" font-family="Verdana" font-size="14" lengthAdjust="spacing" textLength="127.3398" x="1795.33" y="166.3482">harness/config*.rs</text></g><!--entity rewriteDebug--><g class="entity" data-qualified-name="rewritePkg.rewriteDebug" data-source-line="39" id="ent0024"><rect fill="#FFFFFF" height="78.8906" rx="2.5" ry="2.5" style="stroke:#000000;stroke-width:1;" width="281.8896" x="1458.06" y="100.7594"/><rect fill="#FFFFFF" height="10" style="stroke:#000000;stroke-width:1;" width="15" x="1719.9496" y="105.7594"/><rect fill="#FFFFFF" height="2" style="stroke:#000000;stroke-width:1;" width="4" x="1717.9496" y="107.7594"/><rect fill="#FFFFFF" height="2" style="stroke:#000000;stroke-width:1;" width="4" x="1717.9496" y="111.7594"/><text fill="#000000" font-family="Verdana" font-size="14" lengthAdjust="spacing" textLength="186.334" x="1473.06" y="133.7545">runtime/core/evaluation.rs</text><text fill="#000000" font-family="Verdana" font-size="14" lengthAdjust="spacing" textLength="241.8896" x="1473.06" y="150.0514">control/debug_handlers_helpers.rs</text><text fill="#000000" font-family="Verdana" font-size="14" lengthAdjust="spacing" textLength="142.5088" x="1473.06" y="166.3482">test_cmd/execute.rs</text></g><!--entity rewriteVmOps--><g class="entity" data-qualified-name="rewritePkg.rewriteVmOps" data-source-line="40" id="ent0025"><rect fill="#FFFFFF" height="95.1875" rx="2.5" ry="2.5" style="stroke:#000000;stroke-width:1;" width="235.3301" x="1987.33" y="92.6094"/><rect fill="#FFFFFF" height="10" style="stroke:#000000;stroke-width:1;" width="15" x="2202.6601" y="97.6094"/><rect fill="#FFFFFF" height="2" style="stroke:#000000;stroke-width:1;" width="4" x="2200.6601" y="99.6094"/><rect fill="#FFFFFF" height="2" style="stroke:#000000;stroke-width:1;" width="4" x="2200.6601" y="103.6094"/><text fill="#000000" font-family="Verdana" font-size="14" lengthAdjust="spacing" textLength="195.3301" x="2002.33" y="125.6045">runtime/vm/dispatch_ops.rs</text><text fill="#000000" font-family="Verdana" font-size="14" lengthAdjust="spacing" textLength="174.9316" x="2002.33" y="141.9014">runtime/vm/register_ir.rs</text><text fill="#000000" font-family="Verdana" font-size="14" lengthAdjust="spacing" textLength="117.8926" x="2002.33" y="158.1982">stdlib/numeric.rs</text><text fill="#000000" font-family="Verdana" font-size="14" lengthAdjust="spacing" textLength="92.1826" x="2002.33" y="174.4951">stdlib/time.rs</text></g><!--entity deleteBackend--><g class="entity" data-qualified-name="deletePkg.deleteBackend" data-source-line="54" id="ent0036"><rect fill="#FFFFFF" height="78.8906" rx="2.5" ry="2.5" style="stroke:#000000;stroke-width:1;" width="254.9014" x="69.55" y="360.5394"/><rect fill="#FFFFFF" height="10" style="stroke:#000000;stroke-width:1;" width="15" x="304.4514" y="365.5394"/><rect fill="#FFFFFF" height="2" style="stroke:#000000;stroke-width:1;" width="4" x="302.4514" y="367.5394"/><rect fill="#FFFFFF" height="2" style="stroke:#000000;stroke-width:1;" width="4" x="302.4514" y="371.5394"/><text fill="#000000" font-family="Verdana" font-size="14" lengthAdjust="spacing" textLength="214.9014" x="84.55" y="393.5345">ExecutionBackend::Interpreter</text><text fill="#000000" font-family="Verdana" font-size="14" lengthAdjust="spacing" textLength="182.041" x="84.55" y="409.8314">legacy-interpreter feature</text><text fill="#000000" font-family="Verdana" font-size="14" lengthAdjust="spacing" textLength="136.3359" x="84.55" y="426.1282">InterpreterBackend</text></g><!--entity deleteCycle--><g class="entity" data-qualified-name="deletePkg.deleteCycle" data-source-line="55" id="ent0037"><rect fill="#FFFFFF" height="78.8906" rx="2.5" ry="2.5" style="stroke:#000000;stroke-width:1;" width="324.4775" x="34.76" y="485.3894"/><rect fill="#FFFFFF" height="10" style="stroke:#000000;stroke-width:1;" width="15" x="339.2375" y="490.3894"/><rect fill="#FFFFFF" height="2" style="stroke:#000000;stroke-width:1;" width="4" x="337.2375" y="492.3894"/><rect fill="#FFFFFF" height="2" style="stroke:#000000;stroke-width:1;" width="4" x="337.2375" y="496.3894"/><text fill="#000000" font-family="Verdana" font-size="14" lengthAdjust="spacing" textLength="113.5313" x="49.76" y="518.3845">runtime/cycle.rs</text><text fill="#000000" font-family="Verdana" font-size="14" lengthAdjust="spacing" textLength="216.9111" x="49.76" y="534.6814">execute_program_interpreter()</text><text fill="#000000" font-family="Verdana" font-size="14" lengthAdjust="spacing" textLength="284.4775" x="49.76" y="550.9782">execute_function_block_ref_interpreter()</text></g><!--entity deleteEval--><g class="entity" data-qualified-name="deletePkg.deleteEval" data-source-line="56" id="ent0038"><rect fill="#FFFFFF" height="78.8906" rx="2.5" ry="2.5" style="stroke:#000000;stroke-width:1;" width="324.3271" x="396.84" y="604.1294"/><rect fill="#FFFFFF" height="10" style="stroke:#000000;stroke-width:1;" width="15" x="701.1671" y="609.1294"/><rect fill="#FFFFFF" height="2" style="stroke:#000000;stroke-width:1;" width="4" x="699.1671" y="611.1294"/><rect fill="#FFFFFF" height="2" style="stroke:#000000;stroke-width:1;" width="4" x="699.1671" y="615.1294"/><text fill="#000000" font-family="Verdana" font-size="14" lengthAdjust="spacing" textLength="95.71" x="411.84" y="637.1245">eval executor</text><text fill="#000000" font-family="Verdana" font-size="14" lengthAdjust="spacing" textLength="238.8408" x="411.84" y="653.4214">EvalContext + calls + expr eval +</text><text fill="#000000" font-family="Verdana" font-size="14" lengthAdjust="spacing" textLength="284.3271" x="411.84" y="669.7182">stmt exec + bindings + locals + outputs</text></g><!--entity deleteBench--><g class="entity" data-qualified-name="deletePkg.deleteBench" data-source-line="57" id="ent0039"><rect fill="#FFFFFF" height="62.5938" rx="2.5" ry="2.5" style="stroke:#000000;stroke-width:1;" width="287.1738" x="416.41" y="368.6894"/><rect fill="#FFFFFF" height="10" style="stroke:#000000;stroke-width:1;" width="15" x="683.5838" y="373.6894"/><rect fill="#FFFFFF" height="2" style="stroke:#000000;stroke-width:1;" width="4" x="681.5838" y="375.6894"/><rect fill="#FFFFFF" height="2" style="stroke:#000000;stroke-width:1;" width="4" x="681.5838" y="379.6894"/><text fill="#000000" font-family="Verdana" font-size="14" lengthAdjust="spacing" textLength="180.9883" x="431.41" y="401.6845">bench execution-backend</text><text fill="#000000" font-family="Verdana" font-size="14" lengthAdjust="spacing" textLength="247.1738" x="431.41" y="417.9814">interpreter-vs-VM differential gates</text></g><!--entity deleteEvidence--><g class="entity" data-qualified-name="deletePkg.deleteEvidence" data-source-line="58" id="ent0040"><rect fill="#FFFFFF" height="46.2969" rx="2.5" ry="2.5" style="stroke:#000000;stroke-width:1;" width="322.3037" x="398.85" y="501.6794"/><rect fill="#FFFFFF" height="10" style="stroke:#000000;stroke-width:1;" width="15" x="701.1537" y="506.6794"/><rect fill="#FFFFFF" height="2" style="stroke:#000000;stroke-width:1;" width="4" x="699.1537" y="508.6794"/><rect fill="#FFFFFF" height="2" style="stroke:#000000;stroke-width:1;" width="4" x="699.1537" y="512.6794"/><text fill="#000000" font-family="Verdana" font-size="14" lengthAdjust="spacing" textLength="282.3037" x="413.85" y="534.6745">interpreter-only tests + docs + CI policy</text></g><g class="entity" data-qualified-name="GMN44" data-source-line="66" id="ent0045"><path d="M2445.04,349.5894 L2445.04,450.3862 L2644.9677,450.3862 L2644.9677,359.5894 L2634.9677,349.5894 L2445.04,349.5894" fill="#FFFFFF" style="stroke:#000000;stroke-width:1;"/><path d="M2634.9677,349.5894 L2634.9677,359.5894 L2644.9677,359.5894 L2634.9677,349.5894" fill="#FFFFFF" style="stroke:#000000;stroke-width:1;"/><text fill="#000000" font-family="Verdana" font-size="13" lengthAdjust="spacing" textLength="149.8301" x="2451.04" y="366.6563">This is the critical split.</text><text fill="#000000" font-family="Verdana" font-size="13" lengthAdjust="spacing" textLength="4.1323" x="2451.04" y="381.7891">&#160;</text><text fill="#000000" font-family="Verdana" font-size="13" lengthAdjust="spacing" textLength="154.8638" x="2451.04" y="396.9219">`eval/` is not one thing:</text><text fill="#000000" font-family="Verdana" font-size="13" lengthAdjust="spacing" textLength="140.7339" x="2451.04" y="412.0547">- model types survive</text><text fill="#000000" font-family="Verdana" font-size="13" lengthAdjust="spacing" textLength="178.9277" x="2451.04" y="427.1875">- semantics helpers survive</text><text fill="#000000" font-family="Verdana" font-size="13" lengthAdjust="spacing" textLength="143.8633" x="2451.04" y="442.3203">- legacy executor dies</text></g><g class="entity" data-qualified-name="GMN47" data-source-line="75" id="ent0048"><path d="M2684.99,357.1594 L2684.99,442.8234 L2981.0149,442.8234 L2981.0149,367.1594 L2971.0149,357.1594 L2684.99,357.1594" fill="#FFFFFF" style="stroke:#000000;stroke-width:1;"/><path d="M2971.0149,357.1594 L2971.0149,367.1594 L2981.0149,367.1594 L2971.0149,357.1594" fill="#FFFFFF" style="stroke:#000000;stroke-width:1;"/><text fill="#000000" font-family="Verdana" font-size="13" lengthAdjust="spacing" textLength="170.9233" x="2690.99" y="374.2263">Do not delete `eval/` first.</text><text fill="#000000" font-family="Verdana" font-size="13" lengthAdjust="spacing" textLength="4.1323" x="2690.99" y="389.3591">&#160;</text><text fill="#000000" font-family="Verdana" font-size="13" lengthAdjust="spacing" textLength="216.1694" x="2690.99" y="404.4919">Shared model extraction is done.</text><text fill="#000000" font-family="Verdana" font-size="13" lengthAdjust="spacing" textLength="275.0249" x="2690.99" y="419.6247">Next move the remaining hook/test users,</text><text fill="#000000" font-family="Verdana" font-size="13" lengthAdjust="spacing" textLength="262.666" x="2690.99" y="434.7575">then remove the backend and executor.</text></g><!--link keepCycle to keepVm--><g class="link" data-entity-1="ent0003" data-entity-2="ent0004" data-link-type="dependency" data-source-line="17" id="lnk7"><path codeLine="17" d="M1039.06,171.9294 C1039.06,187.7294 1039.06,200.7694 1039.06,216.5394" fill="none" id="keepCycle-to-keepVm" style="stroke:#000000;stroke-width:1;"/><polygon fill="#000000" points="1039.06,222.5394,1043.06,213.5394,1039.06,217.5394,1035.06,213.5394,1039.06,222.5394" style="stroke:#000000;stroke-width:1;"/></g><!--link keepCycle to extractHelper--><g class="link" data-entity-1="ent0003" data-entity-2="ent0008" data-link-type="dependency" data-source-line="18" id="lnk9"><path codeLine="18" d="M1168.39,171.9294 C1168.39,188.3894 1168.39,202.3594 1168.39,218.4994" fill="none" id="keepCycle-to-extractHelper" style="stroke:#000000;stroke-width:1;"/><polygon fill="#000000" points="1168.39,224.4994,1172.39,215.4994,1168.39,219.4994,1164.39,215.4994,1168.39,224.4994" style="stroke:#000000;stroke-width:1;"/><text fill="#000000" font-family="Verdana" font-size="13" lengthAdjust="spacing" textLength="122.6685" x="1045.39" y="194.2763">debug write queue</text></g><!--link keepVm to keepBuiltin--><g class="link" data-entity-1="ent0004" data-entity-2="ent0005" data-link-type="dependency" data-source-line="19" id="lnk10"><path codeLine="19" d="M921.59,285.7494 C921.59,313.0694 921.59,345.9194 921.59,370.5294" fill="none" id="keepVm-to-keepBuiltin" style="stroke:#000000;stroke-width:1;"/><polygon fill="#000000" points="921.59,376.5294,925.59,367.5294,921.59,371.5294,917.59,367.5294,921.59,376.5294" style="stroke:#000000;stroke-width:1;"/></g><!--link keepVm to keepStorage--><g class="link" data-entity-1="ent0004" data-entity-2="ent0006" data-link-type="dependency" data-source-line="20" id="lnk11"><path codeLine="20" d="M1030.22,285.8794 C1030.22,305.9094 1030.22,328.0194 1030.22,328.0194 C1030.22,328.0194 1295,328.0194 1295,328.0194 C1295,328.0194 1295,349.4294 1295,370.4194" fill="none" id="keepVm-to-keepStorage" style="stroke:#000000;stroke-width:1;"/><polygon fill="#000000" points="1295,376.4194,1299,367.4194,1295,371.4194,1291,367.4194,1295,376.4194" style="stroke:#000000;stroke-width:1;"/></g><!--link extractModel to extractAst--><g class="link" data-entity-1="ent0013" data-entity-2="ent0014" data-link-type="dependency" data-source-line="29" id="lnk16"><path codeLine="29" d="M2062,447.8994 C2062,463.0294 2062,473.3594 2062,487.0694" fill="none" id="extractModel-to-extractAst" style="stroke:#000000;stroke-width:1;"/><polygon fill="#000000" points="2062,493.0694,2066,484.0694,2062,488.0694,2058,484.0694,2062,493.0694" style="stroke:#000000;stroke-width:1;"/></g><!--link extractHelper to extractModel--><g class="link" data-entity-1="ent0008" data-entity-2="ent0013" data-link-type="dependency" data-source-line="30" id="lnk17"><path codeLine="30" d="M1391.52,283.8494 C1391.52,313.9394 1391.52,356.0194 1391.52,356.0194 C1391.52,356.0194 1727.2,356.0194 1922.73,356.0194" fill="none" id="extractHelper-to-extractModel" style="stroke:#000000;stroke-width:1;"/><polygon fill="#000000" points="1928.73,356.0194,1919.73,352.0194,1923.73,356.0194,1919.73,360.0194,1928.73,356.0194" style="stroke:#000000;stroke-width:1;"/></g><!--link extractHelper to extractOps--><g class="link" data-entity-1="ent0008" data-entity-2="ent0015" data-link-type="dependency" data-source-line="31" id="lnk18"><path codeLine="31" d="M1381.4,283.5994 C1381.4,318.2394 1381.4,371.0194 1381.4,371.0194 C1381.4,371.0194 1448.73,371.0194 1526.21,371.0194" fill="none" id="extractHelper-to-extractOps" style="stroke:#000000;stroke-width:1;"/><polygon fill="#000000" points="1532.21,371.0194,1523.21,367.0194,1527.21,371.0194,1523.21,375.0194,1532.21,371.0194" style="stroke:#000000;stroke-width:1;"/></g><!--link rewriteCore to extractModel--><g class="link" data-entity-1="ent0020" data-entity-2="ent0013" data-link-type="dependency" data-source-line="42" id="lnk26"><path codeLine="42" d="M2487.32,171.0194 C2382.29,171.0194 2225.5,171.0194 2225.5,171.0194 C2225.5,171.0194 2225.5,364.0194 2225.5,364.0194 C2225.5,364.0194 2219.1,364.0194 2201.13,364.0194" fill="none" id="rewriteCore-to-extractModel" style="stroke:#000000;stroke-width:1;"/><polygon fill="#000000" points="2195.13,364.0194,2204.13,368.0194,2200.13,364.0194,2204.13,360.0194,2195.13,364.0194" style="stroke:#000000;stroke-width:1;"/></g><!--link rewriteEncoder to extractModel--><g class="link" data-entity-1="ent0021" data-entity-2="ent0013" data-link-type="dependency" data-source-line="43" id="lnk27"><path codeLine="43" d="M2353.65,163.4294 C2353.65,224.8694 2353.65,387.0194 2353.65,387.0194 C2353.65,387.0194 2277.94,387.0194 2201.02,387.0194" fill="none" id="rewriteEncoder-to-extractModel" style="stroke:#000000;stroke-width:1;"/><polygon fill="#000000" points="2195.02,387.0194,2204.02,391.0194,2200.02,387.0194,2204.02,383.0194,2195.02,387.0194" style="stroke:#000000;stroke-width:1;"/></g><!--link rewriteEncoder to extractAst--><g class="link" data-entity-1="ent0021" data-entity-2="ent0014" data-link-type="dependency" data-source-line="44" id="lnk28"><path codeLine="44" d="M2399.34,163.7194 C2399.34,248.7194 2399.34,535.0194 2399.34,535.0194 C2399.34,535.0194 2296.9,535.0194 2201.37,535.0194" fill="none" id="rewriteEncoder-to-extractAst" style="stroke:#000000;stroke-width:1;"/><polygon fill="#000000" points="2195.37,535.0194,2204.37,539.0194,2200.37,535.0194,2204.37,531.0194,2195.37,535.0194" style="stroke:#000000;stroke-width:1;"/></g><!--link rewriteEncoder to extractOps--><g class="link" data-entity-1="ent0021" data-entity-2="ent0015" data-link-type="dependency" data-source-line="45" id="lnk29"><path codeLine="45" d="M2307.96,163.6094 C2307.96,182.1694 2307.96,205.0194 2307.96,205.0194 C2307.96,205.0194 1862.18,205.0194 1862.18,205.0194 C1862.18,205.0194 1862.18,306.9794 1862.18,362.2294" fill="none" id="rewriteEncoder-to-extractOps" style="stroke:#000000;stroke-width:1;"/><polygon fill="#000000" points="1862.18,368.2294,1866.18,359.2294,1862.18,363.2294,1858.18,359.2294,1862.18,368.2294" style="stroke:#000000;stroke-width:1;"/></g><!--link rewriteHarnessModel to extractModel--><g class="link" data-entity-1="ent0022" data-entity-2="ent0013" data-link-type="dependency" data-source-line="46" id="lnk30"><path codeLine="46" d="M2711.73,182.0194 C2550.18,182.0194 2228.33,182.0194 2228.33,182.0194 C2228.33,182.0194 2228.33,376.0194 2228.33,376.0194 C2228.33,376.0194 2220.62,376.0194 2201.07,376.0194" fill="none" id="rewriteHarnessModel-to-extractModel" style="stroke:#000000;stroke-width:1;"/><polygon fill="#000000" points="2195.07,376.0194,2204.07,380.0194,2200.07,376.0194,2204.07,372.0194,2195.07,376.0194" style="stroke:#000000;stroke-width:1;"/></g><!--link rewriteHarnessModel to extractAst--><g class="link" data-entity-1="ent0022" data-entity-2="ent0014" data-link-type="dependency" data-source-line="47" id="lnk31"><path codeLine="47" d="M2711.86,185.0194 C2551.01,185.0194 2231.17,185.0194 2231.17,185.0194 C2231.17,185.0194 2231.17,514.0194 2231.17,514.0194 C2231.17,514.0194 2222.28,514.0194 2201.11,514.0194" fill="none" id="rewriteHarnessModel-to-extractAst" style="stroke:#000000;stroke-width:1;"/><polygon fill="#000000" points="2195.11,514.0194,2204.11,518.0194,2200.11,514.0194,2204.11,510.0194,2195.11,514.0194" style="stroke:#000000;stroke-width:1;"/></g><!--link rewriteInit to extractHelper--><g class="link" data-entity-1="ent0023" data-entity-2="ent0008" data-link-type="dependency" data-source-line="48" id="lnk32"><path codeLine="48" d="M1807.61,180.0594 C1807.61,216.2594 1807.61,264.0194 1807.61,264.0194 C1807.61,264.0194 1569.19,264.0194 1407.84,264.0194" fill="none" id="rewriteInit-to-extractHelper" style="stroke:#000000;stroke-width:1;"/><polygon fill="#000000" points="1401.84,264.0194,1410.84,268.0194,1406.84,264.0194,1410.84,260.0194,1401.84,264.0194" style="stroke:#000000;stroke-width:1;"/></g><!--link rewriteDebug to extractHelper--><g class="link" data-entity-1="ent0024" data-entity-2="ent0008" data-link-type="dependency" data-source-line="49" id="lnk33"><path codeLine="49" d="M1495.29,180.0494 C1495.29,209.3194 1495.29,244.0194 1495.29,244.0194 C1495.29,244.0194 1457.42,244.0194 1407.82,244.0194" fill="none" id="rewriteDebug-to-extractHelper" style="stroke:#000000;stroke-width:1;"/><polygon fill="#000000" points="1401.82,244.0194,1410.82,248.0194,1406.82,244.0194,1410.82,240.0194,1401.82,244.0194" style="stroke:#000000;stroke-width:1;"/></g><!--link rewriteVmOps to extractOps--><g class="link" data-entity-1="ent0025" data-entity-2="ent0015" data-link-type="dependency" data-source-line="50" id="lnk34"><path codeLine="50" d="M1986.92,184.0194 C1914.24,184.0194 1834.9,184.0194 1834.9,184.0194 C1834.9,184.0194 1834.9,302.6894 1834.9,362.5894" fill="none" id="rewriteVmOps-to-extractOps" style="stroke:#000000;stroke-width:1;"/><polygon fill="#000000" points="1834.9,368.5894,1838.9,359.5894,1834.9,363.5894,1830.9,359.5894,1834.9,368.5894" style="stroke:#000000;stroke-width:1;"/></g><!--link deleteBackend to deleteCycle--><g class="link" data-entity-1="ent0036" data-entity-2="ent0037" data-link-type="dependency" data-source-line="60" id="lnk41"><path codeLine="60" d="M197,439.8294 C197,454.2494 197,464.5194 197,478.9394" fill="none" id="deleteBackend-to-deleteCycle" style="stroke:#000000;stroke-width:1;"/><polygon fill="#000000" points="197,484.9394,201,475.9394,197,479.9394,193,475.9394,197,484.9394" style="stroke:#000000;stroke-width:1;"/></g><!--link deleteCycle to deleteEval--><g class="link" data-entity-1="ent0037" data-entity-2="ent0038" data-link-type="dependency" data-source-line="61" id="lnk42"><path codeLine="61" d="M359.34,560.0194 C434.01,560.0194 506.28,560.0194 506.28,560.0194 C506.28,560.0194 506.28,576.2294 506.28,597.7594" fill="none" id="deleteCycle-to-deleteEval" style="stroke:#000000;stroke-width:1;"/><polygon fill="#000000" points="506.28,603.7594,510.28,594.7594,506.28,598.7594,502.28,594.7594,506.28,603.7594" style="stroke:#000000;stroke-width:1;"/></g><!--link deleteBench to deleteEvidence--><g class="link" data-entity-1="ent0039" data-entity-2="ent0040" data-link-type="dependency" data-source-line="62" id="lnk43"><path codeLine="62" d="M560,431.4894 C560,453.1594 560,475.4794 560,495.2194" fill="none" id="deleteBench-to-deleteEvidence" style="stroke:#000000;stroke-width:1;"/><polygon fill="#000000" points="560,501.2194,564,492.2194,560,496.2194,556,492.2194,560,501.2194" style="stroke:#000000;stroke-width:1;"/></g><!--link extractPkg to GMN44--><g class="link" data-entity-1="ent0012" data-entity-2="ent0045" data-link-type="association" data-source-line="66" id="lnk46"><path d="M2243.355,400.0194 C2247.447,400.0194 2252.9269,400.0194 2259.5369,400.0194 C2272.7569,400.0194 2290.4975,400.0194 2310.6975,400.0194 C2351.0975,400.0194 2401.335,400.0194 2444.92,400.0194" fill="none" id="extractPkg-GMN44" style="stroke:#000000;stroke-width:1;stroke-dasharray:7,7;"/></g><!--link deletePkg to GMN47--><g class="link" data-entity-1="ent0035" data-entity-2="ent0048" data-link-type="association" data-source-line="75" id="lnk49"><path d="M745,339.7556 C745,338.1298 745,311.8264 745,310.664 C745,308.3391 745,307.0194 745,307.0194 C745,307.0194 2698.58,307.0194 2698.58,307.0194 C2698.58,307.0194 2698.58,332.4894 2698.58,356.7694" fill="none" id="deletePkg-GMN47" style="stroke:#000000;stroke-width:1;stroke-dasharray:7,7;"/></g><!--link extractModel to deleteEval--><g class="link" data-entity-1="ent0013" data-entity-2="ent0038" data-link-type="dependency" data-source-line="82" id="lnk50"><path codeLine="82" d="M1928.78,443.0194 C1911.81,443.0194 1900.23,443.0194 1900.23,443.0194 C1900.23,443.0194 1900.23,667.0194 1900.23,667.0194 C1900.23,667.0194 1084.53,667.0194 727.45,667.0194" fill="none" id="extractModel-to-deleteEval" style="stroke:#000000;stroke-width:1;stroke-dasharray:7,7;"/><polygon fill="#000000" points="721.45,667.0194,730.45,671.0194,726.45,667.0194,730.45,663.0194,721.45,667.0194" style="stroke:#000000;stroke-width:1;"/><text fill="#000000" font-family="Verdana" font-size="13" lengthAdjust="spacing" textLength="52.7681" x="1384.11" y="663.0863">split out</text></g><!--link extractAst to deleteEval--><g class="link" data-entity-1="ent0014" data-entity-2="ent0038" data-link-type="dependency" data-source-line="83" id="lnk51"><path codeLine="83" d="M1910.73,552.0194 C1547.38,552.0194 613.72,552.0194 613.72,552.0194 C613.72,552.0194 613.72,573.0094 613.72,597.6794" fill="none" id="extractAst-to-deleteEval" style="stroke:#000000;stroke-width:1;stroke-dasharray:7,7;"/><polygon fill="#000000" points="613.72,603.6794,617.72,594.6794,613.72,598.6794,609.72,594.6794,613.72,603.6794" style="stroke:#000000;stroke-width:1;"/><text fill="#000000" font-family="Verdana" font-size="13" lengthAdjust="spacing" textLength="52.7681" x="1183.39" y="548.0863">split out</text></g><!--link extractOps to deleteEval--><g class="link" data-entity-1="ent0015" data-entity-2="ent0038" data-link-type="dependency" data-source-line="84" id="lnk52"><path codeLine="84" d="M1711,431.7794 C1711,499.3294 1711,651.0194 1711,651.0194 C1711,651.0194 1045.16,651.0194 727.61,651.0194" fill="none" id="extractOps-to-deleteEval" style="stroke:#000000;stroke-width:1;stroke-dasharray:7,7;"/><polygon fill="#000000" points="721.61,651.0194,730.61,655.0194,726.61,651.0194,730.61,647.0194,721.61,651.0194" style="stroke:#000000;stroke-width:1;"/><text fill="#000000" font-family="Verdana" font-size="13" lengthAdjust="spacing" textLength="52.7681" x="1272.92" y="647.0863">split out</text></g><!--link extractHelper to deleteEval--><g class="link" data-entity-1="ent0008" data-entity-2="ent0038" data-link-type="dependency" data-source-line="85" id="lnk53"><path codeLine="85" d="M1198.72,283.7494 C1198.72,373.4794 1198.72,636.0194 1198.72,636.0194 C1198.72,636.0194 916.78,636.0194 727.26,636.0194" fill="none" id="extractHelper-to-deleteEval" style="stroke:#000000;stroke-width:1;stroke-dasharray:7,7;"/><polygon fill="#000000" points="721.26,636.0194,730.26,640.0194,726.26,636.0194,730.26,632.0194,721.26,636.0194" style="stroke:#000000;stroke-width:1;"/><text fill="#000000" font-family="Verdana" font-size="13" lengthAdjust="spacing" textLength="144.0283" x="991.13" y="632.0863">replace helper usages</text></g><!--link keepVm to extractOps--><g class="link" data-entity-1="ent0004" data-entity-2="ent0015" data-link-type="dependency" data-source-line="86" id="lnk54"><path codeLine="86" d="M975.91,285.6094 C975.91,321.1394 975.91,374.0194 975.91,374.0194 C975.91,374.0194 1308.53,374.0194 1526.12,374.0194" fill="none" id="keepVm-to-extractOps" style="stroke:#000000;stroke-width:1;stroke-dasharray:7,7;"/><polygon fill="#000000" points="1532.12,374.0194,1523.12,370.0194,1527.12,374.0194,1523.12,378.0194,1532.12,374.0194" style="stroke:#000000;stroke-width:1;"/><text fill="#000000" font-family="Verdana" font-size="13" lengthAdjust="spacing" textLength="157.6567" x="1051.81" y="370.0863">keeps shared semantics</text></g><!--link keepBuiltin to deleteEval--><g class="link" data-entity-1="ent0005" data-entity-2="ent0038" data-link-type="dependency" data-source-line="87" id="lnk55"><path codeLine="87" d="M1023,423.5394 C1023,480.2994 1023,620.0194 1023,620.0194 C1023,620.0194 861.36,620.0194 727.61,620.0194" fill="none" id="keepBuiltin-to-deleteEval" style="stroke:#000000;stroke-width:1;stroke-dasharray:7,7;"/><polygon fill="#000000" points="721.61,620.0194,730.61,624.0194,726.61,620.0194,730.61,616.0194,721.61,620.0194" style="stroke:#000000;stroke-width:1;"/><text fill="#000000" font-family="Verdana" font-size="13" lengthAdjust="spacing" textLength="170.498" x="799.55" y="616.0863">drop EvalContext wrapper</text></g><g class="legend" data-source-line="89"><rect fill="none" height="107.7813" rx="7.5" ry="7.5" style="stroke:#000000;stroke-width:1;" width="372.6123" x="2596.4026" y="718.0194"/><text fill="#000000" font-family="Verdana" font-size="14" lengthAdjust="spacing" textLength="108.042" x="2601.4026" y="736.0145">Removal order:</text><text fill="#000000" font-family="Verdana" font-size="14" lengthAdjust="spacing" textLength="260.4424" x="2601.4026" y="752.3114">1. Extract shared model + semantics</text><text fill="#000000" font-family="Verdana" font-size="14" lengthAdjust="spacing" textLength="267.4561" x="2601.4026" y="768.6082">2. Land bounded helper replacements</text><text fill="#000000" font-family="Verdana" font-size="14" lengthAdjust="spacing" textLength="276.9307" x="2601.4026" y="784.9051">3. Rewrite remaining helper consumers</text><text fill="#000000" font-family="Verdana" font-size="14" lengthAdjust="spacing" textLength="290.6094" x="2601.4026" y="801.202">4. Delete interpreter backend + executor</text><text fill="#000000" font-family="Verdana" font-size="14" lengthAdjust="spacing" textLength="362.6123" x="2601.4026" y="817.4989">5. Remove interpreter benchmark/CI/docs evidence</text></g><?plantuml-src bLTjRzis4FxkNy6rNzfajhQ-VF670OsJei6IfaWw0mCCkBHqaWbJf4PIQRnX_trtf2XJSf9jIH1Bl8TtntlZun_S5cfWZUH2JRYK-dij7eIg9dOdLCCDhzc6vxlAw5OL2osrOIy_Nj1lWiXrtMW5ojsvlGJMrl9D8fL2WTitmBHnMvq8b2x0GiFU_PGi6gvsjFZs_MJYX4DrphHtNzbjgvoeOSwkeEBvdbqg1wOnWF_PBTJwdajspPl9f45tUGNinQy0pPmjhwStIkxZVlQ5k-qBnYtReVZBhc8lhqIrTOizL-ol2SEV_ZJiHJGwXmV8MmVhV9zBUFLwfPRNBAm9hPX60xtE1K76YanGbDtNsSbA5S8stELRTieCLCBY6TR2-BVIuaUEYUZrBUknCkiAAJPPkR47npQja4weDVvPfmq6uDNhNiLP48xrBBaHV2FXBcpeuTtxnEFx8x7fz9VKeQ407fpXkVi4ii64p5a1cxPYturmmFveeOL-pxBkDQL-ZKJHXx-JX5u46-mCIcs0dOF4x7klE-k7TFuELCh72RtRSWC5wzB1Qgn0kL9VVELb30Do3YK-V6nLJfdrRoiLNy-apdS1SGrOoqKdNqXkRLZtPLdo7CBh0ZFvmLIfazTaS-pN1wpmpfcBXyRWpgibbotWmvtu4sxAhznKuEZLrIvLzy6w9mvfeUPupDoohS-ANQapeRZPtpIevxV-YJUDtAzFyCcYALr6U6hbfh5ZAvTAEC4bRg7A3VaEEnbWCxOSCxXIjiO8K1E2uL5iMn-XL7-ecr1nQPpIseed7PPQ0ZX4zaa8dICjgLi89RhGohPrFBG9gw6S-3se0hKSrPBZTZUZgCRcph4g1mirE5vmnsT3lGl4ZPLjzWvoz3y3HHycEpb9jro4rV4kJBG2QpDQ4jBlMgcuY0qmMi49QuE7SKNeaM-VWk3H8XNAEgxoeGOQFCLW9TUg5DN9I36LorDJaGANTKM3RUQreHPdjCnyOQstN1LuFhlkQjD375YtpkiYwuRWoE8vxNnc4CSflDQD7QGDPSbOzg9kv2gg4P6dIxHZP7XPKvbvoqd67w_KONx_BoQsnDE8sBYFfFTPOqy1HnOfgyVpFqNuB3mFyV5whakJIL_uHz-PrvYX_QssSDoQ5_5gFaCLsBxpUK8NLafw2Z4L2OKeWRlMm4ebm6vpOhTRURAEwJhqnH6lvSRe2k-MTMAAs4CKbzt5ijxGpRB6wt-8J4m_IYkePpeUGiFs0bznaZaCOySYY4q0NIWUUKfLMpk_0mKRWKn4LOH1yzo3TUkQrjd4C2azcbOufRO70ZJTXBYiLEBzzDvEaIKLeYp1u2wyArZ5iMVJU9AUup5pq47CYb6Vas-5pkbZSSaQBKM-7pWf2jJLSPP1idnXZMEOl2Vo_gY9TmDnPmHhKscyDGnH3OOtve5_-ErVjy8o_4DkpNAiS871PRQHmis2Wzye7Tatmg0Yv8_8ShUOYhcNJWCLO4IQBTsMz-8UEidHfJwIXzBkQmB33tP2KI27nsxtpUGtdsllJ5ZiNIo5iT7jZbW4xxep4__5OnHuXfa7VQRgGpuE_lW6_HLO5iWDjDvbb4hMMlJxHmz6Y29CX7U5n73SzsUO9VuFkC5ibYOEIQSFCPNmv32j_WEAfi-_epeoSGGqW5-USeZafhKuikoaexE4JgpCFRV5d8qOsYHXmySM2gCRblRsTuESZUWIPfjYunFgunc_2Mc3zq2effzdB19dc-RlD35Fk3SpTaLXtz0tFKHrv-cELsDh1jpR6OkiAKbk0EUHHddakrd7qLawQMEAJ_i4U_3xMN1-1AOMhBdPPOlBpFS_n2Oa7U7yaty0?></g></svg>