<svg xmlns="http://www.w3.org/2000/svg" xmlns:xlink="http://www.w3.org/1999/xlink" contentStyleType="text/css" data-diagram-type="SEQUENCE" height="1435px" preserveAspectRatio="none" style="width:1820px;height:1435px;background:#FFFFFF;" version="1.1" viewBox="0 0 1820 1435" width="1820px" zoomAndPan="magnify"><?plantuml 1.2026.4?><defs/><g><g class="title" data-source-line="4"><text fill="#000000" font-family="Verdana" font-size="22" font-weight="700" lengthAdjust="spacing" textLength="298.6328" x="759.9417" y="35.4209">Step Over Request Flow</text></g><g><title>DebugAdapter</title><rect fill="#FFFFFF" height="370.9922" style="stroke:#FFFFFF;stroke-width:1;" width="10" x="250.3853" y="160.0391"/><line style="stroke:#000000;stroke-width:1;" x1="250.3853" x2="250.3853" y1="160.0391" y2="531.0313"/><line style="stroke:#000000;stroke-width:1;" x1="260.3853" x2="260.3853" y1="160.0391" y2="531.0313"/><line style="stroke:#000000;stroke-width:1;" x1="250.3853" x2="260.3853" y1="160.0391" y2="160.0391"/></g><g><title>DebugAdapter</title><rect fill="#FFFFFF" height="343.2656" style="stroke:#FFFFFF;stroke-width:1;" width="10" x="250.3853" y="571.8359"/><line style="stroke:#000000;stroke-width:1;" x1="250.3853" x2="250.3853" y1="571.8359" y2="915.1016"/><line style="stroke:#000000;stroke-width:1;" x1="260.3853" x2="260.3853" y1="571.8359" y2="915.1016"/></g><g><title>DebugAdapter</title><rect fill="#FFFFFF" height="386.8594" style="stroke:#FFFFFF;stroke-width:1;" width="10" x="250.3853" y="955.9063"/><line style="stroke:#000000;stroke-width:1;" x1="250.3853" x2="250.3853" y1="955.9063" y2="1342.7656"/><line style="stroke:#000000;stroke-width:1;" x1="260.3853" x2="260.3853" y1="955.9063" y2="1342.7656"/></g><g><title>DebugControl</title><rect fill="#FFFFFF" height="161.0625" style="stroke:#000000;stroke-width:1;" width="10" x="529.6709" y="304.7031"/></g><g><title>Runtime</title><rect fill="#FFFFFF" height="322.1328" style="stroke:#000000;stroke-width:1;" width="10" x="1141.4609" y="592.9688"/></g><g><title>DebugHook</title><rect fill="#FFFFFF" height="261.8672" style="stroke:#000000;stroke-width:1;" width="10" x="1396.7485" y="646.2344"/></g><rect fill="#FFFFFF" height="300.1328" style="stroke:#000000;stroke-width:1;" width="1160.312" x="644.2041" y="607.9688"/><rect fill="#FFFFFF" height="189.6016" style="stroke:#000000;stroke-width:1;" width="917.8032" x="654.2041" y="711.5"/><rect fill="#FFFFFF" height="43.9375" style="stroke:none;stroke-width:1;" width="917.8032" x="654.2041" y="857.1641"/><g class="participant-lifeline" data-entity-uid="part1" data-qualified-name="vscode" data-source-line="6" id="part1-lifeline"><g><title>VS Code</title><rect fill="#000000" fill-opacity="0.00000" height="402.125" width="8" x="38.3774" y="128.9063"/><line style="stroke:#000000;stroke-width:1;stroke-dasharray:5,5;" x1="42" x2="42" y1="128.9063" y2="531.0313"/></g><line style="stroke:#000000;stroke-width:1;stroke-dasharray:1,4;" x1="42" x2="42" y1="531.0313" y2="571.8359"/><g><title>VS Code</title><rect fill="#000000" fill-opacity="0.00000" height="343.2656" width="8" x="38.3774" y="571.8359"/><line style="stroke:#000000;stroke-width:1;stroke-dasharray:5,5;" x1="42" x2="42" y1="571.8359" y2="915.1016"/></g><line style="stroke:#000000;stroke-width:1;stroke-dasharray:1,4;" x1="42" x2="42" y1="915.1016" y2="955.9063"/><g><title>VS Code</title><rect fill="#000000" fill-opacity="0.00000" height="395.8594" width="8" x="38.3774" y="955.9063"/><line style="stroke:#000000;stroke-width:1;stroke-dasharray:5,5;" x1="42" x2="42" y1="955.9063" y2="1351.7656"/></g></g><g class="participant-lifeline" data-entity-uid="part2" data-qualified-name="adapter" data-source-line="7" id="part2-lifeline"><g><title>DebugAdapter</title><rect fill="#000000" fill-opacity="0.00000" height="402.125" width="8" x="251.3853" y="128.9063"/><line style="stroke:#000000;stroke-width:1;stroke-dasharray:5,5;" x1="254.4712" x2="254.4712" y1="128.9063" y2="531.0313"/></g><line style="stroke:#000000;stroke-width:1;stroke-dasharray:1,4;" x1="254.4712" x2="254.4712" y1="531.0313" y2="571.8359"/><g><title>DebugAdapter</title><rect fill="#000000" fill-opacity="0.00000" height="343.2656" width="8" x="251.3853" y="571.8359"/><line style="stroke:#000000;stroke-width:1;stroke-dasharray:5,5;" x1="254.4712" x2="254.4712" y1="571.8359" y2="915.1016"/></g><line style="stroke:#000000;stroke-width:1;stroke-dasharray:1,4;" x1="254.4712" x2="254.4712" y1="915.1016" y2="955.9063"/><g><title>DebugAdapter</title><rect fill="#000000" fill-opacity="0.00000" height="395.8594" width="8" x="251.3853" y="955.9063"/><line style="stroke:#000000;stroke-width:1;stroke-dasharray:5,5;" x1="254.4712" x2="254.4712" y1="955.9063" y2="1351.7656"/></g></g><g class="participant-lifeline" data-entity-uid="part3" data-qualified-name="session" data-source-line="8" id="part3-lifeline"><g><title>DebugSession</title><rect fill="#000000" fill-opacity="0.00000" height="402.125" width="8" x="392.4658" y="128.9063"/><line style="stroke:#000000;stroke-width:1;stroke-dasharray:5,5;" x1="395.7378" x2="395.7378" y1="128.9063" y2="531.0313"/></g><line style="stroke:#000000;stroke-width:1;stroke-dasharray:1,4;" x1="395.7378" x2="395.7378" y1="531.0313" y2="571.8359"/><g><title>DebugSession</title><rect fill="#000000" fill-opacity="0.00000" height="343.2656" width="8" x="392.4658" y="571.8359"/><line style="stroke:#000000;stroke-width:1;stroke-dasharray:5,5;" x1="395.7378" x2="395.7378" y1="571.8359" y2="915.1016"/></g><line style="stroke:#000000;stroke-width:1;stroke-dasharray:1,4;" x1="395.7378" x2="395.7378" y1="915.1016" y2="955.9063"/><g><title>DebugSession</title><rect fill="#000000" fill-opacity="0.00000" height="395.8594" width="8" x="392.4658" y="955.9063"/><line style="stroke:#000000;stroke-width:1;stroke-dasharray:5,5;" x1="395.7378" x2="395.7378" y1="955.9063" y2="1351.7656"/></g></g><g class="participant-lifeline" data-entity-uid="part4" data-qualified-name="control" data-source-line="9" id="part4-lifeline"><g><title>DebugControl</title><rect fill="#000000" fill-opacity="0.00000" height="402.125" width="8" x="530.6709" y="128.9063"/><line style="stroke:#000000;stroke-width:1;stroke-dasharray:5,5;" x1="534.1938" x2="534.1938" y1="128.9063" y2="531.0313"/></g><line style="stroke:#000000;stroke-width:1;stroke-dasharray:1,4;" x1="534.1938" x2="534.1938" y1="531.0313" y2="571.8359"/><g><title>DebugControl</title><rect fill="#000000" fill-opacity="0.00000" height="343.2656" width="8" x="530.6709" y="571.8359"/><line style="stroke:#000000;stroke-width:1;stroke-dasharray:5,5;" x1="534.1938" x2="534.1938" y1="571.8359" y2="915.1016"/></g><line style="stroke:#000000;stroke-width:1;stroke-dasharray:1,4;" x1="534.1938" x2="534.1938" y1="915.1016" y2="955.9063"/><g><title>DebugControl</title><rect fill="#000000" fill-opacity="0.00000" height="395.8594" width="8" x="530.6709" y="955.9063"/><line style="stroke:#000000;stroke-width:1;stroke-dasharray:5,5;" x1="534.1938" x2="534.1938" y1="955.9063" y2="1351.7656"/></g></g><g class="participant-lifeline" data-entity-uid="part5" data-qualified-name="stopThread" data-source-line="10" id="part5-lifeline"><g><title>Stop Thread</title><rect fill="#000000" fill-opacity="0.00000" height="402.125" width="8" x="717.9731" y="128.9063"/><line style="stroke:#000000;stroke-width:1;stroke-dasharray:5,5;" x1="721.2041" x2="721.2041" y1="128.9063" y2="531.0313"/></g><line style="stroke:#000000;stroke-width:1;stroke-dasharray:1,4;" x1="721.2041" x2="721.2041" y1="531.0313" y2="571.8359"/><g><title>Stop Thread</title><rect fill="#000000" fill-opacity="0.00000" height="343.2656" width="8" x="717.9731" y="571.8359"/><line style="stroke:#000000;stroke-width:1;stroke-dasharray:5,5;" x1="721.2041" x2="721.2041" y1="571.8359" y2="915.1016"/></g><line style="stroke:#000000;stroke-width:1;stroke-dasharray:1,4;" x1="721.2041" x2="721.2041" y1="915.1016" y2="955.9063"/><g><title>Stop Thread</title><rect fill="#000000" fill-opacity="0.00000" height="395.8594" width="8" x="717.9731" y="955.9063"/><line style="stroke:#000000;stroke-width:1;stroke-dasharray:5,5;" x1="721.2041" x2="721.2041" y1="955.9063" y2="1351.7656"/></g></g><g class="participant-lifeline" data-entity-uid="part6" data-qualified-name="stopCoord" data-source-line="11" id="part6-lifeline"><g><title>StopCoordinator</title><rect fill="#000000" fill-opacity="0.00000" height="402.125" width="8" x="858.0068" y="128.9063"/><line style="stroke:#000000;stroke-width:1;stroke-dasharray:5,5;" x1="861.7422" x2="861.7422" y1="128.9063" y2="531.0313"/></g><line style="stroke:#000000;stroke-width:1;stroke-dasharray:1,4;" x1="861.7422" x2="861.7422" y1="531.0313" y2="571.8359"/><g><title>StopCoordinator</title><rect fill="#000000" fill-opacity="0.00000" height="343.2656" width="8" x="858.0068" y="571.8359"/><line style="stroke:#000000;stroke-width:1;stroke-dasharray:5,5;" x1="861.7422" x2="861.7422" y1="571.8359" y2="915.1016"/></g><line style="stroke:#000000;stroke-width:1;stroke-dasharray:1,4;" x1="861.7422" x2="861.7422" y1="915.1016" y2="955.9063"/><g><title>StopCoordinator</title><rect fill="#000000" fill-opacity="0.00000" height="395.8594" width="8" x="858.0068" y="955.9063"/><line style="stroke:#000000;stroke-width:1;stroke-dasharray:5,5;" x1="861.7422" x2="861.7422" y1="955.9063" y2="1351.7656"/></g></g><g class="participant-lifeline" data-entity-uid="part7" data-qualified-name="runner" data-source-line="12" id="part7-lifeline"><g><title>Runner Thread</title><rect fill="#000000" fill-opacity="0.00000" height="402.125" width="8" x="1016.0479" y="128.9063"/><line style="stroke:#000000;stroke-width:1;stroke-dasharray:5,5;" x1="1019.835" x2="1019.835" y1="128.9063" y2="531.0313"/></g><line style="stroke:#000000;stroke-width:1;stroke-dasharray:1,4;" x1="1019.835" x2="1019.835" y1="531.0313" y2="571.8359"/><g><title>Runner Thread</title><rect fill="#000000" fill-opacity="0.00000" height="343.2656" width="8" x="1016.0479" y="571.8359"/><line style="stroke:#000000;stroke-width:1;stroke-dasharray:5,5;" x1="1019.835" x2="1019.835" y1="571.8359" y2="915.1016"/></g><line style="stroke:#000000;stroke-width:1;stroke-dasharray:1,4;" x1="1019.835" x2="1019.835" y1="915.1016" y2="955.9063"/><g><title>Runner Thread</title><rect fill="#000000" fill-opacity="0.00000" height="395.8594" width="8" x="1016.0479" y="955.9063"/><line style="stroke:#000000;stroke-width:1;stroke-dasharray:5,5;" x1="1019.835" x2="1019.835" y1="955.9063" y2="1351.7656"/></g></g><g class="participant-lifeline" data-entity-uid="part8" data-qualified-name="runtime" data-source-line="13" id="part8-lifeline"><g><title>Runtime</title><rect fill="#000000" fill-opacity="0.00000" height="402.125" width="8" x="1142.4609" y="128.9063"/><line style="stroke:#000000;stroke-width:1;stroke-dasharray:5,5;" x1="1145.9092" x2="1145.9092" y1="128.9063" y2="531.0313"/></g><line style="stroke:#000000;stroke-width:1;stroke-dasharray:1,4;" x1="1145.9092" x2="1145.9092" y1="531.0313" y2="571.8359"/><g><title>Runtime</title><rect fill="#000000" fill-opacity="0.00000" height="343.2656" width="8" x="1142.4609" y="571.8359"/><line style="stroke:#000000;stroke-width:1;stroke-dasharray:5,5;" x1="1145.9092" x2="1145.9092" y1="571.8359" y2="915.1016"/></g><line style="stroke:#000000;stroke-width:1;stroke-dasharray:1,4;" x1="1145.9092" x2="1145.9092" y1="915.1016" y2="955.9063"/><g><title>Runtime</title><rect fill="#000000" fill-opacity="0.00000" height="395.8594" width="8" x="1142.4609" y="955.9063"/><line style="stroke:#000000;stroke-width:1;stroke-dasharray:5,5;" x1="1145.9092" x2="1145.9092" y1="955.9063" y2="1351.7656"/></g></g><g class="participant-lifeline" data-entity-uid="part9" data-qualified-name="hook" data-source-line="14" id="part9-lifeline"><g><title>DebugHook</title><rect fill="#000000" fill-opacity="0.00000" height="402.125" width="8" x="1397.7485" y="128.9063"/><line style="stroke:#000000;stroke-width:1;stroke-dasharray:5,5;" x1="1400.8457" x2="1400.8457" y1="128.9063" y2="531.0313"/></g><line style="stroke:#000000;stroke-width:1;stroke-dasharray:1,4;" x1="1400.8457" x2="1400.8457" y1="531.0313" y2="571.8359"/><g><title>DebugHook</title><rect fill="#000000" fill-opacity="0.00000" height="343.2656" width="8" x="1397.7485" y="571.8359"/><line style="stroke:#000000;stroke-width:1;stroke-dasharray:5,5;" x1="1400.8457" x2="1400.8457" y1="571.8359" y2="915.1016"/></g><line style="stroke:#000000;stroke-width:1;stroke-dasharray:1,4;" x1="1400.8457" x2="1400.8457" y1="915.1016" y2="955.9063"/><g><title>DebugHook</title><rect fill="#000000" fill-opacity="0.00000" height="395.8594" width="8" x="1397.7485" y="955.9063"/><line style="stroke:#000000;stroke-width:1;stroke-dasharray:5,5;" x1="1400.8457" x2="1400.8457" y1="955.9063" y2="1351.7656"/></g></g><g class="participant participant-head" data-entity-uid="part1" data-qualified-name="vscode" data-source-line="6" id="part1-head"><text fill="#000000" font-family="Verdana" font-size="14" lengthAdjust="spacing" textLength="58.7549" x="10" y="125.6045">VS Code</text><ellipse cx="42.3774" cy="60.6094" fill="#FFFFFF" rx="8" ry="8" style="stroke:#000000;stroke-width:1;"/><path d="M42.3774,68.6094 L42.3774,95.6094 M29.3774,76.6094 L55.3774,76.6094 M42.3774,95.6094 L29.3774,110.6094 M42.3774,95.6094 L55.3774,110.6094" fill="none" style="stroke:#000000;stroke-width:1;"/></g><g class="participant participant-tail" data-entity-uid="part1" data-qualified-name="vscode" data-source-line="6" id="part1-tail"><text fill="#000000" font-family="Verdana" font-size="14" lengthAdjust="spacing" textLength="58.7549" x="10" y="1363.7607">VS Code</text><ellipse cx="42.3774" cy="1376.0625" fill="#FFFFFF" rx="8" ry="8" style="stroke:#000000;stroke-width:1;"/><path d="M42.3774,1384.0625 L42.3774,1411.0625 M29.3774,1392.0625 L55.3774,1392.0625 M42.3774,1411.0625 L29.3774,1426.0625 M42.3774,1411.0625 L55.3774,1426.0625" fill="none" style="stroke:#000000;stroke-width:1;"/></g><g class="participant participant-head" data-entity-uid="part2" data-qualified-name="adapter" data-source-line="7" id="part2-head"><rect fill="#FFFFFF" height="42.5938" rx="2.5" ry="2.5" style="stroke:#000000;stroke-width:1;" width="111.8281" x="199.4712" y="80.3125"/><text fill="#000000" font-family="Verdana" font-size="14" lengthAdjust="spacing" textLength="101.8281" x="204.4712" y="98.3076">DebugAdapter</text><text fill="#000000" font-family="Verdana" font-size="14" lengthAdjust="spacing" textLength="48.1318" x="231.3193" y="114.6045">core.rs</text></g><g class="participant participant-tail" data-entity-uid="part2" data-qualified-name="adapter" data-source-line="7" id="part2-tail"><rect fill="#FFFFFF" height="42.5938" rx="2.5" ry="2.5" style="stroke:#000000;stroke-width:1;" width="111.8281" x="199.4712" y="1355.7656"/><text fill="#000000" font-family="Verdana" font-size="14" lengthAdjust="spacing" textLength="101.8281" x="204.4712" y="1373.7607">DebugAdapter</text><text fill="#000000" font-family="Verdana" font-size="14" lengthAdjust="spacing" textLength="48.1318" x="231.3193" y="1390.0576">core.rs</text></g><g class="participant participant-head" data-entity-uid="part3" data-qualified-name="session" data-source-line="8" id="part3-head"><rect fill="#FFFFFF" height="42.5938" rx="2.5" ry="2.5" style="stroke:#000000;stroke-width:1;" width="109.4561" x="341.7378" y="80.3125"/><text fill="#000000" font-family="Verdana" font-size="14" lengthAdjust="spacing" textLength="99.4561" x="346.7378" y="98.3076">DebugSession</text><text fill="#000000" font-family="Verdana" font-size="14" lengthAdjust="spacing" textLength="69.3232" x="361.8042" y="114.6045">session.rs</text></g><g class="participant participant-tail" data-entity-uid="part3" data-qualified-name="session" data-source-line="8" id="part3-tail"><rect fill="#FFFFFF" height="42.5938" rx="2.5" ry="2.5" style="stroke:#000000;stroke-width:1;" width="109.4561" x="341.7378" y="1355.7656"/><text fill="#000000" font-family="Verdana" font-size="14" lengthAdjust="spacing" textLength="99.4561" x="346.7378" y="1373.7607">DebugSession</text><text fill="#000000" font-family="Verdana" font-size="14" lengthAdjust="spacing" textLength="69.3232" x="361.8042" y="1390.0576">session.rs</text></g><g class="participant participant-head" data-entity-uid="part4" data-qualified-name="control" data-source-line="9" id="part4-head"><rect fill="#FFFFFF" height="42.5938" rx="2.5" ry="2.5" style="stroke:#000000;stroke-width:1;" width="106.9541" x="481.1938" y="80.3125"/><text fill="#000000" font-family="Verdana" font-size="14" lengthAdjust="spacing" textLength="96.9541" x="486.1938" y="98.3076">DebugControl</text><text fill="#000000" font-family="Verdana" font-size="14" lengthAdjust="spacing" textLength="38.8555" x="515.2432" y="114.6045">api.rs</text></g><g class="participant participant-tail" data-entity-uid="part4" data-qualified-name="control" data-source-line="9" id="part4-tail"><rect fill="#FFFFFF" height="42.5938" rx="2.5" ry="2.5" style="stroke:#000000;stroke-width:1;" width="106.9541" x="481.1938" y="1355.7656"/><text fill="#000000" font-family="Verdana" font-size="14" lengthAdjust="spacing" textLength="96.9541" x="486.1938" y="1373.7607">DebugControl</text><text fill="#000000" font-family="Verdana" font-size="14" lengthAdjust="spacing" textLength="38.8555" x="515.2432" y="1390.0576">api.rs</text></g><g class="participant participant-head" data-entity-uid="part5" data-qualified-name="stopThread" data-source-line="10" id="part5-head"><rect fill="#FFFFFF" height="42.5938" rx="2.5" ry="2.5" style="stroke:#000000;stroke-width:1;" width="95.5381" x="674.2041" y="80.3125"/><text fill="#000000" font-family="Verdana" font-size="14" lengthAdjust="spacing" textLength="85.5381" x="679.2041" y="98.3076">Stop Thread</text><text fill="#000000" font-family="Verdana" font-size="14" lengthAdjust="spacing" textLength="48.1318" x="697.9072" y="114.6045">core.rs</text></g><g class="participant participant-tail" data-entity-uid="part5" data-qualified-name="stopThread" data-source-line="10" id="part5-tail"><rect fill="#FFFFFF" height="42.5938" rx="2.5" ry="2.5" style="stroke:#000000;stroke-width:1;" width="95.5381" x="674.2041" y="1355.7656"/><text fill="#000000" font-family="Verdana" font-size="14" lengthAdjust="spacing" textLength="85.5381" x="679.2041" y="1373.7607">Stop Thread</text><text fill="#000000" font-family="Verdana" font-size="14" lengthAdjust="spacing" textLength="48.1318" x="697.9072" y="1390.0576">core.rs</text></g><g class="participant participant-head" data-entity-uid="part6" data-qualified-name="stopCoord" data-source-line="11" id="part6-head"><rect fill="#FFFFFF" height="42.5938" rx="2.5" ry="2.5" style="stroke:#000000;stroke-width:1;" width="124.5293" x="799.7422" y="80.3125"/><text fill="#000000" font-family="Verdana" font-size="14" lengthAdjust="spacing" textLength="114.5293" x="804.7422" y="98.3076">StopCoordinator</text><text fill="#000000" font-family="Verdana" font-size="14" lengthAdjust="spacing" textLength="59.0557" x="832.479" y="114.6045">(core.rs)</text></g><g class="participant participant-tail" data-entity-uid="part6" data-qualified-name="stopCoord" data-source-line="11" id="part6-tail"><rect fill="#FFFFFF" height="42.5938" rx="2.5" ry="2.5" style="stroke:#000000;stroke-width:1;" width="124.5293" x="799.7422" y="1355.7656"/><text fill="#000000" font-family="Verdana" font-size="14" lengthAdjust="spacing" textLength="114.5293" x="804.7422" y="1373.7607">StopCoordinator</text><text fill="#000000" font-family="Verdana" font-size="14" lengthAdjust="spacing" textLength="59.0557" x="832.479" y="1390.0576">(core.rs)</text></g><g class="participant participant-head" data-entity-uid="part7" data-qualified-name="runner" data-source-line="12" id="part7-head"><rect fill="#FFFFFF" height="42.5938" rx="2.5" ry="2.5" style="stroke:#000000;stroke-width:1;" width="114.4258" x="962.835" y="80.3125"/><text fill="#000000" font-family="Verdana" font-size="14" lengthAdjust="spacing" textLength="104.4258" x="967.835" y="98.3076">Runner Thread</text><text fill="#000000" font-family="Verdana" font-size="14" lengthAdjust="spacing" textLength="48.1318" x="995.9819" y="114.6045">core.rs</text></g><g class="participant participant-tail" data-entity-uid="part7" data-qualified-name="runner" data-source-line="12" id="part7-tail"><rect fill="#FFFFFF" height="42.5938" rx="2.5" ry="2.5" style="stroke:#000000;stroke-width:1;" width="114.4258" x="962.835" y="1355.7656"/><text fill="#000000" font-family="Verdana" font-size="14" lengthAdjust="spacing" textLength="104.4258" x="967.835" y="1373.7607">Runner Thread</text><text fill="#000000" font-family="Verdana" font-size="14" lengthAdjust="spacing" textLength="48.1318" x="995.9819" y="1390.0576">core.rs</text></g><g class="participant participant-head" data-entity-uid="part8" data-qualified-name="runtime" data-source-line="13" id="part8-head"><rect fill="#FFFFFF" height="42.5938" rx="2.5" ry="2.5" style="stroke:#000000;stroke-width:1;" width="69.1035" x="1111.9092" y="80.3125"/><text fill="#000000" font-family="Verdana" font-size="14" lengthAdjust="spacing" textLength="59.1035" x="1116.9092" y="98.3076">Runtime</text><text fill="#000000" font-family="Verdana" font-size="14" lengthAdjust="spacing" textLength="53.6826" x="1119.6196" y="114.6045">cycle.rs</text></g><g class="participant participant-tail" data-entity-uid="part8" data-qualified-name="runtime" data-source-line="13" id="part8-tail"><rect fill="#FFFFFF" height="42.5938" rx="2.5" ry="2.5" style="stroke:#000000;stroke-width:1;" width="69.1035" x="1111.9092" y="1355.7656"/><text fill="#000000" font-family="Verdana" font-size="14" lengthAdjust="spacing" textLength="59.1035" x="1116.9092" y="1373.7607">Runtime</text><text fill="#000000" font-family="Verdana" font-size="14" lengthAdjust="spacing" textLength="53.6826" x="1119.6196" y="1390.0576">cycle.rs</text></g><g class="participant participant-head" data-entity-uid="part9" data-qualified-name="hook" data-source-line="14" id="part9-head"><rect fill="#FFFFFF" height="42.5938" rx="2.5" ry="2.5" style="stroke:#000000;stroke-width:1;" width="91.8057" x="1355.8457" y="80.3125"/><text fill="#000000" font-family="Verdana" font-size="14" lengthAdjust="spacing" textLength="81.8057" x="1360.8457" y="98.3076">DebugHook</text><text fill="#000000" font-family="Verdana" font-size="14" lengthAdjust="spacing" textLength="51.6113" x="1375.9429" y="114.6045">hook.rs</text></g><g class="participant participant-tail" data-entity-uid="part9" data-qualified-name="hook" data-source-line="14" id="part9-tail"><rect fill="#FFFFFF" height="42.5938" rx="2.5" ry="2.5" style="stroke:#000000;stroke-width:1;" width="91.8057" x="1355.8457" y="1355.7656"/><text fill="#000000" font-family="Verdana" font-size="14" lengthAdjust="spacing" textLength="81.8057" x="1360.8457" y="1373.7607">DebugHook</text><text fill="#000000" font-family="Verdana" font-size="14" lengthAdjust="spacing" textLength="51.6113" x="1375.9429" y="1390.0576">hook.rs</text></g><g><title>DebugAdapter</title><rect fill="#FFFFFF" height="370.9922" style="stroke:#FFFFFF;stroke-width:1;" width="10" x="250.3853" y="160.0391"/><line style="stroke:#000000;stroke-width:1;" x1="250.3853" x2="250.3853" y1="160.0391" y2="531.0313"/><line style="stroke:#000000;stroke-width:1;" x1="260.3853" x2="260.3853" y1="160.0391" y2="531.0313"/><line style="stroke:#000000;stroke-width:1;" x1="250.3853" x2="260.3853" y1="160.0391" y2="160.0391"/></g><g><title>DebugAdapter</title><rect fill="#FFFFFF" height="343.2656" style="stroke:#FFFFFF;stroke-width:1;" width="10" x="250.3853" y="571.8359"/><line style="stroke:#000000;stroke-width:1;" x1="250.3853" x2="250.3853" y1="571.8359" y2="915.1016"/><line style="stroke:#000000;stroke-width:1;" x1="260.3853" x2="260.3853" y1="571.8359" y2="915.1016"/></g><g><title>DebugAdapter</title><rect fill="#FFFFFF" height="386.8594" style="stroke:#FFFFFF;stroke-width:1;" width="10" x="250.3853" y="955.9063"/><line style="stroke:#000000;stroke-width:1;" x1="250.3853" x2="250.3853" y1="955.9063" y2="1342.7656"/><line style="stroke:#000000;stroke-width:1;" x1="260.3853" x2="260.3853" y1="955.9063" y2="1342.7656"/></g><g><title>DebugControl</title><rect fill="#FFFFFF" height="161.0625" style="stroke:#000000;stroke-width:1;" width="10" x="529.6709" y="304.7031"/></g><g><title>Runtime</title><rect fill="#FFFFFF" height="322.1328" style="stroke:#000000;stroke-width:1;" width="10" x="1141.4609" y="592.9688"/></g><g><title>DebugHook</title><rect fill="#FFFFFF" height="261.8672" style="stroke:#000000;stroke-width:1;" width="10" x="1396.7485" y="646.2344"/></g><g class="message" data-entity-1="part1" data-entity-2="part2" data-source-line="16" id="msg1"><polygon fill="#000000" points="238.3853,156.0391,248.3853,160.0391,238.3853,164.0391,242.3853,160.0391" style="stroke:#000000;stroke-width:1;stroke-linejoin:miter;stroke-miterlimit:10;"/><line style="stroke:#000000;stroke-width:1;" x1="42.3774" x2="244.3853" y1="160.0391" y2="160.0391"/><text fill="#000000" font-family="Verdana" font-size="13" lengthAdjust="spacing" textLength="189.0078" x="51.8774" y="154.9731">next(threadId) (DAP request)</text></g><g class="message" data-entity-1="part2" data-entity-2="part2" data-source-line="19" id="msg2"><line style="stroke:#000000;stroke-width:1;" x1="260.3853" x2="302.3853" y1="189.1719" y2="189.1719"/><line style="stroke:#000000;stroke-width:1;" x1="302.3853" x2="302.3853" y1="189.1719" y2="202.1719"/><line style="stroke:#000000;stroke-width:1;" x1="261.3853" x2="302.3853" y1="202.1719" y2="202.1719"/><polygon fill="#000000" points="271.3853,198.1719,261.3853,202.1719,271.3853,206.1719,267.3853,202.1719" style="stroke:#000000;stroke-width:1;stroke-linejoin:miter;stroke-miterlimit:10;"/><text fill="#000000" font-family="Verdana" font-size="13" lengthAdjust="spacing" textLength="89.978" x="267.3853" y="184.106">handle_next()</text></g><g class="message" data-entity-1="part2" data-entity-2="part3" data-source-line="20" id="msg3"><polygon fill="#000000" points="384.4658,227.3047,394.4658,231.3047,384.4658,235.3047,388.4658,231.3047" style="stroke:#000000;stroke-width:1;stroke-linejoin:miter;stroke-miterlimit:10;"/><line style="stroke:#000000;stroke-width:1;" x1="260.3853" x2="390.4658" y1="231.3047" y2="231.3047"/><text fill="#000000" font-family="Verdana" font-size="13" lengthAdjust="spacing" textLength="102.9844" x="276.9333" y="226.2388">debug_control()</text></g><g class="message" data-entity-1="part3" data-entity-2="part2" data-source-line="21" id="msg4"><polygon fill="#000000" points="271.3853,256.4375,261.3853,260.4375,271.3853,264.4375,267.3853,260.4375" style="stroke:#000000;stroke-width:1;stroke-linejoin:miter;stroke-miterlimit:10;"/><line style="stroke:#000000;stroke-width:1;stroke-dasharray:2,2;" x1="265.3853" x2="395.4658" y1="260.4375" y2="260.4375"/><text fill="#000000" font-family="Verdana" font-size="13" lengthAdjust="spacing" textLength="112.0806" x="272.3853" y="255.3716">DebugControl ref</text></g><g class="message" data-entity-1="part2" data-entity-2="part4" data-source-line="23" id="msg5"><polygon fill="#000000" points="517.6709,300.7031,527.6709,304.7031,517.6709,308.7031,521.6709,304.7031" style="stroke:#000000;stroke-width:1;stroke-linejoin:miter;stroke-miterlimit:10;"/><line style="stroke:#000000;stroke-width:1;" x1="260.3853" x2="523.6709" y1="304.7031" y2="304.7031"/><text fill="#000000" font-family="Verdana" font-size="13" lengthAdjust="spacing" textLength="128.7368" x="330.6597" y="284.5044">step_over(threadId)</text><text fill="#000000" font-family="Verdana" font-size="13" lengthAdjust="spacing" textLength="104.1079" x="342.9741" y="299.6372">(thread-scoped)</text></g><g class="message" data-entity-1="part4" data-entity-2="part4" data-source-line="25" id="msg6"><line style="stroke:#000000;stroke-width:1;" x1="539.6709" x2="581.6709" y1="375.7344" y2="375.7344"/><line style="stroke:#000000;stroke-width:1;" x1="581.6709" x2="581.6709" y1="375.7344" y2="388.7344"/><line style="stroke:#000000;stroke-width:1;" x1="540.6709" x2="581.6709" y1="388.7344" y2="388.7344"/><polygon fill="#000000" points="550.6709,384.7344,540.6709,388.7344,550.6709,392.7344,546.6709,388.7344" style="stroke:#000000;stroke-width:1;stroke-linejoin:miter;stroke-miterlimit:10;"/><text fill="#000000" font-family="Verdana" font-size="13" lengthAdjust="spacing" textLength="153.3022" x="546.6709" y="370.6685">apply_action(StepOver)</text></g><path d="M721.3022,317.7031 L721.3022,432.7031 L947.3022,432.7031 L947.3022,327.7031 L937.3022,317.7031 L721.3022,317.7031" fill="#FFFFFF" style="stroke:#000000;stroke-width:1;"/><path d="M937.3022,317.7031 L937.3022,327.7031 L947.3022,327.7031 L937.3022,317.7031" fill="#FFFFFF" style="stroke:#000000;stroke-width:1;"/><text fill="#000000" font-family="Verdana" font-size="13" lengthAdjust="spacing" textLength="160.7544" x="727.3022" y="334.77">state.step = StepState {</text><text fill="#000000" font-family="Verdana" font-size="13" lengthAdjust="spacing" textLength="71.5444" x="743.8315" y="349.9028">kind: Over,</text><text fill="#000000" font-family="Verdana" font-size="13" lengthAdjust="spacing" textLength="188.4873" x="743.8315" y="365.0356">target_depth: current_depth,</text><text fill="#000000" font-family="Verdana" font-size="13" lengthAdjust="spacing" textLength="61.2612" x="743.8315" y="380.1685">thread_id</text><text fill="#000000" font-family="Verdana" font-size="13" lengthAdjust="spacing" textLength="8.271" x="727.3022" y="395.3013">}</text><text fill="#000000" font-family="Verdana" font-size="13" lengthAdjust="spacing" textLength="146.9419" x="727.3022" y="410.4341">state.mode = Running</text><text fill="#000000" font-family="Verdana" font-size="13" lengthAdjust="spacing" textLength="123.6206" x="727.3022" y="425.5669">clear pending_stop</text><g class="message" data-entity-1="part4" data-entity-2="part4" data-source-line="35" id="msg8"><line style="stroke:#000000;stroke-width:1;" x1="539.6709" x2="581.6709" y1="464.7656" y2="464.7656"/><line style="stroke:#000000;stroke-width:1;" x1="581.6709" x2="581.6709" y1="464.7656" y2="477.7656"/><line style="stroke:#000000;stroke-width:1;" x1="534.6709" x2="581.6709" y1="477.7656" y2="477.7656"/><polygon fill="#000000" points="544.6709,473.7656,534.6709,477.7656,544.6709,481.7656,540.6709,477.7656" style="stroke:#000000;stroke-width:1;stroke-linejoin:miter;stroke-miterlimit:10;"/><text fill="#000000" font-family="Verdana" font-size="13" lengthAdjust="spacing" textLength="101.2896" x="546.6709" y="459.6997">cvar.notify_all()</text></g><g class="message" data-entity-1="part2" data-entity-2="part1" data-source-line="38" id="msg9"><polygon fill="#000000" points="53.3774,508.4648,43.3774,512.4648,53.3774,516.4648,49.3774,512.4648" style="stroke:#000000;stroke-width:1;stroke-linejoin:miter;stroke-miterlimit:10;"/><line style="stroke:#000000;stroke-width:1;stroke-dasharray:2,2;" x1="47.3774" x2="249.3853" y1="512.4648" y2="512.4648"/><text fill="#000000" font-family="Verdana" font-size="13" lengthAdjust="spacing" textLength="78.9458" x="106.9084" y="507.3989">ok response</text></g><path d="M265,485.7656 L265,525.7656 L452,525.7656 L452,495.7656 L442,485.7656 L265,485.7656" fill="#FFFFFF" style="stroke:#000000;stroke-width:1;"/><path d="M442,485.7656 L442,495.7656 L452,495.7656 L442,485.7656" fill="#FFFFFF" style="stroke:#000000;stroke-width:1;"/><text fill="#000000" font-family="Verdana" font-size="13" lengthAdjust="spacing" textLength="166.8037" x="271" y="502.8325">StopGate token held until</text><text fill="#000000" font-family="Verdana" font-size="13" lengthAdjust="spacing" textLength="129.8032" x="271" y="517.9653">response is flushed.</text><text fill="#000000" font-family="Verdana" font-size="11" lengthAdjust="spacing" textLength="135.1958" x="654.4651" y="555.2417">Runner thread wakes up</text><g class="message" data-entity-1="part7" data-entity-2="part8" data-source-line="46" id="msg11"><polygon fill="#000000" points="1129.4609,588.9688,1139.4609,592.9688,1129.4609,596.9688,1133.4609,592.9688" style="stroke:#000000;stroke-width:1;stroke-linejoin:miter;stroke-miterlimit:10;"/><line style="stroke:#000000;stroke-width:1;" x1="1020.0479" x2="1135.4609" y1="592.9688" y2="592.9688"/><text fill="#000000" font-family="Verdana" font-size="13" lengthAdjust="spacing" textLength="102.4131" x="1029.5479" y="587.9028">execute_cycle()</text></g><path d="M644.2041,607.9688 L720.8281,607.9688 L720.8281,615.1016 L710.8281,625.1016 L644.2041,625.1016 L644.2041,607.9688" fill="#FFFFFF" style="stroke:#000000;stroke-width:1;"/><rect fill="none" height="300.1328" style="stroke:#000000;stroke-width:1;" width="1160.312" x="644.2041" y="607.9688"/><text fill="#000000" font-family="Verdana" font-size="13" font-weight="700" lengthAdjust="spacing" textLength="31.624" x="659.2041" y="621.0356">loop</text><text fill="#000000" font-family="Verdana" font-size="11" font-weight="700" lengthAdjust="spacing" textLength="128.6753" x="735.8281" y="620.1792">[for each statement]</text><g class="message" data-entity-1="part8" data-entity-2="part9" data-source-line="50" id="msg12"><polygon fill="#000000" points="1384.7485,642.2344,1394.7485,646.2344,1384.7485,650.2344,1388.7485,646.2344" style="stroke:#000000;stroke-width:1;stroke-linejoin:miter;stroke-miterlimit:10;"/><line style="stroke:#000000;stroke-width:1;" x1="1151.4609" x2="1390.7485" y1="646.2344" y2="646.2344"/><text fill="#000000" font-family="Verdana" font-size="13" lengthAdjust="spacing" textLength="226.2876" x="1160.9609" y="641.1685">on_statement(location, call_depth)</text></g><g class="message" data-entity-1="part9" data-entity-2="part9" data-source-line="53" id="msg13"><line style="stroke:#000000;stroke-width:1;" x1="1406.7485" x2="1448.7485" y1="679.4336" y2="679.4336"/><line style="stroke:#000000;stroke-width:1;" x1="1448.7485" x2="1448.7485" y1="679.4336" y2="692.4336"/><line style="stroke:#000000;stroke-width:1;" x1="1407.7485" x2="1448.7485" y1="692.4336" y2="692.4336"/><polygon fill="#000000" points="1417.7485,688.4336,1407.7485,692.4336,1417.7485,696.4336,1413.7485,692.4336" style="stroke:#000000;stroke-width:1;stroke-linejoin:miter;stroke-miterlimit:10;"/><text fill="#000000" font-family="Verdana" font-size="13" lengthAdjust="spacing" textLength="134.5513" x="1413.7485" y="674.3677">check step condition</text></g><path d="M1569.5513,659.2344 L1569.5513,699.2344 L1783.5513,699.2344 L1783.5513,669.2344 L1773.5513,659.2344 L1569.5513,659.2344" fill="#FFFFFF" style="stroke:#000000;stroke-width:1;"/><path d="M1773.5513,659.2344 L1773.5513,669.2344 L1783.5513,669.2344 L1773.5513,659.2344" fill="#FFFFFF" style="stroke:#000000;stroke-width:1;"/><text fill="#000000" font-family="Verdana" font-size="13" lengthAdjust="spacing" textLength="115.5083" x="1575.5513" y="676.3013">if step.started &amp;&amp;</text><text fill="#000000" font-family="Verdana" font-size="13" lengthAdjust="spacing" textLength="180.8193" x="1587.9482" y="691.4341">call_depth &lt;= target_depth</text><path d="M654.2041,711.5 L718.647,711.5 L718.647,718.6328 L708.647,728.6328 L654.2041,728.6328 L654.2041,711.5" fill="#FFFFFF" style="stroke:#000000;stroke-width:1;"/><rect fill="none" height="189.6016" style="stroke:#000000;stroke-width:1;" width="917.8032" x="654.2041" y="711.5"/><text fill="#000000" font-family="Verdana" font-size="13" font-weight="700" lengthAdjust="spacing" textLength="19.4429" x="669.2041" y="724.5669">alt</text><text fill="#000000" font-family="Verdana" font-size="11" font-weight="700" lengthAdjust="spacing" textLength="92.4312" x="733.647" y="723.7104">[should pause]</text><g class="message" data-entity-1="part9" data-entity-2="part9" data-source-line="60" id="msg15"><line style="stroke:#000000;stroke-width:1;" x1="1406.7485" x2="1448.7485" y1="749.7656" y2="749.7656"/><line style="stroke:#000000;stroke-width:1;" x1="1448.7485" x2="1448.7485" y1="749.7656" y2="762.7656"/><line style="stroke:#000000;stroke-width:1;" x1="1407.7485" x2="1448.7485" y1="762.7656" y2="762.7656"/><polygon fill="#000000" points="1417.7485,758.7656,1407.7485,762.7656,1417.7485,766.7656,1413.7485,762.7656" style="stroke:#000000;stroke-width:1;stroke-linejoin:miter;stroke-miterlimit:10;"/><text fill="#000000" font-family="Verdana" font-size="13" lengthAdjust="spacing" textLength="121.7417" x="1413.7485" y="744.6997">update_snapshot()</text></g><g class="message" data-entity-1="part9" data-entity-2="part5" data-source-line="61" id="msg16"><polygon fill="#000000" points="732.9731,803.0313,722.9731,807.0313,732.9731,811.0313,728.9731,807.0313" style="stroke:#000000;stroke-width:1;stroke-linejoin:miter;stroke-miterlimit:10;"/><line style="stroke:#000000;stroke-width:1;" x1="726.9731" x2="1395.7485" y1="807.0313" y2="807.0313"/><text fill="#000000" font-family="Verdana" font-size="13" lengthAdjust="spacing" textLength="208.7998" x="954.9609" y="786.8325">emit DebugStop(Step, threadId)</text><text fill="#000000" font-family="Verdana" font-size="13" lengthAdjust="spacing" textLength="100.458" x="1009.1318" y="801.9653">(generation ok)</text></g><g class="message" data-entity-1="part9" data-entity-2="part9" data-source-line="62" id="msg17"><line style="stroke:#000000;stroke-width:1;" x1="1406.7485" x2="1448.7485" y1="836.1641" y2="836.1641"/><line style="stroke:#000000;stroke-width:1;" x1="1448.7485" x2="1448.7485" y1="836.1641" y2="849.1641"/><line style="stroke:#000000;stroke-width:1;" x1="1407.7485" x2="1448.7485" y1="849.1641" y2="849.1641"/><polygon fill="#000000" points="1417.7485,845.1641,1407.7485,849.1641,1417.7485,853.1641,1413.7485,849.1641" style="stroke:#000000;stroke-width:1;stroke-linejoin:miter;stroke-miterlimit:10;"/><text fill="#000000" font-family="Verdana" font-size="13" lengthAdjust="spacing" textLength="136.2588" x="1413.7485" y="831.0981">cvar.wait() [BLOCKS]</text></g><line style="stroke:#000000;stroke-width:1;stroke-dasharray:2,2;" x1="654.2041" x2="1572.0073" y1="858.1641" y2="858.1641"/><text fill="#000000" font-family="Verdana" font-size="11" font-weight="700" lengthAdjust="spacing" textLength="64.1147" x="659.2041" y="868.3745">[continue]</text><g class="message" data-entity-1="part9" data-entity-2="part8" data-source-line="64" id="msg18"><polygon fill="#000000" points="1162.4609,889.1016,1152.4609,893.1016,1162.4609,897.1016,1158.4609,893.1016" style="stroke:#000000;stroke-width:1;stroke-linejoin:miter;stroke-miterlimit:10;"/><line style="stroke:#000000;stroke-width:1;stroke-dasharray:2,2;" x1="1156.4609" x2="1395.7485" y1="893.1016" y2="893.1016"/><text fill="#000000" font-family="Verdana" font-size="13" lengthAdjust="spacing" textLength="40.2632" x="1253.9731" y="888.0356">return</text></g><text fill="#000000" font-family="Verdana" font-size="11" lengthAdjust="spacing" textLength="110.752" x="666.687" y="939.312">Stop event received</text><g class="message" data-entity-1="part5" data-entity-2="part6" data-source-line="73" id="msg19"><polygon fill="#000000" points="850.0068,973.0391,860.0068,977.0391,850.0068,981.0391,854.0068,977.0391" style="stroke:#000000;stroke-width:1;stroke-linejoin:miter;stroke-miterlimit:10;"/><line style="stroke:#000000;stroke-width:1;" x1="721.9731" x2="856.0068" y1="977.0391" y2="977.0391"/><text fill="#000000" font-family="Verdana" font-size="13" lengthAdjust="spacing" textLength="112.0488" x="735.9656" y="971.9731">DebugStop(Step)</text></g><g class="message" data-entity-1="part6" data-entity-2="part6" data-source-line="74" id="msg20"><line style="stroke:#000000;stroke-width:1;" x1="862.0068" x2="904.0068" y1="1010.2383" y2="1010.2383"/><line style="stroke:#000000;stroke-width:1;" x1="904.0068" x2="904.0068" y1="1010.2383" y2="1023.2383"/><line style="stroke:#000000;stroke-width:1;" x1="863.0068" x2="904.0068" y1="1023.2383" y2="1023.2383"/><polygon fill="#000000" points="873.0068,1019.2383,863.0068,1023.2383,873.0068,1027.2383,869.0068,1023.2383" style="stroke:#000000;stroke-width:1;stroke-linejoin:miter;stroke-miterlimit:10;"/><text fill="#000000" font-family="Verdana" font-size="13" lengthAdjust="spacing" textLength="144.041" x="869.0068" y="1005.1724">stop_gate.wait_clear()</text></g><path d="M1025.041,990.0391 L1025.041,1030.0391 L1281.041,1030.0391 L1281.041,1000.0391 L1271.041,990.0391 L1025.041,990.0391" fill="#FFFFFF" style="stroke:#000000;stroke-width:1;"/><path d="M1271.041,990.0391 L1271.041,1000.0391 L1281.041,1000.0391 L1271.041,990.0391" fill="#FFFFFF" style="stroke:#000000;stroke-width:1;"/><text fill="#000000" font-family="Verdana" font-size="13" lengthAdjust="spacing" textLength="90.251" x="1031.041" y="1007.106">DAP ordering:</text><text fill="#000000" font-family="Verdana" font-size="13" lengthAdjust="spacing" textLength="235.479" x="1031.041" y="1022.2388">responses first, then stopped event.</text><g class="message" data-entity-1="part6" data-entity-2="part2" data-source-line="79" id="msg22"><polygon fill="#000000" points="271.3853,1052.4375,261.3853,1056.4375,271.3853,1060.4375,267.3853,1056.4375" style="stroke:#000000;stroke-width:1;stroke-linejoin:miter;stroke-miterlimit:10;"/><line style="stroke:#000000;stroke-width:1;" x1="265.3853" x2="861.0068" y1="1056.4375" y2="1056.4375"/><text fill="#000000" font-family="Verdana" font-size="13" lengthAdjust="spacing" textLength="124.5093" x="498.9414" y="1051.3716">ordered stop event</text></g><g class="message" data-entity-1="part2" data-entity-2="part1" data-source-line="80" id="msg23"><polygon fill="#000000" points="53.3774,1096.7031,43.3774,1100.7031,53.3774,1104.7031,49.3774,1100.7031" style="stroke:#000000;stroke-width:1;stroke-linejoin:miter;stroke-miterlimit:10;"/><line style="stroke:#000000;stroke-width:1;" x1="47.3774" x2="249.3853" y1="1100.7031" y2="1100.7031"/><text fill="#000000" font-family="Verdana" font-size="13" lengthAdjust="spacing" textLength="93.7358" x="99.5134" y="1080.5044">stopped event</text><text fill="#000000" font-family="Verdana" font-size="13" lengthAdjust="spacing" textLength="109.4082" x="91.6772" y="1095.6372">{reason: "step"}</text></g><g class="message" data-entity-1="part2" data-entity-2="part1" data-source-line="81" id="msg24"><polygon fill="#000000" points="53.3774,1125.8359,43.3774,1129.8359,53.3774,1133.8359,49.3774,1129.8359" style="stroke:#000000;stroke-width:1;stroke-linejoin:miter;stroke-miterlimit:10;"/><line style="stroke:#000000;stroke-width:1;" x1="47.3774" x2="249.3853" y1="1129.8359" y2="1129.8359"/><text fill="#000000" font-family="Verdana" font-size="13" lengthAdjust="spacing" textLength="113.458" x="89.6523" y="1124.77">invalidated event</text></g><g class="message" data-entity-1="part1" data-entity-2="part2" data-source-line="83" id="msg25"><polygon fill="#000000" points="238.3853,1154.9688,248.3853,1158.9688,238.3853,1162.9688,242.3853,1158.9688" style="stroke:#000000;stroke-width:1;stroke-linejoin:miter;stroke-miterlimit:10;"/><line style="stroke:#000000;stroke-width:1;" x1="42.3774" x2="244.3853" y1="1158.9688" y2="1158.9688"/><text fill="#000000" font-family="Verdana" font-size="13" lengthAdjust="spacing" textLength="70.9097" x="110.9265" y="1153.9028">stackTrace</text></g><g class="message" data-entity-1="part2" data-entity-2="part4" data-source-line="84" id="msg26"><polygon fill="#000000" points="522.6709,1184.1016,532.6709,1188.1016,522.6709,1192.1016,526.6709,1188.1016" style="stroke:#000000;stroke-width:1;stroke-linejoin:miter;stroke-miterlimit:10;"/><line style="stroke:#000000;stroke-width:1;" x1="260.3853" x2="528.6709" y1="1188.1016" y2="1188.1016"/><text fill="#000000" font-family="Verdana" font-size="13" lengthAdjust="spacing" textLength="84.7729" x="355.1416" y="1183.0356">get snapshot</text></g><g class="message" data-entity-1="part4" data-entity-2="part2" data-source-line="85" id="msg27"><polygon fill="#000000" points="271.3853,1213.2344,261.3853,1217.2344,271.3853,1221.2344,267.3853,1217.2344" style="stroke:#000000;stroke-width:1;stroke-linejoin:miter;stroke-miterlimit:10;"/><line style="stroke:#000000;stroke-width:1;stroke-dasharray:2,2;" x1="265.3853" x2="533.6709" y1="1217.2344" y2="1217.2344"/><text fill="#000000" font-family="Verdana" font-size="13" lengthAdjust="spacing" textLength="103.5239" x="345.7661" y="1212.1685">DebugSnapshot</text></g><g class="message" data-entity-1="part2" data-entity-2="part1" data-source-line="86" id="msg28"><polygon fill="#000000" points="53.3774,1242.3672,43.3774,1246.3672,53.3774,1250.3672,49.3774,1246.3672" style="stroke:#000000;stroke-width:1;stroke-linejoin:miter;stroke-miterlimit:10;"/><line style="stroke:#000000;stroke-width:1;stroke-dasharray:2,2;" x1="47.3774" x2="249.3853" y1="1246.3672" y2="1246.3672"/><text fill="#000000" font-family="Verdana" font-size="13" lengthAdjust="spacing" textLength="83.9668" x="104.3979" y="1241.3013">stack frames</text></g><g class="message" data-entity-1="part1" data-entity-2="part2" data-source-line="88" id="msg29"><polygon fill="#000000" points="238.3853,1271.5,248.3853,1275.5,238.3853,1279.5,242.3853,1275.5" style="stroke:#000000;stroke-width:1;stroke-linejoin:miter;stroke-miterlimit:10;"/><line style="stroke:#000000;stroke-width:1;" x1="42.3774" x2="244.3853" y1="1275.5" y2="1275.5"/><text fill="#000000" font-family="Verdana" font-size="13" lengthAdjust="spacing" textLength="59.2173" x="116.7727" y="1270.4341">variables</text></g><g class="message" data-entity-1="part2" data-entity-2="part4" data-source-line="89" id="msg30"><polygon fill="#000000" points="522.6709,1300.6328,532.6709,1304.6328,522.6709,1308.6328,526.6709,1304.6328" style="stroke:#000000;stroke-width:1;stroke-linejoin:miter;stroke-miterlimit:10;"/><line style="stroke:#000000;stroke-width:1;" x1="260.3853" x2="528.6709" y1="1304.6328" y2="1304.6328"/><text fill="#000000" font-family="Verdana" font-size="13" lengthAdjust="spacing" textLength="127.6577" x="333.6992" y="1299.5669">read from snapshot</text></g><g class="message" data-entity-1="part2" data-entity-2="part1" data-source-line="90" id="msg31"><polygon fill="#000000" points="53.3774,1329.7656,43.3774,1333.7656,53.3774,1337.7656,49.3774,1333.7656" style="stroke:#000000;stroke-width:1;stroke-linejoin:miter;stroke-miterlimit:10;"/><line style="stroke:#000000;stroke-width:1;stroke-dasharray:2,2;" x1="47.3774" x2="249.3853" y1="1333.7656" y2="1333.7656"/><text fill="#000000" font-family="Verdana" font-size="13" lengthAdjust="spacing" textLength="75.6704" x="108.5461" y="1328.6997">variable list</text></g><?plantuml-src TLRRZXCv47ttLnHvG8aqam-8c9M6GR2hNGGYY1UoQXbtfTkAOpUsEmD2_FjMsNrDUlCmuxXEbUjoJisyY3MU4HeZjHNXf6qZlJn3mEyjMeNlCGHPuQFHbGM5Dg8N8kfe4FOH6_XmGG-V61mYl3NkMGYfelEm-hA79rVY2cI0Ir1q51GwQgKRQIEitk2tjdeiPKCX3rOvZriV4bhcomNudhBHpXvio8VUe_kwuF7aRFJE7AniT8zM-MwEtaVNmEVQeopdsGGovFjRXoVdVAcjf88FTjrvRGQtP9vxVMgjfOujFUIJwGOUzHa9-5EPAP9l5yhzqxdJmTRqiyVoMOWy0BZ_esykxC3YZxYEAP6_oWsitpn-19ydkU4XwekCE0n3z8wp6BMqfS4YXTfC8Tr4259oNaNNSmBrbljPeEcmA8lZxBtEcM21E5SuujoOE3K-d--fnWRBIUxze7l_MIZPDEPdmLXdrynbfl96M4UENbTr542V42dGbf-5XyJuFL_0hsJa3occt2KPt0rtKVeAOr5Y4-iTgDPx4ax-EW6bf0jTfflVazVEFAe7OAfeMoK33LzwQD0Iswg2kINe39piSdNg8lsMpFf8DHhkUuatVHbxJBuTHNRWJZI0q3WIsNKtcFFlE49q9xHGeoc1kMYIjVS27U1esb1ZkHtJ5Dlj5ZhwvzhXMPumGDi0cOJ8_ESoEdvJBlW3LHknIFHVJqRRIq0OHxezqiAXykhSm3DrEoVKnQ6GB0EkpHO3P6sSaZpzEr3KeZoVJN8SdidguQiKO0oaQbIdH4VkPgavJi9TTOm_-fY0n2BIAvRmykLWuj4ERyEhXnbr4chiNqhCH0YrQwdlZMnfG7sKg_JQfgJqYq1hZ-2ipMlWkDQupMSTimHvmaaDTp1LM8KqcjGieiVc_rvDf7kMcjw3hw__-V3qz_xVN8G9cNNQjjSvp-RjCRRUzeMdtnFUfcdm_PJC0nEONscBuuMcIw4KwWkrEv5hKcvNV5hE_UOPojw8qNO5v7DHiK2vn299SdspC7YB4Xuz2NKtamM9GliGkR6a7Ov6soedEv79xFbnFwQG10z3WTC5EMXt5lLWVr71mTaTh9Y0gz-BFjfUfD7Cbyvl-Sy5iLUTFdkfS7ar4ssXvzkuaswN_Bx7B2wVz0eSwLyG3Cjv4CUq_6R8l9X66l7Hk_EOpE93VHWmEaJn7m00?></g></svg>