<svg xmlns="http://www.w3.org/2000/svg" xmlns:xlink="http://www.w3.org/1999/xlink" contentStyleType="text/css" data-diagram-type="ACTIVITY" height="2755px" preserveAspectRatio="none" style="width:2939px;height:2755px;background:#FEFEFE;" version="1.1" viewBox="0 0 2939 2755" width="2939px" zoomAndPan="magnify"><?plantuml 1.2026.4?><defs/><g><rect fill="#FEFEFE" height="2755" style="stroke:none;stroke-width:1;" width="2939" x="0" y="0"/><g class="title" data-source-line="6"><text fill="#000000" font-family="Verdana" font-size="22" font-weight="700" lengthAdjust="spacing" textLength="549.1406" x="1194.176" y="35.4209">truST Syntax: Lexer &#8594; Parser &#8594; CST Pipeline</text></g><rect fill="#FFFFFF" height="20.9531" style="stroke:#FFFFFF;stroke-width:1;" width="2902.4927" x="15" y="59.3545"/><ellipse cx="63.9141" cy="95.3076" fill="#FFFFFF" rx="10" ry="10" style="stroke:#000000;stroke-width:1;"/><path d="M126.8281,121.5771 L126.8281,137.71 L106.8281,141.71 L126.8281,145.71 L126.8281,161.8428 A0,0 0 0 0 126.8281,161.8428 L259.166,161.8428 A0,0 0 0 0 259.166,161.8428 L259.166,131.5771 L249.166,121.5771 L126.8281,121.5771 A0,0 0 0 0 126.8281,121.5771" fill="#FFFFFF" style="stroke:#000000;stroke-width:1;"/><path d="M249.166,121.5771 L249.166,131.5771 L259.166,131.5771 L249.166,121.5771" fill="#FFFFFF" style="stroke:#000000;stroke-width:1;"/><text fill="#000000" font-family="Verdana" font-size="13" lengthAdjust="spacing" textLength="111.3379" x="132.8281" y="138.644">Raw IEC 61131-3</text><text fill="#000000" font-family="Verdana" font-size="13" lengthAdjust="spacing" textLength="101.8735" x="132.8281" y="153.7769">Structured Text</text><rect fill="#FFFFFF" height="32.8047" rx="12.5" ry="12.5" style="stroke:#000000;stroke-width:1;" width="85.8281" x="21" y="125.3076"/><text fill="#000000" font-family="Verdana" font-size="11" lengthAdjust="spacing" textLength="65.8281" x="31" y="145.5181">Source Text</text><line style="stroke:#000000;stroke-width:1;" x1="15" x2="15" y1="59.3545" y2="2213.585"/><path d="M382.1709,171.8428 L382.1709,195.542 L362.1709,199.542 L382.1709,203.542 L382.1709,227.2412 A0,0 0 0 0 382.1709,227.2412 L573.2881,227.2412 A0,0 0 0 0 573.2881,227.2412 L573.2881,181.8428 L563.2881,171.8428 L382.1709,171.8428 A0,0 0 0 0 382.1709,171.8428" fill="#FFFFFF" style="stroke:#000000;stroke-width:1;"/><path d="M563.2881,171.8428 L563.2881,181.8428 L573.2881,181.8428 L563.2881,171.8428" fill="#FFFFFF" style="stroke:#000000;stroke-width:1;"/><text fill="#000000" font-family="Verdana" font-size="13" font-weight="700" lengthAdjust="spacing" textLength="131.2441" x="388.1709" y="188.9097">lexer/mod.rs:lex()</text><text fill="#000000" font-family="Verdana" font-size="13" lengthAdjust="spacing" textLength="159.9736" x="388.1709" y="204.0425">Uses logos derive macro</text><text fill="#000000" font-family="Verdana" font-size="13" lengthAdjust="spacing" textLength="170.1172" x="388.1709" y="219.1753">for zero-copy tokenization</text><rect fill="#FFFFFF" height="32.8047" rx="12.5" ry="12.5" style="stroke:#000000;stroke-width:1;" width="92.0049" x="270.166" y="183.1396"/><text fill="#000000" font-family="Verdana" font-size="11" lengthAdjust="spacing" textLength="72.0049" x="280.166" y="203.3501">Lexer (logos)</text><path d="M367.2393,237.2412 L367.2393,374.4365 L347.2393,378.4365 L367.2393,382.4365 L367.2393,519.6318 A0,0 0 0 0 367.2393,519.6318 L786.7642,519.6318 A0,0 0 0 0 786.7642,519.6318 L786.7642,247.2412 L776.7642,237.2412 L367.2393,237.2412 A0,0 0 0 0 367.2393,237.2412" fill="#FFFFFF" style="stroke:#000000;stroke-width:1;"/><path d="M776.7642,237.2412 L776.7642,247.2412 L786.7642,247.2412 L776.7642,237.2412" fill="#FFFFFF" style="stroke:#000000;stroke-width:1;"/><text fill="#000000" font-family="Verdana" font-size="13" font-weight="700" lengthAdjust="spacing" textLength="248.2695" x="373.2393" y="254.3081">Token struct (lexer/mod.rs:14-19)</text><text fill="#000000" font-family="Verdana" font-size="13" lengthAdjust="spacing" textLength="116.2319" x="373.2393" y="269.4409">&#8226; kind: TokenKind</text><text fill="#000000" font-family="Verdana" font-size="13" lengthAdjust="spacing" textLength="128.3306" x="373.2393" y="284.5737">&#8226; range: TextRange</text><text fill="#000000" font-family="Verdana" font-size="13" lengthAdjust="spacing" textLength="4.1323" x="373.2393" y="299.7065">&#160;</text><text fill="#000000" font-family="Verdana" font-size="13" font-weight="700" lengthAdjust="spacing" textLength="296.5117" x="373.2393" y="314.8394">TokenKind enum (lexer/tokens.rs:53-56)</text><text fill="#000000" font-family="Verdana" font-size="13" lengthAdjust="spacing" textLength="108.3228" x="373.2393" y="329.9722">&#171;TOKEN_STATS&#187;</text><text fill="#000000" font-family="Verdana" font-size="13" lengthAdjust="spacing" textLength="158.4375" x="373.2393" y="345.105">TokenKind variants: 202</text><text fill="#000000" font-family="Verdana" font-size="13" lengthAdjust="spacing" textLength="59.4521" x="373.2393" y="360.2378">Sections:</text><text fill="#000000" font-family="Verdana" font-size="13" lengthAdjust="spacing" textLength="64.7524" x="373.2393" y="375.3706">&#8226; Trivia: 4</text><text fill="#000000" font-family="Verdana" font-size="13" lengthAdjust="spacing" textLength="114.5244" x="373.2393" y="390.5034">&#8226; Punctuation: 12</text><text fill="#000000" font-family="Verdana" font-size="13" lengthAdjust="spacing" textLength="101.8164" x="373.2393" y="405.6362">&#8226; Operators: 15</text><text fill="#000000" font-family="Verdana" font-size="13" lengthAdjust="spacing" textLength="108.2974" x="373.2393" y="420.769">&#8226; Keywords: 156</text><text fill="#000000" font-family="Verdana" font-size="13" lengthAdjust="spacing" textLength="84.5" x="373.2393" y="435.9019">&#8226; Literals: 12</text><text fill="#000000" font-family="Verdana" font-size="13" lengthAdjust="spacing" textLength="93.9199" x="373.2393" y="451.0347">&#8226; Identifiers: 1</text><text fill="#000000" font-family="Verdana" font-size="13" lengthAdjust="spacing" textLength="75.4229" x="373.2393" y="466.1675">&#8226; Special: 2</text><text fill="#000000" font-family="Verdana" font-size="13" lengthAdjust="spacing" textLength="4.1323" x="373.2393" y="481.3003">&#160;</text><text fill="#000000" font-family="Verdana" font-size="13" lengthAdjust="spacing" textLength="398.5249" x="373.2393" y="496.4331">Keywords (156) in docs/diagrams/generated/syntax-stats.md</text><text fill="#000000" font-family="Verdana" font-size="13" lengthAdjust="spacing" textLength="142.7715" x="373.2393" y="511.5659">&#171;TOKEN_STATS_END&#187;</text><rect fill="#FFFFFF" height="32.8047" rx="12.5" ry="12.5" style="stroke:#000000;stroke-width:1;" width="62.1416" x="285.0977" y="362.0342"/><text fill="#000000" font-family="Verdana" font-size="11" lengthAdjust="spacing" textLength="42.1416" x="295.0977" y="382.2446">Token[]</text><line style="stroke:#000000;stroke-width:1;" x1="264.166" x2="264.166" y1="59.3545" y2="2213.585"/><path d="M1272.594,529.6318 L1272.594,568.4639 L1252.594,572.4639 L1272.594,576.4639 L1272.594,615.2959 A0,0 0 0 0 1272.594,615.2959 L1566.429,615.2959 A0,0 0 0 0 1566.429,615.2959 L1566.429,539.6318 L1556.429,529.6318 L1272.594,529.6318 A0,0 0 0 0 1272.594,529.6318" fill="#FFFFFF" style="stroke:#000000;stroke-width:1;"/><path d="M1556.429,529.6318 L1556.429,539.6318 L1566.429,539.6318 L1556.429,529.6318" fill="#FFFFFF" style="stroke:#000000;stroke-width:1;"/><text fill="#000000" font-family="Verdana" font-size="13" font-weight="700" lengthAdjust="spacing" textLength="272.835" x="1278.594" y="546.6987">Source struct (parser/source.rs:8-14)</text><text fill="#000000" font-family="Verdana" font-size="13" lengthAdjust="spacing" textLength="168.2065" x="1278.594" y="561.8315">Wraps token stream with:</text><text fill="#000000" font-family="Verdana" font-size="13" lengthAdjust="spacing" textLength="164.4297" x="1278.594" y="576.9644">&#8226; peek_kind() - skip trivia</text><text fill="#000000" font-family="Verdana" font-size="13" lengthAdjust="spacing" textLength="112.6709" x="1278.594" y="592.0972">&#8226; current_token()</text><text fill="#000000" font-family="Verdana" font-size="13" lengthAdjust="spacing" textLength="110.8301" x="1278.594" y="607.23">&#8226; peek_kind_n(n)</text><rect fill="#FFFFFF" height="32.8047" rx="12.5" ry="12.5" style="stroke:#000000;stroke-width:1;" width="107.0332" x="1145.5608" y="556.0615"/><text fill="#000000" font-family="Verdana" font-size="11" lengthAdjust="spacing" textLength="87.0332" x="1155.5608" y="576.272">Source wrapper</text><path d="M1236.5361,635.2959 L1236.5361,796.624 L1535.208,796.624 L1535.208,645.2959 L1525.208,635.2959 L1236.5361,635.2959" fill="#FFFFFF" style="stroke:#000000;stroke-width:1;"/><path d="M1525.208,635.2959 L1525.208,645.2959 L1535.208,645.2959 L1525.208,635.2959" fill="#FFFFFF" style="stroke:#000000;stroke-width:1;"/><text fill="#000000" font-family="Verdana" font-size="13" font-weight="700" lengthAdjust="spacing" textLength="277.6719" x="1242.5361" y="652.3628">Parser struct (parser/parser.rs:30-34)</text><text fill="#000000" font-family="Verdana" font-size="13" lengthAdjust="spacing" textLength="170.2632" x="1242.5361" y="667.4956">&#8226; source: Source&lt;'t, 'src&gt;</text><text fill="#000000" font-family="Verdana" font-size="13" lengthAdjust="spacing" textLength="147.1768" x="1242.5361" y="682.6284">&#8226; events: Vec&lt;Event&gt;</text><text fill="#000000" font-family="Verdana" font-size="13" lengthAdjust="spacing" textLength="173.0181" x="1242.5361" y="697.7612">&#8226; errors: Vec&lt;ParseError&gt;</text><text fill="#000000" font-family="Verdana" font-size="13" lengthAdjust="spacing" textLength="4.1323" x="1242.5361" y="712.894">&#160;</text><text fill="#000000" font-family="Verdana" font-size="13" font-weight="700" lengthAdjust="spacing" textLength="100.896" x="1242.5361" y="728.0269">Key methods:</text><text fill="#000000" font-family="Verdana" font-size="13" lengthAdjust="spacing" textLength="116.7778" x="1242.5361" y="743.1597">&#8226; start() &#8594; Marker</text><text fill="#000000" font-family="Verdana" font-size="13" lengthAdjust="spacing" textLength="172.269" x="1242.5361" y="758.2925">&#8226; bump() - consume token</text><text fill="#000000" font-family="Verdana" font-size="13" lengthAdjust="spacing" textLength="165.1978" x="1242.5361" y="773.4253">&#8226; at(kind) - check current</text><text fill="#000000" font-family="Verdana" font-size="13" lengthAdjust="spacing" textLength="170.6821" x="1242.5361" y="788.5581">&#8226; error(msg) - report error</text><path d="M1259.2385,816.624 L1259.2385,962.8193 L1512.5056,962.8193 L1512.5056,826.624 L1502.5056,816.624 L1259.2385,816.624" fill="#FFFFFF" style="stroke:#000000;stroke-width:1;"/><path d="M1502.5056,816.624 L1502.5056,826.624 L1512.5056,826.624 L1502.5056,816.624" fill="#FFFFFF" style="stroke:#000000;stroke-width:1;"/><text fill="#000000" font-family="Verdana" font-size="13" font-weight="700" lengthAdjust="spacing" textLength="114.4102" x="1265.2385" y="833.6909">Error Recovery:</text><text fill="#000000" font-family="Verdana" font-size="13" lengthAdjust="spacing" textLength="232.2671" x="1265.2385" y="848.8237">&#8226; recover_statement() skips to next</text><text fill="#000000" font-family="Verdana" font-size="13" lengthAdjust="spacing" textLength="151.6074" x="1273.5032" y="863.9565">statement or block end</text><text fill="#000000" font-family="Verdana" font-size="13" lengthAdjust="spacing" textLength="186.1577" x="1265.2385" y="879.0894">&#8226; sync points include END_*,</text><text fill="#000000" font-family="Verdana" font-size="13" lengthAdjust="spacing" textLength="149.2524" x="1273.5032" y="894.2222">POU starts, VAR blocks</text><text fill="#000000" font-family="Verdana" font-size="13" lengthAdjust="spacing" textLength="206.8765" x="1265.2385" y="909.355">&#8226; expect_semicolon() inserts on</text><text fill="#000000" font-family="Verdana" font-size="13" lengthAdjust="spacing" textLength="165.1914" x="1273.5032" y="924.4878">unambiguous boundaries</text><text fill="#000000" font-family="Verdana" font-size="13" lengthAdjust="spacing" textLength="202.7251" x="1265.2385" y="939.6206">&#8226; errors stored separately; CST</text><text fill="#000000" font-family="Verdana" font-size="13" lengthAdjust="spacing" textLength="164.6201" x="1273.5032" y="954.7534">preserves original tokens</text><rect fill="#FFFFFF" height="32.8047" rx="12.5" ry="12.5" style="stroke:#000000;stroke-width:1;" width="54.9175" x="1171.6187" y="782.6553"/><text fill="#000000" font-family="Verdana" font-size="11" lengthAdjust="spacing" textLength="34.9175" x="1181.6187" y="802.8657">Parser</text><path d="M806.7642,992.8193 L806.7642,1290.3428 L1106.4199,1290.3428 L1106.4199,1002.8193 L1096.4199,992.8193 L806.7642,992.8193" fill="#FFFFFF" style="stroke:#000000;stroke-width:1;"/><path d="M1096.4199,992.8193 L1096.4199,1002.8193 L1106.4199,1002.8193 L1096.4199,992.8193" fill="#FFFFFF" style="stroke:#000000;stroke-width:1;"/><text fill="#000000" font-family="Verdana" font-size="13" font-weight="700" lengthAdjust="spacing" textLength="172.0151" x="812.7642" y="1009.8862">Initializer-position gate</text><text fill="#000000" font-family="Verdana" font-size="13" lengthAdjust="spacing" textLength="278.6558" x="812.7642" y="1025.019">parse_var_initializer() has six code-derived</text><text fill="#000000" font-family="Verdana" font-size="13" lengthAdjust="spacing" textLength="61.1025" x="812.7642" y="1040.1519">call sites:</text><text fill="#000000" font-family="Verdana" font-size="13" lengthAdjust="spacing" textLength="275.9199" x="812.7642" y="1055.2847">&#8226; parse_type_decl() after parse_type_def()</text><text fill="#000000" font-family="Verdana" font-size="13" lengthAdjust="spacing" textLength="119.2915" x="812.7642" y="1070.4175">&#8226; parse_var_decl()</text><text fill="#000000" font-family="Verdana" font-size="13" lengthAdjust="spacing" textLength="204.3247" x="812.7642" y="1085.5503">&#8226; VAR_CONFIG init declarations</text><text fill="#000000" font-family="Verdana" font-size="13" lengthAdjust="spacing" textLength="166.3721" x="812.7642" y="1100.6831">&#8226; nested aggregate fields</text><text fill="#000000" font-family="Verdana" font-size="13" lengthAdjust="spacing" textLength="174.2876" x="812.7642" y="1115.8159">&#8226; array initializer elements</text><text fill="#000000" font-family="Verdana" font-size="13" lengthAdjust="spacing" textLength="177.9629" x="812.7642" y="1130.9487">&#8226; array repetition elements</text><text fill="#000000" font-family="Verdana" font-size="13" lengthAdjust="spacing" textLength="4.1323" x="812.7642" y="1146.0815">&#160;</text><text fill="#000000" font-family="Verdana" font-size="13" lengthAdjust="spacing" textLength="234.6602" x="812.7642" y="1161.2144">It is not called from parse_arg_list(),</text><text fill="#000000" font-family="Verdana" font-size="13" lengthAdjust="spacing" textLength="243.5342" x="812.7642" y="1176.3472">enum value assignments, subranges,</text><text fill="#000000" font-family="Verdana" font-size="13" lengthAdjust="spacing" textLength="251.0879" x="812.7642" y="1191.48">string-length expressions, statements,</text><text fill="#000000" font-family="Verdana" font-size="13" lengthAdjust="spacing" textLength="238.7861" x="812.7642" y="1206.6128">or ordinary Pratt expression parsing.</text><text fill="#000000" font-family="Verdana" font-size="13" lengthAdjust="spacing" textLength="4.1323" x="812.7642" y="1221.7456">&#160;</text><text fill="#000000" font-family="Verdana" font-size="13" lengthAdjust="spacing" textLength="223.9771" x="812.7642" y="1236.8784">`(` Name `:=` emits InitializerList.</text><text fill="#000000" font-family="Verdana" font-size="13" lengthAdjust="spacing" textLength="228.6489" x="812.7642" y="1252.0112">Array defaults emit ArrayInitializer.</text><text fill="#000000" font-family="Verdana" font-size="13" lengthAdjust="spacing" textLength="275.0059" x="812.7642" y="1267.144">Malformed aggregate recovery stays local</text><text fill="#000000" font-family="Verdana" font-size="13" lengthAdjust="spacing" textLength="183.6313" x="812.7642" y="1282.2769">to the declaration initializer.</text><path d="M1291.7349,1083.6162 L1291.7349,1199.5459 L1594.939,1199.5459 L1594.939,1093.6162 L1584.939,1083.6162 L1291.7349,1083.6162" fill="#FFFFFF" style="stroke:#000000;stroke-width:1;"/><path d="M1584.939,1083.6162 L1584.939,1093.6162 L1594.939,1093.6162 L1584.939,1083.6162" fill="#FFFFFF" style="stroke:#000000;stroke-width:1;"/><text fill="#000000" font-family="Verdana" font-size="13" font-weight="700" lengthAdjust="spacing" textLength="274.8281" x="1297.7349" y="1100.6831">Grammar modules (parser/grammar/)</text><text fill="#000000" font-family="Verdana" font-size="13" lengthAdjust="spacing" textLength="282.2041" x="1297.7349" y="1115.8159">&#8226; pou.rs - PROGRAM, FUNCTION, FB, CLASS</text><text fill="#000000" font-family="Verdana" font-size="13" lengthAdjust="spacing" textLength="237.2627" x="1297.7349" y="1130.9487">&#8226; declarations.rs - VAR blocks, types</text><text fill="#000000" font-family="Verdana" font-size="13" lengthAdjust="spacing" textLength="236.3677" x="1297.7349" y="1146.0815">&#8226; statements.rs - IF, FOR, CASE, etc.</text><text fill="#000000" font-family="Verdana" font-size="13" lengthAdjust="spacing" textLength="195.5713" x="1297.7349" y="1161.2144">&#8226; expressions.rs - Pratt parser</text><text fill="#000000" font-family="Verdana" font-size="13" lengthAdjust="spacing" textLength="265.5859" x="1297.7349" y="1176.3472">&#8226; declarations.rs owns initializer-position</text><text fill="#000000" font-family="Verdana" font-size="13" lengthAdjust="spacing" textLength="248.0791" x="1305.9995" y="1191.48">parsing through parse_var_initializer()</text><rect fill="#FFFFFF" height="32.8047" rx="12.5" ry="12.5" style="stroke:#000000;stroke-width:1;" width="165.3149" x="1116.4199" y="1125.1787"/><text fill="#000000" font-family="Verdana" font-size="11" lengthAdjust="spacing" textLength="145.3149" x="1126.4199" y="1145.3892">Recursive Descent + Pratt</text><path d="M1270.1636,1511.9365 L1270.1636,1565.9014 L1250.1636,1569.9014 L1270.1636,1573.9014 L1270.1636,1627.8662 A0,0 0 0 0 1270.1636,1627.8662 L1604.0205,1627.8662 A0,0 0 0 0 1604.0205,1627.8662 L1604.0205,1521.9365 L1594.0205,1511.9365 L1270.1636,1511.9365 A0,0 0 0 0 1270.1636,1511.9365" fill="#FFFFFF" style="stroke:#000000;stroke-width:1;"/><path d="M1594.0205,1511.9365 L1594.0205,1521.9365 L1604.0205,1521.9365 L1594.0205,1511.9365" fill="#FFFFFF" style="stroke:#000000;stroke-width:1;"/><text fill="#000000" font-family="Verdana" font-size="13" font-weight="700" lengthAdjust="spacing" textLength="233.9238" x="1276.1636" y="1529.0034">Marker (parser/parser.rs:37-39)</text><text fill="#000000" font-family="Verdana" font-size="13" lengthAdjust="spacing" textLength="167.9653" x="1276.1636" y="1544.1362">&#8226; pos: usize (event index)</text><text fill="#000000" font-family="Verdana" font-size="13" lengthAdjust="spacing" textLength="181.1621" x="1276.1636" y="1559.269">&#8226; bomb: DropBomb (safety)</text><text fill="#000000" font-family="Verdana" font-size="13" lengthAdjust="spacing" textLength="4.1323" x="1276.1636" y="1574.4019">&#160;</text><text fill="#000000" font-family="Verdana" font-size="13" font-weight="700" lengthAdjust="spacing" textLength="312.8569" x="1276.1636" y="1589.5347">CompletedMarker (parser/parser.rs:69-71)</text><text fill="#000000" font-family="Verdana" font-size="13" lengthAdjust="spacing" textLength="76.7368" x="1276.1636" y="1604.6675">&#8226; pos: usize</text><text fill="#000000" font-family="Verdana" font-size="13" lengthAdjust="spacing" textLength="187.1416" x="1276.1636" y="1619.8003">&#8226; precede() for left recursion</text><rect fill="#FFFFFF" height="32.8047" rx="12.5" ry="12.5" style="stroke:#000000;stroke-width:1;" width="102.1724" x="1147.9912" y="1553.499"/><text fill="#000000" font-family="Verdana" font-size="11" lengthAdjust="spacing" textLength="82.1724" x="1157.9912" y="1573.7095">Marker Pattern</text><path d="M1249.125,1637.8662 L1249.125,1676.6982 L1229.125,1680.6982 L1249.125,1684.6982 L1249.125,1723.5303 A0,0 0 0 0 1249.125,1723.5303 L1524.1709,1723.5303 A0,0 0 0 0 1524.1709,1723.5303 L1524.1709,1647.8662 L1514.1709,1637.8662 L1249.125,1637.8662 A0,0 0 0 0 1249.125,1637.8662" fill="#FFFFFF" style="stroke:#000000;stroke-width:1;"/><path d="M1514.1709,1637.8662 L1514.1709,1647.8662 L1524.1709,1647.8662 L1514.1709,1637.8662" fill="#FFFFFF" style="stroke:#000000;stroke-width:1;"/><text fill="#000000" font-family="Verdana" font-size="13" font-weight="700" lengthAdjust="spacing" textLength="254.0459" x="1255.125" y="1654.9331">Event enum (parser/event.rs:9-28)</text><text fill="#000000" font-family="Verdana" font-size="13" lengthAdjust="spacing" textLength="207.8604" x="1255.125" y="1670.0659">&#8226; Start { kind, forward_parent }</text><text fill="#000000" font-family="Verdana" font-size="13" lengthAdjust="spacing" textLength="174.624" x="1255.125" y="1685.1987">&#8226; Token { kind, n_tokens }</text><text fill="#000000" font-family="Verdana" font-size="13" lengthAdjust="spacing" textLength="49.7529" x="1255.125" y="1700.3315">&#8226; Finish</text><text fill="#000000" font-family="Verdana" font-size="13" lengthAdjust="spacing" textLength="87.7627" x="1255.125" y="1715.4644">&#8226; Placeholder</text><rect fill="#FFFFFF" height="32.8047" rx="12.5" ry="12.5" style="stroke:#000000;stroke-width:1;" width="60.0952" x="1169.0298" y="1664.2959"/><text fill="#000000" font-family="Verdana" font-size="11" lengthAdjust="spacing" textLength="40.0952" x="1179.0298" y="1684.5063">Event[]</text><line style="stroke:#000000;stroke-width:1;" x1="791.7642" x2="791.7642" y1="59.3545" y2="2213.585"/><path d="M1760.0254,1310.3428 L1760.0254,1402.1396 L1740.0254,1406.1396 L1760.0254,1410.1396 L1760.0254,1501.9365 A0,0 0 0 0 1760.0254,1501.9365 L2062.9819,1501.9365 A0,0 0 0 0 2062.9819,1501.9365 L2062.9819,1320.3428 L2052.9819,1310.3428 L1760.0254,1310.3428 A0,0 0 0 0 1760.0254,1310.3428" fill="#FFFFFF" style="stroke:#000000;stroke-width:1;"/><path d="M2052.9819,1310.3428 L2052.9819,1320.3428 L2062.9819,1320.3428 L2052.9819,1310.3428" fill="#FFFFFF" style="stroke:#000000;stroke-width:1;"/><text fill="#000000" font-family="Verdana" font-size="13" font-weight="700" lengthAdjust="spacing" textLength="281.9565" x="1766.0254" y="1327.4097">Binding Powers (tokens.rs:1308-1333)</text><text fill="#000000" font-family="Verdana" font-size="13" lengthAdjust="spacing" textLength="151.2329" x="1766.0254" y="1342.5425">&#171;PRECEDENCE_TABLE&#187;</text><text fill="#000000" font-family="Verdana" font-size="13" lengthAdjust="spacing" textLength="164.3154" x="1766.0254" y="1357.6753">Precedence (low &#8594; high):</text><text fill="#000000" font-family="Verdana" font-size="13" lengthAdjust="spacing" textLength="57.2749" x="1766.0254" y="1372.8081">1-2:   OR</text><text fill="#000000" font-family="Verdana" font-size="13" lengthAdjust="spacing" textLength="66.1807" x="1766.0254" y="1387.9409">3-4:   XOR</text><text fill="#000000" font-family="Verdana" font-size="13" lengthAdjust="spacing" textLength="85.0396" x="1766.0254" y="1403.0737">5-6:   AND, &amp;</text><text fill="#000000" font-family="Verdana" font-size="13" lengthAdjust="spacing" textLength="177.3662" x="1766.0254" y="1418.2065">7-8:   =, &lt;&gt;, &lt;, &lt;=, &gt;, &gt;=</text><text fill="#000000" font-family="Verdana" font-size="13" lengthAdjust="spacing" textLength="70.1289" x="1766.0254" y="1433.3394">9-10:   +, -</text><text fill="#000000" font-family="Verdana" font-size="13" lengthAdjust="spacing" textLength="113.4199" x="1766.0254" y="1448.4722">11-12:   *, /, MOD</text><text fill="#000000" font-family="Verdana" font-size="13" lengthAdjust="spacing" textLength="153.1182" x="1766.0254" y="1463.605">14-13:   ** (right assoc)</text><text fill="#000000" font-family="Verdana" font-size="13" lengthAdjust="spacing" textLength="139.0708" x="1766.0254" y="1478.7378">15:    prefix NOT, +, -</text><text fill="#000000" font-family="Verdana" font-size="13" lengthAdjust="spacing" textLength="185.6816" x="1766.0254" y="1493.8706">&#171;PRECEDENCE_TABLE_END&#187;</text><rect fill="#FFFFFF" height="32.8047" rx="12.5" ry="12.5" style="stroke:#000000;stroke-width:1;" width="124.0864" x="1615.939" y="1389.7373"/><text fill="#000000" font-family="Verdana" font-size="11" lengthAdjust="spacing" textLength="104.0864" x="1625.939" y="1409.9478">Expression Parsing</text><line style="stroke:#000000;stroke-width:1;" x1="1609.939" x2="1609.939" y1="59.3545" y2="2213.585"/><path d="M2167.1235,1733.5303 L2167.1235,1787.4951 L2147.1235,1791.4951 L2167.1235,1795.4951 L2167.1235,1849.46 A0,0 0 0 0 2167.1235,1849.46 L2432.4766,1849.46 A0,0 0 0 0 2432.4766,1849.46 L2432.4766,1743.5303 L2422.4766,1733.5303 L2167.1235,1733.5303 A0,0 0 0 0 2167.1235,1733.5303" fill="#FFFFFF" style="stroke:#000000;stroke-width:1;"/><path d="M2422.4766,1733.5303 L2422.4766,1743.5303 L2432.4766,1743.5303 L2422.4766,1733.5303" fill="#FFFFFF" style="stroke:#000000;stroke-width:1;"/><text fill="#000000" font-family="Verdana" font-size="13" font-weight="700" lengthAdjust="spacing" textLength="244.353" x="2173.1235" y="1750.5972">Sink struct (parser/sink.rs:10-17)</text><text fill="#000000" font-family="Verdana" font-size="13" lengthAdjust="spacing" textLength="136.646" x="2173.1235" y="1765.73">&#8226; tokens: &amp;'t [Token]</text><text fill="#000000" font-family="Verdana" font-size="13" lengthAdjust="spacing" textLength="118.0918" x="2173.1235" y="1780.8628">&#8226; source: &amp;'src str</text><text fill="#000000" font-family="Verdana" font-size="13" lengthAdjust="spacing" textLength="147.1768" x="2173.1235" y="1795.9956">&#8226; events: Vec&lt;Event&gt;</text><text fill="#000000" font-family="Verdana" font-size="13" lengthAdjust="spacing" textLength="94.561" x="2173.1235" y="1811.1284">&#8226; cursor: usize</text><text fill="#000000" font-family="Verdana" font-size="13" lengthAdjust="spacing" textLength="185.1802" x="2173.1235" y="1826.2612">&#8226; builder: GreenNodeBuilder</text><text fill="#000000" font-family="Verdana" font-size="13" lengthAdjust="spacing" textLength="173.0181" x="2173.1235" y="1841.394">&#8226; errors: Vec&lt;ParseError&gt;</text><rect fill="#FFFFFF" height="32.8047" rx="12.5" ry="12.5" style="stroke:#000000;stroke-width:1;" width="43.3804" x="2103.7432" y="1775.0928"/><text fill="#000000" font-family="Verdana" font-size="11" lengthAdjust="spacing" textLength="23.3804" x="2113.7432" y="1795.3032">Sink</text><path d="M2196.8848,1859.46 L2196.8848,1890.7256 L2176.8848,1894.7256 L2196.8848,1898.7256 L2196.8848,1929.9912 A0,0 0 0 0 2196.8848,1929.9912 L2470.1851,1929.9912 A0,0 0 0 0 2470.1851,1929.9912 L2470.1851,1869.46 L2460.1851,1859.46 L2196.8848,1859.46 A0,0 0 0 0 2196.8848,1859.46" fill="#FFFFFF" style="stroke:#000000;stroke-width:1;"/><path d="M2460.1851,1859.46 L2460.1851,1869.46 L2470.1851,1869.46 L2460.1851,1859.46" fill="#FFFFFF" style="stroke:#000000;stroke-width:1;"/><text fill="#000000" font-family="Verdana" font-size="13" font-weight="700" lengthAdjust="spacing" textLength="252.3003" x="2202.8848" y="1876.5269">sink.finish() (parser/sink.rs:33-79)</text><text fill="#000000" font-family="Verdana" font-size="13" lengthAdjust="spacing" textLength="212.0879" x="2202.8848" y="1891.6597">1. Handle forward_parent chains</text><text fill="#000000" font-family="Verdana" font-size="13" lengthAdjust="spacing" textLength="187.4209" x="2202.8848" y="1906.7925">2. eat_trivia() for whitespace</text><text fill="#000000" font-family="Verdana" font-size="13" lengthAdjust="spacing" textLength="134.4814" x="2202.8848" y="1921.9253">3. Build green nodes</text><rect fill="#FFFFFF" height="32.8047" rx="12.5" ry="12.5" style="stroke:#000000;stroke-width:1;" width="102.9028" x="2073.9819" y="1878.3232"/><text fill="#000000" font-family="Verdana" font-size="11" lengthAdjust="spacing" textLength="82.9028" x="2083.9819" y="1898.5337">Process Events</text><line style="stroke:#000000;stroke-width:1;" x1="2067.9819" x2="2067.9819" y1="59.3545" y2="2213.585"/><path d="M2632.1331,1939.9912 L2632.1331,1963.6904 L2612.1331,1967.6904 L2632.1331,1971.6904 L2632.1331,1995.3896 A0,0 0 0 0 2632.1331,1995.3896 L2806.6257,1995.3896 A0,0 0 0 0 2806.6257,1995.3896 L2806.6257,1949.9912 L2796.6257,1939.9912 L2632.1331,1939.9912 A0,0 0 0 0 2632.1331,1939.9912" fill="#FFFFFF" style="stroke:#000000;stroke-width:1;"/><path d="M2796.6257,1939.9912 L2796.6257,1949.9912 L2806.6257,1949.9912 L2796.6257,1939.9912" fill="#FFFFFF" style="stroke:#000000;stroke-width:1;"/><text fill="#000000" font-family="Verdana" font-size="13" font-weight="700" lengthAdjust="spacing" textLength="137.6807" x="2638.1331" y="1957.0581">rowan::GreenNode</text><text fill="#000000" font-family="Verdana" font-size="13" lengthAdjust="spacing" textLength="153.4927" x="2638.1331" y="1972.1909">Immutable, thread-safe</text><text fill="#000000" font-family="Verdana" font-size="13" lengthAdjust="spacing" textLength="137.4585" x="2638.1331" y="1987.3237">green tree (interned)</text><rect fill="#FFFFFF" height="32.8047" rx="12.5" ry="12.5" style="stroke:#000000;stroke-width:1;" width="82.2617" x="2529.8713" y="1951.2881"/><text fill="#000000" font-family="Verdana" font-size="11" lengthAdjust="spacing" textLength="62.2617" x="2539.8713" y="1971.4985">GreenNode</text><path d="M2680.8193,2005.3896 L2680.8193,2036.6553 L2660.8193,2040.6553 L2680.8193,2044.6553 L2680.8193,2075.9209 A0,0 0 0 0 2680.8193,2075.9209 L2910.6318,2075.9209 A0,0 0 0 0 2910.6318,2075.9209 L2910.6318,2015.3896 L2900.6318,2005.3896 L2680.8193,2005.3896 A0,0 0 0 0 2680.8193,2005.3896" fill="#FFFFFF" style="stroke:#000000;stroke-width:1;"/><path d="M2900.6318,2005.3896 L2900.6318,2015.3896 L2910.6318,2015.3896 L2900.6318,2005.3896" fill="#FFFFFF" style="stroke:#000000;stroke-width:1;"/><text fill="#000000" font-family="Verdana" font-size="13" font-weight="700" lengthAdjust="spacing" textLength="208.8125" x="2686.8193" y="2022.4565">Parse struct (parser/mod.rs)</text><text fill="#000000" font-family="Verdana" font-size="13" lengthAdjust="spacing" textLength="170.6694" x="2686.8193" y="2037.5894">&#8226; green_node: GreenNode</text><text fill="#000000" font-family="Verdana" font-size="13" lengthAdjust="spacing" textLength="173.0181" x="2686.8193" y="2052.7222">&#8226; errors: Vec&lt;ParseError&gt;</text><text fill="#000000" font-family="Verdana" font-size="13" lengthAdjust="spacing" textLength="163.4331" x="2686.8193" y="2067.855">&#8226; syntax() &#8594; SyntaxNode</text><rect fill="#FFFFFF" height="32.8047" rx="12.5" ry="12.5" style="stroke:#000000;stroke-width:1;" width="179.6343" x="2481.1851" y="2024.2529"/><text fill="#000000" font-family="Verdana" font-size="11" lengthAdjust="spacing" textLength="159.6343" x="2491.1851" y="2044.4634">Parse { green_node, errors }</text><path d="M2634.3701,2085.9209 L2634.3701,2124.7529 L2614.3701,2128.7529 L2634.3701,2132.7529 L2634.3701,2171.585 A0,0 0 0 0 2634.3701,2171.585 L2824.1035,2171.585 A0,0 0 0 0 2824.1035,2171.585 L2824.1035,2095.9209 L2814.1035,2085.9209 L2634.3701,2085.9209 A0,0 0 0 0 2634.3701,2085.9209" fill="#FFFFFF" style="stroke:#000000;stroke-width:1;"/><path d="M2814.1035,2085.9209 L2814.1035,2095.9209 L2824.1035,2095.9209 L2814.1035,2085.9209" fill="#FFFFFF" style="stroke:#000000;stroke-width:1;"/><text fill="#000000" font-family="Verdana" font-size="13" font-weight="700" lengthAdjust="spacing" textLength="144.1743" x="2640.3701" y="2102.9878">rowan::SyntaxNode</text><text fill="#000000" font-family="Verdana" font-size="13" lengthAdjust="spacing" textLength="119.3931" x="2640.3701" y="2118.1206">Lossless CST with:</text><text fill="#000000" font-family="Verdana" font-size="13" lengthAdjust="spacing" textLength="168.7334" x="2640.3701" y="2133.2534">&#8226; Full source preservation</text><text fill="#000000" font-family="Verdana" font-size="13" lengthAdjust="spacing" textLength="135.4146" x="2640.3701" y="2148.3862">&#8226; O(1) parent access</text><text fill="#000000" font-family="Verdana" font-size="13" lengthAdjust="spacing" textLength="161.3193" x="2640.3701" y="2163.519">&#8226; Lazy red node creation</text><rect fill="#FFFFFF" height="32.8047" rx="12.5" ry="12.5" style="stroke:#000000;stroke-width:1;" width="86.7358" x="2527.6343" y="2112.3506"/><text fill="#000000" font-family="Verdana" font-size="11" lengthAdjust="spacing" textLength="66.7358" x="2537.6343" y="2132.561">SyntaxNode</text><ellipse cx="2571.0022" cy="2202.585" fill="none" rx="11" ry="11" style="stroke:#000000;stroke-width:1;"/><ellipse cx="2571.0022" cy="2202.585" fill="#FFFFFF" rx="6" ry="6" style="stroke:#000000;stroke-width:1;"/><line style="stroke:#000000;stroke-width:1;" x1="2475.1851" x2="2475.1851" y1="59.3545" y2="2213.585"/><line style="stroke:#000000;stroke-width:1;" x1="2915.6318" x2="2915.6318" y1="59.3545" y2="2213.585"/><line style="stroke:#000000;stroke-width:1;" x1="63.9141" x2="63.9141" y1="105.3076" y2="125.3076"/><polygon fill="#000000" points="59.9141,115.3076,63.9141,125.3076,67.9141,115.3076,63.9141,119.3076" style="stroke:#000000;stroke-width:1;stroke-linejoin:miter;stroke-miterlimit:10;"/><line style="stroke:#000000;stroke-width:1;" x1="316.1685" x2="316.1685" y1="215.9443" y2="362.0342"/><polygon fill="#000000" points="312.1685,352.0342,316.1685,362.0342,320.1685,352.0342,316.1685,356.0342" style="stroke:#000000;stroke-width:1;stroke-linejoin:miter;stroke-miterlimit:10;"/><line style="stroke:#000000;stroke-width:1;" x1="1199.0774" x2="1199.0774" y1="588.8662" y2="782.6553"/><polygon fill="#000000" points="1195.0774,772.6553,1199.0774,782.6553,1203.0774,772.6553,1199.0774,776.6553" style="stroke:#000000;stroke-width:1;stroke-linejoin:miter;stroke-miterlimit:10;"/><line style="stroke:#000000;stroke-width:1;" x1="1199.0774" x2="1199.0774" y1="815.46" y2="1125.1787"/><polygon fill="#000000" points="1195.0774,1115.1787,1199.0774,1125.1787,1203.0774,1115.1787,1199.0774,1119.1787" style="stroke:#000000;stroke-width:1;stroke-linejoin:miter;stroke-miterlimit:10;"/><line style="stroke:#000000;stroke-width:1;" x1="1199.0774" x2="1199.0774" y1="1586.3037" y2="1664.2959"/><polygon fill="#000000" points="1195.0774,1654.2959,1199.0774,1664.2959,1203.0774,1654.2959,1199.0774,1658.2959" style="stroke:#000000;stroke-width:1;stroke-linejoin:miter;stroke-miterlimit:10;"/><line style="stroke:#000000;stroke-width:1;" x1="2125.4333" x2="2125.4333" y1="1807.8975" y2="1878.3232"/><polygon fill="#000000" points="2121.4333,1868.3232,2125.4333,1878.3232,2129.4333,1868.3232,2125.4333,1872.3232" style="stroke:#000000;stroke-width:1;stroke-linejoin:miter;stroke-miterlimit:10;"/><line style="stroke:#000000;stroke-width:1;" x1="2571.0022" x2="2571.0022" y1="1984.0928" y2="2024.2529"/><polygon fill="#000000" points="2567.0022,2014.2529,2571.0022,2024.2529,2575.0022,2014.2529,2571.0022,2018.2529" style="stroke:#000000;stroke-width:1;stroke-linejoin:miter;stroke-miterlimit:10;"/><line style="stroke:#000000;stroke-width:1;" x1="2571.0022" x2="2571.0022" y1="2057.0576" y2="2112.3506"/><polygon fill="#000000" points="2567.0022,2102.3506,2571.0022,2112.3506,2575.0022,2102.3506,2571.0022,2106.3506" style="stroke:#000000;stroke-width:1;stroke-linejoin:miter;stroke-miterlimit:10;"/><line style="stroke:#000000;stroke-width:1;" x1="2571.0022" x2="2571.0022" y1="2145.1553" y2="2191.585"/><polygon fill="#000000" points="2567.0022,2181.585,2571.0022,2191.585,2575.0022,2181.585,2571.0022,2185.585" style="stroke:#000000;stroke-width:1;stroke-linejoin:miter;stroke-miterlimit:10;"/><line style="stroke:#000000;stroke-width:1;" x1="63.9141" x2="63.9141" y1="158.1123" y2="166.8428"/><line style="stroke:#000000;stroke-width:1;" x1="63.9141" x2="316.1685" y1="166.8428" y2="166.8428"/><line style="stroke:#000000;stroke-width:1;" x1="316.1685" x2="316.1685" y1="166.8428" y2="183.1396"/><polygon fill="#000000" points="312.1685,173.1396,316.1685,183.1396,320.1685,173.1396,316.1685,177.1396" style="stroke:#000000;stroke-width:1;stroke-linejoin:miter;stroke-miterlimit:10;"/><line style="stroke:#000000;stroke-width:1;" x1="316.1685" x2="316.1685" y1="394.8389" y2="487.9502"/><line style="stroke:#000000;stroke-width:1;" x1="316.1685" x2="1199.0774" y1="487.9502" y2="487.9502"/><line style="stroke:#000000;stroke-width:1;" x1="1199.0774" x2="1199.0774" y1="487.9502" y2="556.0615"/><polygon fill="#000000" points="1195.0774,546.0615,1199.0774,556.0615,1203.0774,546.0615,1199.0774,550.0615" style="stroke:#000000;stroke-width:1;stroke-linejoin:miter;stroke-miterlimit:10;"/><line style="stroke:#000000;stroke-width:1;" x1="1199.0774" x2="1199.0774" y1="1157.9834" y2="1286.3604"/><line style="stroke:#000000;stroke-width:1;" x1="1199.0774" x2="1677.9822" y1="1286.3604" y2="1286.3604"/><line style="stroke:#000000;stroke-width:1;" x1="1677.9822" x2="1677.9822" y1="1286.3604" y2="1389.7373"/><polygon fill="#000000" points="1673.9822,1379.7373,1677.9822,1389.7373,1681.9822,1379.7373,1677.9822,1383.7373" style="stroke:#000000;stroke-width:1;stroke-linejoin:miter;stroke-miterlimit:10;"/><line style="stroke:#000000;stroke-width:1;" x1="1677.9822" x2="1677.9822" y1="1422.542" y2="1500.5205"/><line style="stroke:#000000;stroke-width:1;" x1="1677.9822" x2="1199.0774" y1="1500.5205" y2="1500.5205"/><line style="stroke:#000000;stroke-width:1;" x1="1199.0774" x2="1199.0774" y1="1500.5205" y2="1553.499"/><polygon fill="#000000" points="1195.0774,1543.499,1199.0774,1553.499,1203.0774,1543.499,1199.0774,1547.499" style="stroke:#000000;stroke-width:1;stroke-linejoin:miter;stroke-miterlimit:10;"/><line style="stroke:#000000;stroke-width:1;" x1="1199.0774" x2="1199.0774" y1="1697.1006" y2="1728.5303"/><line style="stroke:#000000;stroke-width:1;" x1="1199.0774" x2="2125.4333" y1="1728.5303" y2="1728.5303"/><line style="stroke:#000000;stroke-width:1;" x1="2125.4333" x2="2125.4333" y1="1728.5303" y2="1775.0928"/><polygon fill="#000000" points="2121.4333,1765.0928,2125.4333,1775.0928,2129.4333,1765.0928,2125.4333,1769.0928" style="stroke:#000000;stroke-width:1;stroke-linejoin:miter;stroke-miterlimit:10;"/><line style="stroke:#000000;stroke-width:1;" x1="2125.4333" x2="2125.4333" y1="1911.1279" y2="1934.9912"/><line style="stroke:#000000;stroke-width:1;" x1="2125.4333" x2="2571.0022" y1="1934.9912" y2="1934.9912"/><line style="stroke:#000000;stroke-width:1;" x1="2571.0022" x2="2571.0022" y1="1934.9912" y2="1951.2881"/><polygon fill="#000000" points="2567.0022,1941.2881,2571.0022,1951.2881,2575.0022,1941.2881,2571.0022,1945.2881" style="stroke:#000000;stroke-width:1;stroke-linejoin:miter;stroke-miterlimit:10;"/><text fill="#000000" font-family="Verdana" font-size="18" lengthAdjust="spacing" textLength="62.2178" x="108.4741" y="76.0625">Source</text><text fill="#000000" font-family="Verdana" font-size="18" lengthAdjust="spacing" textLength="50.2295" x="502.8503" y="76.0625">Lexer</text><text fill="#000000" font-family="Verdana" font-size="18" lengthAdjust="spacing" textLength="57.1377" x="1172.2827" y="76.0625">Parser</text><text fill="#000000" font-family="Verdana" font-size="18" lengthAdjust="spacing" textLength="106.2598" x="1785.8306" y="76.0625">Pratt Parser</text><text fill="#000000" font-family="Verdana" font-size="18" lengthAdjust="spacing" textLength="38.2588" x="2252.4541" y="76.0625">Sink</text><text fill="#000000" font-family="Verdana" font-size="18" lengthAdjust="spacing" textLength="62.5254" x="2664.1458" y="76.0625">Output</text><g class="legend" data-source-line="208"><rect fill="none" height="515.2031" rx="7.5" ry="7.5" style="stroke:#000000;stroke-width:1;" width="395.1641" x="2532.3286" y="2228.585"/><text fill="#000000" font-family="Verdana" font-size="14" font-weight="700" lengthAdjust="spacing" textLength="270.5186" x="2537.3286" y="2246.5801">SyntaxKind (syntax/mod.rs:17-19)</text><text fill="#000000" font-family="Verdana" font-size="14" lengthAdjust="spacing" textLength="4.4502" x="2537.3286" y="2262.877">&#160;</text><text fill="#000000" font-family="Verdana" font-size="14" font-weight="700" lengthAdjust="spacing" textLength="279.8018" x="2537.3286" y="2279.1738">Token Kinds (202 from TokenKind):</text><text fill="#000000" font-family="Verdana" font-size="14" lengthAdjust="spacing" textLength="364.6289" x="2537.3286" y="2295.4707">&#8226; Trivia: Whitespace, LineComment, BlockComment</text><text fill="#000000" font-family="Verdana" font-size="14" lengthAdjust="spacing" textLength="323.5381" x="2537.3286" y="2311.7676">&#8226; Punctuation: Semicolon, Colon, Dot, Comma</text><text fill="#000000" font-family="Verdana" font-size="14" lengthAdjust="spacing" textLength="317.7822" x="2537.3286" y="2328.0645">&#8226; Operators: Plus, Minus, Star, Slash, Eq, Neq</text><text fill="#000000" font-family="Verdana" font-size="14" lengthAdjust="spacing" textLength="333.7441" x="2537.3286" y="2344.3613">&#8226; Keywords: KwProgram, KwFunction, KwIf, etc.</text><text fill="#000000" font-family="Verdana" font-size="14" lengthAdjust="spacing" textLength="314.1182" x="2537.3286" y="2360.6582">&#8226; Literals: IntLiteral, RealLiteral, StringLiteral</text><text fill="#000000" font-family="Verdana" font-size="14" lengthAdjust="spacing" textLength="4.4502" x="2537.3286" y="2376.9551">&#160;</text><text fill="#000000" font-family="Verdana" font-size="14" font-weight="700" lengthAdjust="spacing" textLength="191.9805" x="2537.3286" y="2393.252">Composite Nodes (~65):</text><text fill="#000000" font-family="Verdana" font-size="14" lengthAdjust="spacing" textLength="171.2334" x="2537.3286" y="2409.5488">&#8226; SourceFile - Root node</text><text fill="#000000" font-family="Verdana" font-size="14" lengthAdjust="spacing" textLength="294.3555" x="2537.3286" y="2425.8457">&#8226; Program, Function, FunctionBlock, Class</text><text fill="#000000" font-family="Verdana" font-size="14" lengthAdjust="spacing" textLength="296.7617" x="2537.3286" y="2442.1426">&#8226; Method, Property, Interface, Namespace</text><text fill="#000000" font-family="Verdana" font-size="14" lengthAdjust="spacing" textLength="215.5986" x="2537.3286" y="2458.4395">&#8226; VarBlock, VarDecl, TypeSpec</text><text fill="#000000" font-family="Verdana" font-size="14" lengthAdjust="spacing" textLength="278.2227" x="2537.3286" y="2474.7363">&#8226; IfStmt, ForStmt, WhileStmt, CaseStmt</text><text fill="#000000" font-family="Verdana" font-size="14" lengthAdjust="spacing" textLength="312.6963" x="2537.3286" y="2491.0332">&#8226; BinaryExpr, UnaryExpr, CallExpr, FieldExpr</text><text fill="#000000" font-family="Verdana" font-size="14" lengthAdjust="spacing" textLength="212.7275" x="2537.3286" y="2507.3301">&#8226; InitializerList, ArrayInitializer</text><text fill="#000000" font-family="Verdana" font-size="14" lengthAdjust="spacing" textLength="4.4502" x="2537.3286" y="2523.627">&#160;</text><text fill="#000000" font-family="Verdana" font-size="14" font-weight="700" lengthAdjust="spacing" textLength="220.0693" x="2537.3286" y="2539.9238">Initializer Context Contract:</text><text fill="#000000" font-family="Verdana" font-size="14" lengthAdjust="spacing" textLength="306.5234" x="2537.3286" y="2556.2207">&#8226; TYPE-level defaults and VAR defaults may</text><text fill="#000000" font-family="Verdana" font-size="14" lengthAdjust="spacing" textLength="248.3975" x="2546.229" y="2572.5176">contain aggregate initializer nodes.</text><text fill="#000000" font-family="Verdana" font-size="14" lengthAdjust="spacing" textLength="385.1641" x="2537.3286" y="2588.8145">&#8226; Function-call named arguments remain CallExpr/Arg.</text><text fill="#000000" font-family="Verdana" font-size="14" lengthAdjust="spacing" textLength="367.1172" x="2537.3286" y="2605.1113">&#8226; Enum explicit values remain ordinary expressions.</text><text fill="#000000" font-family="Verdana" font-size="14" lengthAdjust="spacing" textLength="4.4502" x="2537.3286" y="2621.4082">&#160;</text><text fill="#000000" font-family="Verdana" font-size="14" font-weight="700" lengthAdjust="spacing" textLength="76.9316" x="2537.3286" y="2637.7051">Key Files:</text><text fill="#000000" font-family="Verdana" font-size="14" lengthAdjust="spacing" textLength="271.4961" x="2537.3286" y="2654.002">&#8226; lexer/tokens.rs:44 - TokenKind enum</text><text fill="#000000" font-family="Verdana" font-size="14" lengthAdjust="spacing" textLength="225.415" x="2537.3286" y="2670.2988">&#8226; lexer/mod.rs:14 - Token struct</text><text fill="#000000" font-family="Verdana" font-size="14" lengthAdjust="spacing" textLength="268.3105" x="2537.3286" y="2686.5957">&#8226; syntax/mod.rs:9 - SyntaxKind macro</text><text fill="#000000" font-family="Verdana" font-size="14" lengthAdjust="spacing" textLength="250.667" x="2537.3286" y="2702.8926">&#8226; parser/parser.rs:30 - Parser struct</text><text fill="#000000" font-family="Verdana" font-size="14" lengthAdjust="spacing" textLength="231.8135" x="2537.3286" y="2719.1895">&#8226; parser/event.rs:9 - Event enum</text><text fill="#000000" font-family="Verdana" font-size="14" lengthAdjust="spacing" textLength="219.2627" x="2537.3286" y="2735.4863">&#8226; parser/sink.rs:10 - Sink struct</text></g><?plantuml-src hLZzSXev4l-Vf-Yhgqh0EsC7uu-OJLo5CMGfsq01IJQrjKNa6G5JdXcnaiQONFRg_he7k4UuHzidkMvfc16Ot5vLBhi96gdLwYzr_rf_qGkUS5Z6B4ehwY5Abqoo1EvPy32N8al3jeY5XBzsE_IVGn68P2bIdkgnNiSSiYG-TbPPeAF7IA-x0WcYBnpgzKf5HnefjSp64nYlKysUcd3BdxY4F_xvBnWogV9X6mc6qPB7KSehbPVmzZl-uFPXRzYvxVKxCFZG6NteTJv-BylArx78PC2_LfHcKbUQzXCc_4d_M4c5vY2Z-K9N0F-Cs0fwdJQSrUkDkjymSsCqGg0poKEpfyBJ46WRSZO6-LffMiDKOp4NglQCwS51JEj7YGWFfMhYHxLsS62MtYkkm6o3aCleaKF20YdCsWnT-OLBuGTYkGOj7dWQVM4w4gaZGdD2yx_ykkTGimBAI8-okIBKJ_pwnKQ6F_xnRy1O29jWTjpWi9YNB9tpfj5xHCEAovieWQTPik5kP5Hqm6d3FptR7F3cpMHmq-bFnvFMP7nvQUPA1ezCHYpLgWd7huwjmNb0Mgfc8SO4JHEn9fmKCyCiHPyOQpIXVbpC3vPSCYrG1AYV5hCtVBqICZIJPyNiRQIHE5PR37eXNfDe5d73efWUBtaGiHY5D5FcdmrNg2BN6aGfX29GHs74vdYjrD6SfoGC3u-KkK0-1g1MXqdut2hJJlyQBUE4bhrXNujmNKcsHDts-3ads3XwQJOUAJDBldZjrqyshlY8N9ID9Th0yVQl8hqeBRta_65AqL2jWG-O8vQO0yZu1KMGIOaccXecrThpdTEqcjRS4BMgx94ypo8xajiVahpnoc-Sk65gbMg2LVdDI-t1IoM3ouA0Ft8JIXzuyAP3OsT9IXCMj6GExj34vIQYqPcGSBqG62NkYPGpq1QKwUwOVE2oMBhFagMnKe2ncc5UDXOfbfckaZKCmO873nl3RGjKJTISI2HV2gdjd6ExPoOpGiE81-AHoxKhgRHpKmeoh18fIKt-8tT3IeaBp9zY7P3HVInGCkxSU0pL09OYGZDYH0Tn5dB0u9mUUFd-uU2zjOhou4DhP5ceKgidl2bwgdWI1LYDC4AG3VeJsOaqPv6bBBcFvfd85DnJtS8KmDMEf_0GGJbNSQfIciVh7wdMv2oMaYFJHyoU0iqJfIosvbTkuA6PCgaegrvp5P3AFy0GUUaziVWEhsp29626p69akud6kPq_SiDmAJ8CJ_JQS3HuDshTUT1ztszFUeC-ZguyQD-snkE2EkH1J1fGIhFRIhDveDTBH_N2EJbbhuiS1oDasHftFE0wE7GjZKPG9LkZ6bYvltcwMANas4XZDiDQB_sbK94fAhbXSNkKpa4l457C5vRT59FqrDbKhUt6QCnd6qlszZ27EUgLM_0R7671qEVH4rwdaFks6jgm35WSuuhcJaMmJCXuKz8GjxCPPlFj-PcRdefJBNsnWCwOjWVzRk-TCSkMmGgYb2lCuy3cSyb95S024OVbEfEIhLsp0e-j7tT8y9vpRKrIK1YIdeP8aKMDkdZMJ8eabvh9-JIE5DveUmbDpNraSSQ1OG3CKyF70vNTcuAjB1dcLVIa7_DqhXTkk7XEd5bIJ0LOoV0QoNKUHYNv9YGEhQ2Vgv-Xpp3TVMw-_GnupV5cEow_HJbjZBQCmkW5biL8GvHspg6sb7SiHh2JR1auJsTh4dLD60dDOeWnco4CTjtaslrmguOQJOfAsYbL6bgLzkI1AypP5Fz3iK880DKIqzGRhx2KDXgD4jSCHvrsvxhJRtUcazRLRIS7DqCKdYEEmAgCc71bYiS2pwZP-Atxnqty6OpCLyC_eQ-VyyzJ_um-M_rh3rwOcNF_DSsyzU3D9Vx5_t68eyktPld2hx-YzHyyy2txkbyt1nnuSEJ1tU3QJYFcQvZf0wWQZIbuH61lGlsqcQVL6Lx1_c3YbGoVw_bVu8ejacXWZTSntMFWd61FjJ_t6nVRQHRBTQQe8wcQmewE3lbJUNNlHNBVX6ifbbSuWgfYCwxNjKr9RsFN4tEyjzyyykp2Fw_lFxASiix434E0dF8SnIRLbMqWRk36NY1kLdAWd8jWr249BlpZrwu0Owgiy3S3o3qwSSLaECLTnEBt4X0R1BSXIoqOKmv15--4MfHmEMO1NuWOqwhhjN6KFX34n9zzm1Addy5Ad3ENuPLVFtS5jn8quSLB3RyOyNvz1jjU45WZZlyBNYCJ2xdhZVii8YMQy4vodlQnL5pPcJ_5UIuWbIB0H03cHBL7SwFbp9WG_RwhUwFXdnU1MZ-4drWQOg-yuwnWWLswJV_7Xy0P8cO3fFD0MYsee2tHBJOB789H1EQa5meQSXVAV1raUfbfz5MXznwnfLYnj5cIv2BsaYJJx3xc7bLrpaAVBefPigTX8u1N324VtbWUFiVk66Y6S4fYUHjyzlkt4FrkpDYcqmsMaflZo3_re0DHiPlAGRbzcp3x7R7BsM-RgQJ99RiLIiKK5_IaiTqMTJE28BRHog4dAq2JwJkhzHhadcS1HLVPPh8lLFT3urG8q04xFJm2tUN_uULa_Aa_QVqCDxt-DOpVtzsrHf----qavdEISoih6BEPrhrgFL6yAfpdhmfR3n14YNKKctiBQOhEl-PsBviE_sDnBJpiprEEEPnWYWTNX9Vph_sl0EDDou5esVvS2qrZnE_xtWU6SOP8w2vAwOVoBluRCxNmeFER1tt-svxdWviLvWvg2JmSTkdqY0wwMVLcE-YyV5pefJh_yB1nOt7nCJRuBFzqYnQ1PWuKcMYulv-TRbdAzhxT23EE3oE1W35rBqyXNodTPcHCY0P19Slel3CzhqVxq3HwxP6yNCwC1mZdbJdAe6KcSpOukaOCvi44mJOzZvHFABEnJj3oNI7j09qQSpjiCsL61V6L0Pq4pJnuNmxR28Bjg4j8cuOb_ssqwJr3bPNddGY60QhrfCslP87U2hvFmmx2v4SUbt0LSxhfqug9XAtp5WdxVOsvtG6hBl0tgVlGoHpM-BxfOh3n9PGhvva1tvWM4kAqqVQe9UVbrWuX1iJXSHGWT3PulzXHe7Mt2tJVCYX0jbuoTf_eJaumVhRVyNPeYyV23M6Us7SIyORk0icSv50-P1Rjr_RR3dMixWFGBcs9aP2on52xP2KYeVDBo68IhCrVbVy0?></g></svg>