<?plantuml 1.2026.2?><svg xmlns="http://www.w3.org/2000/svg" xmlns:xlink="http://www.w3.org/1999/xlink" contentStyleType="text/css" data-diagram-type="ACTIVITY" height="2741px" preserveAspectRatio="none" style="width:2925px;height:2741px;background:#FEFEFE;" version="1.1" viewBox="0 0 2925 2741" width="2925px" zoomAndPan="magnify"><title>truST Syntax: Lexer &#8594; Parser &#8594; CST Pipeline</title><defs/><g><rect fill="#FEFEFE" height="2741" style="stroke:none;stroke-width:1;" width="2925" x="0" y="0"/><g class="title" data-source-line="6"><text fill="#000000" font-family="Verdana" font-size="22" font-weight="bold" lengthAdjust="spacing" textLength="549.1406" x="1186.676" y="35.4209">truST Syntax: Lexer &#8594; Parser &#8594; CST Pipeline</text></g><rect fill="#FFFFFF" height="20.9531" style="stroke:#FFFFFF;stroke-width:1;" width="2902.4927" x="10" y="54.3545"/><ellipse cx="58.9141" cy="90.3076" fill="#FFFFFF" rx="10" ry="10" style="stroke:#000000;stroke-width:1;"/><path d="M121.8281,116.5771 L121.8281,132.71 L101.8281,136.71 L121.8281,140.71 L121.8281,156.8428 A0,0 0 0 0 121.8281,156.8428 L254.166,156.8428 A0,0 0 0 0 254.166,156.8428 L254.166,126.5771 L244.166,116.5771 L121.8281,116.5771 A0,0 0 0 0 121.8281,116.5771" fill="#FFFFFF" style="stroke:#000000;stroke-width:1;"/><path d="M244.166,116.5771 L244.166,126.5771 L254.166,126.5771 L244.166,116.5771" fill="#FFFFFF" style="stroke:#000000;stroke-width:1;"/><text fill="#000000" font-family="Verdana" font-size="13" lengthAdjust="spacing" textLength="111.3379" x="127.8281" y="133.644">Raw IEC 61131-3</text><text fill="#000000" font-family="Verdana" font-size="13" lengthAdjust="spacing" textLength="101.8735" x="127.8281" y="148.7769">Structured Text</text><rect fill="#FFFFFF" height="32.8047" rx="12.5" ry="12.5" style="stroke:#000000;stroke-width:1;" width="85.8281" x="16" y="120.3076"/><text fill="#000000" font-family="Verdana" font-size="11" lengthAdjust="spacing" textLength="65.8281" x="26" y="140.5181">Source Text</text><line style="stroke:#000000;stroke-width:1;" x1="10" x2="10" y1="54.3545" y2="2208.585"/><path d="M377.1709,166.8428 L377.1709,190.542 L357.1709,194.542 L377.1709,198.542 L377.1709,222.2412 A0,0 0 0 0 377.1709,222.2412 L568.2881,222.2412 A0,0 0 0 0 568.2881,222.2412 L568.2881,176.8428 L558.2881,166.8428 L377.1709,166.8428 A0,0 0 0 0 377.1709,166.8428" fill="#FFFFFF" style="stroke:#000000;stroke-width:1;"/><path d="M558.2881,166.8428 L558.2881,176.8428 L568.2881,176.8428 L558.2881,166.8428" fill="#FFFFFF" style="stroke:#000000;stroke-width:1;"/><text fill="#000000" font-family="Verdana" font-size="13" font-weight="bold" lengthAdjust="spacing" textLength="131.2441" x="383.1709" y="183.9097">lexer/mod.rs:lex()</text><text fill="#000000" font-family="Verdana" font-size="13" lengthAdjust="spacing" textLength="159.9736" x="383.1709" y="199.0425">Uses logos derive macro</text><text fill="#000000" font-family="Verdana" font-size="13" lengthAdjust="spacing" textLength="170.1172" x="383.1709" y="214.1753">for zero-copy tokenization</text><rect fill="#FFFFFF" height="32.8047" rx="12.5" ry="12.5" style="stroke:#000000;stroke-width:1;" width="92.0049" x="265.166" y="178.1396"/><text fill="#000000" font-family="Verdana" font-size="11" lengthAdjust="spacing" textLength="72.0049" x="275.166" y="198.3501">Lexer (logos)</text><path d="M362.2393,232.2412 L362.2393,369.4365 L342.2393,373.4365 L362.2393,377.4365 L362.2393,514.6318 A0,0 0 0 0 362.2393,514.6318 L781.7642,514.6318 A0,0 0 0 0 781.7642,514.6318 L781.7642,242.2412 L771.7642,232.2412 L362.2393,232.2412 A0,0 0 0 0 362.2393,232.2412" fill="#FFFFFF" style="stroke:#000000;stroke-width:1;"/><path d="M771.7642,232.2412 L771.7642,242.2412 L781.7642,242.2412 L771.7642,232.2412" fill="#FFFFFF" style="stroke:#000000;stroke-width:1;"/><text fill="#000000" font-family="Verdana" font-size="13" font-weight="bold" lengthAdjust="spacing" textLength="248.2695" x="368.2393" y="249.3081">Token struct (lexer/mod.rs:14-19)</text><text fill="#000000" font-family="Verdana" font-size="13" lengthAdjust="spacing" textLength="116.2319" x="368.2393" y="264.4409">&#8226; kind: TokenKind</text><text fill="#000000" font-family="Verdana" font-size="13" lengthAdjust="spacing" textLength="128.3306" x="368.2393" y="279.5737">&#8226; range: TextRange</text><text fill="#000000" font-family="Verdana" font-size="13" lengthAdjust="spacing" textLength="4.1323" x="368.2393" y="294.7065">&#160;</text><text fill="#000000" font-family="Verdana" font-size="13" font-weight="bold" lengthAdjust="spacing" textLength="296.5117" x="368.2393" y="309.8394">TokenKind enum (lexer/tokens.rs:53-56)</text><text fill="#000000" font-family="Verdana" font-size="13" lengthAdjust="spacing" textLength="108.3228" x="368.2393" y="324.9722">&#171;TOKEN_STATS&#187;</text><text fill="#000000" font-family="Verdana" font-size="13" lengthAdjust="spacing" textLength="158.4375" x="368.2393" y="340.105">TokenKind variants: 202</text><text fill="#000000" font-family="Verdana" font-size="13" lengthAdjust="spacing" textLength="59.4521" x="368.2393" y="355.2378">Sections:</text><text fill="#000000" font-family="Verdana" font-size="13" lengthAdjust="spacing" textLength="64.7524" x="368.2393" y="370.3706">&#8226; Trivia: 4</text><text fill="#000000" font-family="Verdana" font-size="13" lengthAdjust="spacing" textLength="114.5244" x="368.2393" y="385.5034">&#8226; Punctuation: 12</text><text fill="#000000" font-family="Verdana" font-size="13" lengthAdjust="spacing" textLength="101.8164" x="368.2393" y="400.6362">&#8226; Operators: 15</text><text fill="#000000" font-family="Verdana" font-size="13" lengthAdjust="spacing" textLength="108.2974" x="368.2393" y="415.769">&#8226; Keywords: 156</text><text fill="#000000" font-family="Verdana" font-size="13" lengthAdjust="spacing" textLength="84.5" x="368.2393" y="430.9019">&#8226; Literals: 12</text><text fill="#000000" font-family="Verdana" font-size="13" lengthAdjust="spacing" textLength="93.9199" x="368.2393" y="446.0347">&#8226; Identifiers: 1</text><text fill="#000000" font-family="Verdana" font-size="13" lengthAdjust="spacing" textLength="75.4229" x="368.2393" y="461.1675">&#8226; Special: 2</text><text fill="#000000" font-family="Verdana" font-size="13" lengthAdjust="spacing" textLength="4.1323" x="368.2393" y="476.3003">&#160;</text><text fill="#000000" font-family="Verdana" font-size="13" lengthAdjust="spacing" textLength="398.5249" x="368.2393" y="491.4331">Keywords (156) in docs/diagrams/generated/syntax-stats.md</text><text fill="#000000" font-family="Verdana" font-size="13" lengthAdjust="spacing" textLength="142.7715" x="368.2393" y="506.5659">&#171;TOKEN_STATS_END&#187;</text><rect fill="#FFFFFF" height="32.8047" rx="12.5" ry="12.5" style="stroke:#000000;stroke-width:1;" width="62.1416" x="280.0977" y="357.0342"/><text fill="#000000" font-family="Verdana" font-size="11" lengthAdjust="spacing" textLength="42.1416" x="290.0977" y="377.2446">Token[]</text><line style="stroke:#000000;stroke-width:1;" x1="259.166" x2="259.166" y1="54.3545" y2="2208.585"/><path d="M1267.594,524.6318 L1267.594,563.4639 L1247.594,567.4639 L1267.594,571.4639 L1267.594,610.2959 A0,0 0 0 0 1267.594,610.2959 L1561.429,610.2959 A0,0 0 0 0 1561.429,610.2959 L1561.429,534.6318 L1551.429,524.6318 L1267.594,524.6318 A0,0 0 0 0 1267.594,524.6318" fill="#FFFFFF" style="stroke:#000000;stroke-width:1;"/><path d="M1551.429,524.6318 L1551.429,534.6318 L1561.429,534.6318 L1551.429,524.6318" fill="#FFFFFF" style="stroke:#000000;stroke-width:1;"/><text fill="#000000" font-family="Verdana" font-size="13" font-weight="bold" lengthAdjust="spacing" textLength="272.835" x="1273.594" y="541.6987">Source struct (parser/source.rs:8-14)</text><text fill="#000000" font-family="Verdana" font-size="13" lengthAdjust="spacing" textLength="168.2065" x="1273.594" y="556.8315">Wraps token stream with:</text><text fill="#000000" font-family="Verdana" font-size="13" lengthAdjust="spacing" textLength="164.4297" x="1273.594" y="571.9644">&#8226; peek_kind() - skip trivia</text><text fill="#000000" font-family="Verdana" font-size="13" lengthAdjust="spacing" textLength="112.6709" x="1273.594" y="587.0972">&#8226; current_token()</text><text fill="#000000" font-family="Verdana" font-size="13" lengthAdjust="spacing" textLength="110.8301" x="1273.594" y="602.23">&#8226; peek_kind_n(n)</text><rect fill="#FFFFFF" height="32.8047" rx="12.5" ry="12.5" style="stroke:#000000;stroke-width:1;" width="107.0332" x="1140.5608" y="551.0615"/><text fill="#000000" font-family="Verdana" font-size="11" lengthAdjust="spacing" textLength="87.0332" x="1150.5608" y="571.272">Source wrapper</text><path d="M1231.5361,630.2959 L1231.5361,791.624 L1530.208,791.624 L1530.208,640.2959 L1520.208,630.2959 L1231.5361,630.2959" fill="#FFFFFF" style="stroke:#000000;stroke-width:1;"/><path d="M1520.208,630.2959 L1520.208,640.2959 L1530.208,640.2959 L1520.208,630.2959" fill="#FFFFFF" style="stroke:#000000;stroke-width:1;"/><text fill="#000000" font-family="Verdana" font-size="13" font-weight="bold" lengthAdjust="spacing" textLength="277.6719" x="1237.5361" y="647.3628">Parser struct (parser/parser.rs:30-34)</text><text fill="#000000" font-family="Verdana" font-size="13" lengthAdjust="spacing" textLength="170.2632" x="1237.5361" y="662.4956">&#8226; source: Source&lt;'t, 'src&gt;</text><text fill="#000000" font-family="Verdana" font-size="13" lengthAdjust="spacing" textLength="147.1768" x="1237.5361" y="677.6284">&#8226; events: Vec&lt;Event&gt;</text><text fill="#000000" font-family="Verdana" font-size="13" lengthAdjust="spacing" textLength="173.0181" x="1237.5361" y="692.7612">&#8226; errors: Vec&lt;ParseError&gt;</text><text fill="#000000" font-family="Verdana" font-size="13" lengthAdjust="spacing" textLength="4.1323" x="1237.5361" y="707.894">&#160;</text><text fill="#000000" font-family="Verdana" font-size="13" font-weight="bold" lengthAdjust="spacing" textLength="100.896" x="1237.5361" y="723.0269">Key methods:</text><text fill="#000000" font-family="Verdana" font-size="13" lengthAdjust="spacing" textLength="116.7778" x="1237.5361" y="738.1597">&#8226; start() &#8594; Marker</text><text fill="#000000" font-family="Verdana" font-size="13" lengthAdjust="spacing" textLength="172.269" x="1237.5361" y="753.2925">&#8226; bump() - consume token</text><text fill="#000000" font-family="Verdana" font-size="13" lengthAdjust="spacing" textLength="165.1978" x="1237.5361" y="768.4253">&#8226; at(kind) - check current</text><text fill="#000000" font-family="Verdana" font-size="13" lengthAdjust="spacing" textLength="170.6821" x="1237.5361" y="783.5581">&#8226; error(msg) - report error</text><path d="M1254.2385,811.624 L1254.2385,957.8193 L1507.5056,957.8193 L1507.5056,821.624 L1497.5056,811.624 L1254.2385,811.624" fill="#FFFFFF" style="stroke:#000000;stroke-width:1;"/><path d="M1497.5056,811.624 L1497.5056,821.624 L1507.5056,821.624 L1497.5056,811.624" fill="#FFFFFF" style="stroke:#000000;stroke-width:1;"/><text fill="#000000" font-family="Verdana" font-size="13" font-weight="bold" lengthAdjust="spacing" textLength="114.4102" x="1260.2385" y="828.6909">Error Recovery:</text><text fill="#000000" font-family="Verdana" font-size="13" lengthAdjust="spacing" textLength="232.2671" x="1260.2385" y="843.8237">&#8226; recover_statement() skips to next</text><text fill="#000000" font-family="Verdana" font-size="13" lengthAdjust="spacing" textLength="151.6074" x="1268.5032" y="858.9565">statement or block end</text><text fill="#000000" font-family="Verdana" font-size="13" lengthAdjust="spacing" textLength="186.1577" x="1260.2385" y="874.0894">&#8226; sync points include END_*,</text><text fill="#000000" font-family="Verdana" font-size="13" lengthAdjust="spacing" textLength="149.2524" x="1268.5032" y="889.2222">POU starts, VAR blocks</text><text fill="#000000" font-family="Verdana" font-size="13" lengthAdjust="spacing" textLength="206.8765" x="1260.2385" y="904.355">&#8226; expect_semicolon() inserts on</text><text fill="#000000" font-family="Verdana" font-size="13" lengthAdjust="spacing" textLength="165.1914" x="1268.5032" y="919.4878">unambiguous boundaries</text><text fill="#000000" font-family="Verdana" font-size="13" lengthAdjust="spacing" textLength="202.7251" x="1260.2385" y="934.6206">&#8226; errors stored separately; CST</text><text fill="#000000" font-family="Verdana" font-size="13" lengthAdjust="spacing" textLength="164.6201" x="1268.5032" y="949.7534">preserves original tokens</text><rect fill="#FFFFFF" height="32.8047" rx="12.5" ry="12.5" style="stroke:#000000;stroke-width:1;" width="54.9175" x="1166.6187" y="777.6553"/><text fill="#000000" font-family="Verdana" font-size="11" lengthAdjust="spacing" textLength="34.9175" x="1176.6187" y="797.8657">Parser</text><path d="M801.7642,987.8193 L801.7642,1285.3428 L1101.4199,1285.3428 L1101.4199,997.8193 L1091.4199,987.8193 L801.7642,987.8193" fill="#FFFFFF" style="stroke:#000000;stroke-width:1;"/><path d="M1091.4199,987.8193 L1091.4199,997.8193 L1101.4199,997.8193 L1091.4199,987.8193" fill="#FFFFFF" style="stroke:#000000;stroke-width:1;"/><text fill="#000000" font-family="Verdana" font-size="13" font-weight="bold" lengthAdjust="spacing" textLength="172.0151" x="807.7642" y="1004.8862">Initializer-position gate</text><text fill="#000000" font-family="Verdana" font-size="13" lengthAdjust="spacing" textLength="278.6558" x="807.7642" y="1020.019">parse_var_initializer() has six code-derived</text><text fill="#000000" font-family="Verdana" font-size="13" lengthAdjust="spacing" textLength="61.1025" x="807.7642" y="1035.1519">call sites:</text><text fill="#000000" font-family="Verdana" font-size="13" lengthAdjust="spacing" textLength="275.9199" x="807.7642" y="1050.2847">&#8226; parse_type_decl() after parse_type_def()</text><text fill="#000000" font-family="Verdana" font-size="13" lengthAdjust="spacing" textLength="119.2915" x="807.7642" y="1065.4175">&#8226; parse_var_decl()</text><text fill="#000000" font-family="Verdana" font-size="13" lengthAdjust="spacing" textLength="204.3247" x="807.7642" y="1080.5503">&#8226; VAR_CONFIG init declarations</text><text fill="#000000" font-family="Verdana" font-size="13" lengthAdjust="spacing" textLength="166.3721" x="807.7642" y="1095.6831">&#8226; nested aggregate fields</text><text fill="#000000" font-family="Verdana" font-size="13" lengthAdjust="spacing" textLength="174.2876" x="807.7642" y="1110.8159">&#8226; array initializer elements</text><text fill="#000000" font-family="Verdana" font-size="13" lengthAdjust="spacing" textLength="177.9629" x="807.7642" y="1125.9487">&#8226; array repetition elements</text><text fill="#000000" font-family="Verdana" font-size="13" lengthAdjust="spacing" textLength="4.1323" x="807.7642" y="1141.0815">&#160;</text><text fill="#000000" font-family="Verdana" font-size="13" lengthAdjust="spacing" textLength="234.6602" x="807.7642" y="1156.2144">It is not called from parse_arg_list(),</text><text fill="#000000" font-family="Verdana" font-size="13" lengthAdjust="spacing" textLength="243.5342" x="807.7642" y="1171.3472">enum value assignments, subranges,</text><text fill="#000000" font-family="Verdana" font-size="13" lengthAdjust="spacing" textLength="251.0879" x="807.7642" y="1186.48">string-length expressions, statements,</text><text fill="#000000" font-family="Verdana" font-size="13" lengthAdjust="spacing" textLength="238.7861" x="807.7642" y="1201.6128">or ordinary Pratt expression parsing.</text><text fill="#000000" font-family="Verdana" font-size="13" lengthAdjust="spacing" textLength="4.1323" x="807.7642" y="1216.7456">&#160;</text><text fill="#000000" font-family="Verdana" font-size="13" lengthAdjust="spacing" textLength="223.9771" x="807.7642" y="1231.8784">`(` Name `:=` emits InitializerList.</text><text fill="#000000" font-family="Verdana" font-size="13" lengthAdjust="spacing" textLength="228.6489" x="807.7642" y="1247.0112">Array defaults emit ArrayInitializer.</text><text fill="#000000" font-family="Verdana" font-size="13" lengthAdjust="spacing" textLength="275.0059" x="807.7642" y="1262.144">Malformed aggregate recovery stays local</text><text fill="#000000" font-family="Verdana" font-size="13" lengthAdjust="spacing" textLength="183.6313" x="807.7642" y="1277.2769">to the declaration initializer.</text><path d="M1286.7349,1078.6162 L1286.7349,1194.5459 L1589.939,1194.5459 L1589.939,1088.6162 L1579.939,1078.6162 L1286.7349,1078.6162" fill="#FFFFFF" style="stroke:#000000;stroke-width:1;"/><path d="M1579.939,1078.6162 L1579.939,1088.6162 L1589.939,1088.6162 L1579.939,1078.6162" fill="#FFFFFF" style="stroke:#000000;stroke-width:1;"/><text fill="#000000" font-family="Verdana" font-size="13" font-weight="bold" lengthAdjust="spacing" textLength="274.8281" x="1292.7349" y="1095.6831">Grammar modules (parser/grammar/)</text><text fill="#000000" font-family="Verdana" font-size="13" lengthAdjust="spacing" textLength="282.2041" x="1292.7349" y="1110.8159">&#8226; pou.rs - PROGRAM, FUNCTION, FB, CLASS</text><text fill="#000000" font-family="Verdana" font-size="13" lengthAdjust="spacing" textLength="237.2627" x="1292.7349" y="1125.9487">&#8226; declarations.rs - VAR blocks, types</text><text fill="#000000" font-family="Verdana" font-size="13" lengthAdjust="spacing" textLength="236.3677" x="1292.7349" y="1141.0815">&#8226; statements.rs - IF, FOR, CASE, etc.</text><text fill="#000000" font-family="Verdana" font-size="13" lengthAdjust="spacing" textLength="195.5713" x="1292.7349" y="1156.2144">&#8226; expressions.rs - Pratt parser</text><text fill="#000000" font-family="Verdana" font-size="13" lengthAdjust="spacing" textLength="265.5859" x="1292.7349" y="1171.3472">&#8226; declarations.rs owns initializer-position</text><text fill="#000000" font-family="Verdana" font-size="13" lengthAdjust="spacing" textLength="248.0791" x="1300.9995" y="1186.48">parsing through parse_var_initializer()</text><rect fill="#FFFFFF" height="32.8047" rx="12.5" ry="12.5" style="stroke:#000000;stroke-width:1;" width="165.3149" x="1111.4199" y="1120.1787"/><text fill="#000000" font-family="Verdana" font-size="11" lengthAdjust="spacing" textLength="145.3149" x="1121.4199" y="1140.3892">Recursive Descent + Pratt</text><path d="M1265.1636,1506.9365 L1265.1636,1560.9014 L1245.1636,1564.9014 L1265.1636,1568.9014 L1265.1636,1622.8662 A0,0 0 0 0 1265.1636,1622.8662 L1599.0205,1622.8662 A0,0 0 0 0 1599.0205,1622.8662 L1599.0205,1516.9365 L1589.0205,1506.9365 L1265.1636,1506.9365 A0,0 0 0 0 1265.1636,1506.9365" fill="#FFFFFF" style="stroke:#000000;stroke-width:1;"/><path d="M1589.0205,1506.9365 L1589.0205,1516.9365 L1599.0205,1516.9365 L1589.0205,1506.9365" fill="#FFFFFF" style="stroke:#000000;stroke-width:1;"/><text fill="#000000" font-family="Verdana" font-size="13" font-weight="bold" lengthAdjust="spacing" textLength="233.9238" x="1271.1636" y="1524.0034">Marker (parser/parser.rs:37-39)</text><text fill="#000000" font-family="Verdana" font-size="13" lengthAdjust="spacing" textLength="167.9653" x="1271.1636" y="1539.1362">&#8226; pos: usize (event index)</text><text fill="#000000" font-family="Verdana" font-size="13" lengthAdjust="spacing" textLength="181.1621" x="1271.1636" y="1554.269">&#8226; bomb: DropBomb (safety)</text><text fill="#000000" font-family="Verdana" font-size="13" lengthAdjust="spacing" textLength="4.1323" x="1271.1636" y="1569.4019">&#160;</text><text fill="#000000" font-family="Verdana" font-size="13" font-weight="bold" lengthAdjust="spacing" textLength="312.8569" x="1271.1636" y="1584.5347">CompletedMarker (parser/parser.rs:69-71)</text><text fill="#000000" font-family="Verdana" font-size="13" lengthAdjust="spacing" textLength="76.7368" x="1271.1636" y="1599.6675">&#8226; pos: usize</text><text fill="#000000" font-family="Verdana" font-size="13" lengthAdjust="spacing" textLength="187.1416" x="1271.1636" y="1614.8003">&#8226; precede() for left recursion</text><rect fill="#FFFFFF" height="32.8047" rx="12.5" ry="12.5" style="stroke:#000000;stroke-width:1;" width="102.1724" x="1142.9912" y="1548.499"/><text fill="#000000" font-family="Verdana" font-size="11" lengthAdjust="spacing" textLength="82.1724" x="1152.9912" y="1568.7095">Marker Pattern</text><path d="M1244.125,1632.8662 L1244.125,1671.6982 L1224.125,1675.6982 L1244.125,1679.6982 L1244.125,1718.5303 A0,0 0 0 0 1244.125,1718.5303 L1519.1709,1718.5303 A0,0 0 0 0 1519.1709,1718.5303 L1519.1709,1642.8662 L1509.1709,1632.8662 L1244.125,1632.8662 A0,0 0 0 0 1244.125,1632.8662" fill="#FFFFFF" style="stroke:#000000;stroke-width:1;"/><path d="M1509.1709,1632.8662 L1509.1709,1642.8662 L1519.1709,1642.8662 L1509.1709,1632.8662" fill="#FFFFFF" style="stroke:#000000;stroke-width:1;"/><text fill="#000000" font-family="Verdana" font-size="13" font-weight="bold" lengthAdjust="spacing" textLength="254.0459" x="1250.125" y="1649.9331">Event enum (parser/event.rs:9-28)</text><text fill="#000000" font-family="Verdana" font-size="13" lengthAdjust="spacing" textLength="207.8604" x="1250.125" y="1665.0659">&#8226; Start { kind, forward_parent }</text><text fill="#000000" font-family="Verdana" font-size="13" lengthAdjust="spacing" textLength="174.624" x="1250.125" y="1680.1987">&#8226; Token { kind, n_tokens }</text><text fill="#000000" font-family="Verdana" font-size="13" lengthAdjust="spacing" textLength="49.7529" x="1250.125" y="1695.3315">&#8226; Finish</text><text fill="#000000" font-family="Verdana" font-size="13" lengthAdjust="spacing" textLength="87.7627" x="1250.125" y="1710.4644">&#8226; Placeholder</text><rect fill="#FFFFFF" height="32.8047" rx="12.5" ry="12.5" style="stroke:#000000;stroke-width:1;" width="60.0952" x="1164.0298" y="1659.2959"/><text fill="#000000" font-family="Verdana" font-size="11" lengthAdjust="spacing" textLength="40.0952" x="1174.0298" y="1679.5063">Event[]</text><line style="stroke:#000000;stroke-width:1;" x1="786.7642" x2="786.7642" y1="54.3545" y2="2208.585"/><path d="M1755.0254,1305.3428 L1755.0254,1397.1396 L1735.0254,1401.1396 L1755.0254,1405.1396 L1755.0254,1496.9365 A0,0 0 0 0 1755.0254,1496.9365 L2057.9819,1496.9365 A0,0 0 0 0 2057.9819,1496.9365 L2057.9819,1315.3428 L2047.9819,1305.3428 L1755.0254,1305.3428 A0,0 0 0 0 1755.0254,1305.3428" fill="#FFFFFF" style="stroke:#000000;stroke-width:1;"/><path d="M2047.9819,1305.3428 L2047.9819,1315.3428 L2057.9819,1315.3428 L2047.9819,1305.3428" fill="#FFFFFF" style="stroke:#000000;stroke-width:1;"/><text fill="#000000" font-family="Verdana" font-size="13" font-weight="bold" lengthAdjust="spacing" textLength="281.9565" x="1761.0254" y="1322.4097">Binding Powers (tokens.rs:1308-1333)</text><text fill="#000000" font-family="Verdana" font-size="13" lengthAdjust="spacing" textLength="151.2329" x="1761.0254" y="1337.5425">&#171;PRECEDENCE_TABLE&#187;</text><text fill="#000000" font-family="Verdana" font-size="13" lengthAdjust="spacing" textLength="164.3154" x="1761.0254" y="1352.6753">Precedence (low &#8594; high):</text><text fill="#000000" font-family="Verdana" font-size="13" lengthAdjust="spacing" textLength="57.2749" x="1761.0254" y="1367.8081">1-2:   OR</text><text fill="#000000" font-family="Verdana" font-size="13" lengthAdjust="spacing" textLength="66.1807" x="1761.0254" y="1382.9409">3-4:   XOR</text><text fill="#000000" font-family="Verdana" font-size="13" lengthAdjust="spacing" textLength="85.0396" x="1761.0254" y="1398.0737">5-6:   AND, &amp;</text><text fill="#000000" font-family="Verdana" font-size="13" lengthAdjust="spacing" textLength="177.3662" x="1761.0254" y="1413.2065">7-8:   =, &lt;&gt;, &lt;, &lt;=, &gt;, &gt;=</text><text fill="#000000" font-family="Verdana" font-size="13" lengthAdjust="spacing" textLength="70.1289" x="1761.0254" y="1428.3394">9-10:   +, -</text><text fill="#000000" font-family="Verdana" font-size="13" lengthAdjust="spacing" textLength="113.4199" x="1761.0254" y="1443.4722">11-12:   *, /, MOD</text><text fill="#000000" font-family="Verdana" font-size="13" lengthAdjust="spacing" textLength="153.1182" x="1761.0254" y="1458.605">14-13:   ** (right assoc)</text><text fill="#000000" font-family="Verdana" font-size="13" lengthAdjust="spacing" textLength="139.0708" x="1761.0254" y="1473.7378">15:    prefix NOT, +, -</text><text fill="#000000" font-family="Verdana" font-size="13" lengthAdjust="spacing" textLength="185.6816" x="1761.0254" y="1488.8706">&#171;PRECEDENCE_TABLE_END&#187;</text><rect fill="#FFFFFF" height="32.8047" rx="12.5" ry="12.5" style="stroke:#000000;stroke-width:1;" width="124.0864" x="1610.939" y="1384.7373"/><text fill="#000000" font-family="Verdana" font-size="11" lengthAdjust="spacing" textLength="104.0864" x="1620.939" y="1404.9478">Expression Parsing</text><line style="stroke:#000000;stroke-width:1;" x1="1604.939" x2="1604.939" y1="54.3545" y2="2208.585"/><path d="M2162.1235,1728.5303 L2162.1235,1782.4951 L2142.1235,1786.4951 L2162.1235,1790.4951 L2162.1235,1844.46 A0,0 0 0 0 2162.1235,1844.46 L2427.4766,1844.46 A0,0 0 0 0 2427.4766,1844.46 L2427.4766,1738.5303 L2417.4766,1728.5303 L2162.1235,1728.5303 A0,0 0 0 0 2162.1235,1728.5303" fill="#FFFFFF" style="stroke:#000000;stroke-width:1;"/><path d="M2417.4766,1728.5303 L2417.4766,1738.5303 L2427.4766,1738.5303 L2417.4766,1728.5303" fill="#FFFFFF" style="stroke:#000000;stroke-width:1;"/><text fill="#000000" font-family="Verdana" font-size="13" font-weight="bold" lengthAdjust="spacing" textLength="244.353" x="2168.1235" y="1745.5972">Sink struct (parser/sink.rs:10-17)</text><text fill="#000000" font-family="Verdana" font-size="13" lengthAdjust="spacing" textLength="136.646" x="2168.1235" y="1760.73">&#8226; tokens: &amp;'t [Token]</text><text fill="#000000" font-family="Verdana" font-size="13" lengthAdjust="spacing" textLength="118.0918" x="2168.1235" y="1775.8628">&#8226; source: &amp;'src str</text><text fill="#000000" font-family="Verdana" font-size="13" lengthAdjust="spacing" textLength="147.1768" x="2168.1235" y="1790.9956">&#8226; events: Vec&lt;Event&gt;</text><text fill="#000000" font-family="Verdana" font-size="13" lengthAdjust="spacing" textLength="94.561" x="2168.1235" y="1806.1284">&#8226; cursor: usize</text><text fill="#000000" font-family="Verdana" font-size="13" lengthAdjust="spacing" textLength="185.1802" x="2168.1235" y="1821.2612">&#8226; builder: GreenNodeBuilder</text><text fill="#000000" font-family="Verdana" font-size="13" lengthAdjust="spacing" textLength="173.0181" x="2168.1235" y="1836.394">&#8226; errors: Vec&lt;ParseError&gt;</text><rect fill="#FFFFFF" height="32.8047" rx="12.5" ry="12.5" style="stroke:#000000;stroke-width:1;" width="43.3804" x="2098.7432" y="1770.0928"/><text fill="#000000" font-family="Verdana" font-size="11" lengthAdjust="spacing" textLength="23.3804" x="2108.7432" y="1790.3032">Sink</text><path d="M2191.8848,1854.46 L2191.8848,1885.7256 L2171.8848,1889.7256 L2191.8848,1893.7256 L2191.8848,1924.9912 A0,0 0 0 0 2191.8848,1924.9912 L2465.1851,1924.9912 A0,0 0 0 0 2465.1851,1924.9912 L2465.1851,1864.46 L2455.1851,1854.46 L2191.8848,1854.46 A0,0 0 0 0 2191.8848,1854.46" fill="#FFFFFF" style="stroke:#000000;stroke-width:1;"/><path d="M2455.1851,1854.46 L2455.1851,1864.46 L2465.1851,1864.46 L2455.1851,1854.46" fill="#FFFFFF" style="stroke:#000000;stroke-width:1;"/><text fill="#000000" font-family="Verdana" font-size="13" font-weight="bold" lengthAdjust="spacing" textLength="252.3003" x="2197.8848" y="1871.5269">sink.finish() (parser/sink.rs:33-79)</text><text fill="#000000" font-family="Verdana" font-size="13" lengthAdjust="spacing" textLength="212.0879" x="2197.8848" y="1886.6597">1. Handle forward_parent chains</text><text fill="#000000" font-family="Verdana" font-size="13" lengthAdjust="spacing" textLength="187.4209" x="2197.8848" y="1901.7925">2. eat_trivia() for whitespace</text><text fill="#000000" font-family="Verdana" font-size="13" lengthAdjust="spacing" textLength="134.4814" x="2197.8848" y="1916.9253">3. Build green nodes</text><rect fill="#FFFFFF" height="32.8047" rx="12.5" ry="12.5" style="stroke:#000000;stroke-width:1;" width="102.9028" x="2068.9819" y="1873.3232"/><text fill="#000000" font-family="Verdana" font-size="11" lengthAdjust="spacing" textLength="82.9028" x="2078.9819" y="1893.5337">Process Events</text><line style="stroke:#000000;stroke-width:1;" x1="2062.9819" x2="2062.9819" y1="54.3545" y2="2208.585"/><path d="M2627.1331,1934.9912 L2627.1331,1958.6904 L2607.1331,1962.6904 L2627.1331,1966.6904 L2627.1331,1990.3896 A0,0 0 0 0 2627.1331,1990.3896 L2801.6257,1990.3896 A0,0 0 0 0 2801.6257,1990.3896 L2801.6257,1944.9912 L2791.6257,1934.9912 L2627.1331,1934.9912 A0,0 0 0 0 2627.1331,1934.9912" fill="#FFFFFF" style="stroke:#000000;stroke-width:1;"/><path d="M2791.6257,1934.9912 L2791.6257,1944.9912 L2801.6257,1944.9912 L2791.6257,1934.9912" fill="#FFFFFF" style="stroke:#000000;stroke-width:1;"/><text fill="#000000" font-family="Verdana" font-size="13" font-weight="bold" lengthAdjust="spacing" textLength="137.6807" x="2633.1331" y="1952.0581">rowan::GreenNode</text><text fill="#000000" font-family="Verdana" font-size="13" lengthAdjust="spacing" textLength="153.4927" x="2633.1331" y="1967.1909">Immutable, thread-safe</text><text fill="#000000" font-family="Verdana" font-size="13" lengthAdjust="spacing" textLength="137.4585" x="2633.1331" y="1982.3237">green tree (interned)</text><rect fill="#FFFFFF" height="32.8047" rx="12.5" ry="12.5" style="stroke:#000000;stroke-width:1;" width="82.2617" x="2524.8713" y="1946.2881"/><text fill="#000000" font-family="Verdana" font-size="11" lengthAdjust="spacing" textLength="62.2617" x="2534.8713" y="1966.4985">GreenNode</text><path d="M2675.8193,2000.3896 L2675.8193,2031.6553 L2655.8193,2035.6553 L2675.8193,2039.6553 L2675.8193,2070.9209 A0,0 0 0 0 2675.8193,2070.9209 L2905.6318,2070.9209 A0,0 0 0 0 2905.6318,2070.9209 L2905.6318,2010.3896 L2895.6318,2000.3896 L2675.8193,2000.3896 A0,0 0 0 0 2675.8193,2000.3896" fill="#FFFFFF" style="stroke:#000000;stroke-width:1;"/><path d="M2895.6318,2000.3896 L2895.6318,2010.3896 L2905.6318,2010.3896 L2895.6318,2000.3896" fill="#FFFFFF" style="stroke:#000000;stroke-width:1;"/><text fill="#000000" font-family="Verdana" font-size="13" font-weight="bold" lengthAdjust="spacing" textLength="208.8125" x="2681.8193" y="2017.4565">Parse struct (parser/mod.rs)</text><text fill="#000000" font-family="Verdana" font-size="13" lengthAdjust="spacing" textLength="170.6694" x="2681.8193" y="2032.5894">&#8226; green_node: GreenNode</text><text fill="#000000" font-family="Verdana" font-size="13" lengthAdjust="spacing" textLength="173.0181" x="2681.8193" y="2047.7222">&#8226; errors: Vec&lt;ParseError&gt;</text><text fill="#000000" font-family="Verdana" font-size="13" lengthAdjust="spacing" textLength="163.4331" x="2681.8193" y="2062.855">&#8226; syntax() &#8594; SyntaxNode</text><rect fill="#FFFFFF" height="32.8047" rx="12.5" ry="12.5" style="stroke:#000000;stroke-width:1;" width="179.6343" x="2476.1851" y="2019.2529"/><text fill="#000000" font-family="Verdana" font-size="11" lengthAdjust="spacing" textLength="159.6343" x="2486.1851" y="2039.4634">Parse { green_node, errors }</text><path d="M2629.3701,2080.9209 L2629.3701,2119.7529 L2609.3701,2123.7529 L2629.3701,2127.7529 L2629.3701,2166.585 A0,0 0 0 0 2629.3701,2166.585 L2819.1035,2166.585 A0,0 0 0 0 2819.1035,2166.585 L2819.1035,2090.9209 L2809.1035,2080.9209 L2629.3701,2080.9209 A0,0 0 0 0 2629.3701,2080.9209" fill="#FFFFFF" style="stroke:#000000;stroke-width:1;"/><path d="M2809.1035,2080.9209 L2809.1035,2090.9209 L2819.1035,2090.9209 L2809.1035,2080.9209" fill="#FFFFFF" style="stroke:#000000;stroke-width:1;"/><text fill="#000000" font-family="Verdana" font-size="13" font-weight="bold" lengthAdjust="spacing" textLength="144.1743" x="2635.3701" y="2097.9878">rowan::SyntaxNode</text><text fill="#000000" font-family="Verdana" font-size="13" lengthAdjust="spacing" textLength="119.3931" x="2635.3701" y="2113.1206">Lossless CST with:</text><text fill="#000000" font-family="Verdana" font-size="13" lengthAdjust="spacing" textLength="168.7334" x="2635.3701" y="2128.2534">&#8226; Full source preservation</text><text fill="#000000" font-family="Verdana" font-size="13" lengthAdjust="spacing" textLength="135.4146" x="2635.3701" y="2143.3862">&#8226; O(1) parent access</text><text fill="#000000" font-family="Verdana" font-size="13" lengthAdjust="spacing" textLength="161.3193" x="2635.3701" y="2158.519">&#8226; Lazy red node creation</text><rect fill="#FFFFFF" height="32.8047" rx="12.5" ry="12.5" style="stroke:#000000;stroke-width:1;" width="86.7358" x="2522.6343" y="2107.3506"/><text fill="#000000" font-family="Verdana" font-size="11" lengthAdjust="spacing" textLength="66.7358" x="2532.6343" y="2127.561">SyntaxNode</text><ellipse cx="2566.0022" cy="2197.585" fill="none" rx="11" ry="11" style="stroke:#000000;stroke-width:1;"/><ellipse cx="2566.0022" cy="2197.585" fill="#FFFFFF" rx="6" ry="6" style="stroke:#000000;stroke-width:1;"/><line style="stroke:#000000;stroke-width:1;" x1="2470.1851" x2="2470.1851" y1="54.3545" y2="2208.585"/><line style="stroke:#000000;stroke-width:1;" x1="2910.6318" x2="2910.6318" y1="54.3545" y2="2208.585"/><line style="stroke:#000000;stroke-width:1;" x1="58.9141" x2="58.9141" y1="100.3076" y2="120.3076"/><polygon fill="#000000" points="54.9141,110.3076,58.9141,120.3076,62.9141,110.3076,58.9141,114.3076" style="stroke:#000000;stroke-width:1;"/><line style="stroke:#000000;stroke-width:1;" x1="311.1685" x2="311.1685" y1="210.9443" y2="357.0342"/><polygon fill="#000000" points="307.1685,347.0342,311.1685,357.0342,315.1685,347.0342,311.1685,351.0342" style="stroke:#000000;stroke-width:1;"/><line style="stroke:#000000;stroke-width:1;" x1="1194.0774" x2="1194.0774" y1="583.8662" y2="777.6553"/><polygon fill="#000000" points="1190.0774,767.6553,1194.0774,777.6553,1198.0774,767.6553,1194.0774,771.6553" style="stroke:#000000;stroke-width:1;"/><line style="stroke:#000000;stroke-width:1;" x1="1194.0774" x2="1194.0774" y1="810.46" y2="1120.1787"/><polygon fill="#000000" points="1190.0774,1110.1787,1194.0774,1120.1787,1198.0774,1110.1787,1194.0774,1114.1787" style="stroke:#000000;stroke-width:1;"/><line style="stroke:#000000;stroke-width:1;" x1="1194.0774" x2="1194.0774" y1="1581.3037" y2="1659.2959"/><polygon fill="#000000" points="1190.0774,1649.2959,1194.0774,1659.2959,1198.0774,1649.2959,1194.0774,1653.2959" style="stroke:#000000;stroke-width:1;"/><line style="stroke:#000000;stroke-width:1;" x1="2120.4333" x2="2120.4333" y1="1802.8975" y2="1873.3232"/><polygon fill="#000000" points="2116.4333,1863.3232,2120.4333,1873.3232,2124.4333,1863.3232,2120.4333,1867.3232" style="stroke:#000000;stroke-width:1;"/><line style="stroke:#000000;stroke-width:1;" x1="2566.0022" x2="2566.0022" y1="1979.0928" y2="2019.2529"/><polygon fill="#000000" points="2562.0022,2009.2529,2566.0022,2019.2529,2570.0022,2009.2529,2566.0022,2013.2529" style="stroke:#000000;stroke-width:1;"/><line style="stroke:#000000;stroke-width:1;" x1="2566.0022" x2="2566.0022" y1="2052.0576" y2="2107.3506"/><polygon fill="#000000" points="2562.0022,2097.3506,2566.0022,2107.3506,2570.0022,2097.3506,2566.0022,2101.3506" style="stroke:#000000;stroke-width:1;"/><line style="stroke:#000000;stroke-width:1;" x1="2566.0022" x2="2566.0022" y1="2140.1553" y2="2186.585"/><polygon fill="#000000" points="2562.0022,2176.585,2566.0022,2186.585,2570.0022,2176.585,2566.0022,2180.585" style="stroke:#000000;stroke-width:1;"/><line style="stroke:#000000;stroke-width:1;" x1="58.9141" x2="58.9141" y1="153.1123" y2="161.8428"/><line style="stroke:#000000;stroke-width:1;" x1="58.9141" x2="311.1685" y1="161.8428" y2="161.8428"/><line style="stroke:#000000;stroke-width:1;" x1="311.1685" x2="311.1685" y1="161.8428" y2="178.1396"/><polygon fill="#000000" points="307.1685,168.1396,311.1685,178.1396,315.1685,168.1396,311.1685,172.1396" style="stroke:#000000;stroke-width:1;"/><line style="stroke:#000000;stroke-width:1;" x1="311.1685" x2="311.1685" y1="389.8389" y2="482.9502"/><line style="stroke:#000000;stroke-width:1;" x1="311.1685" x2="1194.0774" y1="482.9502" y2="482.9502"/><line style="stroke:#000000;stroke-width:1;" x1="1194.0774" x2="1194.0774" y1="482.9502" y2="551.0615"/><polygon fill="#000000" points="1190.0774,541.0615,1194.0774,551.0615,1198.0774,541.0615,1194.0774,545.0615" style="stroke:#000000;stroke-width:1;"/><line style="stroke:#000000;stroke-width:1;" x1="1194.0774" x2="1194.0774" y1="1152.9834" y2="1281.3604"/><line style="stroke:#000000;stroke-width:1;" x1="1194.0774" x2="1672.9822" y1="1281.3604" y2="1281.3604"/><line style="stroke:#000000;stroke-width:1;" x1="1672.9822" x2="1672.9822" y1="1281.3604" y2="1384.7373"/><polygon fill="#000000" points="1668.9822,1374.7373,1672.9822,1384.7373,1676.9822,1374.7373,1672.9822,1378.7373" style="stroke:#000000;stroke-width:1;"/><line style="stroke:#000000;stroke-width:1;" x1="1672.9822" x2="1672.9822" y1="1417.542" y2="1495.5205"/><line style="stroke:#000000;stroke-width:1;" x1="1672.9822" x2="1194.0774" y1="1495.5205" y2="1495.5205"/><line style="stroke:#000000;stroke-width:1;" x1="1194.0774" x2="1194.0774" y1="1495.5205" y2="1548.499"/><polygon fill="#000000" points="1190.0774,1538.499,1194.0774,1548.499,1198.0774,1538.499,1194.0774,1542.499" style="stroke:#000000;stroke-width:1;"/><line style="stroke:#000000;stroke-width:1;" x1="1194.0774" x2="1194.0774" y1="1692.1006" y2="1723.5303"/><line style="stroke:#000000;stroke-width:1;" x1="1194.0774" x2="2120.4333" y1="1723.5303" y2="1723.5303"/><line style="stroke:#000000;stroke-width:1;" x1="2120.4333" x2="2120.4333" y1="1723.5303" y2="1770.0928"/><polygon fill="#000000" points="2116.4333,1760.0928,2120.4333,1770.0928,2124.4333,1760.0928,2120.4333,1764.0928" style="stroke:#000000;stroke-width:1;"/><line style="stroke:#000000;stroke-width:1;" x1="2120.4333" x2="2120.4333" y1="1906.1279" y2="1929.9912"/><line style="stroke:#000000;stroke-width:1;" x1="2120.4333" x2="2566.0022" y1="1929.9912" y2="1929.9912"/><line style="stroke:#000000;stroke-width:1;" x1="2566.0022" x2="2566.0022" y1="1929.9912" y2="1946.2881"/><polygon fill="#000000" points="2562.0022,1936.2881,2566.0022,1946.2881,2570.0022,1936.2881,2566.0022,1940.2881" style="stroke:#000000;stroke-width:1;"/><text fill="#000000" font-family="Verdana" font-size="18" lengthAdjust="spacing" textLength="62.2178" x="103.4741" y="71.0625">Source</text><text fill="#000000" font-family="Verdana" font-size="18" lengthAdjust="spacing" textLength="50.2295" x="497.8503" y="71.0625">Lexer</text><text fill="#000000" font-family="Verdana" font-size="18" lengthAdjust="spacing" textLength="57.1377" x="1167.2827" y="71.0625">Parser</text><text fill="#000000" font-family="Verdana" font-size="18" lengthAdjust="spacing" textLength="106.2598" x="1780.8306" y="71.0625">Pratt Parser</text><text fill="#000000" font-family="Verdana" font-size="18" lengthAdjust="spacing" textLength="38.2588" x="2247.4541" y="71.0625">Sink</text><text fill="#000000" font-family="Verdana" font-size="18" lengthAdjust="spacing" textLength="62.5254" x="2659.1458" y="71.0625">Output</text><g class="legend" data-source-line="208"><rect fill="none" height="515.2031" rx="7.5" ry="7.5" style="stroke:#000000;stroke-width:1;" width="395.1641" x="2517.3286" y="2213.585"/><text fill="#000000" font-family="Verdana" font-size="14" font-weight="bold" lengthAdjust="spacing" textLength="270.5186" x="2522.3286" y="2231.5801">SyntaxKind (syntax/mod.rs:17-19)</text><text fill="#000000" font-family="Verdana" font-size="14" lengthAdjust="spacing" textLength="4.4502" x="2522.3286" y="2247.877">&#160;</text><text fill="#000000" font-family="Verdana" font-size="14" font-weight="bold" lengthAdjust="spacing" textLength="279.8018" x="2522.3286" y="2264.1738">Token Kinds (202 from TokenKind):</text><text fill="#000000" font-family="Verdana" font-size="14" lengthAdjust="spacing" textLength="364.6289" x="2522.3286" y="2280.4707">&#8226; Trivia: Whitespace, LineComment, BlockComment</text><text fill="#000000" font-family="Verdana" font-size="14" lengthAdjust="spacing" textLength="323.5381" x="2522.3286" y="2296.7676">&#8226; Punctuation: Semicolon, Colon, Dot, Comma</text><text fill="#000000" font-family="Verdana" font-size="14" lengthAdjust="spacing" textLength="317.7822" x="2522.3286" y="2313.0645">&#8226; Operators: Plus, Minus, Star, Slash, Eq, Neq</text><text fill="#000000" font-family="Verdana" font-size="14" lengthAdjust="spacing" textLength="333.7441" x="2522.3286" y="2329.3613">&#8226; Keywords: KwProgram, KwFunction, KwIf, etc.</text><text fill="#000000" font-family="Verdana" font-size="14" lengthAdjust="spacing" textLength="314.1182" x="2522.3286" y="2345.6582">&#8226; Literals: IntLiteral, RealLiteral, StringLiteral</text><text fill="#000000" font-family="Verdana" font-size="14" lengthAdjust="spacing" textLength="4.4502" x="2522.3286" y="2361.9551">&#160;</text><text fill="#000000" font-family="Verdana" font-size="14" font-weight="bold" lengthAdjust="spacing" textLength="191.9805" x="2522.3286" y="2378.252">Composite Nodes (~65):</text><text fill="#000000" font-family="Verdana" font-size="14" lengthAdjust="spacing" textLength="171.2334" x="2522.3286" y="2394.5488">&#8226; SourceFile - Root node</text><text fill="#000000" font-family="Verdana" font-size="14" lengthAdjust="spacing" textLength="294.3555" x="2522.3286" y="2410.8457">&#8226; Program, Function, FunctionBlock, Class</text><text fill="#000000" font-family="Verdana" font-size="14" lengthAdjust="spacing" textLength="296.7617" x="2522.3286" y="2427.1426">&#8226; Method, Property, Interface, Namespace</text><text fill="#000000" font-family="Verdana" font-size="14" lengthAdjust="spacing" textLength="215.5986" x="2522.3286" y="2443.4395">&#8226; VarBlock, VarDecl, TypeSpec</text><text fill="#000000" font-family="Verdana" font-size="14" lengthAdjust="spacing" textLength="278.2227" x="2522.3286" y="2459.7363">&#8226; IfStmt, ForStmt, WhileStmt, CaseStmt</text><text fill="#000000" font-family="Verdana" font-size="14" lengthAdjust="spacing" textLength="312.6963" x="2522.3286" y="2476.0332">&#8226; BinaryExpr, UnaryExpr, CallExpr, FieldExpr</text><text fill="#000000" font-family="Verdana" font-size="14" lengthAdjust="spacing" textLength="212.7275" x="2522.3286" y="2492.3301">&#8226; InitializerList, ArrayInitializer</text><text fill="#000000" font-family="Verdana" font-size="14" lengthAdjust="spacing" textLength="4.4502" x="2522.3286" y="2508.627">&#160;</text><text fill="#000000" font-family="Verdana" font-size="14" font-weight="bold" lengthAdjust="spacing" textLength="220.0693" x="2522.3286" y="2524.9238">Initializer Context Contract:</text><text fill="#000000" font-family="Verdana" font-size="14" lengthAdjust="spacing" textLength="306.5234" x="2522.3286" y="2541.2207">&#8226; TYPE-level defaults and VAR defaults may</text><text fill="#000000" font-family="Verdana" font-size="14" lengthAdjust="spacing" textLength="248.3975" x="2531.229" y="2557.5176">contain aggregate initializer nodes.</text><text fill="#000000" font-family="Verdana" font-size="14" lengthAdjust="spacing" textLength="385.1641" x="2522.3286" y="2573.8145">&#8226; Function-call named arguments remain CallExpr/Arg.</text><text fill="#000000" font-family="Verdana" font-size="14" lengthAdjust="spacing" textLength="367.1172" x="2522.3286" y="2590.1113">&#8226; Enum explicit values remain ordinary expressions.</text><text fill="#000000" font-family="Verdana" font-size="14" lengthAdjust="spacing" textLength="4.4502" x="2522.3286" y="2606.4082">&#160;</text><text fill="#000000" font-family="Verdana" font-size="14" font-weight="bold" lengthAdjust="spacing" textLength="76.9316" x="2522.3286" y="2622.7051">Key Files:</text><text fill="#000000" font-family="Verdana" font-size="14" lengthAdjust="spacing" textLength="271.4961" x="2522.3286" y="2639.002">&#8226; lexer/tokens.rs:44 - TokenKind enum</text><text fill="#000000" font-family="Verdana" font-size="14" lengthAdjust="spacing" textLength="225.415" x="2522.3286" y="2655.2988">&#8226; lexer/mod.rs:14 - Token struct</text><text fill="#000000" font-family="Verdana" font-size="14" lengthAdjust="spacing" textLength="268.3105" x="2522.3286" y="2671.5957">&#8226; syntax/mod.rs:9 - SyntaxKind macro</text><text fill="#000000" font-family="Verdana" font-size="14" lengthAdjust="spacing" textLength="250.667" x="2522.3286" y="2687.8926">&#8226; parser/parser.rs:30 - Parser struct</text><text fill="#000000" font-family="Verdana" font-size="14" lengthAdjust="spacing" textLength="231.8135" x="2522.3286" y="2704.1895">&#8226; parser/event.rs:9 - Event enum</text><text fill="#000000" font-family="Verdana" font-size="14" lengthAdjust="spacing" textLength="219.2627" x="2522.3286" y="2720.4863">&#8226; parser/sink.rs:10 - Sink struct</text></g><?plantuml-src hLZzSXev4l-Vf-Yhgqh0EsC7uu-OJLo5CMGfsq01IJQrjKNa6G5JdXcnaiQONFRg_he7k4UuHzidkMvfc16Ot5vLBhi96gdLwYzr_rf_qGkUS5Z6B4ehwY5Abqoo1EvPy32N8al3jeY5XBzsE_IVGn68P2bIdkgnNiSSiYG-TbPPeAF7IA-x0WcYBnpgzKf5HnefjSp64nYlKysUcd3BdxY4F_xvBnWogV9X6mc6qPB7KSehbPVmzZl-uFPXRzYvxVKxCFZG6NteTJv-BylArx78PC2_LfHcKbUQzXCc_4d_M4c5vY2Z-K9N0F-Cs0fwdJQSrUkDkjymSsCqGg0poKEpfyBJ46WRSZO6-LffMiDKOp4NglQCwS51JEj7YGWFfMhYHxLsS62MtYkkm6o3aCleaKF20YdCsWnT-OLBuGTYkGOj7dWQVM4w4gaZGdD2yx_ykkTGimBAI8-okIBKJ_pwnKQ6F_xnRy1O29jWTjpWi9YNB9tpfj5xHCEAovieWQTPik5kP5Hqm6d3FptR7F3cpMHmq-bFnvFMP7nvQUPA1ezCHYpLgWd7huwjmNb0Mgfc8SO4JHEn9fmKCyCiHPyOQpIXVbpC3vPSCYrG1AYV5hCtVBqICZIJPyNiRQIHE5PR37eXNfDe5d73efWUBtaGiHY5D5FcdmrNg2BN6aGfX29GHs74vdYjrD6SfoGC3u-KkK0-1g1MXqdut2hJJlyQBUE4bhrXNujmNKcsHDts-3ads3XwQJOUAJDBldZjrqyshlY8N9ID9Th0yVQl8hqeBRta_65AqL2jWG-O8vQO0yZu1KMGIOaccXecrThpdTEqcjRS4BMgx94ypo8xajiVahpnoc-Sk65gbMg2LVdDI-t1IoM3ouA0Ft8JIXzuyAP3OsT9IXCMj6GExj34vIQYqPcGSBqG62NkYPGpq1QKwUwOVE2oMBhFagMnKe2ncc5UDXOfbfckaZKCmO873nl3RGjKJTISI2HV2gdjd6ExPoOpGiE81-AHoxKhgRHpKmeoh18fIKt-8tT3IeaBp9zY7P3HVInGCkxSU0pL09OYGZDYH0Tn5dB0u9mUUFd-uU2zjOhou4DhP5ceKgidl2bwgdWI1LYDC4AG3VeJsOaqPv6bBBcFvfd85DnJtS8KmDMEf_0GGJbNSQfIciVh7wdMv2oMaYFJHyoU0iqJfIosvbTkuA6PCgaegrvp5P3AFy0GUUaziVWEhsp29626p69akud6kPq_SiDmAJ8CJ_JQS3HuDshTUT1ztszFUeC-ZguyQD-snkE2EkH1J1fGIhFRIhDveDTBH_N2EJbbhuiS1oDasHftFE0wE7GjZKPG9LkZ6bYvltcwMANas4XZDiDQB_sbK94fAhbXSNkKpa4l457C5vRT59FqrDbKhUt6QCnd6qlszZ27EUgLM_0R7671qEVH4rwdaFks6jgm35WSuuhcJaMmJCXuKz8GjxCPPlFj-PcRdefJBNsnWCwOjWVzRk-TCSkMmGgYb2lCuy3cSyb95S024OVbEfEIhLsp0e-j7tT8y9vpRKrIK1YIdeP8aKMDkdZMJ8eabvh9-JIE5DveUmbDpNraSSQ1OG3CKyF70vNTcuAjB1dcLVIa7_DqhXTkk7XEd5bIJ0LOoV0QoNKUHYNv9YGEhQ2Vgv-Xpp3TVMw-_GnupV5cEow_HJbjZBQCmkW5biL8GvHspg6sb7SiHh2JR1auJsTh4dLD60dDOeWnco4CTjtaslrmguOQJOfAsYbL6bgLzkI1AypP5Fz3iK880DKIqzGRhx2KDXgD4jSCHvrsvxhJRtUcazRLRIS7DqCKdYEEmAgCc71bYiS2pwZP-Atxnqty6OpCLyC_eQ-VyyzJ_um-M_rh3rwOcNF_DSsyzU3D9Vx5_t68eyktPld2hx-YzHyyy2txkbyt1nnuSEJ1tU3QJYFcQvZf0wWQZIbuH61lGlsqcQVL6Lx1_c3YbGoVw_bVu8ejacXWZTSntMFWd61FjJ_t6nVRQHRBTQQe8wcQmewE3lbJUNNlHNBVX6ifbbSuWgfYCwxNjKr9RsFN4tEyjzyyykp2Fw_lFxASiix434E0dF8SnIRLbMqWRk36NY1kLdAWd8jWr249BlpZrwu0Owgiy3S3o3qwSSLaECLTnEBt4X0R1BSXIoqOKmv15--4MfHmEMO1NuWOqwhhjN6KFX34n9zzm1Addy5Ad3ENuPLVFtS5jn8quSLB3RyOyNvz1jjU45WZZlyBNYCJ2xdhZVii8YMQy4vodlQnL5pPcJ_5UIuWbIB0H03cHBL7SwFbp9WG_RwhUwFXdnU1MZ-4drWQOg-yuwnWWLswJV_7Xy0P8cO3fFD0MYsee2tHBJOB789H1EQa5meQSXVAV1raUfbfz5MXznwnfLYnj5cIv2BsaYJJx3xc7bLrpaAVBefPigTX8u1N324VtbWUFiVk66Y6S4fYUHjyzlkt4FrkpDYcqmsMaflZo3_re0DHiPlAGRbzcp3x7R7BsM-RgQJ99RiLIiKK5_IaiTqMTJE28BRHog4dAq2JwJkhzHhadcS1HLVPPh8lLFT3urG8q04xFJm2tUN_uULa_Aa_QVqCDxt-DOpVtzsrHf----qavdEISoih6BEPrhrgFL6yAfpdhmfR3n14YNKKctiBQOhEl-PsBviE_sDnBJpiprEEEPnWYWTNX9Vph_sl0EDDou5esVvS2qrZnE_xtWU6SOP8w2vAwOVoBluRCxNmeFER1tt-svxdWviLvWvg2JmSTkdqY0wwMVLcE-YyV5pefJh_yB1nOt7nCJRuBFzqYnQ1PWuKcMYulv-TRbdAzhxT23EE3oE1W35rBqyXNodTPcHCY0P19Slel3CzhqVxq3HwxP6yNCwC1mZdbJdAe6KcSpOukaOCvi44mJOzZvHFABEnJj3oNI7j09qQSpjiCsL61V6L0Pq4pJnuNmxR28Bjg4j8cuOb_ssqwJr3bPNddGY60QhrfCslP87U2hvFmmx2v4SUbt0LSxhfqug9XAtp5WdxVOsvtG6hBl0tgVlGoHpM-BxfOh3n9PGhvva1tvWM4kAqqVQe9UVbrWuX1iJXSHGWT3PulzXHe7Mt2tJVCYX0jbuoTf_eJaumVhRVyNPeYyV23M6Us7SIyORk0icSv50-P1Rjr_RR3dMixWFGBcs9aP2on52xP2KYeVDBo68IhCrVbVy0?></g></svg>