<?plantuml 1.2026.2?><svg xmlns="http://www.w3.org/2000/svg" xmlns:xlink="http://www.w3.org/1999/xlink" contentStyleType="text/css" data-diagram-type="DESCRIPTION" height="869px" preserveAspectRatio="none" style="width:3085px;height:869px;background:#FFFFFF;" version="1.1" viewBox="0 0 3085 869" width="3085px" zoomAndPan="magnify"><title>Debug Adapter Thread Architecture</title><defs/><g><g class="title" data-source-line="4"><text fill="#000000" font-family="Verdana" font-size="22" font-weight="bold" lengthAdjust="spacing" textLength="444.5547" x="1315.7888" y="35.4209">Debug Adapter Thread Architecture</text></g><!--cluster main--><g class="cluster" data-qualified-name="main" data-source-line="6" id="ent0002"><path d="M13.5,249.9094 L112.9033,249.9094 A3.75,3.75 0 0 1 115.4033,252.4094 L122.4033,272.2063 L592.5,272.2063 A2.5,2.5 0 0 1 595,274.7063 L595,772.5394 A2.5,2.5 0 0 1 592.5,775.0394 L13.5,775.0394 A2.5,2.5 0 0 1 11,772.5394 L11,252.4094 A2.5,2.5 0 0 1 13.5,249.9094" fill="#FFFFFF" style="stroke:#000000;stroke-width:1;"/><line style="stroke:#000000;stroke-width:1;" x1="11" x2="122.4033" y1="272.2063" y2="272.2063"/><text fill="#000000" font-family="Verdana" font-size="14" font-weight="bold" lengthAdjust="spacing" textLength="98.4033" x="15" y="264.9045">Main Thread</text></g><!--cluster logT--><g class="cluster" data-qualified-name="logT" data-source-line="20" id="ent0013"><path d="M843.5,249.9094 L933.3193,249.9094 A3.75,3.75 0 0 1 935.8193,252.4094 L942.8193,272.2063 L1020.5,272.2063 A2.5,2.5 0 0 1 1023,274.7063 L1023,500.3794 A2.5,2.5 0 0 1 1020.5,502.8794 L843.5,502.8794 A2.5,2.5 0 0 1 841,500.3794 L841,252.4094 A2.5,2.5 0 0 1 843.5,249.9094" fill="#90EE90" style="stroke:#000000;stroke-width:1;"/><line style="stroke:#000000;stroke-width:1;" x1="841" x2="942.8193" y1="272.2063" y2="272.2063"/><text fill="#000000" font-family="Verdana" font-size="14" font-weight="bold" lengthAdjust="spacing" textLength="88.8193" x="845" y="264.9045">Log Thread</text></g><!--cluster ioT--><g class="cluster" data-qualified-name="ioT" data-source-line="25" id="ent0018"><path d="M1049.5,249.9094 L1127.8691,249.9094 A3.75,3.75 0 0 1 1130.3691,252.4094 L1137.3691,272.2063 L1234.5,272.2063 A2.5,2.5 0 0 1 1237,274.7063 L1237,507.9494 A2.5,2.5 0 0 1 1234.5,510.4494 L1049.5,510.4494 A2.5,2.5 0 0 1 1047,507.9494 L1047,252.4094 A2.5,2.5 0 0 1 1049.5,249.9094" fill="#ADD8E6" style="stroke:#000000;stroke-width:1;"/><line style="stroke:#000000;stroke-width:1;" x1="1047" x2="1137.3691" y1="272.2063" y2="272.2063"/><text fill="#000000" font-family="Verdana" font-size="14" font-weight="bold" lengthAdjust="spacing" textLength="77.3691" x="1051" y="264.9045">IO Thread</text></g><!--cluster stopT--><g class="cluster" data-qualified-name="stopT" data-source-line="30" id="ent0023"><path d="M1271.5,241.9094 L1369.1738,241.9094 A3.75,3.75 0 0 1 1371.6738,244.4094 L1378.6738,264.2063 L1478.5,264.2063 A2.5,2.5 0 0 1 1481,266.7063 L1481,515.9494 A2.5,2.5 0 0 1 1478.5,518.4494 L1271.5,518.4494 A2.5,2.5 0 0 1 1269,515.9494 L1269,244.4094 A2.5,2.5 0 0 1 1271.5,241.9094" fill="#F08080" style="stroke:#000000;stroke-width:1;"/><line style="stroke:#000000;stroke-width:1;" x1="1269" x2="1378.6738" y1="264.2063" y2="264.2063"/><text fill="#000000" font-family="Verdana" font-size="14" font-weight="bold" lengthAdjust="spacing" textLength="96.6738" x="1273" y="256.9045">Stop Thread</text></g><!--cluster remoteT--><g class="cluster" data-qualified-name="remoteT" data-source-line="35" id="ent0028"><path d="M621.5,72.6094 L733.9189,72.6094 A3.75,3.75 0 0 1 736.4189,75.1094 L743.4189,94.9063 L814.5,94.9063 A2.5,2.5 0 0 1 817,97.4063 L817,349.2594 A2.5,2.5 0 0 1 814.5,351.7594 L621.5,351.7594 A2.5,2.5 0 0 1 619,349.2594 L619,75.1094 A2.5,2.5 0 0 1 621.5,72.6094" fill="#F08080" style="stroke:#000000;stroke-width:1;"/><line style="stroke:#000000;stroke-width:1;" x1="619" x2="743.4189" y1="94.9063" y2="94.9063"/><text fill="#000000" font-family="Verdana" font-size="14" font-weight="bold" lengthAdjust="spacing" textLength="111.4189" x="623" y="87.6045">Remote Poller</text></g><!--cluster runnerT--><g class="cluster" data-qualified-name="runnerT" data-source-line="40" id="ent0033"><path d="M2085.5,72.6094 L2203.8389,72.6094 A3.75,3.75 0 0 1 2206.3389,75.1094 L2213.3389,94.9063 L2270.5,94.9063 A2.5,2.5 0 0 1 2273,97.4063 L2273,341.6894 A2.5,2.5 0 0 1 2270.5,344.1894 L2085.5,344.1894 A2.5,2.5 0 0 1 2083,341.6894 L2083,75.1094 A2.5,2.5 0 0 1 2085.5,72.6094" fill="#FFFFE0" style="stroke:#000000;stroke-width:1;"/><line style="stroke:#000000;stroke-width:1;" x1="2083" x2="2213.3389" y1="94.9063" y2="94.9063"/><text fill="#000000" font-family="Verdana" font-size="14" font-weight="bold" lengthAdjust="spacing" textLength="117.3389" x="2087" y="87.6045">Runner Thread</text></g><!--cluster channels--><g class="cluster" data-qualified-name="channels" data-source-line="45" id="ent0038"><path d="M1120,67.6094 C1120,57.6094 1322,57.6094 1322,57.6094 C1322,57.6094 1524,57.6094 1524,67.6094 L1524,159.9094 C1524,169.9094 1322,169.9094 1322,169.9094 C1322,169.9094 1120,169.9094 1120,159.9094 L1120,67.6094" fill="#FFFFFF" style="stroke:#000000;stroke-width:1;"/><path d="M1120,67.6094 C1120,77.6094 1322,77.6094 1322,77.6094 C1322,77.6094 1524,77.6094 1524,67.6094" fill="none" style="stroke:#000000;stroke-width:1;"/><text fill="#000000" font-family="Verdana" font-size="14" font-weight="bold" lengthAdjust="spacing" textLength="72.249" x="1285.8755" y="92.6045">Channels</text></g><!--cluster runtime--><g class="cluster" data-qualified-name="runtime" data-source-line="51" id="ent0042"><path d="M1541.1739,254.0961 C1549.6047,241.1003 1563.8702,240.3569 1572.0602,254.3714 C1579.5274,231.2638 1600.1027,233.4426 1612.2474,249.582 C1619.6292,230.8722 1637.3143,229.2548 1647.7569,246.5645 C1658.3679,232.6861 1672.4761,232.2867 1681.8751,247.9637 C1691.5637,229.9005 1706.0864,224.6204 1719.874,243.7791 C1734.7817,224.9539 1746.1688,228.7195 1756.9103,247.845 C1763.5327,227.5777 1780.5251,230.3239 1791.6366,243.1318 C1800.5322,225.3548 1817.8138,225.5729 1827.2757,242.5511 C1841.0651,228.5857 1852.1185,232.6372 1859.2783,249.4455 C1870.3892,230.2787 1885.0041,230.3391 1897.7971,247.6702 C1907.6502,233.9009 1921,232.9073 1928.9284,249.6349 C1939.0292,231.6529 1954.4135,230.7831 1966.4207,247.5797 C1979.868,231.1517 1992.7513,231.0998 2004.4277,249.5114 C2021.452,231.2888 2033.1771,237.5847 2043,256.9094 C2046.6415,254.6024 2048.6983,255.7426 2049.0381,259.9634 C2072.9278,266.9618 2076.7655,281.0458 2059.1041,298.8108 C2078.1758,326.4324 2068.6772,344.2863 2036,347.1994 C2040.6966,345.7822 2043.3805,348.8147 2042.6183,353.3099 C2028.5852,372.954 2011.8538,372.386 2000.5174,350.5715 C1992.9502,367.7176 1978.5257,366.8658 1969.6953,351.7795 C1960.2811,369.4884 1943.4243,375.2796 1930.564,355.3635 C1922.2279,370.4574 1906.5159,368.1324 1898.937,354.5289 C1887.0657,372.167 1874.3489,375.3707 1859.7148,357.5883 C1849.926,372.7714 1835.7834,373.602 1827.2273,356.3535 C1818.1855,373.1775 1801.2772,371.6763 1791.2574,357.4879 C1780.9597,374.336 1765.3337,379.9306 1752.2538,360.4772 C1741.2683,374.9969 1725.4699,374.513 1716.7677,357.8765 C1702.8441,372.9988 1691.6166,369.5344 1682.0169,353.1129 C1672.2797,371.1721 1661.3707,370.161 1648.1174,356.9211 C1635.32,371.6583 1622.6581,371.5995 1612.2079,354.2909 C1598.8746,371.5795 1585.7388,374.1531 1572.316,354.3873 C1551.2577,371.9758 1536.5875,363.7374 1529,340.1994 C1532.4624,340.0873 1534.2081,341.4515 1533.2683,345.1414 C1509.432,331.5242 1507.3233,316.4278 1531.1176,300.515 C1510.8786,283.8452 1510.7637,262.1917 1536,249.9094 C1539.2323,248.7985 1541.4468,250.8755 1541.1739,254.0961" fill="#FFFFFF" style="stroke:#000000;stroke-width:1;"/><text fill="#000000" font-family="Verdana" font-size="14" font-weight="bold" lengthAdjust="spacing" textLength="66.2881" x="1752.856" y="267.9045">Runtime</text></g><!--entity protocolLoop--><g class="entity" data-qualified-name="main.protocolLoop" data-source-line="7" id="ent0003"><rect fill="#FFFFFF" height="62.5938" rx="2.5" ry="2.5" style="stroke:#000000;stroke-width:1;" width="135.2383" x="443.38" y="435.4494"/><rect fill="#FFFFFF" height="10" style="stroke:#000000;stroke-width:1;" width="15" x="558.6183" y="440.4494"/><rect fill="#FFFFFF" height="2" style="stroke:#000000;stroke-width:1;" width="4" x="556.6183" y="442.4494"/><rect fill="#FFFFFF" height="2" style="stroke:#000000;stroke-width:1;" width="4" x="556.6183" y="446.4494"/><text fill="#000000" font-family="Verdana" font-size="14" lengthAdjust="spacing" textLength="95.2383" x="458.38" y="468.4445">Protocol Loop</text><text fill="#000000" font-family="Verdana" font-size="14" lengthAdjust="spacing" textLength="75.5508" x="458.38" y="484.7414">run_stdio()</text></g><!--entity dispatch--><g class="entity" data-qualified-name="main.dispatch" data-source-line="8" id="ent0004"><rect fill="#FFFFFF" height="46.2969" rx="2.5" ry="2.5" style="stroke:#000000;stroke-width:1;" width="171.0449" x="299.48" y="589.4494"/><rect fill="#FFFFFF" height="10" style="stroke:#000000;stroke-width:1;" width="15" x="450.5249" y="594.4494"/><rect fill="#FFFFFF" height="2" style="stroke:#000000;stroke-width:1;" width="4" x="448.5249" y="596.4494"/><rect fill="#FFFFFF" height="2" style="stroke:#000000;stroke-width:1;" width="4" x="448.5249" y="600.4494"/><text fill="#000000" font-family="Verdana" font-size="14" lengthAdjust="spacing" textLength="131.0449" x="314.48" y="622.4445">dispatch_request()</text></g><!--entity threadMap--><g class="entity" data-qualified-name="main.threadMap" data-source-line="9" id="ent0005"><rect fill="#FFFFFF" height="46.2969" rx="2.5" ry="2.5" style="stroke:#000000;stroke-width:1;" width="142.0605" x="436.97" y="712.7494"/><rect fill="#FFFFFF" height="10" style="stroke:#000000;stroke-width:1;" width="15" x="559.0305" y="717.7494"/><rect fill="#FFFFFF" height="2" style="stroke:#000000;stroke-width:1;" width="4" x="557.0305" y="719.7494"/><rect fill="#FFFFFF" height="2" style="stroke:#000000;stroke-width:1;" width="4" x="557.0305" y="723.7494"/><text fill="#000000" font-family="Verdana" font-size="14" lengthAdjust="spacing" textLength="102.0605" x="451.97" y="745.7445">ThreadMapper</text></g><!--entity stopCoord--><g class="entity" data-qualified-name="main.stopCoord" data-source-line="10" id="ent0006"><rect fill="#FFFFFF" height="46.2969" rx="2.5" ry="2.5" style="stroke:#000000;stroke-width:1;" width="154.5293" x="225.74" y="284.9094"/><rect fill="#FFFFFF" height="10" style="stroke:#000000;stroke-width:1;" width="15" x="360.2693" y="289.9094"/><rect fill="#FFFFFF" height="2" style="stroke:#000000;stroke-width:1;" width="4" x="358.2693" y="291.9094"/><rect fill="#FFFFFF" height="2" style="stroke:#000000;stroke-width:1;" width="4" x="358.2693" y="295.9094"/><text fill="#000000" font-family="Verdana" font-size="14" lengthAdjust="spacing" textLength="114.5293" x="240.74" y="317.9045">StopCoordinator</text></g><!--entity bpManager--><g class="entity" data-qualified-name="main.bpManager" data-source-line="11" id="ent0007"><rect fill="#FFFFFF" height="46.2969" rx="2.5" ry="2.5" style="stroke:#000000;stroke-width:1;" width="177.7305" x="224.13" y="712.7494"/><rect fill="#FFFFFF" height="10" style="stroke:#000000;stroke-width:1;" width="15" x="381.8605" y="717.7494"/><rect fill="#FFFFFF" height="2" style="stroke:#000000;stroke-width:1;" width="4" x="379.8605" y="719.7494"/><rect fill="#FFFFFF" height="2" style="stroke:#000000;stroke-width:1;" width="4" x="379.8605" y="723.7494"/><text fill="#000000" font-family="Verdana" font-size="14" lengthAdjust="spacing" textLength="137.7305" x="239.13" y="745.7445">BreakpointManager</text></g><!--entity pausedView--><g class="entity" data-qualified-name="main.pausedView" data-source-line="12" id="ent0008"><rect fill="#FFFFFF" height="46.2969" rx="2.5" ry="2.5" style="stroke:#000000;stroke-width:1;" width="161.2764" x="27.36" y="712.7494"/><rect fill="#FFFFFF" height="10" style="stroke:#000000;stroke-width:1;" width="15" x="168.6364" y="717.7494"/><rect fill="#FFFFFF" height="2" style="stroke:#000000;stroke-width:1;" width="4" x="166.6364" y="719.7494"/><rect fill="#FFFFFF" height="2" style="stroke:#000000;stroke-width:1;" width="4" x="166.6364" y="723.7494"/><text fill="#000000" font-family="Verdana" font-size="14" lengthAdjust="spacing" textLength="121.2764" x="42.36" y="745.7445">PausedStateView</text></g><!--entity logRecv--><g class="entity" data-qualified-name="logT.logRecv" data-source-line="21" id="ent0014"><rect fill="#FFFFFF" height="46.2969" rx="2.5" ry="2.5" style="stroke:#000000;stroke-width:1;" width="130.8975" x="866.55" y="284.9094"/><rect fill="#FFFFFF" height="10" style="stroke:#000000;stroke-width:1;" width="15" x="977.4475" y="289.9094"/><rect fill="#FFFFFF" height="2" style="stroke:#000000;stroke-width:1;" width="4" x="975.4475" y="291.9094"/><rect fill="#FFFFFF" height="2" style="stroke:#000000;stroke-width:1;" width="4" x="975.4475" y="295.9094"/><text fill="#000000" font-family="Verdana" font-size="14" lengthAdjust="spacing" textLength="90.8975" x="881.55" y="317.9045">Log Receiver</text></g><g class="entity" data-qualified-name="logT.GMN15" data-source-line="22" id="ent0016"><path d="M857.25,446.6194 L857.25,486.885 A0,0 0 0 0 857.25,486.885 L1006.7583,486.885 A0,0 0 0 0 1006.7583,486.885 L1006.7583,456.6194 L996.7583,446.6194 L936,446.6194 L932,331.5094 L928,446.6194 L857.25,446.6194 A0,0 0 0 0 857.25,446.6194" fill="#FFFFFF" style="stroke:#000000;stroke-width:1;"/><path d="M996.7583,446.6194 L996.7583,456.6194 L1006.7583,456.6194 L996.7583,446.6194" fill="#FFFFFF" style="stroke:#000000;stroke-width:1;"/><text fill="#000000" font-family="Verdana" font-size="13" lengthAdjust="spacing" textLength="128.5083" x="863.25" y="463.6863">Converts DebugLog</text><text fill="#000000" font-family="Verdana" font-size="13" lengthAdjust="spacing" textLength="105.8345" x="863.25" y="478.8191">&#8594; output events</text></g><!--entity ioRecv--><g class="entity" data-qualified-name="ioT.ioRecv" data-source-line="26" id="ent0019"><rect fill="#FFFFFF" height="46.2969" rx="2.5" ry="2.5" style="stroke:#000000;stroke-width:1;" width="120.7939" x="1062.6" y="284.9094"/><rect fill="#FFFFFF" height="10" style="stroke:#000000;stroke-width:1;" width="15" x="1163.3939" y="289.9094"/><rect fill="#FFFFFF" height="2" style="stroke:#000000;stroke-width:1;" width="4" x="1161.3939" y="291.9094"/><rect fill="#FFFFFF" height="2" style="stroke:#000000;stroke-width:1;" width="4" x="1161.3939" y="295.9094"/><text fill="#000000" font-family="Verdana" font-size="14" lengthAdjust="spacing" textLength="80.7939" x="1077.6" y="317.9045">IO Receiver</text></g><g class="entity" data-qualified-name="ioT.GMN20" data-source-line="27" id="ent0021"><path d="M1063.13,439.0494 L1063.13,494.4478 A0,0 0 0 0 1063.13,494.4478 L1220.8649,494.4478 A0,0 0 0 0 1220.8649,494.4478 L1220.8649,449.0494 L1210.8649,439.0494 L1142.71,439.0494 L1125.72,331.5094 L1134.71,439.0494 L1063.13,439.0494 A0,0 0 0 0 1063.13,439.0494" fill="#FFFFFF" style="stroke:#000000;stroke-width:1;"/><path d="M1210.8649,439.0494 L1210.8649,449.0494 L1220.8649,449.0494 L1210.8649,439.0494" fill="#FFFFFF" style="stroke:#000000;stroke-width:1;"/><text fill="#000000" font-family="Verdana" font-size="13" lengthAdjust="spacing" textLength="79.6313" x="1069.13" y="456.1163">Rate-limited</text><text fill="#000000" font-family="Verdana" font-size="13" lengthAdjust="spacing" textLength="105.9995" x="1069.13" y="471.2491">stIoState events</text><text fill="#000000" font-family="Verdana" font-size="13" lengthAdjust="spacing" textLength="136.7349" x="1069.13" y="486.3819">(150ms min interval)</text></g><!--entity stopRecv--><g class="entity" data-qualified-name="stopT.stopRecv" data-source-line="31" id="ent0024"><rect fill="#FFFFFF" height="46.2969" rx="2.5" ry="2.5" style="stroke:#000000;stroke-width:1;" width="137.4736" x="1296.26" y="284.9094"/><rect fill="#FFFFFF" height="10" style="stroke:#000000;stroke-width:1;" width="15" x="1413.7336" y="289.9094"/><rect fill="#FFFFFF" height="2" style="stroke:#000000;stroke-width:1;" width="4" x="1411.7336" y="291.9094"/><rect fill="#FFFFFF" height="2" style="stroke:#000000;stroke-width:1;" width="4" x="1411.7336" y="295.9094"/><text fill="#000000" font-family="Verdana" font-size="14" lengthAdjust="spacing" textLength="97.4736" x="1311.26" y="317.9045">Stop Receiver</text></g><g class="entity" data-qualified-name="stopT.GMN25" data-source-line="32" id="ent0026"><path d="M1292.87,439.0494 L1292.87,494.4478 L1449.1259,494.4478 L1449.1259,449.0494 L1439.1259,439.0494 L1292.87,439.0494" fill="#FFFFFF" style="stroke:#000000;stroke-width:1;"/><path d="M1439.1259,439.0494 L1439.1259,449.0494 L1449.1259,449.0494 L1439.1259,439.0494" fill="#FFFFFF" style="stroke:#000000;stroke-width:1;"/><text fill="#000000" font-family="Verdana" font-size="13" lengthAdjust="spacing" textLength="134.6147" x="1298.87" y="456.1163">Converts DebugStop</text><text fill="#000000" font-family="Verdana" font-size="13" lengthAdjust="spacing" textLength="115.5337" x="1298.87" y="471.2491">&#8594; stopped events</text><text fill="#000000" font-family="Verdana" font-size="13" lengthAdjust="spacing" textLength="135.2559" x="1298.87" y="486.3819">+ invalidated events</text></g><!--entity remotePoller--><g class="entity" data-qualified-name="remoteT.remotePoller" data-source-line="36" id="ent0029"><rect fill="#FFFFFF" height="46.2969" rx="2.5" ry="2.5" style="stroke:#000000;stroke-width:1;" width="165.6309" x="635.18" y="107.6094"/><rect fill="#FFFFFF" height="10" style="stroke:#000000;stroke-width:1;" width="15" x="780.8109" y="112.6094"/><rect fill="#FFFFFF" height="2" style="stroke:#000000;stroke-width:1;" width="4" x="778.8109" y="114.6094"/><rect fill="#FFFFFF" height="2" style="stroke:#000000;stroke-width:1;" width="4" x="778.8109" y="118.6094"/><text fill="#000000" font-family="Verdana" font-size="14" lengthAdjust="spacing" textLength="125.6309" x="650.18" y="140.6045">RemoteStopPoller</text></g><g class="entity" data-qualified-name="remoteT.GMN30" data-source-line="37" id="ent0031"><path d="M664.73,280.3594 L664.73,335.7578 A0,0 0 0 0 664.73,335.7578 L801.2637,335.7578 A0,0 0 0 0 801.2637,335.7578 L801.2637,290.3594 L791.2637,280.3594 L734.68,280.3594 L719.93,154.3194 L726.68,280.3594 L664.73,280.3594 A0,0 0 0 0 664.73,280.3594" fill="#FFFFFF" style="stroke:#000000;stroke-width:1;"/><path d="M791.2637,280.3594 L791.2637,290.3594 L801.2637,290.3594 L791.2637,280.3594" fill="#FFFFFF" style="stroke:#000000;stroke-width:1;"/><text fill="#000000" font-family="Verdana" font-size="13" lengthAdjust="spacing" textLength="104.1523" x="670.73" y="297.4263">Polls control IPC</text><text fill="#000000" font-family="Verdana" font-size="13" lengthAdjust="spacing" textLength="90.1177" x="670.73" y="312.5591">(debug.stops)</text><text fill="#000000" font-family="Verdana" font-size="13" lengthAdjust="spacing" textLength="115.5337" x="670.73" y="327.6919">&#8594; stopped events</text></g><!--entity cycleExec--><g class="entity" data-qualified-name="runnerT.cycleExec" data-source-line="41" id="ent0034"><rect fill="#FFFFFF" height="46.2969" rx="2.5" ry="2.5" style="stroke:#000000;stroke-width:1;" width="144.8359" x="2101.58" y="107.6094"/><rect fill="#FFFFFF" height="10" style="stroke:#000000;stroke-width:1;" width="15" x="2226.4159" y="112.6094"/><rect fill="#FFFFFF" height="2" style="stroke:#000000;stroke-width:1;" width="4" x="2224.4159" y="114.6094"/><rect fill="#FFFFFF" height="2" style="stroke:#000000;stroke-width:1;" width="4" x="2224.4159" y="118.6094"/><text fill="#000000" font-family="Verdana" font-size="14" lengthAdjust="spacing" textLength="104.8359" x="2116.58" y="140.6045">Cycle Executor</text></g><g class="entity" data-qualified-name="runnerT.GMN35" data-source-line="42" id="ent0036"><path d="M2098.71,287.9194 L2098.71,328.185 A0,0 0 0 0 2098.71,328.185 L2257.2954,328.185 A0,0 0 0 0 2257.2954,328.185 L2257.2954,297.9194 L2247.2954,287.9194 L2181.55,287.9194 L2174.51,154.3194 L2173.55,287.9194 L2098.71,287.9194 A0,0 0 0 0 2098.71,287.9194" fill="#FFFFFF" style="stroke:#000000;stroke-width:1;"/><path d="M2247.2954,287.9194 L2247.2954,297.9194 L2257.2954,297.9194 L2247.2954,287.9194" fill="#FFFFFF" style="stroke:#000000;stroke-width:1;"/><text fill="#000000" font-family="Verdana" font-size="13" lengthAdjust="spacing" textLength="137.5854" x="2104.71" y="304.9863">Calls execute_cycle()</text><text fill="#000000" font-family="Verdana" font-size="13" lengthAdjust="spacing" textLength="78.1841" x="2104.71" y="320.1191">in tight loop</text></g><!--entity logChan--><g class="entity" data-qualified-name="channels.logChan" data-source-line="46" id="ent0039"><rect fill="#FFFFFF" height="46.2969" rx="2.5" ry="2.5" style="stroke:#000000;stroke-width:1;" width="100.874" x="1262.56" y="107.6094"/><rect fill="#FFFFFF" height="10" style="stroke:#000000;stroke-width:1;" width="15" x="1343.434" y="112.6094"/><rect fill="#FFFFFF" height="2" style="stroke:#000000;stroke-width:1;" width="4" x="1341.434" y="114.6094"/><rect fill="#FFFFFF" height="2" style="stroke:#000000;stroke-width:1;" width="4" x="1341.434" y="118.6094"/><text fill="#000000" font-family="Verdana" font-size="14" lengthAdjust="spacing" textLength="60.874" x="1277.56" y="140.6045">log_tx/rx</text></g><!--entity ioChan--><g class="entity" data-qualified-name="channels.ioChan" data-source-line="47" id="ent0040"><rect fill="#FFFFFF" height="46.2969" rx="2.5" ry="2.5" style="stroke:#000000;stroke-width:1;" width="91.9873" x="1136.01" y="107.6094"/><rect fill="#FFFFFF" height="10" style="stroke:#000000;stroke-width:1;" width="15" x="1207.9973" y="112.6094"/><rect fill="#FFFFFF" height="2" style="stroke:#000000;stroke-width:1;" width="4" x="1205.9973" y="114.6094"/><rect fill="#FFFFFF" height="2" style="stroke:#000000;stroke-width:1;" width="4" x="1205.9973" y="118.6094"/><text fill="#000000" font-family="Verdana" font-size="14" lengthAdjust="spacing" textLength="51.9873" x="1151.01" y="140.6045">io_tx/rx</text></g><!--entity stopChan--><g class="entity" data-qualified-name="channels.stopChan" data-source-line="48" id="ent0041"><rect fill="#FFFFFF" height="46.2969" rx="2.5" ry="2.5" style="stroke:#000000;stroke-width:1;" width="109.7676" x="1398.12" y="107.6094"/><rect fill="#FFFFFF" height="10" style="stroke:#000000;stroke-width:1;" width="15" x="1487.8876" y="112.6094"/><rect fill="#FFFFFF" height="2" style="stroke:#000000;stroke-width:1;" width="4" x="1485.8876" y="114.6094"/><rect fill="#FFFFFF" height="2" style="stroke:#000000;stroke-width:1;" width="4" x="1485.8876" y="118.6094"/><text fill="#000000" font-family="Verdana" font-size="14" lengthAdjust="spacing" textLength="69.7676" x="1413.12" y="140.6045">stop_tx/rx</text></g><!--entity debugControl--><g class="entity" data-qualified-name="runtime.debugControl" data-source-line="52" id="ent0043"><rect fill="#FFFFFF" height="46.2969" rx="2.5" ry="2.5" style="stroke:#000000;stroke-width:1;" width="136.9541" x="1544.52" y="284.9094"/><rect fill="#FFFFFF" height="10" style="stroke:#000000;stroke-width:1;" width="15" x="1661.4741" y="289.9094"/><rect fill="#FFFFFF" height="2" style="stroke:#000000;stroke-width:1;" width="4" x="1659.4741" y="291.9094"/><rect fill="#FFFFFF" height="2" style="stroke:#000000;stroke-width:1;" width="4" x="1659.4741" y="295.9094"/><text fill="#000000" font-family="Verdana" font-size="14" lengthAdjust="spacing" textLength="96.9541" x="1559.52" y="317.9045">DebugControl</text></g><!--entity hook--><g class="entity" data-qualified-name="runtime.hook" data-source-line="53" id="ent0044"><rect fill="#FFFFFF" height="46.2969" rx="2.5" ry="2.5" style="stroke:#000000;stroke-width:1;" width="121.8057" x="1716.1" y="284.9094"/><rect fill="#FFFFFF" height="10" style="stroke:#000000;stroke-width:1;" width="15" x="1817.9057" y="289.9094"/><rect fill="#FFFFFF" height="2" style="stroke:#000000;stroke-width:1;" width="4" x="1815.9057" y="291.9094"/><rect fill="#FFFFFF" height="2" style="stroke:#000000;stroke-width:1;" width="4" x="1815.9057" y="295.9094"/><text fill="#000000" font-family="Verdana" font-size="14" lengthAdjust="spacing" textLength="81.8057" x="1731.1" y="317.9045">DebugHook</text></g><!--entity taskRegistry--><g class="entity" data-qualified-name="runtime.taskRegistry" data-source-line="54" id="ent0045"><rect fill="#FFFFFF" height="46.2969" rx="2.5" ry="2.5" style="stroke:#000000;stroke-width:1;" width="134.9238" x="1872.54" y="284.9094"/><rect fill="#FFFFFF" height="10" style="stroke:#000000;stroke-width:1;" width="15" x="1987.4638" y="289.9094"/><rect fill="#FFFFFF" height="2" style="stroke:#000000;stroke-width:1;" width="4" x="1985.4638" y="291.9094"/><rect fill="#FFFFFF" height="2" style="stroke:#000000;stroke-width:1;" width="4" x="1985.4638" y="295.9094"/><text fill="#000000" font-family="Verdana" font-size="14" lengthAdjust="spacing" textLength="94.9238" x="1887.54" y="317.9045">Task Registry</text></g><g class="entity" data-qualified-name="GMN65" data-source-line="88" id="ent0066"><path d="M2292.35,257.6594 L2292.35,358.4563 L2565.6439,358.4563 L2565.6439,267.6594 L2555.6439,257.6594 L2292.35,257.6594" fill="#FFFFFF" style="stroke:#000000;stroke-width:1;"/><path d="M2555.6439,257.6594 L2555.6439,267.6594 L2565.6439,267.6594 L2555.6439,257.6594" fill="#FFFFFF" style="stroke:#000000;stroke-width:1;"/><text fill="#000000" font-family="Verdana" font-size="13" font-weight="bold" lengthAdjust="spacing" textLength="123.5" x="2298.35" y="274.7263">Synchronization:</text><text fill="#000000" font-family="Verdana" font-size="13" lengthAdjust="spacing" textLength="171.8818" x="2298.35" y="289.8591">&#8226; Arc&lt;Mutex&lt;Runtime&gt;&gt;</text><text fill="#000000" font-family="Verdana" font-size="13" lengthAdjust="spacing" textLength="196.2949" x="2298.35" y="304.9919">&#8226; Arc&lt;AtomicBool&gt; stop flags</text><text fill="#000000" font-family="Verdana" font-size="13" lengthAdjust="spacing" textLength="185.0913" x="2298.35" y="320.1247">&#8226; Condvar for pause/resume</text><text fill="#000000" font-family="Verdana" font-size="13" lengthAdjust="spacing" textLength="252.2939" x="2298.35" y="335.2575">&#8226; RuntimeEvent sender drops fall back</text><text fill="#000000" font-family="Verdana" font-size="13" lengthAdjust="spacing" textLength="201.8364" x="2306.6146" y="350.3903">to DebugControl's event buffer</text></g><g class="entity" data-qualified-name="GMN68" data-source-line="97" id="ent0069"><path d="M2600.9,287.9194 L2600.9,328.185 L2835.0987,328.185 L2835.0987,297.9194 L2825.0987,287.9194 L2600.9,287.9194" fill="#FFFFFF" style="stroke:#000000;stroke-width:1;"/><path d="M2825.0987,287.9194 L2825.0987,297.9194 L2835.0987,297.9194 L2825.0987,287.9194" fill="#FFFFFF" style="stroke:#000000;stroke-width:1;"/><text fill="#000000" font-family="Verdana" font-size="13" lengthAdjust="spacing" textLength="162.5444" x="2606.9" y="304.9863">Centralizes DAP ordering</text><text fill="#000000" font-family="Verdana" font-size="13" lengthAdjust="spacing" textLength="213.1987" x="2606.9" y="320.1191">+ breakpoint generation checks.</text></g><g class="entity" data-qualified-name="GMN71" data-source-line="102" id="ent0072"><path d="M614.35,715.7594 L614.35,756.025 L829.6581,756.025 L829.6581,725.7594 L819.6581,715.7594 L614.35,715.7594" fill="#FFFFFF" style="stroke:#000000;stroke-width:1;"/><path d="M819.6581,715.7594 L819.6581,725.7594 L829.6581,725.7594 L819.6581,715.7594" fill="#FFFFFF" style="stroke:#000000;stroke-width:1;"/><text fill="#000000" font-family="Verdana" font-size="13" lengthAdjust="spacing" textLength="129.3525" x="620.35" y="732.8263">Single read path for</text><text fill="#000000" font-family="Verdana" font-size="13" lengthAdjust="spacing" textLength="194.3081" x="620.35" y="747.9591">stack/vars/expr while paused.</text></g><g class="entity" data-qualified-name="GMN74" data-source-line="107" id="ent0075"><path d="M2869.87,287.9194 L2869.87,328.185 L3078.1322,328.185 L3078.1322,297.9194 L3068.1322,287.9194 L2869.87,287.9194" fill="#FFFFFF" style="stroke:#000000;stroke-width:1;"/><path d="M3068.1322,287.9194 L3068.1322,297.9194 L3078.1322,297.9194 L3068.1322,287.9194" fill="#FFFFFF" style="stroke:#000000;stroke-width:1;"/><text fill="#000000" font-family="Verdana" font-size="13" lengthAdjust="spacing" textLength="152.0645" x="2875.87" y="304.9863">Stop reason integrity +</text><text fill="#000000" font-family="Verdana" font-size="13" lengthAdjust="spacing" textLength="187.2622" x="2875.87" y="320.1191">breakpoint generation guard</text></g><g class="entity" data-qualified-name="GMN77" data-source-line="112" id="ent0078"><path d="M403.24,822.0394 L403.24,862.305 A0,0 0 0 0 403.24,862.305 L612.7654,862.305 A0,0 0 0 0 612.7654,862.305 L612.7654,832.0394 L602.7654,822.0394 L512,822.0394 L508,759.5194 L504,822.0394 L403.24,822.0394 A0,0 0 0 0 403.24,822.0394" fill="#FFFFFF" style="stroke:#000000;stroke-width:1;"/><path d="M602.7654,822.0394 L602.7654,832.0394 L612.7654,832.0394 L602.7654,822.0394" fill="#FFFFFF" style="stroke:#000000;stroke-width:1;"/><text fill="#000000" font-family="Verdana" font-size="13" lengthAdjust="spacing" textLength="172.8403" x="409.24" y="839.1063">IEC tasks map to threadId.</text><text fill="#000000" font-family="Verdana" font-size="13" lengthAdjust="spacing" textLength="188.5254" x="409.24" y="854.2391">step/pause apply per thread.</text></g><!--link protocolLoop to dispatch--><g class="link" data-entity-1="ent0003" data-entity-2="ent0004" data-link-type="dependency" data-source-line="14" id="lnk9"><path d="M484.28,498.2594 C460.44,525.4694 430.0436,560.1762 408.6336,584.6162" fill="none" id="protocolLoop-to-dispatch" style="stroke:#000000;stroke-width:1;"/><polygon fill="#000000" points="404.68,589.1294,413.6192,584.9954,407.9747,585.3684,407.6017,579.7239,404.68,589.1294" style="stroke:#000000;stroke-width:1;"/></g><!--link dispatch to stopCoord--><g class="link" data-entity-1="ent0004" data-entity-2="ent0006" data-link-type="dependency" data-source-line="15" id="lnk10"><path d="M367.18,589.1994 C339.7,553.0594 288.15,478.5494 269,405.4494 C262.21,379.5294 272.1261,355.7659 283.9661,336.4359" fill="none" id="dispatch-to-stopCoord" style="stroke:#000000;stroke-width:1;"/><polygon fill="#000000" points="287.1,331.3194,278.9881,336.9048,284.4884,335.5831,285.8101,341.0834,287.1,331.3194" style="stroke:#000000;stroke-width:1;"/></g><!--link dispatch to bpManager--><g class="link" data-entity-1="ent0004" data-entity-2="ent0007" data-link-type="dependency" data-source-line="16" id="lnk11"><path d="M371.63,636.1294 C358.69,657.9194 342.2725,685.5798 329.3625,707.3298" fill="none" id="dispatch-to-bpManager" style="stroke:#000000;stroke-width:1;"/><polygon fill="#000000" points="326.3,712.4894,334.3335,706.7917,328.8521,708.1897,327.4541,702.7084,326.3,712.4894" style="stroke:#000000;stroke-width:1;"/></g><!--link dispatch to pausedView--><g class="link" data-entity-1="ent0004" data-entity-2="ent0008" data-link-type="dependency" data-source-line="17" id="lnk12"><path d="M333.55,636.1294 C283.95,657.8494 214.806,688.1223 165.146,709.8723" fill="none" id="dispatch-to-pausedView" style="stroke:#000000;stroke-width:1;"/><polygon fill="#000000" points="159.65,712.2794,169.4987,712.3327,164.23,710.2734,166.2892,705.0047,159.65,712.2794" style="stroke:#000000;stroke-width:1;"/></g><!--link stopRecv to GMN25--><g class="link" data-entity-1="ent0024" data-entity-2="ent0026" data-link-type="association" data-source-line="32" id="lnk27"><path d="M1373.34,331.4794 C1379.63,350.9094 1386.73,379.8394 1384,405.4494 C1382.83,416.4194 1380.5,428.3294 1378.13,438.6394" fill="none" id="stopRecv-GMN25" style="stroke:#000000;stroke-width:1;stroke-dasharray:7,7;"/></g><!--link dispatch to debugControl--><g class="link" data-entity-1="ent0004" data-entity-2="ent0043" data-link-type="dependency" data-source-line="58" id="lnk46"><path d="M470.98,609.8094 C711.66,604.1894 1380.13,584.2394 1465,534.4494 C1544.75,487.6694 1587.5726,384.5911 1603.8826,337.3311" fill="none" id="dispatch-to-debugControl" style="stroke:#000000;stroke-width:1;stroke-dasharray:7,7;"/><polygon fill="#000000" points="1605.84,331.6594,1599.1228,338.8621,1604.2088,336.3858,1606.6851,341.4719,1605.84,331.6594" style="stroke:#000000;stroke-width:1;"/><text fill="#000000" font-family="Verdana" font-size="13" lengthAdjust="spacing" textLength="96.2686" x="1558.76" y="471.3163">control actions</text></g><!--link dispatch to threadMap--><g class="link" data-entity-1="ent0004" data-entity-2="ent0005" data-link-type="dependency" data-source-line="59" id="lnk47"><path d="M407.85,636.1294 C429.94,657.9194 458.9474,686.5269 481.0074,708.2769" fill="none" id="dispatch-to-threadMap" style="stroke:#000000;stroke-width:1;stroke-dasharray:7,7;"/><polygon fill="#000000" points="485.28,712.4894,481.6795,703.3222,481.7195,708.9789,476.0628,709.019,485.28,712.4894" style="stroke:#000000;stroke-width:1;"/><text fill="#000000" font-family="Verdana" font-size="13" lengthAdjust="spacing" textLength="124.96" x="454.86" y="678.8163">threads/stackTrace</text></g><!--link threadMap to taskRegistry--><g class="link" data-entity-1="ent0005" data-entity-2="ent0045" data-link-type="dependency" data-source-line="60" id="lnk48"><path d="M579.3,716.6294 C585.27,715.2594 591.23,713.9494 597,712.7494 C1067.76,614.9994 1226.01,732.7794 1664,534.4494 C1775.02,484.1794 1874.5995,382.2531 1916.4495,335.8931" fill="none" id="threadMap-to-taskRegistry" style="stroke:#000000;stroke-width:1;stroke-dasharray:7,7;"/><polygon fill="#000000" points="1920.47,331.4394,1911.4701,335.4397,1917.1196,335.1508,1917.4085,340.8003,1920.47,331.4394" style="stroke:#000000;stroke-width:1;"/><text fill="#000000" font-family="Verdana" font-size="13" lengthAdjust="spacing" textLength="172.1675" x="1644.98" y="555.5163">map tasks &#8594; DAP threadId</text></g><!--link debugControl to logChan--><g class="link" data-entity-1="ent0043" data-entity-2="ent0039" data-link-type="dependency" data-source-line="63" id="lnk49"><path d="M1587.56,284.5594 C1563.87,265.1194 1526.65,238.2594 1489,225.9094 C1473.56,220.8394 1355.98,227.6794 1343,217.9094 C1323.26,203.0494 1317.1249,180.2702 1314.8049,160.0802" fill="none" id="debugControl-to-logChan" style="stroke:#000000;stroke-width:1;"/><polygon fill="#000000" points="1314.12,154.1194,1311.1736,163.5172,1314.6908,159.0867,1319.1213,162.6039,1314.12,154.1194" style="stroke:#000000;stroke-width:1;"/><text fill="#000000" font-family="Verdana" font-size="13" lengthAdjust="spacing" textLength="66.1997" x="1344" y="206.4763">DebugLog</text></g><!--link logChan to debugControl--><g class="link" data-entity-1="ent0039" data-entity-2="ent0043" data-link-type="dependency" data-source-line="66" id="lnk52"><path d="M1341.09,154.2194 C1352.85,162.6994 1367.02,171.7694 1381,177.9094 C1395.21,184.1494 1401.44,178.3494 1415,185.9094 C1432.57,195.6994 1429.22,208.4994 1447,217.9094 C1463.79,226.7994 1471.38,218.7894 1489,225.9094 C1525.02,240.4594 1556.9432,262.3996 1580.9632,280.9696" fill="none" id="logChan-to-debugControl" style="stroke:#000000;stroke-width:1;stroke-dasharray:7,7;"/><polygon fill="#000000" points="1585.71,284.6394,1581.0363,275.9701,1581.7543,281.5812,1576.1432,282.2992,1585.71,284.6394" style="stroke:#000000;stroke-width:1;"/><text fill="#000000" font-family="Verdana" font-size="13" lengthAdjust="spacing" textLength="153.7974" x="1448" y="198.9763">closed receiver fallback</text><text fill="#000000" font-family="Verdana" font-size="13" lengthAdjust="spacing" textLength="115.3623" x="1467.2175" y="214.1091">retains DebugLog</text></g><!--link debugControl to ioChan--><g class="link" data-entity-1="ent0043" data-entity-2="ent0040" data-link-type="dependency" data-source-line="64" id="lnk50"><path d="M1588.08,284.7294 C1564.46,265.1294 1527.03,237.9094 1489,225.9094 C1462.5,217.5394 1263.27,231.4494 1239,217.9094 C1214.42,204.1794 1200.8615,180.4262 1192.2615,159.8262" fill="none" id="debugControl-to-ioChan" style="stroke:#000000;stroke-width:1;"/><polygon fill="#000000" points="1189.95,154.2894,1189.726,164.1357,1191.8763,158.9034,1197.1085,161.0537,1189.95,154.2894" style="stroke:#000000;stroke-width:1;"/><text fill="#000000" font-family="Verdana" font-size="13" lengthAdjust="spacing" textLength="72.5601" x="1240" y="206.4763">IoSnapshot</text></g><!--link hook to stopChan--><g class="link" data-entity-1="ent0044" data-entity-2="ent0041" data-link-type="dependency" data-source-line="65" id="lnk51"><path d="M1787.23,284.4694 C1797.64,257.6794 1809.23,213.2194 1786,185.9094 C1750.99,144.7494 1599.4777,134.9547 1514.2277,132.6047" fill="none" id="hook-to-stopChan" style="stroke:#000000;stroke-width:1;"/><polygon fill="#000000" points="1508.23,132.4394,1517.1164,136.6859,1513.2281,132.5772,1517.3368,128.6889,1508.23,132.4394" style="stroke:#000000;stroke-width:1;"/><text fill="#000000" font-family="Verdana" font-size="13" lengthAdjust="spacing" textLength="72.3062" x="1799.93" y="206.4763">DebugStop</text></g><!--link stopChan to debugControl--><g class="link" data-entity-1="ent0041" data-entity-2="ent0043" data-link-type="dependency" data-source-line="67" id="lnk53"><path d="M1508.11,135.3194 C1543.35,140.7594 1586.67,154.0294 1610,185.9094 C1631,214.5994 1626.9368,252.3648 1620.8268,278.6848" fill="none" id="stopChan-to-debugControl" style="stroke:#000000;stroke-width:1;stroke-dasharray:7,7;"/><polygon fill="#000000" points="1619.47,284.5294,1625.4016,276.667,1620.6006,279.6589,1617.6088,274.858,1619.47,284.5294" style="stroke:#000000;stroke-width:1;"/><text fill="#000000" font-family="Verdana" font-size="13" lengthAdjust="spacing" textLength="153.7974" x="1623.53" y="198.9763">closed receiver fallback</text><text fill="#000000" font-family="Verdana" font-size="13" lengthAdjust="spacing" textLength="121.4688" x="1639.6943" y="214.1091">retains DebugStop</text></g><!--link logChan to logRecv--><g class="link" data-entity-1="ent0039" data-entity-2="ent0014" data-link-type="dependency" data-source-line="69" id="lnk54"><path d="M1286.62,154.2794 C1274.68,163.2094 1259.92,172.5894 1245,177.9094 C1207.17,191.3894 1194.18,177.0794 1155,185.9094 C1105.07,197.1594 1092.29,202.0594 1047,225.9094 C1015.22,242.6394 986.7434,263.2095 964.2234,280.8495" fill="none" id="logChan-to-logRecv" style="stroke:#000000;stroke-width:1;"/><polygon fill="#000000" points="959.5,284.5494,969.0517,282.1485,963.4362,281.4661,964.1186,275.8506,959.5,284.5494" style="stroke:#000000;stroke-width:1;"/></g><!--link ioChan to ioRecv--><g class="link" data-entity-1="ent0040" data-entity-2="ent0019" data-link-type="dependency" data-source-line="70" id="lnk55"><path d="M1165.35,154.2394 C1159.09,163.6194 1152.43,174.8894 1148,185.9094 C1134.79,218.7894 1128.9386,253.6526 1125.9386,278.5226" fill="none" id="ioChan-to-ioRecv" style="stroke:#000000;stroke-width:1;"/><polygon fill="#000000" points="1125.22,284.4794,1130.269,276.0232,1125.8188,279.5154,1122.3266,275.0651,1125.22,284.4794" style="stroke:#000000;stroke-width:1;"/></g><!--link stopChan to stopRecv--><g class="link" data-entity-1="ent0041" data-entity-2="ent0024" data-link-type="dependency" data-source-line="71" id="lnk56"><path d="M1437.35,154.1894 C1430.98,163.7494 1423.78,175.1594 1418,185.9094 C1400.07,219.2694 1385.4232,254.3746 1375.7232,279.0746" fill="none" id="stopChan-to-stopRecv" style="stroke:#000000;stroke-width:1;"/><polygon fill="#000000" points="1373.53,284.6594,1380.543,277.7443,1375.3577,280.0054,1373.0966,274.8201,1373.53,284.6594" style="stroke:#000000;stroke-width:1;"/></g><!--link stopRecv to stopCoord--><g class="link" data-entity-1="ent0024" data-entity-2="ent0006" data-link-type="dependency" data-source-line="72" id="lnk57"><path d="M1342.95,284.8194 C1316.5,258.8194 1269.44,218.1894 1219.5,201.9094 C1138.79,175.5994 536.5,176.4894 455.5,201.9094 C403.95,218.0794 358.9622,254.4417 330.9822,280.4817" fill="none" id="stopRecv-to-stopCoord" style="stroke:#000000;stroke-width:1;"/><polygon fill="#000000" points="326.59,284.5694,335.9034,281.366,330.2501,281.163,330.4532,275.5098,326.59,284.5694" style="stroke:#000000;stroke-width:1;"/></g><!--link remotePoller to protocolLoop--><g class="link" data-entity-1="ent0029" data-entity-2="ent0003" data-link-type="dependency" data-source-line="74" id="lnk58"><path d="M634.69,144.3394 C585.97,156.4394 528.26,180.0494 498,225.9094 C475.9,259.4094 493.2972,372.2397 503.8272,429.0897" fill="none" id="remotePoller-to-protocolLoop" style="stroke:#000000;stroke-width:1;stroke-dasharray:7,7;"/><polygon fill="#000000" points="504.92,434.9894,507.214,425.4114,504.0094,430.073,499.3478,426.8684,504.92,434.9894" style="stroke:#000000;stroke-width:1;"/><text fill="#000000" font-family="Verdana" font-size="13" lengthAdjust="spacing" textLength="147.7671" x="499" y="305.1263">stopped/output events</text><text fill="#000000" font-family="Verdana" font-size="13" lengthAdjust="spacing" textLength="92.6567" x="526.5552" y="320.2591">(attach mode)</text></g><!--link remotePoller to stopCoord--><g class="link" data-entity-1="ent0029" data-entity-2="ent0006" data-link-type="dependency" data-source-line="75" id="lnk59"><path d="M635.1,136.6994 C519.56,144.4494 321.74,161.1694 300,185.9094 C276.25,212.9294 283.7038,252.207 292.5038,279.097" fill="none" id="remotePoller-to-stopCoord" style="stroke:#000000;stroke-width:1;stroke-dasharray:7,7;"/><polygon fill="#000000" points="294.37,284.7994,295.3724,275.0017,292.8149,280.0474,287.7691,277.4899,294.37,284.7994" style="stroke:#000000;stroke-width:1;"/><text fill="#000000" font-family="Verdana" font-size="13" lengthAdjust="spacing" textLength="153.7339" x="301" y="206.4763">uses StopGate ordering</text></g><!--link cycleExec to runtime--><g class="link" data-entity-1="ent0034" data-entity-2="ent0042" data-link-type="dependency" data-source-line="78" id="lnk60"><path d="M2102.41,154.2894 C2087.38,162.0994 2073.06,172.4094 2063,185.9094 C2054.9775,196.6794 2049.6925,209.4856 2046.2834,222.6736 C2045.4312,225.9706 2044.6962,229.2914 2044.0649,232.6103 C2043.7493,234.2697 2043.4596,235.9286 2043.1942,237.5838 C2043.0615,238.4114 2042.9349,239.2381 2042.8141,240.0634 C2042.7537,240.4761 2043.5241,234.946 2043.4666,235.358" fill="none" id="cycleExec-to-runtime" style="stroke:#000000;stroke-width:1;"/><polygon fill="#000000" points="2042.6373,241.3004,2047.8428,232.9396,2043.3284,236.3484,2039.9196,231.8339,2042.6373,241.3004" style="stroke:#000000;stroke-width:1;"/><text fill="#000000" font-family="Verdana" font-size="13" lengthAdjust="spacing" textLength="102.4131" x="2064" y="206.4763">execute_cycle()</text></g><!--link logRecv to protocolLoop--><g class="link" data-entity-1="ent0014" data-entity-2="ent0003" data-link-type="dependency" data-source-line="81" id="lnk61"><path d="M899.41,331.4994 C877.22,345.5194 846.62,362.5194 817,371.1994 C767.82,385.6194 633.5,366.8894 587,388.4494 C564.98,398.6694 549.6076,413.5417 536.0476,430.4217" fill="none" id="logRecv-to-protocolLoop" style="stroke:#000000;stroke-width:1;stroke-dasharray:7,7;"/><polygon fill="#000000" points="532.29,435.0994,541.0449,430.588,535.4214,431.2013,534.808,425.5778,532.29,435.0994" style="stroke:#000000;stroke-width:1;"/><text fill="#000000" font-family="Verdana" font-size="13" lengthAdjust="spacing" textLength="84.0366" x="588" y="401.5163">output event</text></g><!--link ioRecv to protocolLoop--><g class="link" data-entity-1="ent0019" data-entity-2="ent0003" data-link-type="dependency" data-source-line="82" id="lnk62"><path d="M1093.49,331.5094 C1074.35,344.9994 1048.35,361.3894 1023,371.1994 C871.06,430.0194 685.2291,452.3893 585.0291,460.7693" fill="none" id="ioRecv-to-protocolLoop" style="stroke:#000000;stroke-width:1;stroke-dasharray:7,7;"/><polygon fill="#000000" points="579.05,461.2694,588.3521,464.5054,584.0326,460.8527,587.6853,456.5332,579.05,461.2694" style="stroke:#000000;stroke-width:1;"/><text fill="#000000" font-family="Verdana" font-size="13" lengthAdjust="spacing" textLength="99.2266" x="970.86" y="401.5163">stIoState event</text></g><!--link stopRecv to protocolLoop--><g class="link" data-entity-1="ent0024" data-entity-2="ent0003" data-link-type="dependency" data-source-line="83" id="lnk63"><path d="M1324.84,331.6294 C1300.14,344.7294 1267.47,360.6694 1237,371.1994 C1169.09,394.6694 1149.94,394.0294 1079,405.4494 C984.28,420.6994 714.2138,446.7896 585.0738,458.8896" fill="none" id="stopRecv-to-protocolLoop" style="stroke:#000000;stroke-width:1;stroke-dasharray:7,7;"/><polygon fill="#000000" points="579.1,459.4494,588.4339,462.5923,584.0782,458.9829,587.6876,454.6272,579.1,459.4494" style="stroke:#000000;stroke-width:1;"/><text fill="#000000" font-family="Verdana" font-size="13" lengthAdjust="spacing" textLength="93.7358" x="1178.92" y="401.5163">stopped event</text></g><!--link stopCoord to protocolLoop--><g class="link" data-entity-1="ent0006" data-entity-2="ent0003" data-link-type="dependency" data-source-line="84" id="lnk64"><path d="M289.35,331.6294 C278.52,352.7794 267.67,384.2294 284,405.4494 C303.39,430.6694 377.5124,446.6101 437.0924,455.9501" fill="none" id="stopCoord-to-protocolLoop" style="stroke:#000000;stroke-width:1;stroke-dasharray:7,7;"/><polygon fill="#000000" points="443.02,456.8794,434.7481,451.5338,438.0803,456.105,433.5091,459.4373,443.02,456.8794" style="stroke:#000000;stroke-width:1;"/><text fill="#000000" font-family="Verdana" font-size="13" lengthAdjust="spacing" textLength="199.3101" x="285" y="401.5163">ordered stopped + invalidated</text></g><!--link runtime to GMN65--><g class="link" data-entity-1="ent0042" data-entity-2="ent0066" data-link-type="association" data-source-line="88" id="lnk67"><path d="M2051.1076,272.1924 C2051.2125,271.8566 2051.3187,271.5197 2051.4261,271.1817 C2051.6409,270.5058 2051.8607,269.8255 2052.0856,269.1415 C2052.9851,266.4053 2053.9658,263.6081 2055.0337,260.7794 C2063.5775,238.1494 2077.705,213.4994 2100.5,201.9094 C2161.91,170.6894 2189.19,183.2294 2255.5,201.9094 C2294.76,212.9594 2333.91,235.6494 2365.06,257.2194" fill="none" id="runtime-GMN65" style="stroke:#000000;stroke-width:1;stroke-dasharray:7,7;"/></g><!--link stopCoord to GMN68--><g class="link" data-entity-1="ent0006" data-entity-2="ent0069" data-link-type="association" data-source-line="97" id="lnk70"><path d="M326.59,284.5694 C354.57,258.5294 403.95,218.0794 455.5,201.9094 C511.42,184.3594 2509.58,184.3594 2565.5,201.9094 C2619.05,218.7094 2670.26,261.7094 2697.57,287.5294" fill="none" id="stopCoord-GMN68" style="stroke:#000000;stroke-width:1;stroke-dasharray:7,7;"/></g><!--link pausedView to GMN71--><g class="link" data-entity-1="ent0008" data-entity-2="ent0072" data-link-type="association" data-source-line="102" id="lnk73"><path d="M141.88,712.2694 C164.22,698.1794 194.74,681.6394 224.5,674.2494 C376.77,636.4394 423.79,642.8294 577.5,674.2494 C615.98,682.1094 656.89,700.6394 685.32,715.3394" fill="none" id="pausedView-GMN71" style="stroke:#000000;stroke-width:1;stroke-dasharray:7,7;"/></g><!--link stopT to GMN74--><g class="link" data-entity-1="ent0023" data-entity-2="ent0075" data-link-type="association" data-source-line="107" id="lnk76"><path d="M1481.0543,285.4222 C1481.1139,285.2768 1481.1737,285.131 1481.234,284.9847 C1482.1975,282.6439 1483.2483,280.183 1484.3877,277.6304 C1486.6664,272.5251 1489.2994,267.0528 1492.2975,261.4406 C1504.29,238.9919 1522.125,214.3044 1546.5,201.9094 C1610.33,169.4494 2767.68,178.9094 2835.5,201.9094 C2885.42,218.8394 2931.46,261.7894 2955.84,287.5694" fill="none" id="stopT-GMN74" style="stroke:#000000;stroke-width:1;stroke-dasharray:7,7;"/></g><?plantuml-src dLRRRkCs47tNLx3fm-Q2s6s1lXYB08ats1f8q2092XG84D3IM28iSLIIIk8j2lIf7z1FwAVjbtI6f6J9qhP5_MGDpmpFN7Z8hrm15OYwb4edTgjqBOsiH8fLZHgqUt2x4aHJbTybYLEE_d-0TPEBoqpM3enuB0p8J5oQj50EKjSOI99QfbkPWpYwfQWHSYIa5HL__ve8-dKxYACxWmvJBCKDOlsaJQEVhSiK7fzufpeky-gXQwPiBLrQF1lufG7heajhFeG7AhUohi5ue6iDXyW7X_KIqMHAIuS1R5lR8VYAWcnhLDhTIas91_YwZb-ZV6LZ8Njmqi5F2bv3ajx6duc7zvCMv-SNmvJQ3xyof3LO6b8OBFKs_AtNiHlC-mqhCNyKNz-el70V3S14yzZX7b9GBp5jSg7l5u_Jw42iqJci5cA9cZ3EXWaYloVz-Oy_1JQkRfo05mfd1rnMF_QfA6oPN9KDZ8aGUi13uJIDUohxUQag6jViILktGj-9IE197t_x_JSLZIfDAZKKp8iiJmQqU3JwnBZ-BRKb6bcEkNcN0Jjs-YzbOizG9_Qe8UjudX4zugOo8fzDbUyUAevxXsKPDpNUyYzSWnllE_8CXZ5bjbkAePsXKxowMr8LCsO_OzBsP2g18TL6wqvCmeRUqbBz6SeINyTSbxkK5Edw3TAcFQGfczWoKLd9DC6ZuTa3ZuaRDThn9ZIv9314Yoegrz8IhsKXYKPfG-JuCQP18__itkRchJq0x7S8KjZ3A9o2S8Lw87-m6KQSqXARp1VAgGhQ4l7_CHq_EClGZI27FSCa-0V4hKSMz6Sacj9kQNXpPPtP1TKaIsjWSk-45_eWfZm7ccu2XTecdUJCPXS36cBHpOkSmdR2JC3mtywjetbvD3A5PB_imJq-XA_8p2OhUEm-NDx52AkCgSQU3cdscR4wnXvIi5QinfZGGuAGWcXPsm9TmlNRYt8l0f-df8qwLOmIIOxfd0MD41kQrJMbIzSXE2hkNZMJBlJ_3-FPT7HYmbwEOb8XFs_fjclJwgpyv-06Ilf2uGaEBh95AmBpWUgJN4X7pIr4XHcSZ8Dq6r04khQiu0G-icgJ3OpIENSsgiY-iKad1fvcUs0MXnh0pl4X4tZHYAD_h2InBbEfz5D8Gh6cCnxSCFlAVRawFMJ8UcftJfoWhSlWEk247dOw9IU-w6WKREAbq7YXmqrR2t_MJqyPMnZKwfFakYrEJ_t2vz__ufVT-rkgrTlxg3qN5uErIv9MbLuXbg5DObFAt7OG6itiHT8WeWbFZha1syID6H2ZNdF6meAch4HcwDRmiojuU3rMS4lwolREXZA9TRFPqAr4hbxkauDCXy-Z9NdGjQS-qH2nCdJpmujdOjszv4GED4o-7AJya6xjx8jRzDvI7EQ1uj6rvEU95AtWvFs25x0vbSFEuQqsuhLGX0lUitzCu344vlfIM8lXRP8RvNRYpAzDCyyRIOaVH0xt8OSUFdzNrykecrv1iPFDMMGFzToJ5VI0BdU27j4HqYF_Dm00?></g></svg>